ISO-10303-21;
HEADER;

/* File generated by Shapr3D Version 26.151.0.11589 */

FILE_DESCRIPTION(('HOOPS Exchange Step'),'2;1');

FILE_NAME('/Users/tdbell11/Library/Containers/com.shapr3d.shapr/Data/tmp/export/temp_export',
'2026-08-30T08:34:15-07:00',
('tysonbell'),
('Shapr3D Limited'),
'HOOPS Exchange 2026.3',
'Shapr3D',
'Authorized');

FILE_SCHEMA( ('AP242_MANAGED_MODEL_BASED_3D_ENGINEERING_MIM_LF {1 0 10303 442 1 1 4}') );

ENDSEC;

DATA;
#3=(NAMED_UNIT(*)PLANE_ANGLE_UNIT()SI_UNIT($,.RADIAN.));
#4=PLANE_ANGLE_MEASURE_WITH_UNIT(PLANE_ANGLE_MEASURE(0.0174532925),#3);
#5=(CONVERSION_BASED_UNIT('DEGREE',#4)NAMED_UNIT(#6)PLANE_ANGLE_UNIT());
#6=DIMENSIONAL_EXPONENTS(0.,0.,0.,0.,0.,0.,0.);
#7=(NAMED_UNIT(*)SI_UNIT($,.STERADIAN.)SOLID_ANGLE_UNIT());
#8=(LENGTH_UNIT()NAMED_UNIT(*)SI_UNIT(.MILLI.,.METRE.));
#9=UNCERTAINTY_MEASURE_WITH_UNIT(LENGTH_MEASURE(1.000000E-05),#8,'DISTANCE_ACCURACY_VALUE','Maximum Tolerance applied to model');
#10=(GEOMETRIC_REPRESENTATION_CONTEXT(3)GLOBAL_UNCERTAINTY_ASSIGNED_CONTEXT((#9))GLOBAL_UNIT_ASSIGNED_CONTEXT((#8,#5,#7))REPRESENTATION_CONTEXT('','root'));
#12=CARTESIAN_POINT('',(0.,0.,0.));
#13=DIRECTION('',(0.,0.,1.));
#14=DIRECTION('',(1.,0.,0.));
#15=AXIS2_PLACEMENT_3D('',#12,#13,#14);
#27=CARTESIAN_POINT('',(367.080523849,10.399089195,3.485330188));
#28=DIRECTION('',(0.,0.,-1.));
#29=DIRECTION('',(-1.,0.,0.));
#30=AXIS2_PLACEMENT_3D('',#27,#28,#29);
#31=PLANE('',#30);
#32=CARTESIAN_POINT('',(226.580523849,10.399089195,3.485330188));
#33=VERTEX_POINT('',#32);
#34=CARTESIAN_POINT('',(249.080523849,10.399089195,3.485330188));
#35=DIRECTION('',(0.,0.,-1.));
#36=DIRECTION('',(-1.,0.,0.));
#37=AXIS2_PLACEMENT_3D('',#34,#35,#36);
#38=CIRCLE('',#37,22.5);
#39=EDGE_CURVE('',#33,#33,#38,.T.);
#40=ORIENTED_EDGE('',*,*,#39,.T.);
#41=EDGE_LOOP('',(#40));
#42=FACE_BOUND('',#41,.T.);
#43=CARTESIAN_POINT('',(222.855523849,10.399089195,3.485330188));
#44=VERTEX_POINT('',#43);
#45=CARTESIAN_POINT('',(249.080523849,10.399089195,3.485330188));
#46=DIRECTION('',(0.,0.,-1.));
#47=DIRECTION('',(-1.,0.,0.));
#48=AXIS2_PLACEMENT_3D('',#45,#46,#47);
#49=CIRCLE('',#48,26.225);
#50=EDGE_CURVE('',#44,#44,#49,.T.);
#51=ORIENTED_EDGE('',*,*,#50,.F.);
#52=EDGE_LOOP('',(#51));
#53=FACE_BOUND('',#52,.T.);
#54=ADVANCED_FACE('',(#42,#53),#31,.F.);
#55=CARTESIAN_POINT('',(367.080523849,10.399089195,2.485330188));
#56=DIRECTION('',(0.,0.,-1.));
#57=DIRECTION('',(-1.,0.,0.));
#58=AXIS2_PLACEMENT_3D('',#55,#56,#57);
#59=PLANE('',#58);
#60=CARTESIAN_POINT('',(226.580523849,10.399089195,2.485330188));
#61=VERTEX_POINT('',#60);
#62=CARTESIAN_POINT('',(249.080523849,10.399089195,2.485330188));
#63=DIRECTION('',(-0.,0.,-1.));
#64=DIRECTION('',(-1.,-0.,0.));
#65=AXIS2_PLACEMENT_3D('',#62,#63,#64);
#66=CIRCLE('',#65,22.5);
#67=EDGE_CURVE('',#61,#61,#66,.T.);
#68=ORIENTED_EDGE('',*,*,#67,.F.);
#69=EDGE_LOOP('',(#68));
#70=FACE_BOUND('',#69,.T.);
#71=CARTESIAN_POINT('',(220.580523849,10.399089195,2.485330188));
#72=VERTEX_POINT('',#71);
#73=CARTESIAN_POINT('',(249.080523849,10.399089195,2.485330188));
#74=DIRECTION('',(-0.,0.,-1.));
#75=DIRECTION('',(-1.,-0.,0.));
#76=AXIS2_PLACEMENT_3D('',#73,#74,#75);
#77=CIRCLE('',#76,28.5);
#78=EDGE_CURVE('',#72,#72,#77,.T.);
#79=ORIENTED_EDGE('',*,*,#78,.T.);
#80=EDGE_LOOP('',(#79));
#81=FACE_BOUND('',#80,.T.);
#82=ADVANCED_FACE('',(#70,#81),#59,.T.);
#83=CARTESIAN_POINT('',(249.080523849,10.399089195,28.885330188));
#84=DIRECTION('',(0.,0.,-1.));
#85=DIRECTION('',(-1.,0.,0.));
#86=AXIS2_PLACEMENT_3D('',#83,#84,#85);
#87=CYLINDRICAL_SURFACE('',#86,22.5);
#88=CARTESIAN_POINT('',(226.580523849,10.399089195,2.485330188));
#89=DIRECTION('',(-0.,-0.,1.));
#90=VECTOR('',#89,1.);
#91=LINE('',#88,#90);
#92=EDGE_CURVE('',#61,#33,#91,.T.);
#93=ORIENTED_EDGE('',*,*,#92,.F.);
#94=ORIENTED_EDGE('',*,*,#67,.T.);
#95=ORIENTED_EDGE('',*,*,#92,.T.);
#96=ORIENTED_EDGE('',*,*,#39,.F.);
#97=EDGE_LOOP('',(#93,#94,#95,#96));
#98=FACE_BOUND('',#97,.T.);
#99=ADVANCED_FACE('',(#98),#87,.F.);
#100=CARTESIAN_POINT('',(249.080523849,10.399089195,12.285330188));
#101=DIRECTION('',(0.,0.,-1.));
#102=DIRECTION('',(-1.,0.,0.));
#103=AXIS2_PLACEMENT_3D('',#100,#101,#102);
#104=CYLINDRICAL_SURFACE('',#103,26.225);
#105=CARTESIAN_POINT('',(222.855523849,10.399089195,17.285330188));
#106=VERTEX_POINT('',#105);
#107=CARTESIAN_POINT('',(222.855523849,10.399089195,3.485330188));
#108=DIRECTION('',(-0.,-0.,1.));
#109=VECTOR('',#108,13.8);
#110=LINE('',#107,#109);
#111=EDGE_CURVE('',#44,#106,#110,.T.);
#112=ORIENTED_EDGE('',*,*,#111,.F.);
#113=ORIENTED_EDGE('',*,*,#50,.T.);
#114=ORIENTED_EDGE('',*,*,#111,.T.);
#115=CARTESIAN_POINT('',(226.123135871,-2.278014665,17.285330188));
#116=VERTEX_POINT('',#115);
#117=CARTESIAN_POINT('',(249.080523849,10.399089195,17.285330188));
#118=DIRECTION('',(0.,0.,1.));
#119=DIRECTION('',(1.,0.,-0.));
#120=AXIS2_PLACEMENT_3D('',#117,#118,#119);
#121=CIRCLE('',#120,26.225);
#122=EDGE_CURVE('',#106,#116,#121,.T.);
#123=ORIENTED_EDGE('',*,*,#122,.T.);
#124=CARTESIAN_POINT('',(226.123135871,-2.278014665,4.185330188));
#125=VERTEX_POINT('',#124);
#126=CARTESIAN_POINT('',(226.123135871,-2.278014665,4.185330188));
#127=DIRECTION('',(-0.,-0.,1.));
#128=VECTOR('',#127,13.1);
#129=LINE('',#126,#128);
#130=EDGE_CURVE('',#125,#116,#129,.T.);
#131=ORIENTED_EDGE('',*,*,#130,.F.);
#132=CARTESIAN_POINT('',(226.623135871,-3.144040068,4.185330188));
#133=VERTEX_POINT('',#132);
#134=CARTESIAN_POINT('',(249.080523849,10.399089195,4.185330188));
#135=DIRECTION('',(0.,0.,1.));
#136=DIRECTION('',(1.,0.,-0.));
#137=AXIS2_PLACEMENT_3D('',#134,#135,#136);
#138=CIRCLE('',#137,26.225);
#139=EDGE_CURVE('',#125,#133,#138,.T.);
#140=ORIENTED_EDGE('',*,*,#139,.T.);
#141=CARTESIAN_POINT('',(226.623135871,-3.144040068,17.285330188));
#142=VERTEX_POINT('',#141);
#143=CARTESIAN_POINT('',(226.623135871,-3.144040068,17.285330188));
#144=DIRECTION('',(0.,0.,-1.));
#145=VECTOR('',#144,13.1);
#146=LINE('',#143,#145);
#147=EDGE_CURVE('',#142,#133,#146,.T.);
#148=ORIENTED_EDGE('',*,*,#147,.F.);
#149=CARTESIAN_POINT('',(271.537911826,-3.144040068,17.285330188));
#150=VERTEX_POINT('',#149);
#151=CARTESIAN_POINT('',(249.080523849,10.399089195,17.285330188));
#152=DIRECTION('',(0.,0.,1.));
#153=DIRECTION('',(1.,0.,-0.));
#154=AXIS2_PLACEMENT_3D('',#151,#152,#153);
#155=CIRCLE('',#154,26.225);
#156=EDGE_CURVE('',#142,#150,#155,.T.);
#157=ORIENTED_EDGE('',*,*,#156,.T.);
#158=CARTESIAN_POINT('',(271.537911826,-3.144040068,4.185330188));
#159=VERTEX_POINT('',#158);
#160=CARTESIAN_POINT('',(271.537911826,-3.144040068,4.185330188));
#161=DIRECTION('',(-0.,-0.,1.));
#162=VECTOR('',#161,13.1);
#163=LINE('',#160,#162);
#164=EDGE_CURVE('',#159,#150,#163,.T.);
#165=ORIENTED_EDGE('',*,*,#164,.F.);
#166=CARTESIAN_POINT('',(272.037911826,-2.278014665,4.185330188));
#167=VERTEX_POINT('',#166);
#168=CARTESIAN_POINT('',(249.080523849,10.399089195,4.185330188));
#169=DIRECTION('',(0.,0.,1.));
#170=DIRECTION('',(1.,0.,-0.));
#171=AXIS2_PLACEMENT_3D('',#168,#169,#170);
#172=CIRCLE('',#171,26.225);
#173=EDGE_CURVE('',#159,#167,#172,.T.);
#174=ORIENTED_EDGE('',*,*,#173,.T.);
#175=CARTESIAN_POINT('',(272.037911826,-2.278014665,17.285330188));
#176=VERTEX_POINT('',#175);
#177=CARTESIAN_POINT('',(272.037911826,-2.278014665,17.285330188));
#178=DIRECTION('',(0.,0.,-1.));
#179=VECTOR('',#178,13.1);
#180=LINE('',#177,#179);
#181=EDGE_CURVE('',#176,#167,#180,.T.);
#182=ORIENTED_EDGE('',*,*,#181,.F.);
#183=CARTESIAN_POINT('',(275.305523849,10.399089195,17.285330188));
#184=VERTEX_POINT('',#183);
#185=CARTESIAN_POINT('',(249.080523849,10.399089195,17.285330188));
#186=DIRECTION('',(0.,0.,1.));
#187=DIRECTION('',(1.,0.,-0.));
#188=AXIS2_PLACEMENT_3D('',#185,#186,#187);
#189=CIRCLE('',#188,26.225);
#190=EDGE_CURVE('',#176,#184,#189,.T.);
#191=ORIENTED_EDGE('',*,*,#190,.T.);
#192=CARTESIAN_POINT('',(272.037911826,23.076193054,17.285330188));
#193=VERTEX_POINT('',#192);
#194=CARTESIAN_POINT('',(249.080523849,10.399089195,17.285330188));
#195=DIRECTION('',(0.,0.,1.));
#196=DIRECTION('',(1.,0.,-0.));
#197=AXIS2_PLACEMENT_3D('',#194,#195,#196);
#198=CIRCLE('',#197,26.225);
#199=EDGE_CURVE('',#184,#193,#198,.T.);
#200=ORIENTED_EDGE('',*,*,#199,.T.);
#201=CARTESIAN_POINT('',(272.037911826,23.076193054,4.185330188));
#202=VERTEX_POINT('',#201);
#203=CARTESIAN_POINT('',(272.037911826,23.076193054,4.185330188));
#204=DIRECTION('',(-0.,-0.,1.));
#205=VECTOR('',#204,13.1);
#206=LINE('',#203,#205);
#207=EDGE_CURVE('',#202,#193,#206,.T.);
#208=ORIENTED_EDGE('',*,*,#207,.F.);
#209=CARTESIAN_POINT('',(271.537911826,23.942218458,4.185330188));
#210=VERTEX_POINT('',#209);
#211=CARTESIAN_POINT('',(249.080523849,10.399089195,4.185330188));
#212=DIRECTION('',(0.,0.,1.));
#213=DIRECTION('',(1.,0.,-0.));
#214=AXIS2_PLACEMENT_3D('',#211,#212,#213);
#215=CIRCLE('',#214,26.225);
#216=EDGE_CURVE('',#202,#210,#215,.T.);
#217=ORIENTED_EDGE('',*,*,#216,.T.);
#218=CARTESIAN_POINT('',(271.537911826,23.942218458,17.285330188));
#219=VERTEX_POINT('',#218);
#220=CARTESIAN_POINT('',(271.537911826,23.942218458,17.285330188));
#221=DIRECTION('',(0.,0.,-1.));
#222=VECTOR('',#221,13.1);
#223=LINE('',#220,#222);
#224=EDGE_CURVE('',#219,#210,#223,.T.);
#225=ORIENTED_EDGE('',*,*,#224,.F.);
#226=CARTESIAN_POINT('',(249.580523849,36.619322317,17.285330188));
#227=VERTEX_POINT('',#226);
#228=CARTESIAN_POINT('',(249.080523849,10.399089195,17.285330188));
#229=DIRECTION('',(0.,0.,1.));
#230=DIRECTION('',(1.,0.,-0.));
#231=AXIS2_PLACEMENT_3D('',#228,#229,#230);
#232=CIRCLE('',#231,26.225);
#233=EDGE_CURVE('',#219,#227,#232,.T.);
#234=ORIENTED_EDGE('',*,*,#233,.T.);
#235=CARTESIAN_POINT('',(249.580523849,36.619322317,4.185330188));
#236=VERTEX_POINT('',#235);
#237=CARTESIAN_POINT('',(249.580523849,36.619322317,4.185330188));
#238=DIRECTION('',(-0.,-0.,1.));
#239=VECTOR('',#238,13.1);
#240=LINE('',#237,#239);
#241=EDGE_CURVE('',#236,#227,#240,.T.);
#242=ORIENTED_EDGE('',*,*,#241,.F.);
#243=CARTESIAN_POINT('',(248.580523849,36.619322317,4.185330188));
#244=VERTEX_POINT('',#243);
#245=CARTESIAN_POINT('',(249.080523849,10.399089195,4.185330188));
#246=DIRECTION('',(0.,0.,1.));
#247=DIRECTION('',(1.,0.,-0.));
#248=AXIS2_PLACEMENT_3D('',#245,#246,#247);
#249=CIRCLE('',#248,26.225);
#250=EDGE_CURVE('',#236,#244,#249,.T.);
#251=ORIENTED_EDGE('',*,*,#250,.T.);
#252=CARTESIAN_POINT('',(248.580523849,36.619322317,17.285330188));
#253=VERTEX_POINT('',#252);
#254=CARTESIAN_POINT('',(248.580523849,36.619322317,17.285330188));
#255=DIRECTION('',(0.,0.,-1.));
#256=VECTOR('',#255,13.1);
#257=LINE('',#254,#256);
#258=EDGE_CURVE('',#253,#244,#257,.T.);
#259=ORIENTED_EDGE('',*,*,#258,.F.);
#260=CARTESIAN_POINT('',(226.623135871,23.942218458,17.285330188));
#261=VERTEX_POINT('',#260);
#262=CARTESIAN_POINT('',(249.080523849,10.399089195,17.285330188));
#263=DIRECTION('',(0.,0.,1.));
#264=DIRECTION('',(1.,0.,-0.));
#265=AXIS2_PLACEMENT_3D('',#262,#263,#264);
#266=CIRCLE('',#265,26.225);
#267=EDGE_CURVE('',#253,#261,#266,.T.);
#268=ORIENTED_EDGE('',*,*,#267,.T.);
#269=CARTESIAN_POINT('',(226.623135871,23.942218458,4.185330188));
#270=VERTEX_POINT('',#269);
#271=CARTESIAN_POINT('',(226.623135871,23.942218458,4.185330188));
#272=DIRECTION('',(-0.,-0.,1.));
#273=VECTOR('',#272,13.1);
#274=LINE('',#271,#273);
#275=EDGE_CURVE('',#270,#261,#274,.T.);
#276=ORIENTED_EDGE('',*,*,#275,.F.);
#277=CARTESIAN_POINT('',(226.123135871,23.076193054,4.185330188));
#278=VERTEX_POINT('',#277);
#279=CARTESIAN_POINT('',(249.080523849,10.399089195,4.185330188));
#280=DIRECTION('',(0.,0.,1.));
#281=DIRECTION('',(1.,0.,-0.));
#282=AXIS2_PLACEMENT_3D('',#279,#280,#281);
#283=CIRCLE('',#282,26.225);
#284=EDGE_CURVE('',#270,#278,#283,.T.);
#285=ORIENTED_EDGE('',*,*,#284,.T.);
#286=CARTESIAN_POINT('',(226.123135871,23.076193054,17.285330188));
#287=VERTEX_POINT('',#286);
#288=CARTESIAN_POINT('',(226.123135871,23.076193054,17.285330188));
#289=DIRECTION('',(0.,0.,-1.));
#290=VECTOR('',#289,13.1);
#291=LINE('',#288,#290);
#292=EDGE_CURVE('',#287,#278,#291,.T.);
#293=ORIENTED_EDGE('',*,*,#292,.F.);
#294=CARTESIAN_POINT('',(249.080523849,10.399089195,17.285330188));
#295=DIRECTION('',(0.,0.,1.));
#296=DIRECTION('',(1.,0.,-0.));
#297=AXIS2_PLACEMENT_3D('',#294,#295,#296);
#298=CIRCLE('',#297,26.225);
#299=EDGE_CURVE('',#287,#106,#298,.T.);
#300=ORIENTED_EDGE('',*,*,#299,.T.);
#301=EDGE_LOOP('',(#112,#113,#114,#123,#131,#140,#148,#157,#165,#174,#182,#191,#200,#208,#217,#225,#234,#242,#251,#259,#268,#276,#285,#293,#300));
#302=FACE_BOUND('',#301,.T.);
#303=ADVANCED_FACE('',(#302),#104,.F.);
#304=CARTESIAN_POINT('',(249.080523849,10.399089195,-5.014669812));
#305=DIRECTION('',(0.,0.,1.));
#306=DIRECTION('',(1.,0.,-0.));
#307=AXIS2_PLACEMENT_3D('',#304,#305,#306);
#308=CYLINDRICAL_SURFACE('',#307,27.6);
#309=CARTESIAN_POINT('',(276.680523849,10.399089195,18.285330188));
#310=VERTEX_POINT('',#309);
#311=CARTESIAN_POINT('',(276.680523849,10.399089195,3.485330188));
#312=VERTEX_POINT('',#311);
#313=CARTESIAN_POINT('',(276.680523849,10.399089195,18.285330188));
#314=DIRECTION('',(-0.,-0.,-1.));
#315=VECTOR('',#314,14.8);
#316=LINE('',#313,#315);
#317=EDGE_CURVE('',#310,#312,#316,.T.);
#318=ORIENTED_EDGE('',*,*,#317,.T.);
#319=CARTESIAN_POINT('',(221.480523849,10.399089195,3.485330188));
#320=VERTEX_POINT('',#319);
#321=CARTESIAN_POINT('',(249.080523849,10.399089195,3.485330188));
#322=DIRECTION('',(-0.,0.,-1.));
#323=DIRECTION('',(-1.,-0.,0.));
#324=AXIS2_PLACEMENT_3D('',#321,#322,#323);
#325=CIRCLE('',#324,27.6);
#326=EDGE_CURVE('',#320,#312,#325,.T.);
#327=ORIENTED_EDGE('',*,*,#326,.F.);
#328=CARTESIAN_POINT('',(249.080523849,10.399089195,3.485330188));
#329=DIRECTION('',(-0.,0.,-1.));
#330=DIRECTION('',(-1.,-0.,0.));
#331=AXIS2_PLACEMENT_3D('',#328,#329,#330);
#332=CIRCLE('',#331,27.6);
#333=EDGE_CURVE('',#312,#320,#332,.T.);
#334=ORIENTED_EDGE('',*,*,#333,.F.);
#335=ORIENTED_EDGE('',*,*,#317,.F.);
#336=CARTESIAN_POINT('',(249.080523849,10.399089195,18.285330188));
#337=DIRECTION('',(0.,0.,1.));
#338=DIRECTION('',(1.,-0.,0.));
#339=AXIS2_PLACEMENT_3D('',#336,#337,#338);
#340=CIRCLE('',#339,27.6);
#341=EDGE_CURVE('',#310,#310,#340,.T.);
#342=ORIENTED_EDGE('',*,*,#341,.F.);
#343=EDGE_LOOP('',(#318,#327,#334,#335,#342));
#344=FACE_BOUND('',#343,.T.);
#345=ADVANCED_FACE('',(#344),#308,.T.);
#346=CARTESIAN_POINT('',(249.080523849,10.399089195,18.285330188));
#347=DIRECTION('',(0.,0.,1.));
#348=DIRECTION('',(1.,0.,0.));
#349=AXIS2_PLACEMENT_3D('',#346,#347,#348);
#350=PLANE('',#349);
#351=CARTESIAN_POINT('',(225.766800772,-3.660460631,18.285330188));
#352=VERTEX_POINT('',#351);
#353=CARTESIAN_POINT('',(276.305523849,10.399089195,18.285330188));
#354=VERTEX_POINT('',#353);
#355=CARTESIAN_POINT('',(249.080523849,10.399089195,18.285330188));
#356=DIRECTION('',(-0.,-0.,-1.));
#357=DIRECTION('',(1.,0.,-0.));
#358=AXIS2_PLACEMENT_3D('',#355,#356,#357);
#359=CIRCLE('',#358,27.225);
#360=EDGE_CURVE('',#352,#354,#359,.T.);
#361=ORIENTED_EDGE('',*,*,#360,.T.);
#362=CARTESIAN_POINT('',(249.080523849,10.399089195,18.285330188));
#363=DIRECTION('',(-0.,-0.,-1.));
#364=DIRECTION('',(1.,0.,-0.));
#365=AXIS2_PLACEMENT_3D('',#362,#363,#364);
#366=CIRCLE('',#365,27.225);
#367=EDGE_CURVE('',#354,#352,#366,.T.);
#368=ORIENTED_EDGE('',*,*,#367,.T.);
#369=EDGE_LOOP('',(#361,#368));
#370=FACE_BOUND('',#369,.T.);
#371=ORIENTED_EDGE('',*,*,#341,.T.);
#372=EDGE_LOOP('',(#371));
#373=FACE_BOUND('',#372,.T.);
#374=ADVANCED_FACE('',(#370,#373),#350,.T.);
#375=CARTESIAN_POINT('',(249.580523849,36.899089195,18.285330188));
#376=DIRECTION('',(1.,0.,0.));
#377=DIRECTION('',(0.,0.,-1.));
#378=AXIS2_PLACEMENT_3D('',#375,#376,#377);
#379=PLANE('',#378);
#380=ORIENTED_EDGE('',*,*,#241,.T.);
#381=CARTESIAN_POINT('',(249.580523849,37.199089195,18.192698612));
#382=VERTEX_POINT('',#381);
#383=CARTESIAN_POINT('',(249.580523849,36.619322317,17.285330188));
#384=CARTESIAN_POINT('',(249.580523849,36.619322317,17.380976925));
#385=CARTESIAN_POINT('',(249.580523849,36.632771545,17.474333133));
#386=CARTESIAN_POINT('',(249.580523849,36.659364769,17.565450793));
#387=CARTESIAN_POINT('',(249.580523849,36.685957994,17.656568454));
#388=CARTESIAN_POINT('',(249.580523849,36.725618489,17.743787443));
#389=CARTESIAN_POINT('',(249.580523849,36.776458687,17.823412931));
#390=CARTESIAN_POINT('',(249.580523849,36.878139082,17.982663905));
#391=CARTESIAN_POINT('',(249.580523849,37.0278108,18.113368116));
#392=CARTESIAN_POINT('',(249.580523849,37.199089195,18.192698612));
#393=B_SPLINE_CURVE_WITH_KNOTS('',3,(#383,#384,#385,#386,#387,#388,#389,#390,#391,#392),.UNSPECIFIED.,.F.,.F.,(4,3,3,4),(0.,0.000282867,0.000565734,0.001131469),.UNSPECIFIED.);
#394=EDGE_CURVE('',#227,#382,#393,.T.);
#395=ORIENTED_EDGE('',*,*,#394,.T.);
#396=CARTESIAN_POINT('',(249.580523849,37.199089195,4.185330188));
#397=VERTEX_POINT('',#396);
#398=CARTESIAN_POINT('',(249.580523849,37.199089195,18.192698612));
#399=DIRECTION('',(0.,0.,-1.));
#400=VECTOR('',#399,14.007368424);
#401=LINE('',#398,#400);
#402=EDGE_CURVE('',#382,#397,#401,.T.);
#403=ORIENTED_EDGE('',*,*,#402,.T.);
#404=CARTESIAN_POINT('',(249.580523849,37.199089195,4.185330188));
#405=DIRECTION('',(0.,-1.,0.));
#406=VECTOR('',#405,0.579766877);
#407=LINE('',#404,#406);
#408=EDGE_CURVE('',#397,#236,#407,.T.);
#409=ORIENTED_EDGE('',*,*,#408,.T.);
#410=EDGE_LOOP('',(#380,#395,#403,#409));
#411=FACE_BOUND('',#410,.T.);
#412=ADVANCED_FACE('',(#411),#379,.F.);
#413=CARTESIAN_POINT('',(249.080523849,37.199089195,18.285330188));
#414=DIRECTION('',(0.,1.,0.));
#415=DIRECTION('',(0.,0.,1.));
#416=AXIS2_PLACEMENT_3D('',#413,#414,#415);
#417=PLANE('',#416);
#418=ORIENTED_EDGE('',*,*,#402,.F.);
#419=CARTESIAN_POINT('',(248.580523849,37.199089195,18.192698612));
#420=VERTEX_POINT('',#419);
#421=CARTESIAN_POINT('',(249.580523849,37.199089195,18.192698612));
#422=CARTESIAN_POINT('',(249.247166952,37.199089195,18.189818017));
#423=CARTESIAN_POINT('',(248.913833622,37.199089195,18.189818424));
#424=CARTESIAN_POINT('',(248.580523849,37.199089195,18.192698612));
#425=B_SPLINE_CURVE_WITH_KNOTS('',3,(#421,#422,#423,#424),.UNSPECIFIED.,.F.,.F.,(4,4),(0.,0.000999967),.UNSPECIFIED.);
#426=EDGE_CURVE('',#382,#420,#425,.T.);
#427=ORIENTED_EDGE('',*,*,#426,.T.);
#428=CARTESIAN_POINT('',(248.580523849,37.199089195,4.185330188));
#429=VERTEX_POINT('',#428);
#430=CARTESIAN_POINT('',(248.580523849,37.199089195,18.192698612));
#431=DIRECTION('',(0.,0.,-1.));
#432=VECTOR('',#431,14.007368424);
#433=LINE('',#430,#432);
#434=EDGE_CURVE('',#420,#429,#433,.T.);
#435=ORIENTED_EDGE('',*,*,#434,.T.);
#436=CARTESIAN_POINT('',(248.580523849,37.199089195,4.185330188));
#437=DIRECTION('',(1.,0.,-0.));
#438=VECTOR('',#437,1.);
#439=LINE('',#436,#438);
#440=EDGE_CURVE('',#429,#397,#439,.T.);
#441=ORIENTED_EDGE('',*,*,#440,.T.);
#442=EDGE_LOOP('',(#418,#427,#435,#441));
#443=FACE_BOUND('',#442,.T.);
#444=ADVANCED_FACE('',(#443),#417,.F.);
#445=CARTESIAN_POINT('',(248.580523849,36.899089195,18.285330188));
#446=DIRECTION('',(-1.,0.,0.));
#447=DIRECTION('',(0.,0.,1.));
#448=AXIS2_PLACEMENT_3D('',#445,#446,#447);
#449=PLANE('',#448);
#450=ORIENTED_EDGE('',*,*,#434,.F.);
#451=CARTESIAN_POINT('',(248.580523849,37.199089195,18.192698612));
#452=CARTESIAN_POINT('',(248.580523849,37.112299854,18.152500655));
#453=CARTESIAN_POINT('',(248.580523849,37.033237678,18.101066416));
#454=CARTESIAN_POINT('',(248.580523849,36.961728472,18.038649197));
#455=CARTESIAN_POINT('',(248.580523849,36.890219265,17.976231979));
#456=CARTESIAN_POINT('',(248.580523849,36.82773403,17.903595684));
#457=CARTESIAN_POINT('',(248.580523849,36.776838384,17.824007147));
#458=CARTESIAN_POINT('',(248.580523849,36.675047091,17.664830072));
#459=CARTESIAN_POINT('',(248.580523849,36.619322317,17.474090013));
#460=CARTESIAN_POINT('',(248.580523849,36.619322317,17.285330188));
#461=B_SPLINE_CURVE_WITH_KNOTS('',3,(#451,#452,#453,#454,#455,#456,#457,#458,#459,#460),.UNSPECIFIED.,.F.,.F.,(4,3,3,4),(0.,0.000282868,0.000565735,0.00113147),.UNSPECIFIED.);
#462=EDGE_CURVE('',#420,#253,#461,.T.);
#463=ORIENTED_EDGE('',*,*,#462,.T.);
#464=ORIENTED_EDGE('',*,*,#258,.T.);
#465=CARTESIAN_POINT('',(248.580523849,36.619322317,4.185330188));
#466=DIRECTION('',(0.,1.,0.));
#467=VECTOR('',#466,0.579766877);
#468=LINE('',#465,#467);
#469=EDGE_CURVE('',#244,#429,#468,.T.);
#470=ORIENTED_EDGE('',*,*,#469,.T.);
#471=EDGE_LOOP('',(#450,#463,#464,#470));
#472=FACE_BOUND('',#471,.T.);
#473=ADVANCED_FACE('',(#472),#449,.F.);
#474=CARTESIAN_POINT('',(249.080523849,6.899089195,4.185330188));
#475=DIRECTION('',(0.,0.,1.));
#476=DIRECTION('',(1.,0.,0.));
#477=AXIS2_PLACEMENT_3D('',#474,#475,#476);
#478=PLANE('',#477);
#479=ORIENTED_EDGE('',*,*,#408,.F.);
#480=ORIENTED_EDGE('',*,*,#440,.F.);
#481=ORIENTED_EDGE('',*,*,#469,.F.);
#482=ORIENTED_EDGE('',*,*,#250,.F.);
#483=EDGE_LOOP('',(#479,#480,#481,#482));
#484=FACE_BOUND('',#483,.T.);
#485=ADVANCED_FACE('',(#484),#478,.T.);
#486=CARTESIAN_POINT('',(272.280197049,23.216076493,18.285330188));
#487=DIRECTION('',(0.5,-0.866025404,0.));
#488=DIRECTION('',(0.,0.,-1.));
#489=AXIS2_PLACEMENT_3D('',#486,#487,#488);
#490=PLANE('',#489);
#491=ORIENTED_EDGE('',*,*,#207,.T.);
#492=CARTESIAN_POINT('',(272.54000467,23.366076493,18.192698612));
#493=VERTEX_POINT('',#492);
#494=CARTESIAN_POINT('',(272.037911826,23.076193054,17.285330188));
#495=CARTESIAN_POINT('',(272.037911826,23.076193054,17.380976925));
#496=CARTESIAN_POINT('',(272.049559198,23.082917668,17.474333133));
#497=CARTESIAN_POINT('',(272.072589606,23.09621428,17.565450793));
#498=CARTESIAN_POINT('',(272.095620014,23.109510892,17.656568454));
#499=CARTESIAN_POINT('',(272.129967011,23.12934114,17.743787443));
#500=CARTESIAN_POINT('',(272.173995914,23.154761239,17.823412931));
#501=CARTESIAN_POINT('',(272.262053719,23.205601437,17.982663905));
#502=CARTESIAN_POINT('',(272.391673229,23.280437296,18.113368116));
#503=CARTESIAN_POINT('',(272.54000467,23.366076493,18.192698612));
#504=B_SPLINE_CURVE_WITH_KNOTS('',3,(#494,#495,#496,#497,#498,#499,#500,#501,#502,#503),.UNSPECIFIED.,.F.,.F.,(4,3,3,4),(0.,0.000282867,0.000565734,0.001131469),.UNSPECIFIED.);
#505=EDGE_CURVE('',#193,#493,#504,.T.);
#506=ORIENTED_EDGE('',*,*,#505,.T.);
#507=CARTESIAN_POINT('',(272.54000467,23.366076493,4.185330188));
#508=VERTEX_POINT('',#507);
#509=CARTESIAN_POINT('',(272.54000467,23.366076493,18.192698612));
#510=DIRECTION('',(0.,0.,-1.));
#511=VECTOR('',#510,14.007368424);
#512=LINE('',#509,#511);
#513=EDGE_CURVE('',#493,#508,#512,.T.);
#514=ORIENTED_EDGE('',*,*,#513,.T.);
#515=CARTESIAN_POINT('',(272.54000467,23.366076493,4.185330188));
#516=DIRECTION('',(-0.866025404,-0.5,0.));
#517=VECTOR('',#516,0.579766877);
#518=LINE('',#515,#517);
#519=EDGE_CURVE('',#508,#202,#518,.T.);
#520=ORIENTED_EDGE('',*,*,#519,.T.);
#521=EDGE_LOOP('',(#491,#506,#514,#520));
#522=FACE_BOUND('',#521,.T.);
#523=ADVANCED_FACE('',(#522),#490,.F.);
#524=CARTESIAN_POINT('',(272.29000467,23.799089195,18.285330188));
#525=DIRECTION('',(0.866025404,0.5,0.));
#526=DIRECTION('',(0.,0.,1.));
#527=AXIS2_PLACEMENT_3D('',#524,#525,#526);
#528=PLANE('',#527);
#529=ORIENTED_EDGE('',*,*,#513,.F.);
#530=CARTESIAN_POINT('',(272.04000467,24.232101897,18.192698612));
#531=VERTEX_POINT('',#530);
#532=CARTESIAN_POINT('',(272.54000467,23.366076493,18.192698612));
#533=CARTESIAN_POINT('',(272.373326221,23.654772034,18.189818017));
#534=CARTESIAN_POINT('',(272.206659556,23.943447166,18.189818424));
#535=CARTESIAN_POINT('',(272.04000467,24.232101897,18.192698612));
#536=B_SPLINE_CURVE_WITH_KNOTS('',3,(#532,#533,#534,#535),.UNSPECIFIED.,.F.,.F.,(4,4),(0.,0.000999967),.UNSPECIFIED.);
#537=EDGE_CURVE('',#493,#531,#536,.T.);
#538=ORIENTED_EDGE('',*,*,#537,.T.);
#539=CARTESIAN_POINT('',(272.04000467,24.232101897,4.185330188));
#540=VERTEX_POINT('',#539);
#541=CARTESIAN_POINT('',(272.04000467,24.232101897,18.192698612));
#542=DIRECTION('',(0.,0.,-1.));
#543=VECTOR('',#542,14.007368424);
#544=LINE('',#541,#543);
#545=EDGE_CURVE('',#531,#540,#544,.T.);
#546=ORIENTED_EDGE('',*,*,#545,.T.);
#547=CARTESIAN_POINT('',(272.04000467,24.232101897,4.185330188));
#548=DIRECTION('',(0.5,-0.866025404,0.));
#549=VECTOR('',#548,1.);
#550=LINE('',#547,#549);
#551=EDGE_CURVE('',#540,#508,#550,.T.);
#552=ORIENTED_EDGE('',*,*,#551,.T.);
#553=EDGE_LOOP('',(#529,#538,#546,#552));
#554=FACE_BOUND('',#553,.T.);
#555=ADVANCED_FACE('',(#554),#528,.F.);
#556=CARTESIAN_POINT('',(271.780197049,24.082101897,18.285330188));
#557=DIRECTION('',(-0.5,0.866025404,0.));
#558=DIRECTION('',(0.,0.,1.));
#559=AXIS2_PLACEMENT_3D('',#556,#557,#558);
#560=PLANE('',#559);
#561=ORIENTED_EDGE('',*,*,#545,.F.);
#562=CARTESIAN_POINT('',(272.04000467,24.232101897,18.192698612));
#563=CARTESIAN_POINT('',(271.964842896,24.188707226,18.152500655));
#564=CARTESIAN_POINT('',(271.896373043,24.149176138,18.101066416));
#565=CARTESIAN_POINT('',(271.834444254,24.113421535,18.038649197));
#566=CARTESIAN_POINT('',(271.772515465,24.077666932,17.976231979));
#567=CARTESIAN_POINT('',(271.718401664,24.046424314,17.903595684));
#568=CARTESIAN_POINT('',(271.674324741,24.020976491,17.824007147));
#569=CARTESIAN_POINT('',(271.586170895,23.970080845,17.664830072));
#570=CARTESIAN_POINT('',(271.537911826,23.942218458,17.474090013));
#571=CARTESIAN_POINT('',(271.537911826,23.942218458,17.285330188));
#572=B_SPLINE_CURVE_WITH_KNOTS('',3,(#562,#563,#564,#565,#566,#567,#568,#569,#570,#571),.UNSPECIFIED.,.F.,.F.,(4,3,3,4),(0.,0.000282868,0.000565735,0.00113147),.UNSPECIFIED.);
#573=EDGE_CURVE('',#531,#219,#572,.T.);
#574=ORIENTED_EDGE('',*,*,#573,.T.);
#575=ORIENTED_EDGE('',*,*,#224,.T.);
#576=CARTESIAN_POINT('',(271.537911826,23.942218458,4.185330188));
#577=DIRECTION('',(0.866025404,0.5,0.));
#578=VECTOR('',#577,0.579766877);
#579=LINE('',#576,#578);
#580=EDGE_CURVE('',#210,#540,#579,.T.);
#581=ORIENTED_EDGE('',*,*,#580,.T.);
#582=EDGE_LOOP('',(#561,#574,#575,#581));
#583=FACE_BOUND('',#582,.T.);
#584=ADVANCED_FACE('',(#583),#560,.F.);
#585=CARTESIAN_POINT('',(246.049434935,8.649089195,4.185330188));
#586=DIRECTION('',(0.,0.,1.));
#587=DIRECTION('',(0.5,-0.866025404,0.));
#588=AXIS2_PLACEMENT_3D('',#585,#586,#587);
#589=PLANE('',#588);
#590=ORIENTED_EDGE('',*,*,#519,.F.);
#591=ORIENTED_EDGE('',*,*,#551,.F.);
#592=ORIENTED_EDGE('',*,*,#580,.F.);
#593=ORIENTED_EDGE('',*,*,#216,.F.);
#594=EDGE_LOOP('',(#590,#591,#592,#593));
#595=FACE_BOUND('',#594,.T.);
#596=ADVANCED_FACE('',(#595),#589,.T.);
#597=CARTESIAN_POINT('',(225.880850648,-2.417898103,18.285330188));
#598=DIRECTION('',(-0.5,0.866025404,0.));
#599=DIRECTION('',(0.,0.,-1.));
#600=AXIS2_PLACEMENT_3D('',#597,#598,#599);
#601=PLANE('',#600);
#602=ORIENTED_EDGE('',*,*,#130,.T.);
#603=CARTESIAN_POINT('',(225.621043027,-2.567898103,18.192698612));
#604=VERTEX_POINT('',#603);
#605=CARTESIAN_POINT('',(226.123135871,-2.278014665,17.285330188));
#606=CARTESIAN_POINT('',(226.123135871,-2.278014665,17.380976925));
#607=CARTESIAN_POINT('',(226.111488499,-2.284739278,17.474333133));
#608=CARTESIAN_POINT('',(226.088458091,-2.298035891,17.565450793));
#609=CARTESIAN_POINT('',(226.065427683,-2.311332503,17.656568454));
#610=CARTESIAN_POINT('',(226.031080686,-2.33116275,17.743787443));
#611=CARTESIAN_POINT('',(225.987051783,-2.356582849,17.823412931));
#612=CARTESIAN_POINT('',(225.898993978,-2.407423047,17.982663905));
#613=CARTESIAN_POINT('',(225.769374468,-2.482258906,18.113368116));
#614=CARTESIAN_POINT('',(225.621043027,-2.567898103,18.192698612));
#615=B_SPLINE_CURVE_WITH_KNOTS('',3,(#605,#606,#607,#608,#609,#610,#611,#612,#613,#614),.UNSPECIFIED.,.F.,.F.,(4,3,3,4),(0.,0.000282867,0.000565734,0.001131469),.UNSPECIFIED.);
#616=EDGE_CURVE('',#116,#604,#615,.T.);
#617=ORIENTED_EDGE('',*,*,#616,.T.);
#618=CARTESIAN_POINT('',(225.621043027,-2.567898103,4.185330188));
#619=VERTEX_POINT('',#618);
#620=CARTESIAN_POINT('',(225.621043027,-2.567898103,18.192698612));
#621=DIRECTION('',(0.,0.,-1.));
#622=VECTOR('',#621,14.007368424);
#623=LINE('',#620,#622);
#624=EDGE_CURVE('',#604,#619,#623,.T.);
#625=ORIENTED_EDGE('',*,*,#624,.T.);
#626=CARTESIAN_POINT('',(225.621043027,-2.567898103,4.185330188));
#627=DIRECTION('',(0.866025404,0.5,0.));
#628=VECTOR('',#627,0.579766877);
#629=LINE('',#626,#628);
#630=EDGE_CURVE('',#619,#125,#629,.T.);
#631=ORIENTED_EDGE('',*,*,#630,.T.);
#632=EDGE_LOOP('',(#602,#617,#625,#631));
#633=FACE_BOUND('',#632,.T.);
#634=ADVANCED_FACE('',(#633),#601,.F.);
#635=CARTESIAN_POINT('',(225.871043027,-3.000910805,18.285330188));
#636=DIRECTION('',(-0.866025404,-0.5,0.));
#637=DIRECTION('',(0.,0.,1.));
#638=AXIS2_PLACEMENT_3D('',#635,#636,#637);
#639=PLANE('',#638);
#640=ORIENTED_EDGE('',*,*,#624,.F.);
#641=CARTESIAN_POINT('',(226.121043027,-3.433923507,18.192698612));
#642=VERTEX_POINT('',#641);
#643=CARTESIAN_POINT('',(225.621043027,-2.567898103,18.192698612));
#644=CARTESIAN_POINT('',(225.787721476,-2.856593645,18.189818017));
#645=CARTESIAN_POINT('',(225.954388141,-3.145268776,18.189818424));
#646=CARTESIAN_POINT('',(226.121043027,-3.433923507,18.192698612));
#647=B_SPLINE_CURVE_WITH_KNOTS('',3,(#643,#644,#645,#646),.UNSPECIFIED.,.F.,.F.,(4,4),(0.,0.000999967),.UNSPECIFIED.);
#648=EDGE_CURVE('',#604,#642,#647,.T.);
#649=ORIENTED_EDGE('',*,*,#648,.T.);
#650=CARTESIAN_POINT('',(226.121043027,-3.433923507,4.185330188));
#651=VERTEX_POINT('',#650);
#652=CARTESIAN_POINT('',(226.121043027,-3.433923507,18.192698612));
#653=DIRECTION('',(0.,0.,-1.));
#654=VECTOR('',#653,14.007368424);
#655=LINE('',#652,#654);
#656=EDGE_CURVE('',#642,#651,#655,.T.);
#657=ORIENTED_EDGE('',*,*,#656,.T.);
#658=CARTESIAN_POINT('',(226.121043027,-3.433923507,4.185330188));
#659=DIRECTION('',(-0.5,0.866025404,0.));
#660=VECTOR('',#659,1.);
#661=LINE('',#658,#660);
#662=EDGE_CURVE('',#651,#619,#661,.T.);
#663=ORIENTED_EDGE('',*,*,#662,.T.);
#664=EDGE_LOOP('',(#640,#649,#657,#663));
#665=FACE_BOUND('',#664,.T.);
#666=ADVANCED_FACE('',(#665),#639,.F.);
#667=CARTESIAN_POINT('',(226.380850648,-3.283923507,18.285330188));
#668=DIRECTION('',(0.5,-0.866025404,0.));
#669=DIRECTION('',(0.,0.,1.));
#670=AXIS2_PLACEMENT_3D('',#667,#668,#669);
#671=PLANE('',#670);
#672=ORIENTED_EDGE('',*,*,#656,.F.);
#673=CARTESIAN_POINT('',(226.121043027,-3.433923507,18.192698612));
#674=CARTESIAN_POINT('',(226.196204801,-3.390528837,18.152500655));
#675=CARTESIAN_POINT('',(226.264674654,-3.350997749,18.101066416));
#676=CARTESIAN_POINT('',(226.326603443,-3.315243145,18.038649197));
#677=CARTESIAN_POINT('',(226.388532232,-3.279488542,17.976231979));
#678=CARTESIAN_POINT('',(226.442646033,-3.248245925,17.903595684));
#679=CARTESIAN_POINT('',(226.486722956,-3.222798102,17.824007147));
#680=CARTESIAN_POINT('',(226.574876802,-3.171902455,17.664830072));
#681=CARTESIAN_POINT('',(226.623135871,-3.144040068,17.474090013));
#682=CARTESIAN_POINT('',(226.623135871,-3.144040068,17.285330188));
#683=B_SPLINE_CURVE_WITH_KNOTS('',3,(#673,#674,#675,#676,#677,#678,#679,#680,#681,#682),.UNSPECIFIED.,.F.,.F.,(4,3,3,4),(0.,0.000282868,0.000565735,0.00113147),.UNSPECIFIED.);
#684=EDGE_CURVE('',#642,#142,#683,.T.);
#685=ORIENTED_EDGE('',*,*,#684,.T.);
#686=ORIENTED_EDGE('',*,*,#147,.T.);
#687=CARTESIAN_POINT('',(226.623135871,-3.144040068,4.185330188));
#688=DIRECTION('',(-0.866025404,-0.5,0.));
#689=VECTOR('',#688,0.579766877);
#690=LINE('',#687,#689);
#691=EDGE_CURVE('',#133,#651,#690,.T.);
#692=ORIENTED_EDGE('',*,*,#691,.T.);
#693=EDGE_LOOP('',(#672,#685,#686,#692));
#694=FACE_BOUND('',#693,.T.);
#695=ADVANCED_FACE('',(#694),#671,.F.);
#696=CARTESIAN_POINT('',(252.111612762,12.149089195,4.185330188));
#697=DIRECTION('',(0.,0.,1.));
#698=DIRECTION('',(-0.5,0.866025404,0.));
#699=AXIS2_PLACEMENT_3D('',#696,#697,#698);
#700=PLANE('',#699);
#701=ORIENTED_EDGE('',*,*,#630,.F.);
#702=ORIENTED_EDGE('',*,*,#662,.F.);
#703=ORIENTED_EDGE('',*,*,#691,.F.);
#704=ORIENTED_EDGE('',*,*,#139,.F.);
#705=EDGE_LOOP('',(#701,#702,#703,#704));
#706=FACE_BOUND('',#705,.T.);
#707=ADVANCED_FACE('',(#706),#700,.T.);
#708=CARTESIAN_POINT('',(226.380850648,24.082101897,18.285330188));
#709=DIRECTION('',(0.5,0.866025404,0.));
#710=DIRECTION('',(0.,0.,-1.));
#711=AXIS2_PLACEMENT_3D('',#708,#709,#710);
#712=PLANE('',#711);
#713=ORIENTED_EDGE('',*,*,#275,.T.);
#714=CARTESIAN_POINT('',(226.121043027,24.232101897,18.192698612));
#715=VERTEX_POINT('',#714);
#716=CARTESIAN_POINT('',(226.623135871,23.942218458,17.285330188));
#717=CARTESIAN_POINT('',(226.623135871,23.942218458,17.380976925));
#718=CARTESIAN_POINT('',(226.611488499,23.948943072,17.474333133));
#719=CARTESIAN_POINT('',(226.588458091,23.962239684,17.565450793));
#720=CARTESIAN_POINT('',(226.565427683,23.975536296,17.656568454));
#721=CARTESIAN_POINT('',(226.531080686,23.995366544,17.743787443));
#722=CARTESIAN_POINT('',(226.487051783,24.020786643,17.823412931));
#723=CARTESIAN_POINT('',(226.398993978,24.071626841,17.982663905));
#724=CARTESIAN_POINT('',(226.269374468,24.1464627,18.113368116));
#725=CARTESIAN_POINT('',(226.121043027,24.232101897,18.192698612));
#726=B_SPLINE_CURVE_WITH_KNOTS('',3,(#716,#717,#718,#719,#720,#721,#722,#723,#724,#725),.UNSPECIFIED.,.F.,.F.,(4,3,3,4),(0.,0.000282867,0.000565734,0.001131469),.UNSPECIFIED.);
#727=EDGE_CURVE('',#261,#715,#726,.T.);
#728=ORIENTED_EDGE('',*,*,#727,.T.);
#729=CARTESIAN_POINT('',(226.121043027,24.232101897,4.185330188));
#730=VERTEX_POINT('',#729);
#731=CARTESIAN_POINT('',(226.121043027,24.232101897,18.192698612));
#732=DIRECTION('',(0.,0.,-1.));
#733=VECTOR('',#732,14.007368424);
#734=LINE('',#731,#733);
#735=EDGE_CURVE('',#715,#730,#734,.T.);
#736=ORIENTED_EDGE('',*,*,#735,.T.);
#737=CARTESIAN_POINT('',(226.121043027,24.232101897,4.185330188));
#738=DIRECTION('',(0.866025404,-0.5,0.));
#739=VECTOR('',#738,0.579766877);
#740=LINE('',#737,#739);
#741=EDGE_CURVE('',#730,#270,#740,.T.);
#742=ORIENTED_EDGE('',*,*,#741,.T.);
#743=EDGE_LOOP('',(#713,#728,#736,#742));
#744=FACE_BOUND('',#743,.T.);
#745=ADVANCED_FACE('',(#744),#712,.F.);
#746=CARTESIAN_POINT('',(225.871043027,23.799089195,18.285330188));
#747=DIRECTION('',(-0.866025404,0.5,0.));
#748=DIRECTION('',(0.,0.,1.));
#749=AXIS2_PLACEMENT_3D('',#746,#747,#748);
#750=PLANE('',#749);
#751=ORIENTED_EDGE('',*,*,#735,.F.);
#752=CARTESIAN_POINT('',(225.621043027,23.366076493,18.192698612));
#753=VERTEX_POINT('',#752);
#754=CARTESIAN_POINT('',(226.121043027,24.232101897,18.192698612));
#755=CARTESIAN_POINT('',(225.954364579,23.943406355,18.189818017));
#756=CARTESIAN_POINT('',(225.787697914,23.654731224,18.189818424));
#757=CARTESIAN_POINT('',(225.621043027,23.366076493,18.192698612));
#758=B_SPLINE_CURVE_WITH_KNOTS('',3,(#754,#755,#756,#757),.UNSPECIFIED.,.F.,.F.,(4,4),(0.,0.000999967),.UNSPECIFIED.);
#759=EDGE_CURVE('',#715,#753,#758,.T.);
#760=ORIENTED_EDGE('',*,*,#759,.T.);
#761=CARTESIAN_POINT('',(225.621043027,23.366076493,4.185330188));
#762=VERTEX_POINT('',#761);
#763=CARTESIAN_POINT('',(225.621043027,23.366076493,18.192698612));
#764=DIRECTION('',(0.,0.,-1.));
#765=VECTOR('',#764,14.007368424);
#766=LINE('',#763,#765);
#767=EDGE_CURVE('',#753,#762,#766,.T.);
#768=ORIENTED_EDGE('',*,*,#767,.T.);
#769=CARTESIAN_POINT('',(225.621043027,23.366076493,4.185330188));
#770=DIRECTION('',(0.5,0.866025404,0.));
#771=VECTOR('',#770,1.);
#772=LINE('',#769,#771);
#773=EDGE_CURVE('',#762,#730,#772,.T.);
#774=ORIENTED_EDGE('',*,*,#773,.T.);
#775=EDGE_LOOP('',(#751,#760,#768,#774));
#776=FACE_BOUND('',#775,.T.);
#777=ADVANCED_FACE('',(#776),#750,.F.);
#778=CARTESIAN_POINT('',(225.880850648,23.216076493,18.285330188));
#779=DIRECTION('',(-0.5,-0.866025404,0.));
#780=DIRECTION('',(0.,0.,1.));
#781=AXIS2_PLACEMENT_3D('',#778,#779,#780);
#782=PLANE('',#781);
#783=ORIENTED_EDGE('',*,*,#767,.F.);
#784=CARTESIAN_POINT('',(225.621043027,23.366076493,18.192698612));
#785=CARTESIAN_POINT('',(225.696204801,23.322681822,18.152500655));
#786=CARTESIAN_POINT('',(225.764674654,23.283150734,18.101066416));
#787=CARTESIAN_POINT('',(225.826603443,23.247396131,18.038649197));
#788=CARTESIAN_POINT('',(225.888532232,23.211641528,17.976231979));
#789=CARTESIAN_POINT('',(225.942646033,23.180398911,17.903595684));
#790=CARTESIAN_POINT('',(225.986722956,23.154951087,17.824007147));
#791=CARTESIAN_POINT('',(226.074876802,23.104055441,17.664830072));
#792=CARTESIAN_POINT('',(226.123135871,23.076193054,17.474090013));
#793=CARTESIAN_POINT('',(226.123135871,23.076193054,17.285330188));
#794=B_SPLINE_CURVE_WITH_KNOTS('',3,(#784,#785,#786,#787,#788,#789,#790,#791,#792,#793),.UNSPECIFIED.,.F.,.F.,(4,3,3,4),(0.,0.000282868,0.000565735,0.00113147),.UNSPECIFIED.);
#795=EDGE_CURVE('',#753,#287,#794,.T.);
#796=ORIENTED_EDGE('',*,*,#795,.T.);
#797=ORIENTED_EDGE('',*,*,#292,.T.);
#798=CARTESIAN_POINT('',(226.123135871,23.076193054,4.185330188));
#799=DIRECTION('',(-0.866025404,0.5,0.));
#800=VECTOR('',#799,0.579766877);
#801=LINE('',#798,#800);
#802=EDGE_CURVE('',#278,#762,#801,.T.);
#803=ORIENTED_EDGE('',*,*,#802,.T.);
#804=EDGE_LOOP('',(#783,#796,#797,#803));
#805=FACE_BOUND('',#804,.T.);
#806=ADVANCED_FACE('',(#805),#782,.F.);
#807=CARTESIAN_POINT('',(252.111612762,8.649089195,4.185330188));
#808=DIRECTION('',(0.,0.,1.));
#809=DIRECTION('',(0.5,0.866025404,0.));
#810=AXIS2_PLACEMENT_3D('',#807,#808,#809);
#811=PLANE('',#810);
#812=ORIENTED_EDGE('',*,*,#741,.F.);
#813=ORIENTED_EDGE('',*,*,#773,.F.);
#814=ORIENTED_EDGE('',*,*,#802,.F.);
#815=ORIENTED_EDGE('',*,*,#284,.F.);
#816=EDGE_LOOP('',(#812,#813,#814,#815));
#817=FACE_BOUND('',#816,.T.);
#818=ADVANCED_FACE('',(#817),#811,.T.);
#819=CARTESIAN_POINT('',(271.780197049,-3.283923507,18.285330188));
#820=DIRECTION('',(-0.5,-0.866025404,0.));
#821=DIRECTION('',(0.,0.,-1.));
#822=AXIS2_PLACEMENT_3D('',#819,#820,#821);
#823=PLANE('',#822);
#824=ORIENTED_EDGE('',*,*,#164,.T.);
#825=CARTESIAN_POINT('',(272.04000467,-3.433923507,18.192698612));
#826=VERTEX_POINT('',#825);
#827=CARTESIAN_POINT('',(271.537911826,-3.144040068,17.285330188));
#828=CARTESIAN_POINT('',(271.537911826,-3.144040068,17.380976925));
#829=CARTESIAN_POINT('',(271.549559198,-3.150764682,17.474333133));
#830=CARTESIAN_POINT('',(271.572589606,-3.164061294,17.565450793));
#831=CARTESIAN_POINT('',(271.595620014,-3.177357907,17.656568454));
#832=CARTESIAN_POINT('',(271.629967011,-3.197188154,17.743787443));
#833=CARTESIAN_POINT('',(271.673995914,-3.222608253,17.823412931));
#834=CARTESIAN_POINT('',(271.762053719,-3.273448451,17.982663905));
#835=CARTESIAN_POINT('',(271.891673229,-3.34828431,18.113368116));
#836=CARTESIAN_POINT('',(272.04000467,-3.433923507,18.192698612));
#837=B_SPLINE_CURVE_WITH_KNOTS('',3,(#827,#828,#829,#830,#831,#832,#833,#834,#835,#836),.UNSPECIFIED.,.F.,.F.,(4,3,3,4),(0.,0.000282867,0.000565734,0.001131469),.UNSPECIFIED.);
#838=EDGE_CURVE('',#150,#826,#837,.T.);
#839=ORIENTED_EDGE('',*,*,#838,.T.);
#840=CARTESIAN_POINT('',(272.04000467,-3.433923507,4.185330188));
#841=VERTEX_POINT('',#840);
#842=CARTESIAN_POINT('',(272.04000467,-3.433923507,18.192698612));
#843=DIRECTION('',(0.,0.,-1.));
#844=VECTOR('',#843,14.007368424);
#845=LINE('',#842,#844);
#846=EDGE_CURVE('',#826,#841,#845,.T.);
#847=ORIENTED_EDGE('',*,*,#846,.T.);
#848=CARTESIAN_POINT('',(272.04000467,-3.433923507,4.185330188));
#849=DIRECTION('',(-0.866025404,0.5,0.));
#850=VECTOR('',#849,0.579766877);
#851=LINE('',#848,#850);
#852=EDGE_CURVE('',#841,#159,#851,.T.);
#853=ORIENTED_EDGE('',*,*,#852,.T.);
#854=EDGE_LOOP('',(#824,#839,#847,#853));
#855=FACE_BOUND('',#854,.T.);
#856=ADVANCED_FACE('',(#855),#823,.F.);
#857=CARTESIAN_POINT('',(272.29000467,-3.000910805,18.285330188));
#858=DIRECTION('',(0.866025404,-0.5,0.));
#859=DIRECTION('',(0.,0.,1.));
#860=AXIS2_PLACEMENT_3D('',#857,#858,#859);
#861=PLANE('',#860);
#862=ORIENTED_EDGE('',*,*,#846,.F.);
#863=CARTESIAN_POINT('',(272.54000467,-2.567898103,18.192698612));
#864=VERTEX_POINT('',#863);
#865=CARTESIAN_POINT('',(272.04000467,-3.433923507,18.192698612));
#866=CARTESIAN_POINT('',(272.206683118,-3.145227966,18.189818017));
#867=CARTESIAN_POINT('',(272.373349783,-2.856552834,18.189818424));
#868=CARTESIAN_POINT('',(272.54000467,-2.567898103,18.192698612));
#869=B_SPLINE_CURVE_WITH_KNOTS('',3,(#865,#866,#867,#868),.UNSPECIFIED.,.F.,.F.,(4,4),(0.,0.000999967),.UNSPECIFIED.);
#870=EDGE_CURVE('',#826,#864,#869,.T.);
#871=ORIENTED_EDGE('',*,*,#870,.T.);
#872=CARTESIAN_POINT('',(272.54000467,-2.567898103,4.185330188));
#873=VERTEX_POINT('',#872);
#874=CARTESIAN_POINT('',(272.54000467,-2.567898103,18.192698612));
#875=DIRECTION('',(0.,0.,-1.));
#876=VECTOR('',#875,14.007368424);
#877=LINE('',#874,#876);
#878=EDGE_CURVE('',#864,#873,#877,.T.);
#879=ORIENTED_EDGE('',*,*,#878,.T.);
#880=CARTESIAN_POINT('',(272.54000467,-2.567898103,4.185330188));
#881=DIRECTION('',(-0.5,-0.866025404,0.));
#882=VECTOR('',#881,1.);
#883=LINE('',#880,#882);
#884=EDGE_CURVE('',#873,#841,#883,.T.);
#885=ORIENTED_EDGE('',*,*,#884,.T.);
#886=EDGE_LOOP('',(#862,#871,#879,#885));
#887=FACE_BOUND('',#886,.T.);
#888=ADVANCED_FACE('',(#887),#861,.F.);
#889=CARTESIAN_POINT('',(272.280197049,-2.417898103,18.285330188));
#890=DIRECTION('',(0.5,0.866025404,0.));
#891=DIRECTION('',(0.,0.,1.));
#892=AXIS2_PLACEMENT_3D('',#889,#890,#891);
#893=PLANE('',#892);
#894=ORIENTED_EDGE('',*,*,#878,.F.);
#895=CARTESIAN_POINT('',(272.54000467,-2.567898103,18.192698612));
#896=CARTESIAN_POINT('',(272.464842896,-2.524503433,18.152500655));
#897=CARTESIAN_POINT('',(272.396373043,-2.484972345,18.101066416));
#898=CARTESIAN_POINT('',(272.334444254,-2.449217742,18.038649197));
#899=CARTESIAN_POINT('',(272.272515465,-2.413463139,17.976231979));
#900=CARTESIAN_POINT('',(272.218401664,-2.382220521,17.903595684));
#901=CARTESIAN_POINT('',(272.174324741,-2.356772698,17.824007147));
#902=CARTESIAN_POINT('',(272.086170895,-2.305877051,17.664830072));
#903=CARTESIAN_POINT('',(272.037911826,-2.278014664,17.474090013));
#904=CARTESIAN_POINT('',(272.037911826,-2.278014665,17.285330188));
#905=B_SPLINE_CURVE_WITH_KNOTS('',3,(#895,#896,#897,#898,#899,#900,#901,#902,#903,#904),.UNSPECIFIED.,.F.,.F.,(4,3,3,4),(0.,0.000282868,0.000565735,0.00113147),.UNSPECIFIED.);
#906=EDGE_CURVE('',#864,#176,#905,.T.);
#907=ORIENTED_EDGE('',*,*,#906,.T.);
#908=ORIENTED_EDGE('',*,*,#181,.T.);
#909=CARTESIAN_POINT('',(272.037911826,-2.278014665,4.185330188));
#910=DIRECTION('',(0.866025404,-0.5,0.));
#911=VECTOR('',#910,0.579766877);
#912=LINE('',#909,#911);
#913=EDGE_CURVE('',#167,#873,#912,.T.);
#914=ORIENTED_EDGE('',*,*,#913,.T.);
#915=EDGE_LOOP('',(#894,#907,#908,#914));
#916=FACE_BOUND('',#915,.T.);
#917=ADVANCED_FACE('',(#916),#893,.F.);
#918=CARTESIAN_POINT('',(246.049434935,12.149089195,4.185330188));
#919=DIRECTION('',(0.,0.,1.));
#920=DIRECTION('',(-0.5,-0.866025404,0.));
#921=AXIS2_PLACEMENT_3D('',#918,#919,#920);
#922=PLANE('',#921);
#923=ORIENTED_EDGE('',*,*,#852,.F.);
#924=ORIENTED_EDGE('',*,*,#884,.F.);
#925=ORIENTED_EDGE('',*,*,#913,.F.);
#926=ORIENTED_EDGE('',*,*,#173,.F.);
#927=EDGE_LOOP('',(#923,#924,#925,#926));
#928=FACE_BOUND('',#927,.T.);
#929=ADVANCED_FACE('',(#928),#922,.T.);
#930=CARTESIAN_POINT('',(249.080523849,10.399089195,17.285330188));
#931=DIRECTION('',(0.,0.,1.));
#932=DIRECTION('',(1.,0.,-0.));
#933=AXIS2_PLACEMENT_3D('',#930,#931,#932);
#934=TOROIDAL_SURFACE('',#933,27.225,1.);
#935=CARTESIAN_POINT('',(276.305523849,10.399089195,17.285330188));
#936=DIRECTION('',(-0.,1.,-0.));
#937=DIRECTION('',(1.,0.,0.));
#938=AXIS2_PLACEMENT_3D('',#935,#936,#937);
#939=CIRCLE('',#938,1.);
#940=EDGE_CURVE('',#184,#354,#939,.T.);
#941=ORIENTED_EDGE('',*,*,#940,.T.);
#942=ORIENTED_EDGE('',*,*,#360,.F.);
#943=ORIENTED_EDGE('',*,*,#367,.F.);
#944=ORIENTED_EDGE('',*,*,#940,.F.);
#945=ORIENTED_EDGE('',*,*,#190,.F.);
#946=ORIENTED_EDGE('',*,*,#906,.F.);
#947=ORIENTED_EDGE('',*,*,#870,.F.);
#948=ORIENTED_EDGE('',*,*,#838,.F.);
#949=ORIENTED_EDGE('',*,*,#156,.F.);
#950=ORIENTED_EDGE('',*,*,#684,.F.);
#951=ORIENTED_EDGE('',*,*,#648,.F.);
#952=ORIENTED_EDGE('',*,*,#616,.F.);
#953=ORIENTED_EDGE('',*,*,#122,.F.);
#954=ORIENTED_EDGE('',*,*,#299,.F.);
#955=ORIENTED_EDGE('',*,*,#795,.F.);
#956=ORIENTED_EDGE('',*,*,#759,.F.);
#957=ORIENTED_EDGE('',*,*,#727,.F.);
#958=ORIENTED_EDGE('',*,*,#267,.F.);
#959=ORIENTED_EDGE('',*,*,#462,.F.);
#960=ORIENTED_EDGE('',*,*,#426,.F.);
#961=ORIENTED_EDGE('',*,*,#394,.F.);
#962=ORIENTED_EDGE('',*,*,#233,.F.);
#963=ORIENTED_EDGE('',*,*,#573,.F.);
#964=ORIENTED_EDGE('',*,*,#537,.F.);
#965=ORIENTED_EDGE('',*,*,#505,.F.);
#966=ORIENTED_EDGE('',*,*,#199,.F.);
#967=EDGE_LOOP('',(#941,#942,#943,#944,#945,#946,#947,#948,#949,#950,#951,#952,#953,#954,#955,#956,#957,#958,#959,#960,#961,#962,#963,#964,#965,#966));
#968=FACE_BOUND('',#967,.T.);
#969=ADVANCED_FACE('',(#968),#934,.T.);
#970=CARTESIAN_POINT('',(249.080523849,10.399089195,3.485330188));
#971=DIRECTION('',(0.,0.,-1.));
#972=DIRECTION('',(-1.,0.,0.));
#973=AXIS2_PLACEMENT_3D('',#970,#971,#972);
#974=CYLINDRICAL_SURFACE('',#973,28.5);
#975=CARTESIAN_POINT('',(220.580523849,10.399089195,3.485330188));
#976=VERTEX_POINT('',#975);
#977=CARTESIAN_POINT('',(220.580523849,10.399089195,2.485330188));
#978=DIRECTION('',(-0.,-0.,1.));
#979=VECTOR('',#978,1.);
#980=LINE('',#977,#979);
#981=EDGE_CURVE('',#72,#976,#980,.T.);
#982=ORIENTED_EDGE('',*,*,#981,.T.);
#983=CARTESIAN_POINT('',(249.080523849,10.399089195,3.485330188));
#984=DIRECTION('',(-0.,0.,-1.));
#985=DIRECTION('',(-1.,-0.,0.));
#986=AXIS2_PLACEMENT_3D('',#983,#984,#985);
#987=CIRCLE('',#986,28.5);
#988=EDGE_CURVE('',#976,#976,#987,.T.);
#989=ORIENTED_EDGE('',*,*,#988,.T.);
#990=ORIENTED_EDGE('',*,*,#981,.F.);
#991=ORIENTED_EDGE('',*,*,#78,.F.);
#992=EDGE_LOOP('',(#982,#989,#990,#991));
#993=FACE_BOUND('',#992,.T.);
#994=ADVANCED_FACE('',(#993),#974,.T.);
#995=CARTESIAN_POINT('',(367.080523849,10.399089195,3.485330188));
#996=DIRECTION('',(0.,0.,-1.));
#997=DIRECTION('',(-1.,0.,0.));
#998=AXIS2_PLACEMENT_3D('',#995,#996,#997);
#999=PLANE('',#998);
#1000=ORIENTED_EDGE('',*,*,#326,.T.);
#1001=ORIENTED_EDGE('',*,*,#333,.T.);
#1002=EDGE_LOOP('',(#1000,#1001));
#1003=FACE_BOUND('',#1002,.T.);
#1004=ORIENTED_EDGE('',*,*,#988,.F.);
#1005=EDGE_LOOP('',(#1004));
#1006=FACE_BOUND('',#1005,.T.);
#1007=ADVANCED_FACE('',(#1003,#1006),#999,.F.);
#1008=CLOSED_SHELL('',(#54,#82,#99,#303,#345,#374,#412,#444,#473,#485,#523,#555,#584,#596,#634,#666,#695,#707,#745,#777,#806,#818,#856,#888,#917,#929,
#969,#994,#1007));
#1009=MANIFOLD_SOLID_BREP('Body 03',#1008);
#1010=COLOUR_RGB('',0.627451003,0.627451003,0.643137276);
#1011=FILL_AREA_STYLE_COLOUR('',#1010);
#1012=FILL_AREA_STYLE('',(#1011));
#1013=SURFACE_STYLE_FILL_AREA(#1012);
#1014=SURFACE_SIDE_STYLE('',(#1013));
#1015=SURFACE_STYLE_USAGE(.BOTH.,#1014);
#1016=PRESENTATION_STYLE_ASSIGNMENT((#1015));
#26=STYLED_ITEM('',(#1016),#1009);
#1017=(NAMED_UNIT(*)PLANE_ANGLE_UNIT()SI_UNIT($,.RADIAN.));
#1018=PLANE_ANGLE_MEASURE_WITH_UNIT(PLANE_ANGLE_MEASURE(0.0174532925),#1017);
#1019=(CONVERSION_BASED_UNIT('DEGREE',#1018)NAMED_UNIT(#1020)PLANE_ANGLE_UNIT());
#1020=DIMENSIONAL_EXPONENTS(0.,0.,0.,0.,0.,0.,0.);
#1021=(NAMED_UNIT(*)SI_UNIT($,.STERADIAN.)SOLID_ANGLE_UNIT());
#1022=(LENGTH_UNIT()NAMED_UNIT(*)SI_UNIT(.MILLI.,.METRE.));
#1023=UNCERTAINTY_MEASURE_WITH_UNIT(LENGTH_MEASURE(1.000000E-03),#1022,'DISTANCE_ACCURACY_VALUE','Maximum Tolerance applied to model');
#1024=(GEOMETRIC_REPRESENTATION_CONTEXT(3)GLOBAL_UNCERTAINTY_ASSIGNED_CONTEXT((#1023))GLOBAL_UNIT_ASSIGNED_CONTEXT((#1022,#1019,#1021))REPRESENTATION_CONTEXT('','obj_4_2-Gang Front Plate.stl'));
#1036=CARTESIAN_POINT('',(0.,0.,0.));
#1037=DIRECTION('',(0.,0.,1.));
#1038=DIRECTION('',(1.,0.,-0.));
#1039=AXIS2_PLACEMENT_3D('',#1036,#1037,#1038);
#1040=ITEM_DEFINED_TRANSFORMATION('','',#1039,#15);
#1041=(REPRESENTATION_RELATIONSHIP('','',#1026,#16)REPRESENTATION_RELATIONSHIP_WITH_TRANSFORMATION(#1040)SHAPE_REPRESENTATION_RELATIONSHIP());
#1042=NEXT_ASSEMBLY_USAGE_OCCURRENCE('obj_4_2-Gang Front Plate.stl_1','obj_4_2-Gang Front Plate.stl','obj_4_2-Gang Front Plate.stl',#25,#1035,$);
#1043=PRODUCT_DEFINITION_SHAPE('','',#1042);
#1044=CONTEXT_DEPENDENT_SHAPE_REPRESENTATION(#1041,#1043);
#1026=SHAPE_REPRESENTATION('obj_4_2-Gang Front Plate.stl',(#15),#1024);
#1045=CARTESIAN_POINT('',(0.,0.,0.));
#1046=DIRECTION('',(0.,0.,1.));
#1047=DIRECTION('',(1.,0.,0.));
#1048=AXIS2_PLACEMENT_3D('',#1045,#1046,#1047);
#1050=MAPPED_ITEM('',#1049,#1048);
#1049=REPRESENTATION_MAP(#1048,#1026);
#1051=APPLICATION_CONTEXT('Managed model based 3d engineering');
#1052=APPLICATION_PROTOCOL_DEFINITION('international standard','ap242_managed_model_based_3d_engineering',2014,#1051);
#1053=PRODUCT_CONTEXT('',#1051,'mechanical');
#1054=PRODUCT_DEFINITION_CONTEXT('part definition',#1051,'design');
#1034=PRODUCT('obj_4_2-Gang Front Plate.stl','obj_4_2-Gang Front Plate.stl','',(#1053));
#1055=PRODUCT_RELATED_PRODUCT_CATEGORY('part','',(#1034));
#1056=PRODUCT_DEFINITION_FORMATION_WITH_SPECIFIED_SOURCE('','',#1034,.NOT_KNOWN.);
#1035=PRODUCT_DEFINITION('design','',#1056,#1054);
#1033=PRODUCT_DEFINITION_SHAPE('','',#1035);
#1057=SHAPE_DEFINITION_REPRESENTATION(#1033,#1026);
#1025=DRAUGHTING_MODEL('',(#1050),#1024);
#1058=(NAMED_UNIT(*)PLANE_ANGLE_UNIT()SI_UNIT($,.RADIAN.));
#1059=PLANE_ANGLE_MEASURE_WITH_UNIT(PLANE_ANGLE_MEASURE(0.0174532925),#1058);
#1060=(CONVERSION_BASED_UNIT('DEGREE',#1059)NAMED_UNIT(#1061)PLANE_ANGLE_UNIT());
#1061=DIMENSIONAL_EXPONENTS(0.,0.,0.,0.,0.,0.,0.);
#1062=(NAMED_UNIT(*)SI_UNIT($,.STERADIAN.)SOLID_ANGLE_UNIT());
#1063=(LENGTH_UNIT()NAMED_UNIT(*)SI_UNIT(.MILLI.,.METRE.));
#1064=UNCERTAINTY_MEASURE_WITH_UNIT(LENGTH_MEASURE(1.000000E-03),#1063,'DISTANCE_ACCURACY_VALUE','Maximum Tolerance applied to model');
#1065=(GEOMETRIC_REPRESENTATION_CONTEXT(3)GLOBAL_UNCERTAINTY_ASSIGNED_CONTEXT((#1064))GLOBAL_UNIT_ASSIGNED_CONTEXT((#1063,#1060,#1062))REPRESENTATION_CONTEXT('','obj_3_2-Gang Adapter Plate.stl'));
#1077=CARTESIAN_POINT('',(0.,0.,0.));
#1078=DIRECTION('',(0.,0.,1.));
#1079=DIRECTION('',(1.,0.,-0.));
#1080=AXIS2_PLACEMENT_3D('',#1077,#1078,#1079);
#1081=ITEM_DEFINED_TRANSFORMATION('','',#1080,#15);
#1082=(REPRESENTATION_RELATIONSHIP('','',#1067,#16)REPRESENTATION_RELATIONSHIP_WITH_TRANSFORMATION(#1081)SHAPE_REPRESENTATION_RELATIONSHIP());
#1083=NEXT_ASSEMBLY_USAGE_OCCURRENCE('obj_3_2-Gang Adapter Plate.stl_2','obj_3_2-Gang Adapter Plate.stl','obj_3_2-Gang Adapter Plate.stl',#25,#1076,$);
#1084=PRODUCT_DEFINITION_SHAPE('','',#1083);
#1085=CONTEXT_DEPENDENT_SHAPE_REPRESENTATION(#1082,#1084);
#1067=SHAPE_REPRESENTATION('obj_3_2-Gang Adapter Plate.stl',(#15),#1065);
#1086=CARTESIAN_POINT('',(0.,0.,0.));
#1087=DIRECTION('',(0.,0.,1.));
#1088=DIRECTION('',(1.,0.,0.));
#1089=AXIS2_PLACEMENT_3D('',#1086,#1087,#1088);
#1091=MAPPED_ITEM('',#1090,#1089);
#1090=REPRESENTATION_MAP(#1089,#1067);
#1075=PRODUCT('obj_3_2-Gang Adapter Plate.stl','obj_3_2-Gang Adapter Plate.stl','',(#1053));
#1092=PRODUCT_RELATED_PRODUCT_CATEGORY('part','',(#1075));
#1093=PRODUCT_DEFINITION_FORMATION_WITH_SPECIFIED_SOURCE('','',#1075,.NOT_KNOWN.);
#1076=PRODUCT_DEFINITION('design','',#1093,#1054);
#1074=PRODUCT_DEFINITION_SHAPE('','',#1076);
#1094=SHAPE_DEFINITION_REPRESENTATION(#1074,#1067);
#1066=DRAUGHTING_MODEL('',(#1091),#1065);
#1095=(NAMED_UNIT(*)PLANE_ANGLE_UNIT()SI_UNIT($,.RADIAN.));
#1096=PLANE_ANGLE_MEASURE_WITH_UNIT(PLANE_ANGLE_MEASURE(0.0174532925),#1095);
#1097=(CONVERSION_BASED_UNIT('DEGREE',#1096)NAMED_UNIT(#1098)PLANE_ANGLE_UNIT());
#1098=DIMENSIONAL_EXPONENTS(0.,0.,0.,0.,0.,0.,0.);
#1099=(NAMED_UNIT(*)SI_UNIT($,.STERADIAN.)SOLID_ANGLE_UNIT());
#1100=(LENGTH_UNIT()NAMED_UNIT(*)SI_UNIT(.MILLI.,.METRE.));
#1101=UNCERTAINTY_MEASURE_WITH_UNIT(LENGTH_MEASURE(1.000000E-03),#1100,'DISTANCE_ACCURACY_VALUE','Maximum Tolerance applied to model');
#1102=(GEOMETRIC_REPRESENTATION_CONTEXT(3)GLOBAL_UNCERTAINTY_ASSIGNED_CONTEXT((#1101))GLOBAL_UNIT_ASSIGNED_CONTEXT((#1100,#1097,#1099))REPRESENTATION_CONTEXT('','obj_1_1-Gang Adapter Plate.stl'));
#1114=CARTESIAN_POINT('',(0.,0.,0.));
#1115=DIRECTION('',(0.,0.,1.));
#1116=DIRECTION('',(1.,0.,-0.));
#1117=AXIS2_PLACEMENT_3D('',#1114,#1115,#1116);
#1118=ITEM_DEFINED_TRANSFORMATION('','',#1117,#15);
#1119=(REPRESENTATION_RELATIONSHIP('','',#1104,#16)REPRESENTATION_RELATIONSHIP_WITH_TRANSFORMATION(#1118)SHAPE_REPRESENTATION_RELATIONSHIP());
#1120=NEXT_ASSEMBLY_USAGE_OCCURRENCE('obj_1_1-Gang Adapter Plate.stl_3','obj_1_1-Gang Adapter Plate.stl','obj_1_1-Gang Adapter Plate.stl',#25,#1113,$);
#1121=PRODUCT_DEFINITION_SHAPE('','',#1120);
#1122=CONTEXT_DEPENDENT_SHAPE_REPRESENTATION(#1119,#1121);
#1104=SHAPE_REPRESENTATION('obj_1_1-Gang Adapter Plate.stl',(#15),#1102);
#1123=CARTESIAN_POINT('',(0.,0.,0.));
#1124=DIRECTION('',(0.,0.,1.));
#1125=DIRECTION('',(1.,0.,0.));
#1126=AXIS2_PLACEMENT_3D('',#1123,#1124,#1125);
#1128=MAPPED_ITEM('',#1127,#1126);
#1127=REPRESENTATION_MAP(#1126,#1104);
#1112=PRODUCT('obj_1_1-Gang Adapter Plate.stl','obj_1_1-Gang Adapter Plate.stl','',(#1053));
#1129=PRODUCT_RELATED_PRODUCT_CATEGORY('part','',(#1112));
#1130=PRODUCT_DEFINITION_FORMATION_WITH_SPECIFIED_SOURCE('','',#1112,.NOT_KNOWN.);
#1113=PRODUCT_DEFINITION('design','',#1130,#1054);
#1111=PRODUCT_DEFINITION_SHAPE('','',#1113);
#1131=SHAPE_DEFINITION_REPRESENTATION(#1111,#1104);
#1103=DRAUGHTING_MODEL('',(#1128),#1102);
#1132=(NAMED_UNIT(*)PLANE_ANGLE_UNIT()SI_UNIT($,.RADIAN.));
#1133=PLANE_ANGLE_MEASURE_WITH_UNIT(PLANE_ANGLE_MEASURE(0.0174532925),#1132);
#1134=(CONVERSION_BASED_UNIT('DEGREE',#1133)NAMED_UNIT(#1135)PLANE_ANGLE_UNIT());
#1135=DIMENSIONAL_EXPONENTS(0.,0.,0.,0.,0.,0.,0.);
#1136=(NAMED_UNIT(*)SI_UNIT($,.STERADIAN.)SOLID_ANGLE_UNIT());
#1137=(LENGTH_UNIT()NAMED_UNIT(*)SI_UNIT(.MILLI.,.METRE.));
#1138=UNCERTAINTY_MEASURE_WITH_UNIT(LENGTH_MEASURE(1.000000E-03),#1137,'DISTANCE_ACCURACY_VALUE','Maximum Tolerance applied to model');
#1139=(GEOMETRIC_REPRESENTATION_CONTEXT(3)GLOBAL_UNCERTAINTY_ASSIGNED_CONTEXT((#1138))GLOBAL_UNIT_ASSIGNED_CONTEXT((#1137,#1134,#1136))REPRESENTATION_CONTEXT('','Round Casing (Imported)'));
#1151=CARTESIAN_POINT('',(0.,0.,0.));
#1152=DIRECTION('',(0.,0.,1.));
#1153=DIRECTION('',(1.,0.,-0.));
#1154=AXIS2_PLACEMENT_3D('',#1151,#1152,#1153);
#1155=ITEM_DEFINED_TRANSFORMATION('','',#1154,#15);
#1156=(REPRESENTATION_RELATIONSHIP('','',#1141,#16)REPRESENTATION_RELATIONSHIP_WITH_TRANSFORMATION(#1155)SHAPE_REPRESENTATION_RELATIONSHIP());
#1157=NEXT_ASSEMBLY_USAGE_OCCURRENCE('Round Casing (Imported)_4','Round Casing (Imported)','Round Casing (Imported)',#25,#1150,$);
#1158=PRODUCT_DEFINITION_SHAPE('','',#1157);
#1159=CONTEXT_DEPENDENT_SHAPE_REPRESENTATION(#1156,#1158);
#1160=(NAMED_UNIT(*)PLANE_ANGLE_UNIT()SI_UNIT($,.RADIAN.));
#1161=PLANE_ANGLE_MEASURE_WITH_UNIT(PLANE_ANGLE_MEASURE(0.0174532925),#1160);
#1162=(CONVERSION_BASED_UNIT('DEGREE',#1161)NAMED_UNIT(#1163)PLANE_ANGLE_UNIT());
#1163=DIMENSIONAL_EXPONENTS(0.,0.,0.,0.,0.,0.,0.);
#1164=(NAMED_UNIT(*)SI_UNIT($,.STERADIAN.)SOLID_ANGLE_UNIT());
#1165=(LENGTH_UNIT()NAMED_UNIT(*)SI_UNIT(.MILLI.,.METRE.));
#1166=UNCERTAINTY_MEASURE_WITH_UNIT(LENGTH_MEASURE(1.000000E-03),#1165,'DISTANCE_ACCURACY_VALUE','Maximum Tolerance applied to model');
#1167=(GEOMETRIC_REPRESENTATION_CONTEXT(3)GLOBAL_UNCERTAINTY_ASSIGNED_CONTEXT((#1166))GLOBAL_UNIT_ASSIGNED_CONTEXT((#1165,#1162,#1164))REPRESENTATION_CONTEXT('','Wall Mount v4.shapr'));
#1179=CARTESIAN_POINT('',(0.,0.,0.));
#1180=DIRECTION('',(0.,0.,1.));
#1181=DIRECTION('',(1.,0.,-0.));
#1182=AXIS2_PLACEMENT_3D('',#1179,#1180,#1181);
#1183=ITEM_DEFINED_TRANSFORMATION('','',#1182,#15);
#1184=(REPRESENTATION_RELATIONSHIP('','',#1169,#1141)REPRESENTATION_RELATIONSHIP_WITH_TRANSFORMATION(#1183)SHAPE_REPRESENTATION_RELATIONSHIP());
#1185=NEXT_ASSEMBLY_USAGE_OCCURRENCE('Wall Mount v4.shapr_5','Wall Mount v4.shapr','Wall Mount v4.shapr',#1150,#1178,$);
#1186=PRODUCT_DEFINITION_SHAPE('','',#1185);
#1187=CONTEXT_DEPENDENT_SHAPE_REPRESENTATION(#1184,#1186);
#1169=SHAPE_REPRESENTATION('Wall Mount v4.shapr',(#15),#1167);
#1188=CARTESIAN_POINT('',(0.,0.,0.));
#1189=DIRECTION('',(0.,0.,1.));
#1190=DIRECTION('',(1.,0.,0.));
#1191=AXIS2_PLACEMENT_3D('',#1188,#1189,#1190);
#1193=MAPPED_ITEM('',#1192,#1191);
#1192=REPRESENTATION_MAP(#1191,#1169);
#1177=PRODUCT('Wall Mount v4.shapr','Wall Mount v4.shapr','',(#1053));
#1194=PRODUCT_RELATED_PRODUCT_CATEGORY('part','',(#1177));
#1195=PRODUCT_DEFINITION_FORMATION_WITH_SPECIFIED_SOURCE('','',#1177,.NOT_KNOWN.);
#1178=PRODUCT_DEFINITION('design','',#1195,#1054);
#1176=PRODUCT_DEFINITION_SHAPE('','',#1178);
#1196=SHAPE_DEFINITION_REPRESENTATION(#1176,#1169);
#1168=DRAUGHTING_MODEL('',(#1193),#1167);
#1141=SHAPE_REPRESENTATION('Round Casing (Imported)',(#15,#1182),#1139);
#1197=CARTESIAN_POINT('',(0.,0.,0.));
#1198=DIRECTION('',(0.,0.,1.));
#1199=DIRECTION('',(1.,0.,0.));
#1200=AXIS2_PLACEMENT_3D('',#1197,#1198,#1199);
#1202=MAPPED_ITEM('',#1201,#1200);
#1201=REPRESENTATION_MAP(#1200,#1141);
#1149=PRODUCT('Round Casing (Imported)','Round Casing (Imported)','',(#1053));
#1203=PRODUCT_RELATED_PRODUCT_CATEGORY('part','',(#1149));
#1204=PRODUCT_DEFINITION_FORMATION_WITH_SPECIFIED_SOURCE('','',#1149,.NOT_KNOWN.);
#1150=PRODUCT_DEFINITION('design','',#1204,#1054);
#1148=PRODUCT_DEFINITION_SHAPE('','',#1150);
#1205=SHAPE_DEFINITION_REPRESENTATION(#1148,#1141);
#1140=DRAUGHTING_MODEL('',(#1202),#1139);
#16=SHAPE_REPRESENTATION('root',(#15,#1039,#1080,#1117,#1154),#10);
#17=ADVANCED_BREP_SHAPE_REPRESENTATION('root',(#1009),#10);
#1213=SHAPE_REPRESENTATION_RELATIONSHIP('','',#16,#17);
#1214=CARTESIAN_POINT('',(0.,0.,0.));
#1215=DIRECTION('',(0.,0.,1.));
#1216=DIRECTION('',(1.,0.,0.));
#1217=AXIS2_PLACEMENT_3D('',#1214,#1215,#1216);
#1219=MAPPED_ITEM('',#1218,#1217);
#1218=REPRESENTATION_MAP(#1217,#16);
#24=PRODUCT('root','root','',(#1053));
#1220=PRODUCT_RELATED_PRODUCT_CATEGORY('part','',(#24));
#1221=PRODUCT_DEFINITION_FORMATION_WITH_SPECIFIED_SOURCE('','',#24,.NOT_KNOWN.);
#25=PRODUCT_DEFINITION('design','',#1221,#1054);
#23=PRODUCT_DEFINITION_SHAPE('','',#25);
#1222=SHAPE_DEFINITION_REPRESENTATION(#23,#16);
#11=DRAUGHTING_MODEL('',(#1219),#10);
#1223=DESCRIPTIVE_REPRESENTATION_ITEM('KEY','/Users/tdbell11/Library/Containers/com.shapr3d.shapr/Data/tmp/E7335D41-8437-473B-9666-F81DE0422894.tmp');
#1224=PROPERTY_DEFINITION('KEY','',#25);
#1225=REPRESENTATION('',(#1223),#10);
#1226=PROPERTY_DEFINITION_REPRESENTATION(#1224,#1225);
#1227=GENERAL_PROPERTY('','KEY','');
#1228=GENERAL_PROPERTY_ASSOCIATION('','',#1227,#1224);
#1=MECHANICAL_DESIGN_GEOMETRIC_PRESENTATION_REPRESENTATION('',(#26),#10);
ENDSEC;
END-ISO-10303-21;
