ISO-10303-21;
HEADER;

/* File generated by Shapr3D Version 26.150.0.11562 */

FILE_DESCRIPTION(('HOOPS Exchange Step'),'2;1');

FILE_NAME('/Users/tdbell11/Library/Containers/com.shapr3d.shapr/Data/tmp/export/temp_export',
'2026-08-29T15:35:22-07:00',
('tysonbell'),
('Shapr3D Limited'),
'HOOPS Exchange 2026.3',
'Shapr3D',
'Authorized');

FILE_SCHEMA( ('AP242_MANAGED_MODEL_BASED_3D_ENGINEERING_MIM_LF {1 0 10303 442 1 1 4}') );

ENDSEC;

DATA;
#3=(NAMED_UNIT(*)PLANE_ANGLE_UNIT()SI_UNIT($,.RADIAN.));
#4=PLANE_ANGLE_MEASURE_WITH_UNIT(PLANE_ANGLE_MEASURE(0.0174532925),#3);
#5=(CONVERSION_BASED_UNIT('DEGREE',#4)NAMED_UNIT(#6)PLANE_ANGLE_UNIT());
#6=DIMENSIONAL_EXPONENTS(0.,0.,0.,0.,0.,0.,0.);
#7=(NAMED_UNIT(*)SI_UNIT($,.STERADIAN.)SOLID_ANGLE_UNIT());
#8=(LENGTH_UNIT()NAMED_UNIT(*)SI_UNIT(.MILLI.,.METRE.));
#9=UNCERTAINTY_MEASURE_WITH_UNIT(LENGTH_MEASURE(1.000000E-05),#8,'DISTANCE_ACCURACY_VALUE','Maximum Tolerance applied to model');
#10=(GEOMETRIC_REPRESENTATION_CONTEXT(3)GLOBAL_UNCERTAINTY_ASSIGNED_CONTEXT((#9))GLOBAL_UNIT_ASSIGNED_CONTEXT((#8,#5,#7))REPRESENTATION_CONTEXT('','root'));
#12=CARTESIAN_POINT('',(0.,0.,0.));
#13=DIRECTION('',(0.,0.,1.));
#14=DIRECTION('',(1.,0.,0.));
#15=AXIS2_PLACEMENT_3D('TS3D_PRODUCT_CSYS',#12,#13,#14);
#27=CARTESIAN_POINT('',(35.,0.,14.1));
#28=DIRECTION('',(1.,0.,0.));
#29=DIRECTION('',(0.,0.,-1.));
#30=AXIS2_PLACEMENT_3D('',#27,#28,#29);
#31=PLANE('',#30);
#32=CARTESIAN_POINT('',(35.,57.9,4.));
#33=VERTEX_POINT('',#32);
#34=CARTESIAN_POINT('',(35.,-57.9,4.));
#35=VERTEX_POINT('',#34);
#36=CARTESIAN_POINT('',(35.,57.9,4.));
#37=DIRECTION('',(0.,-1.,0.));
#38=VECTOR('',#37,115.8);
#39=LINE('',#36,#38);
#40=EDGE_CURVE('',#33,#35,#39,.T.);
#41=ORIENTED_EDGE('',*,*,#40,.F.);
#42=CARTESIAN_POINT('',(35.,57.9,11.6));
#43=VERTEX_POINT('',#42);
#44=CARTESIAN_POINT('',(35.,57.9,4.));
#45=DIRECTION('',(-0.,-0.,1.));
#46=VECTOR('',#45,7.6);
#47=LINE('',#44,#46);
#48=EDGE_CURVE('',#33,#43,#47,.T.);
#49=ORIENTED_EDGE('',*,*,#48,.T.);
#50=CARTESIAN_POINT('',(35.,-57.9,11.6));
#51=VERTEX_POINT('',#50);
#52=CARTESIAN_POINT('',(35.,57.9,11.6));
#53=DIRECTION('',(0.,-1.,0.));
#54=VECTOR('',#53,115.8);
#55=LINE('',#52,#54);
#56=EDGE_CURVE('',#43,#51,#55,.T.);
#57=ORIENTED_EDGE('',*,*,#56,.T.);
#58=CARTESIAN_POINT('',(35.,-57.9,11.6));
#59=DIRECTION('',(0.,0.,-1.));
#60=VECTOR('',#59,7.6);
#61=LINE('',#58,#60);
#62=EDGE_CURVE('',#51,#35,#61,.T.);
#63=ORIENTED_EDGE('',*,*,#62,.T.);
#64=EDGE_LOOP('',(#41,#49,#57,#63));
#65=FACE_BOUND('',#64,.T.);
#66=ADVANCED_FACE('',(#65),#31,.T.);
#67=CARTESIAN_POINT('',(-0.,59.5,14.1));
#68=DIRECTION('',(0.,1.,0.));
#69=DIRECTION('',(0.,0.,1.));
#70=AXIS2_PLACEMENT_3D('',#67,#68,#69);
#71=PLANE('',#70);
#72=CARTESIAN_POINT('',(-33.4,59.5,11.6));
#73=VERTEX_POINT('',#72);
#74=CARTESIAN_POINT('',(33.4,59.5,11.6));
#75=VERTEX_POINT('',#74);
#76=CARTESIAN_POINT('',(-33.4,59.5,11.6));
#77=DIRECTION('',(1.,0.,-0.));
#78=VECTOR('',#77,66.8);
#79=LINE('',#76,#78);
#80=EDGE_CURVE('',#73,#75,#79,.T.);
#81=ORIENTED_EDGE('',*,*,#80,.T.);
#82=CARTESIAN_POINT('',(33.4,59.5,4.));
#83=VERTEX_POINT('',#82);
#84=CARTESIAN_POINT('',(33.4,59.5,11.6));
#85=DIRECTION('',(0.,0.,-1.));
#86=VECTOR('',#85,7.6);
#87=LINE('',#84,#86);
#88=EDGE_CURVE('',#75,#83,#87,.T.);
#89=ORIENTED_EDGE('',*,*,#88,.T.);
#90=CARTESIAN_POINT('',(-33.4,59.5,4.));
#91=VERTEX_POINT('',#90);
#92=CARTESIAN_POINT('',(-33.4,59.5,4.));
#93=DIRECTION('',(1.,0.,-0.));
#94=VECTOR('',#93,66.8);
#95=LINE('',#92,#94);
#96=EDGE_CURVE('',#91,#83,#95,.T.);
#97=ORIENTED_EDGE('',*,*,#96,.F.);
#98=CARTESIAN_POINT('',(-33.4,59.5,4.));
#99=DIRECTION('',(-0.,-0.,1.));
#100=VECTOR('',#99,7.6);
#101=LINE('',#98,#100);
#102=EDGE_CURVE('',#91,#73,#101,.T.);
#103=ORIENTED_EDGE('',*,*,#102,.T.);
#104=EDGE_LOOP('',(#81,#89,#97,#103));
#105=FACE_BOUND('',#104,.T.);
#106=ADVANCED_FACE('',(#105),#71,.T.);
#107=CARTESIAN_POINT('',(-35.,0.,14.1));
#108=DIRECTION('',(-1.,-0.,0.));
#109=DIRECTION('',(0.,-1.,0.));
#110=AXIS2_PLACEMENT_3D('',#107,#108,#109);
#111=PLANE('',#110);
#112=CARTESIAN_POINT('',(-35.,-57.9,11.6));
#113=VERTEX_POINT('',#112);
#114=CARTESIAN_POINT('',(-35.,57.9,11.6));
#115=VERTEX_POINT('',#114);
#116=CARTESIAN_POINT('',(-35.,-57.9,11.6));
#117=DIRECTION('',(-0.,1.,0.));
#118=VECTOR('',#117,115.8);
#119=LINE('',#116,#118);
#120=EDGE_CURVE('',#113,#115,#119,.T.);
#121=ORIENTED_EDGE('',*,*,#120,.T.);
#122=CARTESIAN_POINT('',(-35.,57.9,4.));
#123=VERTEX_POINT('',#122);
#124=CARTESIAN_POINT('',(-35.,57.9,11.6));
#125=DIRECTION('',(0.,0.,-1.));
#126=VECTOR('',#125,7.6);
#127=LINE('',#124,#126);
#128=EDGE_CURVE('',#115,#123,#127,.T.);
#129=ORIENTED_EDGE('',*,*,#128,.T.);
#130=CARTESIAN_POINT('',(-35.,-57.9,4.));
#131=VERTEX_POINT('',#130);
#132=CARTESIAN_POINT('',(-35.,-57.9,4.));
#133=DIRECTION('',(-0.,1.,0.));
#134=VECTOR('',#133,115.8);
#135=LINE('',#132,#134);
#136=EDGE_CURVE('',#131,#123,#135,.T.);
#137=ORIENTED_EDGE('',*,*,#136,.F.);
#138=CARTESIAN_POINT('',(-35.,-57.9,4.));
#139=DIRECTION('',(-0.,-0.,1.));
#140=VECTOR('',#139,7.6);
#141=LINE('',#138,#140);
#142=EDGE_CURVE('',#131,#113,#141,.T.);
#143=ORIENTED_EDGE('',*,*,#142,.T.);
#144=EDGE_LOOP('',(#121,#129,#137,#143));
#145=FACE_BOUND('',#144,.T.);
#146=ADVANCED_FACE('',(#145),#111,.T.);
#147=CARTESIAN_POINT('',(0.,-59.5,14.1));
#148=DIRECTION('',(0.,-1.,0.));
#149=DIRECTION('',(1.,0.,0.));
#150=AXIS2_PLACEMENT_3D('',#147,#148,#149);
#151=PLANE('',#150);
#152=CARTESIAN_POINT('',(33.4,-59.5,11.6));
#153=VERTEX_POINT('',#152);
#154=CARTESIAN_POINT('',(-33.4,-59.5,11.6));
#155=VERTEX_POINT('',#154);
#156=CARTESIAN_POINT('',(33.4,-59.5,11.6));
#157=DIRECTION('',(-1.,0.,0.));
#158=VECTOR('',#157,66.8);
#159=LINE('',#156,#158);
#160=EDGE_CURVE('',#153,#155,#159,.T.);
#161=ORIENTED_EDGE('',*,*,#160,.T.);
#162=CARTESIAN_POINT('',(-33.4,-59.5,4.));
#163=VERTEX_POINT('',#162);
#164=CARTESIAN_POINT('',(-33.4,-59.5,11.6));
#165=DIRECTION('',(0.,0.,-1.));
#166=VECTOR('',#165,7.6);
#167=LINE('',#164,#166);
#168=EDGE_CURVE('',#155,#163,#167,.T.);
#169=ORIENTED_EDGE('',*,*,#168,.T.);
#170=CARTESIAN_POINT('',(33.4,-59.5,4.));
#171=VERTEX_POINT('',#170);
#172=CARTESIAN_POINT('',(33.4,-59.5,4.));
#173=DIRECTION('',(-1.,-0.,0.));
#174=VECTOR('',#173,66.8);
#175=LINE('',#172,#174);
#176=EDGE_CURVE('',#171,#163,#175,.T.);
#177=ORIENTED_EDGE('',*,*,#176,.F.);
#178=CARTESIAN_POINT('',(33.4,-59.5,4.));
#179=DIRECTION('',(-0.,-0.,1.));
#180=VECTOR('',#179,7.6);
#181=LINE('',#178,#180);
#182=EDGE_CURVE('',#171,#153,#181,.T.);
#183=ORIENTED_EDGE('',*,*,#182,.T.);
#184=EDGE_LOOP('',(#161,#169,#177,#183));
#185=FACE_BOUND('',#184,.T.);
#186=ADVANCED_FACE('',(#185),#151,.T.);
#187=CARTESIAN_POINT('',(0.,0.,20.1));
#188=DIRECTION('',(0.,0.,1.));
#189=DIRECTION('',(1.,0.,0.));
#190=AXIS2_PLACEMENT_3D('',#187,#188,#189);
#191=PLANE('',#190);
#192=CARTESIAN_POINT('',(11.323752194,-24.811226491,20.1));
#193=VERTEX_POINT('',#192);
#194=CARTESIAN_POINT('',(-0.569820302,-28.708161042,20.1));
#195=VERTEX_POINT('',#194);
#196=CARTESIAN_POINT('',(0.184195866,-10.911188592,20.1));
#197=DIRECTION('',(-0.,-0.,-1.));
#198=DIRECTION('',(1.,0.,-0.));
#199=AXIS2_PLACEMENT_3D('',#196,#197,#198);
#200=CIRCLE('',#199,17.812938241);
#201=EDGE_CURVE('',#193,#195,#200,.T.);
#202=ORIENTED_EDGE('',*,*,#201,.T.);
#203=CARTESIAN_POINT('',(-12.545622116,-24.201526841,20.1));
#204=VERTEX_POINT('',#203);
#205=CARTESIAN_POINT('',(-0.833477811,-11.243402008,20.1));
#206=DIRECTION('',(-0.,-0.,-1.));
#207=DIRECTION('',(1.,0.,-0.));
#208=AXIS2_PLACEMENT_3D('',#205,#206,#207);
#209=CIRCLE('',#208,17.46674908);
#210=EDGE_CURVE('',#195,#204,#209,.T.);
#211=ORIENTED_EDGE('',*,*,#210,.T.);
#212=CARTESIAN_POINT('',(-12.631647376,-24.117257505,20.1));
#213=VERTEX_POINT('',#212);
#214=CARTESIAN_POINT('',(-11.539812943,-23.088716028,20.1));
#215=DIRECTION('',(-0.,-0.,-1.));
#216=DIRECTION('',(1.,0.,-0.));
#217=AXIS2_PLACEMENT_3D('',#214,#215,#216);
#218=CIRCLE('',#217,1.5);
#219=EDGE_CURVE('',#204,#213,#218,.T.);
#220=ORIENTED_EDGE('',*,*,#219,.T.);
#221=CARTESIAN_POINT('',(27.225,-0.,20.1));
#222=VERTEX_POINT('',#221);
#223=CARTESIAN_POINT('',(0.,0.,20.1));
#224=DIRECTION('',(-0.,-0.,-1.));
#225=DIRECTION('',(1.,0.,-0.));
#226=AXIS2_PLACEMENT_3D('',#223,#224,#225);
#227=CIRCLE('',#226,27.225);
#228=EDGE_CURVE('',#213,#222,#227,.T.);
#229=ORIENTED_EDGE('',*,*,#228,.T.);
#230=CARTESIAN_POINT('',(11.445505222,-24.702247574,20.1));
#231=VERTEX_POINT('',#230);
#232=CARTESIAN_POINT('',(0.,0.,20.1));
#233=DIRECTION('',(-0.,-0.,-1.));
#234=DIRECTION('',(1.,0.,-0.));
#235=AXIS2_PLACEMENT_3D('',#232,#233,#234);
#236=CIRCLE('',#235,27.225);
#237=EDGE_CURVE('',#222,#231,#236,.T.);
#238=ORIENTED_EDGE('',*,*,#237,.T.);
#239=CARTESIAN_POINT('',(10.385707371,-23.640725782,20.1));
#240=DIRECTION('',(-0.,-0.,-1.));
#241=DIRECTION('',(1.,0.,-0.));
#242=AXIS2_PLACEMENT_3D('',#239,#240,#241);
#243=CIRCLE('',#242,1.5);
#244=EDGE_CURVE('',#231,#193,#243,.T.);
#245=ORIENTED_EDGE('',*,*,#244,.T.);
#246=EDGE_LOOP('',(#202,#211,#220,#229,#238,#245));
#247=FACE_BOUND('',#246,.T.);
#248=CARTESIAN_POINT('',(29.4,0.,20.1));
#249=VERTEX_POINT('',#248);
#250=CARTESIAN_POINT('',(0.,0.,20.1));
#251=DIRECTION('',(0.,0.,1.));
#252=DIRECTION('',(1.,0.,-0.));
#253=AXIS2_PLACEMENT_3D('',#250,#251,#252);
#254=CIRCLE('',#253,29.4);
#255=EDGE_CURVE('',#249,#249,#254,.T.);
#256=ORIENTED_EDGE('',*,*,#255,.T.);
#257=EDGE_LOOP('',(#256));
#258=FACE_BOUND('',#257,.T.);
#259=ADVANCED_FACE('',(#247,#258),#191,.T.);
#260=CARTESIAN_POINT('',(0.,0.,7.));
#261=DIRECTION('',(0.,0.,1.));
#262=DIRECTION('',(1.,0.,0.));
#263=AXIS2_PLACEMENT_3D('',#260,#261,#262);
#264=PLANE('',#263);
#265=CARTESIAN_POINT('',(22.957387977,12.677103859,7.));
#266=VERTEX_POINT('',#265);
#267=CARTESIAN_POINT('',(22.457387977,13.543129263,7.));
#268=VERTEX_POINT('',#267);
#269=CARTESIAN_POINT('',(0.,0.,7.));
#270=DIRECTION('',(0.,0.,1.));
#271=DIRECTION('',(1.,0.,-0.));
#272=AXIS2_PLACEMENT_3D('',#269,#270,#271);
#273=CIRCLE('',#272,26.225);
#274=EDGE_CURVE('',#266,#268,#273,.T.);
#275=ORIENTED_EDGE('',*,*,#274,.T.);
#276=CARTESIAN_POINT('',(0.5,26.220233123,7.));
#277=VERTEX_POINT('',#276);
#278=CARTESIAN_POINT('',(0.,0.,7.));
#279=DIRECTION('',(0.,0.,1.));
#280=DIRECTION('',(1.,0.,-0.));
#281=AXIS2_PLACEMENT_3D('',#278,#279,#280);
#282=CIRCLE('',#281,26.225);
#283=EDGE_CURVE('',#268,#277,#282,.T.);
#284=ORIENTED_EDGE('',*,*,#283,.T.);
#285=CARTESIAN_POINT('',(-0.5,26.220233123,7.));
#286=VERTEX_POINT('',#285);
#287=CARTESIAN_POINT('',(0.,0.,7.));
#288=DIRECTION('',(0.,0.,1.));
#289=DIRECTION('',(1.,0.,-0.));
#290=AXIS2_PLACEMENT_3D('',#287,#288,#289);
#291=CIRCLE('',#290,26.225);
#292=EDGE_CURVE('',#277,#286,#291,.T.);
#293=ORIENTED_EDGE('',*,*,#292,.T.);
#294=CARTESIAN_POINT('',(-22.457387977,13.543129263,7.));
#295=VERTEX_POINT('',#294);
#296=CARTESIAN_POINT('',(0.,0.,7.));
#297=DIRECTION('',(0.,0.,1.));
#298=DIRECTION('',(1.,0.,-0.));
#299=AXIS2_PLACEMENT_3D('',#296,#297,#298);
#300=CIRCLE('',#299,26.225);
#301=EDGE_CURVE('',#286,#295,#300,.T.);
#302=ORIENTED_EDGE('',*,*,#301,.T.);
#303=CARTESIAN_POINT('',(-22.957387977,12.677103859,7.));
#304=VERTEX_POINT('',#303);
#305=CARTESIAN_POINT('',(0.,0.,7.));
#306=DIRECTION('',(0.,0.,1.));
#307=DIRECTION('',(1.,0.,-0.));
#308=AXIS2_PLACEMENT_3D('',#305,#306,#307);
#309=CIRCLE('',#308,26.225);
#310=EDGE_CURVE('',#295,#304,#309,.T.);
#311=ORIENTED_EDGE('',*,*,#310,.T.);
#312=CARTESIAN_POINT('',(-26.225,0.,7.));
#313=VERTEX_POINT('',#312);
#314=CARTESIAN_POINT('',(0.,0.,7.));
#315=DIRECTION('',(0.,0.,1.));
#316=DIRECTION('',(1.,0.,-0.));
#317=AXIS2_PLACEMENT_3D('',#314,#315,#316);
#318=CIRCLE('',#317,26.225);
#319=EDGE_CURVE('',#304,#313,#318,.T.);
#320=ORIENTED_EDGE('',*,*,#319,.T.);
#321=CARTESIAN_POINT('',(-22.957387977,-12.677103859,7.));
#322=VERTEX_POINT('',#321);
#323=CARTESIAN_POINT('',(0.,0.,7.));
#324=DIRECTION('',(0.,0.,1.));
#325=DIRECTION('',(1.,0.,-0.));
#326=AXIS2_PLACEMENT_3D('',#323,#324,#325);
#327=CIRCLE('',#326,26.225);
#328=EDGE_CURVE('',#313,#322,#327,.T.);
#329=ORIENTED_EDGE('',*,*,#328,.T.);
#330=CARTESIAN_POINT('',(-22.457387977,-13.543129263,7.));
#331=VERTEX_POINT('',#330);
#332=CARTESIAN_POINT('',(0.,0.,7.));
#333=DIRECTION('',(0.,0.,1.));
#334=DIRECTION('',(1.,0.,-0.));
#335=AXIS2_PLACEMENT_3D('',#332,#333,#334);
#336=CIRCLE('',#335,26.225);
#337=EDGE_CURVE('',#322,#331,#336,.T.);
#338=ORIENTED_EDGE('',*,*,#337,.T.);
#339=CARTESIAN_POINT('',(22.457387977,-13.543129263,7.));
#340=VERTEX_POINT('',#339);
#341=CARTESIAN_POINT('',(0.,0.,7.));
#342=DIRECTION('',(0.,0.,1.));
#343=DIRECTION('',(1.,0.,-0.));
#344=AXIS2_PLACEMENT_3D('',#341,#342,#343);
#345=CIRCLE('',#344,26.225);
#346=EDGE_CURVE('',#331,#340,#345,.T.);
#347=ORIENTED_EDGE('',*,*,#346,.T.);
#348=CARTESIAN_POINT('',(22.957387977,-12.677103859,7.));
#349=VERTEX_POINT('',#348);
#350=CARTESIAN_POINT('',(0.,0.,7.));
#351=DIRECTION('',(0.,0.,1.));
#352=DIRECTION('',(1.,0.,-0.));
#353=AXIS2_PLACEMENT_3D('',#350,#351,#352);
#354=CIRCLE('',#353,26.225);
#355=EDGE_CURVE('',#340,#349,#354,.T.);
#356=ORIENTED_EDGE('',*,*,#355,.T.);
#357=CARTESIAN_POINT('',(0.,0.,7.));
#358=DIRECTION('',(0.,0.,1.));
#359=DIRECTION('',(1.,0.,-0.));
#360=AXIS2_PLACEMENT_3D('',#357,#358,#359);
#361=CIRCLE('',#360,26.225);
#362=EDGE_CURVE('',#349,#266,#361,.T.);
#363=ORIENTED_EDGE('',*,*,#362,.T.);
#364=EDGE_LOOP('',(#275,#284,#293,#302,#311,#320,#329,#338,#347,#356,#363));
#365=FACE_BOUND('',#364,.T.);
#366=CARTESIAN_POINT('',(-12.,22.,7.));
#367=VERTEX_POINT('',#366);
#368=CARTESIAN_POINT('',(12.,22.,7.));
#369=VERTEX_POINT('',#368);
#370=CARTESIAN_POINT('',(-12.,22.,7.));
#371=DIRECTION('',(1.,0.,0.));
#372=VECTOR('',#371,24.);
#373=LINE('',#370,#372);
#374=EDGE_CURVE('',#367,#369,#373,.T.);
#375=ORIENTED_EDGE('',*,*,#374,.T.);
#376=CARTESIAN_POINT('',(12.,9.,7.));
#377=VERTEX_POINT('',#376);
#378=CARTESIAN_POINT('',(12.,22.,7.));
#379=DIRECTION('',(0.,-1.,0.));
#380=VECTOR('',#379,13.);
#381=LINE('',#378,#380);
#382=EDGE_CURVE('',#369,#377,#381,.T.);
#383=ORIENTED_EDGE('',*,*,#382,.T.);
#384=CARTESIAN_POINT('',(-12.,9.,7.));
#385=VERTEX_POINT('',#384);
#386=CARTESIAN_POINT('',(12.,9.,7.));
#387=DIRECTION('',(-1.,-0.,0.));
#388=VECTOR('',#387,24.);
#389=LINE('',#386,#388);
#390=EDGE_CURVE('',#377,#385,#389,.T.);
#391=ORIENTED_EDGE('',*,*,#390,.T.);
#392=CARTESIAN_POINT('',(-12.,9.,7.));
#393=DIRECTION('',(-0.,1.,0.));
#394=VECTOR('',#393,13.);
#395=LINE('',#392,#394);
#396=EDGE_CURVE('',#385,#367,#395,.T.);
#397=ORIENTED_EDGE('',*,*,#396,.T.);
#398=EDGE_LOOP('',(#375,#383,#391,#397));
#399=FACE_BOUND('',#398,.T.);
#400=ADVANCED_FACE('',(#365,#399),#264,.T.);
#401=CARTESIAN_POINT('',(0.,0.,4.));
#402=DIRECTION('',(0.,0.,1.));
#403=DIRECTION('',(1.,0.,0.));
#404=AXIS2_PLACEMENT_3D('',#401,#402,#403);
#405=PLANE('',#404);
#406=ORIENTED_EDGE('',*,*,#96,.T.);
#407=CARTESIAN_POINT('',(33.4,57.9,4.));
#408=DIRECTION('',(-0.,-0.,-1.));
#409=DIRECTION('',(1.,0.,-0.));
#410=AXIS2_PLACEMENT_3D('',#407,#408,#409);
#411=CIRCLE('',#410,1.6);
#412=EDGE_CURVE('',#83,#33,#411,.T.);
#413=ORIENTED_EDGE('',*,*,#412,.T.);
#414=ORIENTED_EDGE('',*,*,#40,.T.);
#415=CARTESIAN_POINT('',(33.4,-57.9,4.));
#416=DIRECTION('',(-0.,-0.,-1.));
#417=DIRECTION('',(1.,0.,-0.));
#418=AXIS2_PLACEMENT_3D('',#415,#416,#417);
#419=CIRCLE('',#418,1.6);
#420=EDGE_CURVE('',#35,#171,#419,.T.);
#421=ORIENTED_EDGE('',*,*,#420,.T.);
#422=ORIENTED_EDGE('',*,*,#176,.T.);
#423=CARTESIAN_POINT('',(-33.4,-57.9,4.));
#424=DIRECTION('',(-0.,-0.,-1.));
#425=DIRECTION('',(1.,0.,-0.));
#426=AXIS2_PLACEMENT_3D('',#423,#424,#425);
#427=CIRCLE('',#426,1.6);
#428=EDGE_CURVE('',#163,#131,#427,.T.);
#429=ORIENTED_EDGE('',*,*,#428,.T.);
#430=ORIENTED_EDGE('',*,*,#136,.T.);
#431=CARTESIAN_POINT('',(-33.4,57.9,4.));
#432=DIRECTION('',(-0.,-0.,-1.));
#433=DIRECTION('',(1.,0.,-0.));
#434=AXIS2_PLACEMENT_3D('',#431,#432,#433);
#435=CIRCLE('',#434,1.6);
#436=EDGE_CURVE('',#123,#91,#435,.T.);
#437=ORIENTED_EDGE('',*,*,#436,.T.);
#438=EDGE_LOOP('',(#406,#413,#414,#421,#422,#429,#430,#437));
#439=FACE_BOUND('',#438,.T.);
#440=CARTESIAN_POINT('',(-12.,6.,4.));
#441=VERTEX_POINT('',#440);
#442=CARTESIAN_POINT('',(-12.,22.,4.));
#443=VERTEX_POINT('',#442);
#444=CARTESIAN_POINT('',(-12.,6.,4.));
#445=DIRECTION('',(-0.,1.,0.));
#446=VECTOR('',#445,16.);
#447=LINE('',#444,#446);
#448=EDGE_CURVE('',#441,#443,#447,.T.);
#449=ORIENTED_EDGE('',*,*,#448,.F.);
#450=CARTESIAN_POINT('',(12.,6.,4.));
#451=VERTEX_POINT('',#450);
#452=CARTESIAN_POINT('',(-12.,6.,4.));
#453=DIRECTION('',(1.,0.,0.));
#454=VECTOR('',#453,24.);
#455=LINE('',#452,#454);
#456=EDGE_CURVE('',#441,#451,#455,.T.);
#457=ORIENTED_EDGE('',*,*,#456,.T.);
#458=CARTESIAN_POINT('',(12.,22.,4.));
#459=VERTEX_POINT('',#458);
#460=CARTESIAN_POINT('',(12.,22.,4.));
#461=DIRECTION('',(0.,-1.,0.));
#462=VECTOR('',#461,16.);
#463=LINE('',#460,#462);
#464=EDGE_CURVE('',#459,#451,#463,.T.);
#465=ORIENTED_EDGE('',*,*,#464,.F.);
#466=CARTESIAN_POINT('',(12.,22.,4.));
#467=DIRECTION('',(-1.,-0.,-0.));
#468=VECTOR('',#467,24.);
#469=LINE('',#466,#468);
#470=EDGE_CURVE('',#459,#443,#469,.T.);
#471=ORIENTED_EDGE('',*,*,#470,.T.);
#472=EDGE_LOOP('',(#449,#457,#465,#471));
#473=FACE_BOUND('',#472,.T.);
#474=ADVANCED_FACE('',(#439,#473),#405,.F.);
#475=CARTESIAN_POINT('',(0.,0.,6.));
#476=DIRECTION('',(0.,0.,-1.));
#477=DIRECTION('',(-1.,0.,0.));
#478=AXIS2_PLACEMENT_3D('',#475,#476,#477);
#479=CYLINDRICAL_SURFACE('',#478,26.225);
#480=CARTESIAN_POINT('',(22.457387977,-13.543129263,6.));
#481=VERTEX_POINT('',#480);
#482=CARTESIAN_POINT('',(22.457387977,-13.543129263,6.));
#483=DIRECTION('',(-0.,-0.,1.));
#484=VECTOR('',#483,1.);
#485=LINE('',#482,#484);
#486=EDGE_CURVE('',#481,#340,#485,.T.);
#487=ORIENTED_EDGE('',*,*,#486,.F.);
#488=CARTESIAN_POINT('',(22.957387977,-12.677103859,6.));
#489=VERTEX_POINT('',#488);
#490=CARTESIAN_POINT('',(0.,0.,6.));
#491=DIRECTION('',(0.,0.,1.));
#492=DIRECTION('',(1.,0.,-0.));
#493=AXIS2_PLACEMENT_3D('',#490,#491,#492);
#494=CIRCLE('',#493,26.225);
#495=EDGE_CURVE('',#481,#489,#494,.T.);
#496=ORIENTED_EDGE('',*,*,#495,.T.);
#497=CARTESIAN_POINT('',(22.957387977,-12.677103859,7.));
#498=DIRECTION('',(0.,0.,-1.));
#499=VECTOR('',#498,1.);
#500=LINE('',#497,#499);
#501=EDGE_CURVE('',#349,#489,#500,.T.);
#502=ORIENTED_EDGE('',*,*,#501,.F.);
#503=ORIENTED_EDGE('',*,*,#355,.F.);
#504=EDGE_LOOP('',(#487,#496,#502,#503));
#505=FACE_BOUND('',#504,.T.);
#506=ADVANCED_FACE('',(#505),#479,.T.);
#507=CARTESIAN_POINT('',(0.,0.,6.));
#508=DIRECTION('',(0.,0.,-1.));
#509=DIRECTION('',(-1.,0.,0.));
#510=AXIS2_PLACEMENT_3D('',#507,#508,#509);
#511=CYLINDRICAL_SURFACE('',#510,26.225);
#512=CARTESIAN_POINT('',(22.957387977,12.677103859,6.));
#513=VERTEX_POINT('',#512);
#514=CARTESIAN_POINT('',(22.957387977,12.677103859,6.));
#515=DIRECTION('',(-0.,-0.,1.));
#516=VECTOR('',#515,1.);
#517=LINE('',#514,#516);
#518=EDGE_CURVE('',#513,#266,#517,.T.);
#519=ORIENTED_EDGE('',*,*,#518,.F.);
#520=CARTESIAN_POINT('',(22.457387977,13.543129263,6.));
#521=VERTEX_POINT('',#520);
#522=CARTESIAN_POINT('',(0.,0.,6.));
#523=DIRECTION('',(0.,0.,1.));
#524=DIRECTION('',(1.,0.,-0.));
#525=AXIS2_PLACEMENT_3D('',#522,#523,#524);
#526=CIRCLE('',#525,26.225);
#527=EDGE_CURVE('',#513,#521,#526,.T.);
#528=ORIENTED_EDGE('',*,*,#527,.T.);
#529=CARTESIAN_POINT('',(22.457387977,13.543129263,7.));
#530=DIRECTION('',(0.,0.,-1.));
#531=VECTOR('',#530,1.);
#532=LINE('',#529,#531);
#533=EDGE_CURVE('',#268,#521,#532,.T.);
#534=ORIENTED_EDGE('',*,*,#533,.F.);
#535=ORIENTED_EDGE('',*,*,#274,.F.);
#536=EDGE_LOOP('',(#519,#528,#534,#535));
#537=FACE_BOUND('',#536,.T.);
#538=ADVANCED_FACE('',(#537),#511,.T.);
#539=CARTESIAN_POINT('',(0.,0.,6.));
#540=DIRECTION('',(0.,0.,-1.));
#541=DIRECTION('',(-1.,0.,0.));
#542=AXIS2_PLACEMENT_3D('',#539,#540,#541);
#543=CYLINDRICAL_SURFACE('',#542,26.225);
#544=CARTESIAN_POINT('',(0.5,26.220233123,6.));
#545=VERTEX_POINT('',#544);
#546=CARTESIAN_POINT('',(0.5,26.220233123,6.));
#547=DIRECTION('',(-0.,-0.,1.));
#548=VECTOR('',#547,1.);
#549=LINE('',#546,#548);
#550=EDGE_CURVE('',#545,#277,#549,.T.);
#551=ORIENTED_EDGE('',*,*,#550,.F.);
#552=CARTESIAN_POINT('',(-0.5,26.220233123,6.));
#553=VERTEX_POINT('',#552);
#554=CARTESIAN_POINT('',(0.,0.,6.));
#555=DIRECTION('',(0.,0.,1.));
#556=DIRECTION('',(1.,0.,-0.));
#557=AXIS2_PLACEMENT_3D('',#554,#555,#556);
#558=CIRCLE('',#557,26.225);
#559=EDGE_CURVE('',#545,#553,#558,.T.);
#560=ORIENTED_EDGE('',*,*,#559,.T.);
#561=CARTESIAN_POINT('',(-0.5,26.220233123,7.));
#562=DIRECTION('',(0.,0.,-1.));
#563=VECTOR('',#562,1.);
#564=LINE('',#561,#563);
#565=EDGE_CURVE('',#286,#553,#564,.T.);
#566=ORIENTED_EDGE('',*,*,#565,.F.);
#567=ORIENTED_EDGE('',*,*,#292,.F.);
#568=EDGE_LOOP('',(#551,#560,#566,#567));
#569=FACE_BOUND('',#568,.T.);
#570=ADVANCED_FACE('',(#569),#543,.T.);
#571=CARTESIAN_POINT('',(0.,0.,6.));
#572=DIRECTION('',(0.,0.,-1.));
#573=DIRECTION('',(-1.,0.,0.));
#574=AXIS2_PLACEMENT_3D('',#571,#572,#573);
#575=CYLINDRICAL_SURFACE('',#574,26.225);
#576=CARTESIAN_POINT('',(-22.457387977,13.543129263,6.));
#577=VERTEX_POINT('',#576);
#578=CARTESIAN_POINT('',(-22.457387977,13.543129263,6.));
#579=DIRECTION('',(-0.,-0.,1.));
#580=VECTOR('',#579,1.);
#581=LINE('',#578,#580);
#582=EDGE_CURVE('',#577,#295,#581,.T.);
#583=ORIENTED_EDGE('',*,*,#582,.F.);
#584=CARTESIAN_POINT('',(-22.957387977,12.677103859,6.));
#585=VERTEX_POINT('',#584);
#586=CARTESIAN_POINT('',(0.,0.,6.));
#587=DIRECTION('',(0.,0.,1.));
#588=DIRECTION('',(1.,0.,-0.));
#589=AXIS2_PLACEMENT_3D('',#586,#587,#588);
#590=CIRCLE('',#589,26.225);
#591=EDGE_CURVE('',#577,#585,#590,.T.);
#592=ORIENTED_EDGE('',*,*,#591,.T.);
#593=CARTESIAN_POINT('',(-22.957387977,12.677103859,7.));
#594=DIRECTION('',(0.,0.,-1.));
#595=VECTOR('',#594,1.);
#596=LINE('',#593,#595);
#597=EDGE_CURVE('',#304,#585,#596,.T.);
#598=ORIENTED_EDGE('',*,*,#597,.F.);
#599=ORIENTED_EDGE('',*,*,#310,.F.);
#600=EDGE_LOOP('',(#583,#592,#598,#599));
#601=FACE_BOUND('',#600,.T.);
#602=ADVANCED_FACE('',(#601),#575,.T.);
#603=CARTESIAN_POINT('',(0.,0.,6.));
#604=DIRECTION('',(0.,0.,-1.));
#605=DIRECTION('',(-1.,0.,0.));
#606=AXIS2_PLACEMENT_3D('',#603,#604,#605);
#607=CYLINDRICAL_SURFACE('',#606,26.225);
#608=CARTESIAN_POINT('',(-22.957387977,-12.677103859,6.));
#609=VERTEX_POINT('',#608);
#610=CARTESIAN_POINT('',(-22.957387977,-12.677103859,6.));
#611=DIRECTION('',(-0.,-0.,1.));
#612=VECTOR('',#611,1.);
#613=LINE('',#610,#612);
#614=EDGE_CURVE('',#609,#322,#613,.T.);
#615=ORIENTED_EDGE('',*,*,#614,.F.);
#616=CARTESIAN_POINT('',(-22.457387977,-13.543129263,6.));
#617=VERTEX_POINT('',#616);
#618=CARTESIAN_POINT('',(0.,0.,6.));
#619=DIRECTION('',(0.,0.,1.));
#620=DIRECTION('',(1.,0.,-0.));
#621=AXIS2_PLACEMENT_3D('',#618,#619,#620);
#622=CIRCLE('',#621,26.225);
#623=EDGE_CURVE('',#609,#617,#622,.T.);
#624=ORIENTED_EDGE('',*,*,#623,.T.);
#625=CARTESIAN_POINT('',(-22.457387977,-13.543129263,7.));
#626=DIRECTION('',(0.,0.,-1.));
#627=VECTOR('',#626,1.);
#628=LINE('',#625,#627);
#629=EDGE_CURVE('',#331,#617,#628,.T.);
#630=ORIENTED_EDGE('',*,*,#629,.F.);
#631=ORIENTED_EDGE('',*,*,#337,.F.);
#632=EDGE_LOOP('',(#615,#624,#630,#631));
#633=FACE_BOUND('',#632,.T.);
#634=ADVANCED_FACE('',(#633),#607,.T.);
#635=CARTESIAN_POINT('',(0.,0.,14.1));
#636=DIRECTION('',(0.,0.,-1.));
#637=DIRECTION('',(-1.,0.,0.));
#638=AXIS2_PLACEMENT_3D('',#635,#636,#637);
#639=CYLINDRICAL_SURFACE('',#638,26.225);
#640=CARTESIAN_POINT('',(22.457387977,13.543129263,19.1));
#641=VERTEX_POINT('',#640);
#642=CARTESIAN_POINT('',(22.457387977,13.543129263,19.1));
#643=DIRECTION('',(0.,0.,-1.));
#644=VECTOR('',#643,12.1);
#645=LINE('',#642,#644);
#646=EDGE_CURVE('',#641,#268,#645,.T.);
#647=ORIENTED_EDGE('',*,*,#646,.F.);
#648=CARTESIAN_POINT('',(0.5,26.220233123,19.1));
#649=VERTEX_POINT('',#648);
#650=CARTESIAN_POINT('',(0.,0.,19.1));
#651=DIRECTION('',(0.,0.,1.));
#652=DIRECTION('',(1.,0.,-0.));
#653=AXIS2_PLACEMENT_3D('',#650,#651,#652);
#654=CIRCLE('',#653,26.225);
#655=EDGE_CURVE('',#641,#649,#654,.T.);
#656=ORIENTED_EDGE('',*,*,#655,.T.);
#657=CARTESIAN_POINT('',(0.5,26.220233123,7.));
#658=DIRECTION('',(-0.,-0.,1.));
#659=VECTOR('',#658,12.1);
#660=LINE('',#657,#659);
#661=EDGE_CURVE('',#277,#649,#660,.T.);
#662=ORIENTED_EDGE('',*,*,#661,.F.);
#663=ORIENTED_EDGE('',*,*,#283,.F.);
#664=EDGE_LOOP('',(#647,#656,#662,#663));
#665=FACE_BOUND('',#664,.T.);
#666=ADVANCED_FACE('',(#665),#639,.F.);
#667=CARTESIAN_POINT('',(0.,0.,14.1));
#668=DIRECTION('',(0.,0.,-1.));
#669=DIRECTION('',(-1.,0.,0.));
#670=AXIS2_PLACEMENT_3D('',#667,#668,#669);
#671=CYLINDRICAL_SURFACE('',#670,26.225);
#672=CARTESIAN_POINT('',(-0.5,26.220233123,19.1));
#673=VERTEX_POINT('',#672);
#674=CARTESIAN_POINT('',(-0.5,26.220233123,19.1));
#675=DIRECTION('',(0.,0.,-1.));
#676=VECTOR('',#675,12.1);
#677=LINE('',#674,#676);
#678=EDGE_CURVE('',#673,#286,#677,.T.);
#679=ORIENTED_EDGE('',*,*,#678,.F.);
#680=CARTESIAN_POINT('',(-22.457387977,13.543129263,19.1));
#681=VERTEX_POINT('',#680);
#682=CARTESIAN_POINT('',(0.,0.,19.1));
#683=DIRECTION('',(0.,0.,1.));
#684=DIRECTION('',(1.,0.,-0.));
#685=AXIS2_PLACEMENT_3D('',#682,#683,#684);
#686=CIRCLE('',#685,26.225);
#687=EDGE_CURVE('',#673,#681,#686,.T.);
#688=ORIENTED_EDGE('',*,*,#687,.T.);
#689=CARTESIAN_POINT('',(-22.457387977,13.543129263,7.));
#690=DIRECTION('',(-0.,-0.,1.));
#691=VECTOR('',#690,12.1);
#692=LINE('',#689,#691);
#693=EDGE_CURVE('',#295,#681,#692,.T.);
#694=ORIENTED_EDGE('',*,*,#693,.F.);
#695=ORIENTED_EDGE('',*,*,#301,.F.);
#696=EDGE_LOOP('',(#679,#688,#694,#695));
#697=FACE_BOUND('',#696,.T.);
#698=ADVANCED_FACE('',(#697),#671,.F.);
#699=CARTESIAN_POINT('',(0.,0.,14.1));
#700=DIRECTION('',(0.,0.,-1.));
#701=DIRECTION('',(-1.,0.,0.));
#702=AXIS2_PLACEMENT_3D('',#699,#700,#701);
#703=CYLINDRICAL_SURFACE('',#702,26.225);
#704=CARTESIAN_POINT('',(-26.225,0.,19.1));
#705=VERTEX_POINT('',#704);
#706=CARTESIAN_POINT('',(-26.225,0.,7.));
#707=DIRECTION('',(-0.,-0.,1.));
#708=VECTOR('',#707,12.1);
#709=LINE('',#706,#708);
#710=EDGE_CURVE('',#313,#705,#709,.T.);
#711=ORIENTED_EDGE('',*,*,#710,.F.);
#712=ORIENTED_EDGE('',*,*,#319,.F.);
#713=CARTESIAN_POINT('',(-22.957387977,12.677103859,19.1));
#714=VERTEX_POINT('',#713);
#715=CARTESIAN_POINT('',(-22.957387977,12.677103859,19.1));
#716=DIRECTION('',(0.,0.,-1.));
#717=VECTOR('',#716,12.1);
#718=LINE('',#715,#717);
#719=EDGE_CURVE('',#714,#304,#718,.T.);
#720=ORIENTED_EDGE('',*,*,#719,.F.);
#721=CARTESIAN_POINT('',(0.,0.,19.1));
#722=DIRECTION('',(0.,0.,1.));
#723=DIRECTION('',(1.,0.,-0.));
#724=AXIS2_PLACEMENT_3D('',#721,#722,#723);
#725=CIRCLE('',#724,26.225);
#726=EDGE_CURVE('',#714,#705,#725,.T.);
#727=ORIENTED_EDGE('',*,*,#726,.T.);
#728=EDGE_LOOP('',(#711,#712,#720,#727));
#729=FACE_BOUND('',#728,.T.);
#730=ADVANCED_FACE('',(#729),#703,.F.);
#731=CARTESIAN_POINT('',(0.,0.,14.1));
#732=DIRECTION('',(0.,0.,-1.));
#733=DIRECTION('',(-1.,0.,0.));
#734=AXIS2_PLACEMENT_3D('',#731,#732,#733);
#735=CYLINDRICAL_SURFACE('',#734,26.225);
#736=CARTESIAN_POINT('',(-22.457387977,-13.543129263,19.1));
#737=VERTEX_POINT('',#736);
#738=CARTESIAN_POINT('',(-22.457387977,-13.543129263,19.1));
#739=DIRECTION('',(0.,0.,-1.));
#740=VECTOR('',#739,12.1);
#741=LINE('',#738,#740);
#742=EDGE_CURVE('',#737,#331,#741,.T.);
#743=ORIENTED_EDGE('',*,*,#742,.F.);
#744=CARTESIAN_POINT('',(-12.540948151,-23.032048204,19.1));
#745=VERTEX_POINT('',#744);
#746=CARTESIAN_POINT('',(0.,0.,19.1));
#747=DIRECTION('',(0.,0.,1.));
#748=DIRECTION('',(1.,0.,-0.));
#749=AXIS2_PLACEMENT_3D('',#746,#747,#748);
#750=CIRCLE('',#749,26.225);
#751=EDGE_CURVE('',#737,#745,#750,.T.);
#752=ORIENTED_EDGE('',*,*,#751,.T.);
#753=CARTESIAN_POINT('',(-12.540948151,-23.032048204,16.1));
#754=VERTEX_POINT('',#753);
#755=CARTESIAN_POINT('',(-12.540948151,-23.032048204,16.1));
#756=DIRECTION('',(0.,0.,1.));
#757=VECTOR('',#756,3.);
#758=LINE('',#755,#757);
#759=EDGE_CURVE('',#754,#745,#758,.T.);
#760=ORIENTED_EDGE('',*,*,#759,.F.);
#761=CARTESIAN_POINT('',(11.386636125,-23.624037393,16.1));
#762=VERTEX_POINT('',#761);
#763=CARTESIAN_POINT('',(0.,0.,16.1));
#764=DIRECTION('',(0.,0.,1.));
#765=DIRECTION('',(1.,0.,-0.));
#766=AXIS2_PLACEMENT_3D('',#763,#764,#765);
#767=CIRCLE('',#766,26.225);
#768=EDGE_CURVE('',#754,#762,#767,.T.);
#769=ORIENTED_EDGE('',*,*,#768,.T.);
#770=CARTESIAN_POINT('',(11.386636125,-23.624037393,19.1));
#771=VERTEX_POINT('',#770);
#772=CARTESIAN_POINT('',(11.386636125,-23.624037393,16.1));
#773=DIRECTION('',(0.,0.,1.));
#774=VECTOR('',#773,3.);
#775=LINE('',#772,#774);
#776=EDGE_CURVE('',#762,#771,#775,.T.);
#777=ORIENTED_EDGE('',*,*,#776,.T.);
#778=CARTESIAN_POINT('',(22.457387977,-13.543129263,19.1));
#779=VERTEX_POINT('',#778);
#780=CARTESIAN_POINT('',(0.,0.,19.1));
#781=DIRECTION('',(0.,0.,1.));
#782=DIRECTION('',(1.,0.,-0.));
#783=AXIS2_PLACEMENT_3D('',#780,#781,#782);
#784=CIRCLE('',#783,26.225);
#785=EDGE_CURVE('',#771,#779,#784,.T.);
#786=ORIENTED_EDGE('',*,*,#785,.T.);
#787=CARTESIAN_POINT('',(22.457387977,-13.543129263,7.));
#788=DIRECTION('',(-0.,-0.,1.));
#789=VECTOR('',#788,12.1);
#790=LINE('',#787,#789);
#791=EDGE_CURVE('',#340,#779,#790,.T.);
#792=ORIENTED_EDGE('',*,*,#791,.F.);
#793=ORIENTED_EDGE('',*,*,#346,.F.);
#794=EDGE_LOOP('',(#743,#752,#760,#769,#777,#786,#792,#793));
#795=FACE_BOUND('',#794,.T.);
#796=ADVANCED_FACE('',(#795),#735,.F.);
#797=CARTESIAN_POINT('',(0.,0.,14.1));
#798=DIRECTION('',(0.,0.,-1.));
#799=DIRECTION('',(-1.,0.,0.));
#800=AXIS2_PLACEMENT_3D('',#797,#798,#799);
#801=CYLINDRICAL_SURFACE('',#800,26.225);
#802=CARTESIAN_POINT('',(22.957387977,-12.677103859,19.1));
#803=VERTEX_POINT('',#802);
#804=CARTESIAN_POINT('',(22.957387977,-12.677103859,19.1));
#805=DIRECTION('',(0.,0.,-1.));
#806=VECTOR('',#805,12.1);
#807=LINE('',#804,#806);
#808=EDGE_CURVE('',#803,#349,#807,.T.);
#809=ORIENTED_EDGE('',*,*,#808,.F.);
#810=CARTESIAN_POINT('',(26.225,-0.,19.1));
#811=VERTEX_POINT('',#810);
#812=CARTESIAN_POINT('',(0.,0.,19.1));
#813=DIRECTION('',(0.,0.,1.));
#814=DIRECTION('',(1.,0.,-0.));
#815=AXIS2_PLACEMENT_3D('',#812,#813,#814);
#816=CIRCLE('',#815,26.225);
#817=EDGE_CURVE('',#803,#811,#816,.T.);
#818=ORIENTED_EDGE('',*,*,#817,.T.);
#819=CARTESIAN_POINT('',(22.957387977,12.677103859,19.1));
#820=VERTEX_POINT('',#819);
#821=CARTESIAN_POINT('',(0.,0.,19.1));
#822=DIRECTION('',(0.,0.,1.));
#823=DIRECTION('',(1.,0.,-0.));
#824=AXIS2_PLACEMENT_3D('',#821,#822,#823);
#825=CIRCLE('',#824,26.225);
#826=EDGE_CURVE('',#811,#820,#825,.T.);
#827=ORIENTED_EDGE('',*,*,#826,.T.);
#828=CARTESIAN_POINT('',(22.957387977,12.677103859,7.));
#829=DIRECTION('',(-0.,-0.,1.));
#830=VECTOR('',#829,12.1);
#831=LINE('',#828,#830);
#832=EDGE_CURVE('',#266,#820,#831,.T.);
#833=ORIENTED_EDGE('',*,*,#832,.F.);
#834=ORIENTED_EDGE('',*,*,#362,.F.);
#835=EDGE_LOOP('',(#809,#818,#827,#833,#834));
#836=FACE_BOUND('',#835,.T.);
#837=ADVANCED_FACE('',(#836),#801,.F.);
#838=CARTESIAN_POINT('',(0.5,26.5,20.1));
#839=DIRECTION('',(1.,0.,0.));
#840=DIRECTION('',(0.,0.,-1.));
#841=AXIS2_PLACEMENT_3D('',#838,#839,#840);
#842=PLANE('',#841);
#843=ORIENTED_EDGE('',*,*,#661,.T.);
#844=CARTESIAN_POINT('',(0.5,26.8,20.007368424));
#845=VERTEX_POINT('',#844);
#846=CARTESIAN_POINT('',(0.5,26.220233123,19.1));
#847=CARTESIAN_POINT('',(0.5,26.220233123,19.195576679));
#848=CARTESIAN_POINT('',(0.5,26.233663049,19.288866116));
#849=CARTESIAN_POINT('',(0.5,26.26021716,19.37992038));
#850=CARTESIAN_POINT('',(0.5,26.286771271,19.470974644));
#851=CARTESIAN_POINT('',(0.5,26.326377524,19.558146564));
#852=CARTESIAN_POINT('',(0.5,26.377146135,19.637732763));
#853=CARTESIAN_POINT('',(0.5,26.478683358,19.796905162));
#854=CARTESIAN_POINT('',(0.5,26.626548812,19.927031561));
#855=CARTESIAN_POINT('',(0.5,26.8,20.007368424));
#856=B_SPLINE_CURVE_WITH_KNOTS('',3,(#846,#847,#848,#849,#850,#851,#852,#853,#854,#855),.UNSPECIFIED.,.F.,.F.,(4,3,3,4),(0.,0.00028266,0.00056532,0.00113064),.UNSPECIFIED.);
#857=EDGE_CURVE('',#649,#845,#856,.T.);
#858=ORIENTED_EDGE('',*,*,#857,.T.);
#859=CARTESIAN_POINT('',(0.5,26.8,6.));
#860=VERTEX_POINT('',#859);
#861=CARTESIAN_POINT('',(0.5,26.8,20.007368424));
#862=DIRECTION('',(0.,0.,-1.));
#863=VECTOR('',#862,14.007368424);
#864=LINE('',#861,#863);
#865=EDGE_CURVE('',#845,#860,#864,.T.);
#866=ORIENTED_EDGE('',*,*,#865,.T.);
#867=CARTESIAN_POINT('',(0.5,26.8,6.));
#868=DIRECTION('',(0.,-1.,0.));
#869=VECTOR('',#868,0.579766877);
#870=LINE('',#867,#869);
#871=EDGE_CURVE('',#860,#545,#870,.T.);
#872=ORIENTED_EDGE('',*,*,#871,.T.);
#873=ORIENTED_EDGE('',*,*,#550,.T.);
#874=EDGE_LOOP('',(#843,#858,#866,#872,#873));
#875=FACE_BOUND('',#874,.T.);
#876=ADVANCED_FACE('',(#875),#842,.F.);
#877=CARTESIAN_POINT('',(0.,26.8,20.1));
#878=DIRECTION('',(0.,1.,0.));
#879=DIRECTION('',(0.,0.,1.));
#880=AXIS2_PLACEMENT_3D('',#877,#878,#879);
#881=PLANE('',#880);
#882=ORIENTED_EDGE('',*,*,#865,.F.);
#883=CARTESIAN_POINT('',(-0.5,26.8,20.007368424));
#884=VERTEX_POINT('',#883);
#885=CARTESIAN_POINT('',(0.5,26.8,20.007368424));
#886=CARTESIAN_POINT('',(0.166666667,26.8,20.004488032));
#887=CARTESIAN_POINT('',(-0.166666667,26.8,20.004488032));
#888=CARTESIAN_POINT('',(-0.5,26.8,20.007368424));
#889=B_SPLINE_CURVE_WITH_KNOTS('',3,(#885,#886,#887,#888),.UNSPECIFIED.,.F.,.F.,(4,4),(0.,0.001),.UNSPECIFIED.);
#890=EDGE_CURVE('',#845,#884,#889,.T.);
#891=ORIENTED_EDGE('',*,*,#890,.T.);
#892=CARTESIAN_POINT('',(-0.5,26.8,6.));
#893=VERTEX_POINT('',#892);
#894=CARTESIAN_POINT('',(-0.5,26.8,20.007368424));
#895=DIRECTION('',(0.,0.,-1.));
#896=VECTOR('',#895,14.007368424);
#897=LINE('',#894,#896);
#898=EDGE_CURVE('',#884,#893,#897,.T.);
#899=ORIENTED_EDGE('',*,*,#898,.T.);
#900=CARTESIAN_POINT('',(-0.5,26.8,6.));
#901=DIRECTION('',(1.,0.,-0.));
#902=VECTOR('',#901,1.);
#903=LINE('',#900,#902);
#904=EDGE_CURVE('',#893,#860,#903,.T.);
#905=ORIENTED_EDGE('',*,*,#904,.T.);
#906=EDGE_LOOP('',(#882,#891,#899,#905));
#907=FACE_BOUND('',#906,.T.);
#908=ADVANCED_FACE('',(#907),#881,.F.);
#909=CARTESIAN_POINT('',(-0.5,26.5,20.1));
#910=DIRECTION('',(-1.,0.,0.));
#911=DIRECTION('',(0.,0.,1.));
#912=AXIS2_PLACEMENT_3D('',#909,#910,#911);
#913=PLANE('',#912);
#914=ORIENTED_EDGE('',*,*,#898,.F.);
#915=CARTESIAN_POINT('',(-0.5,26.8,20.007368424));
#916=CARTESIAN_POINT('',(-0.5,26.713274106,19.967199854));
#917=CARTESIAN_POINT('',(-0.5,26.63426431,19.915811095));
#918=CARTESIAN_POINT('',(-0.5,26.562796119,19.853455881));
#919=CARTESIAN_POINT('',(-0.5,26.491327929,19.791100667));
#920=CARTESIAN_POINT('',(-0.5,26.428862586,19.718533239));
#921=CARTESIAN_POINT('',(-0.5,26.377972501,19.639026006));
#922=CARTESIAN_POINT('',(-0.5,26.276192331,19.48001154));
#923=CARTESIAN_POINT('',(-0.5,26.220233123,19.29115409));
#924=CARTESIAN_POINT('',(-0.5,26.220233123,19.1));
#925=B_SPLINE_CURVE_WITH_KNOTS('',3,(#915,#916,#917,#918,#919,#920,#921,#922,#923,#924),.UNSPECIFIED.,.F.,.F.,(4,3,3,4),(0.,0.000282661,0.000565322,0.001130643),.UNSPECIFIED.);
#926=EDGE_CURVE('',#884,#673,#925,.T.);
#927=ORIENTED_EDGE('',*,*,#926,.T.);
#928=ORIENTED_EDGE('',*,*,#678,.T.);
#929=ORIENTED_EDGE('',*,*,#565,.T.);
#930=CARTESIAN_POINT('',(-0.5,26.220233123,6.));
#931=DIRECTION('',(0.,1.,0.));
#932=VECTOR('',#931,0.579766877);
#933=LINE('',#930,#932);
#934=EDGE_CURVE('',#553,#893,#933,.T.);
#935=ORIENTED_EDGE('',*,*,#934,.T.);
#936=EDGE_LOOP('',(#914,#927,#928,#929,#935));
#937=FACE_BOUND('',#936,.T.);
#938=ADVANCED_FACE('',(#937),#913,.F.);
#939=CARTESIAN_POINT('',(0.,-3.5,6.));
#940=DIRECTION('',(0.,0.,1.));
#941=DIRECTION('',(1.,0.,0.));
#942=AXIS2_PLACEMENT_3D('',#939,#940,#941);
#943=PLANE('',#942);
#944=ORIENTED_EDGE('',*,*,#871,.F.);
#945=ORIENTED_EDGE('',*,*,#904,.F.);
#946=ORIENTED_EDGE('',*,*,#934,.F.);
#947=ORIENTED_EDGE('',*,*,#559,.F.);
#948=EDGE_LOOP('',(#944,#945,#946,#947));
#949=FACE_BOUND('',#948,.T.);
#950=ADVANCED_FACE('',(#949),#943,.T.);
#951=CARTESIAN_POINT('',(-23.1996732,-12.816987298,20.1));
#952=DIRECTION('',(-0.5,0.866025404,0.));
#953=DIRECTION('',(0.,0.,-1.));
#954=AXIS2_PLACEMENT_3D('',#951,#952,#953);
#955=PLANE('',#954);
#956=CARTESIAN_POINT('',(-22.957387977,-12.677103859,19.1));
#957=VERTEX_POINT('',#956);
#958=CARTESIAN_POINT('',(-22.957387977,-12.677103859,7.));
#959=DIRECTION('',(-0.,-0.,1.));
#960=VECTOR('',#959,12.1);
#961=LINE('',#958,#960);
#962=EDGE_CURVE('',#322,#957,#961,.T.);
#963=ORIENTED_EDGE('',*,*,#962,.T.);
#964=CARTESIAN_POINT('',(-23.459480821,-12.966987298,20.007368424));
#965=VERTEX_POINT('',#964);
#966=CARTESIAN_POINT('',(-22.957387977,-12.677103859,19.1));
#967=CARTESIAN_POINT('',(-22.957387977,-12.677103859,19.195576679));
#968=CARTESIAN_POINT('',(-22.969018635,-12.683818823,19.288866116));
#969=CARTESIAN_POINT('',(-22.99201517,-12.697095878,19.37992038));
#970=CARTESIAN_POINT('',(-23.015011705,-12.710372934,19.470974644));
#971=CARTESIAN_POINT('',(-23.049311726,-12.73017606,19.558146564));
#972=CARTESIAN_POINT('',(-23.093278633,-12.755560366,19.637732763));
#973=CARTESIAN_POINT('',(-23.181212446,-12.806328977,19.796905162));
#974=CARTESIAN_POINT('',(-23.309267687,-12.880261704,19.927031561));
#975=CARTESIAN_POINT('',(-23.459480821,-12.966987298,20.007368424));
#976=B_SPLINE_CURVE_WITH_KNOTS('',3,(#966,#967,#968,#969,#970,#971,#972,#973,#974,#975),.UNSPECIFIED.,.F.,.F.,(4,3,3,4),(0.,0.00028266,0.00056532,0.00113064),.UNSPECIFIED.);
#977=EDGE_CURVE('',#957,#965,#976,.T.);
#978=ORIENTED_EDGE('',*,*,#977,.T.);
#979=CARTESIAN_POINT('',(-23.459480821,-12.966987298,6.));
#980=VERTEX_POINT('',#979);
#981=CARTESIAN_POINT('',(-23.459480821,-12.966987298,20.007368424));
#982=DIRECTION('',(0.,0.,-1.));
#983=VECTOR('',#982,14.007368424);
#984=LINE('',#981,#983);
#985=EDGE_CURVE('',#965,#980,#984,.T.);
#986=ORIENTED_EDGE('',*,*,#985,.T.);
#987=CARTESIAN_POINT('',(-23.459480821,-12.966987298,6.));
#988=DIRECTION('',(0.866025404,0.5,0.));
#989=VECTOR('',#988,0.579766877);
#990=LINE('',#987,#989);
#991=EDGE_CURVE('',#980,#609,#990,.T.);
#992=ORIENTED_EDGE('',*,*,#991,.T.);
#993=ORIENTED_EDGE('',*,*,#614,.T.);
#994=EDGE_LOOP('',(#963,#978,#986,#992,#993));
#995=FACE_BOUND('',#994,.T.);
#996=ADVANCED_FACE('',(#995),#955,.F.);
#997=CARTESIAN_POINT('',(-23.209480821,-13.4,20.1));
#998=DIRECTION('',(-0.866025404,-0.5,0.));
#999=DIRECTION('',(0.,0.,1.));
#1000=AXIS2_PLACEMENT_3D('',#997,#998,#999);
#1001=PLANE('',#1000);
#1002=ORIENTED_EDGE('',*,*,#985,.F.);
#1003=CARTESIAN_POINT('',(-22.959480821,-13.833012702,20.007368424));
#1004=VERTEX_POINT('',#1003);
#1005=CARTESIAN_POINT('',(-23.459480821,-12.966987298,20.007368424));
#1006=CARTESIAN_POINT('',(-23.292814155,-13.255662433,20.004488032));
#1007=CARTESIAN_POINT('',(-23.126147488,-13.544337567,20.004488032));
#1008=CARTESIAN_POINT('',(-22.959480821,-13.833012702,20.007368424));
#1009=B_SPLINE_CURVE_WITH_KNOTS('',3,(#1005,#1006,#1007,#1008),.UNSPECIFIED.,.F.,.F.,(4,4),(0.,0.001),.UNSPECIFIED.);
#1010=EDGE_CURVE('',#965,#1004,#1009,.T.);
#1011=ORIENTED_EDGE('',*,*,#1010,.T.);
#1012=CARTESIAN_POINT('',(-22.959480821,-13.833012702,6.));
#1013=VERTEX_POINT('',#1012);
#1014=CARTESIAN_POINT('',(-22.959480821,-13.833012702,20.007368424));
#1015=DIRECTION('',(0.,0.,-1.));
#1016=VECTOR('',#1015,14.007368424);
#1017=LINE('',#1014,#1016);
#1018=EDGE_CURVE('',#1004,#1013,#1017,.T.);
#1019=ORIENTED_EDGE('',*,*,#1018,.T.);
#1020=CARTESIAN_POINT('',(-22.959480821,-13.833012702,6.));
#1021=DIRECTION('',(-0.5,0.866025404,0.));
#1022=VECTOR('',#1021,1.);
#1023=LINE('',#1020,#1022);
#1024=EDGE_CURVE('',#1013,#980,#1023,.T.);
#1025=ORIENTED_EDGE('',*,*,#1024,.T.);
#1026=EDGE_LOOP('',(#1002,#1011,#1019,#1025));
#1027=FACE_BOUND('',#1026,.T.);
#1028=ADVANCED_FACE('',(#1027),#1001,.F.);
#1029=CARTESIAN_POINT('',(-22.6996732,-13.683012702,20.1));
#1030=DIRECTION('',(0.5,-0.866025404,0.));
#1031=DIRECTION('',(0.,0.,1.));
#1032=AXIS2_PLACEMENT_3D('',#1029,#1030,#1031);
#1033=PLANE('',#1032);
#1034=ORIENTED_EDGE('',*,*,#1018,.F.);
#1035=CARTESIAN_POINT('',(-22.959480821,-13.833012702,20.007368424));
#1036=CARTESIAN_POINT('',(-22.884373994,-13.789649755,19.967199854));
#1037=CARTESIAN_POINT('',(-22.815949503,-13.750144857,19.915811095));
#1038=CARTESIAN_POINT('',(-22.754056235,-13.714410761,19.853455881));
#1039=CARTESIAN_POINT('',(-22.692162966,-13.678676666,19.791100667));
#1040=CARTESIAN_POINT('',(-22.638066393,-13.647443995,19.718533239));
#1041=CARTESIAN_POINT('',(-22.593994286,-13.621998952,19.639026006));
#1042=CARTESIAN_POINT('',(-22.505850074,-13.571108868,19.48001154));
#1043=CARTESIAN_POINT('',(-22.457387977,-13.543129263,19.29115409));
#1044=CARTESIAN_POINT('',(-22.457387977,-13.543129263,19.1));
#1045=B_SPLINE_CURVE_WITH_KNOTS('',3,(#1035,#1036,#1037,#1038,#1039,#1040,#1041,#1042,#1043,#1044),.UNSPECIFIED.,.F.,.F.,(4,3,3,4),(0.,0.000282661,0.000565322,0.001130643),.UNSPECIFIED.);
#1046=EDGE_CURVE('',#1004,#737,#1045,.T.);
#1047=ORIENTED_EDGE('',*,*,#1046,.T.);
#1048=ORIENTED_EDGE('',*,*,#742,.T.);
#1049=ORIENTED_EDGE('',*,*,#629,.T.);
#1050=CARTESIAN_POINT('',(-22.457387977,-13.543129263,6.));
#1051=DIRECTION('',(-0.866025404,-0.5,0.));
#1052=VECTOR('',#1051,0.579766877);
#1053=LINE('',#1050,#1052);
#1054=EDGE_CURVE('',#617,#1013,#1053,.T.);
#1055=ORIENTED_EDGE('',*,*,#1054,.T.);
#1056=EDGE_LOOP('',(#1034,#1047,#1048,#1049,#1055));
#1057=FACE_BOUND('',#1056,.T.);
#1058=ADVANCED_FACE('',(#1057),#1033,.F.);
#1059=CARTESIAN_POINT('',(3.031088913,1.75,6.));
#1060=DIRECTION('',(0.,0.,1.));
#1061=DIRECTION('',(-0.5,0.866025404,0.));
#1062=AXIS2_PLACEMENT_3D('',#1059,#1060,#1061);
#1063=PLANE('',#1062);
#1064=ORIENTED_EDGE('',*,*,#991,.F.);
#1065=ORIENTED_EDGE('',*,*,#1024,.F.);
#1066=ORIENTED_EDGE('',*,*,#1054,.F.);
#1067=ORIENTED_EDGE('',*,*,#623,.F.);
#1068=EDGE_LOOP('',(#1064,#1065,#1066,#1067));
#1069=FACE_BOUND('',#1068,.T.);
#1070=ADVANCED_FACE('',(#1069),#1063,.T.);
#1071=CARTESIAN_POINT('',(23.1996732,12.816987298,20.1));
#1072=DIRECTION('',(0.5,-0.866025404,0.));
#1073=DIRECTION('',(0.,0.,-1.));
#1074=AXIS2_PLACEMENT_3D('',#1071,#1072,#1073);
#1075=PLANE('',#1074);
#1076=ORIENTED_EDGE('',*,*,#832,.T.);
#1077=CARTESIAN_POINT('',(23.459480821,12.966987298,20.007368424));
#1078=VERTEX_POINT('',#1077);
#1079=CARTESIAN_POINT('',(22.957387977,12.677103859,19.1));
#1080=CARTESIAN_POINT('',(22.957387977,12.677103859,19.195576679));
#1081=CARTESIAN_POINT('',(22.969018635,12.683818823,19.288866116));
#1082=CARTESIAN_POINT('',(22.99201517,12.697095878,19.37992038));
#1083=CARTESIAN_POINT('',(23.015011705,12.710372934,19.470974644));
#1084=CARTESIAN_POINT('',(23.049311726,12.73017606,19.558146564));
#1085=CARTESIAN_POINT('',(23.093278633,12.755560366,19.637732763));
#1086=CARTESIAN_POINT('',(23.181212446,12.806328977,19.796905162));
#1087=CARTESIAN_POINT('',(23.309267687,12.880261704,19.927031561));
#1088=CARTESIAN_POINT('',(23.459480821,12.966987298,20.007368424));
#1089=B_SPLINE_CURVE_WITH_KNOTS('',3,(#1079,#1080,#1081,#1082,#1083,#1084,#1085,#1086,#1087,#1088),.UNSPECIFIED.,.F.,.F.,(4,3,3,4),(0.,0.00028266,0.00056532,0.00113064),.UNSPECIFIED.);
#1090=EDGE_CURVE('',#820,#1078,#1089,.T.);
#1091=ORIENTED_EDGE('',*,*,#1090,.T.);
#1092=CARTESIAN_POINT('',(23.459480821,12.966987298,6.));
#1093=VERTEX_POINT('',#1092);
#1094=CARTESIAN_POINT('',(23.459480821,12.966987298,20.007368424));
#1095=DIRECTION('',(0.,0.,-1.));
#1096=VECTOR('',#1095,14.007368424);
#1097=LINE('',#1094,#1096);
#1098=EDGE_CURVE('',#1078,#1093,#1097,.T.);
#1099=ORIENTED_EDGE('',*,*,#1098,.T.);
#1100=CARTESIAN_POINT('',(23.459480821,12.966987298,6.));
#1101=DIRECTION('',(-0.866025404,-0.5,0.));
#1102=VECTOR('',#1101,0.579766877);
#1103=LINE('',#1100,#1102);
#1104=EDGE_CURVE('',#1093,#513,#1103,.T.);
#1105=ORIENTED_EDGE('',*,*,#1104,.T.);
#1106=ORIENTED_EDGE('',*,*,#518,.T.);
#1107=EDGE_LOOP('',(#1076,#1091,#1099,#1105,#1106));
#1108=FACE_BOUND('',#1107,.T.);
#1109=ADVANCED_FACE('',(#1108),#1075,.F.);
#1110=CARTESIAN_POINT('',(23.209480821,13.4,20.1));
#1111=DIRECTION('',(0.866025404,0.5,0.));
#1112=DIRECTION('',(0.,0.,1.));
#1113=AXIS2_PLACEMENT_3D('',#1110,#1111,#1112);
#1114=PLANE('',#1113);
#1115=ORIENTED_EDGE('',*,*,#1098,.F.);
#1116=CARTESIAN_POINT('',(22.959480821,13.833012702,20.007368424));
#1117=VERTEX_POINT('',#1116);
#1118=CARTESIAN_POINT('',(23.459480821,12.966987298,20.007368424));
#1119=CARTESIAN_POINT('',(23.292814155,13.255662433,20.004488032));
#1120=CARTESIAN_POINT('',(23.126147488,13.544337567,20.004488032));
#1121=CARTESIAN_POINT('',(22.959480821,13.833012702,20.007368424));
#1122=B_SPLINE_CURVE_WITH_KNOTS('',3,(#1118,#1119,#1120,#1121),.UNSPECIFIED.,.F.,.F.,(4,4),(0.,0.001),.UNSPECIFIED.);
#1123=EDGE_CURVE('',#1078,#1117,#1122,.T.);
#1124=ORIENTED_EDGE('',*,*,#1123,.T.);
#1125=CARTESIAN_POINT('',(22.959480821,13.833012702,6.));
#1126=VERTEX_POINT('',#1125);
#1127=CARTESIAN_POINT('',(22.959480821,13.833012702,20.007368424));
#1128=DIRECTION('',(0.,0.,-1.));
#1129=VECTOR('',#1128,14.007368424);
#1130=LINE('',#1127,#1129);
#1131=EDGE_CURVE('',#1117,#1126,#1130,.T.);
#1132=ORIENTED_EDGE('',*,*,#1131,.T.);
#1133=CARTESIAN_POINT('',(22.959480821,13.833012702,6.));
#1134=DIRECTION('',(0.5,-0.866025404,0.));
#1135=VECTOR('',#1134,1.);
#1136=LINE('',#1133,#1135);
#1137=EDGE_CURVE('',#1126,#1093,#1136,.T.);
#1138=ORIENTED_EDGE('',*,*,#1137,.T.);
#1139=EDGE_LOOP('',(#1115,#1124,#1132,#1138));
#1140=FACE_BOUND('',#1139,.T.);
#1141=ADVANCED_FACE('',(#1140),#1114,.F.);
#1142=CARTESIAN_POINT('',(22.6996732,13.683012702,20.1));
#1143=DIRECTION('',(-0.5,0.866025404,0.));
#1144=DIRECTION('',(0.,0.,1.));
#1145=AXIS2_PLACEMENT_3D('',#1142,#1143,#1144);
#1146=PLANE('',#1145);
#1147=ORIENTED_EDGE('',*,*,#1131,.F.);
#1148=CARTESIAN_POINT('',(22.959480821,13.833012702,20.007368424));
#1149=CARTESIAN_POINT('',(22.884373994,13.789649755,19.967199854));
#1150=CARTESIAN_POINT('',(22.815949503,13.750144857,19.915811095));
#1151=CARTESIAN_POINT('',(22.754056235,13.714410761,19.853455881));
#1152=CARTESIAN_POINT('',(22.692162966,13.678676666,19.791100667));
#1153=CARTESIAN_POINT('',(22.638066393,13.647443995,19.718533239));
#1154=CARTESIAN_POINT('',(22.593994286,13.621998952,19.639026006));
#1155=CARTESIAN_POINT('',(22.505850074,13.571108868,19.48001154));
#1156=CARTESIAN_POINT('',(22.457387977,13.543129263,19.29115409));
#1157=CARTESIAN_POINT('',(22.457387977,13.543129263,19.1));
#1158=B_SPLINE_CURVE_WITH_KNOTS('',3,(#1148,#1149,#1150,#1151,#1152,#1153,#1154,#1155,#1156,#1157),.UNSPECIFIED.,.F.,.F.,(4,3,3,4),(0.,0.000282661,0.000565322,0.001130643),.UNSPECIFIED.);
#1159=EDGE_CURVE('',#1117,#641,#1158,.T.);
#1160=ORIENTED_EDGE('',*,*,#1159,.T.);
#1161=ORIENTED_EDGE('',*,*,#646,.T.);
#1162=ORIENTED_EDGE('',*,*,#533,.T.);
#1163=CARTESIAN_POINT('',(22.457387977,13.543129263,6.));
#1164=DIRECTION('',(0.866025404,0.5,0.));
#1165=VECTOR('',#1164,0.579766877);
#1166=LINE('',#1163,#1165);
#1167=EDGE_CURVE('',#521,#1126,#1166,.T.);
#1168=ORIENTED_EDGE('',*,*,#1167,.T.);
#1169=EDGE_LOOP('',(#1147,#1160,#1161,#1162,#1168));
#1170=FACE_BOUND('',#1169,.T.);
#1171=ADVANCED_FACE('',(#1170),#1146,.F.);
#1172=CARTESIAN_POINT('',(-3.031088913,-1.75,6.));
#1173=DIRECTION('',(0.,0.,1.));
#1174=DIRECTION('',(0.5,-0.866025404,0.));
#1175=AXIS2_PLACEMENT_3D('',#1172,#1173,#1174);
#1176=PLANE('',#1175);
#1177=ORIENTED_EDGE('',*,*,#1104,.F.);
#1178=ORIENTED_EDGE('',*,*,#1137,.F.);
#1179=ORIENTED_EDGE('',*,*,#1167,.F.);
#1180=ORIENTED_EDGE('',*,*,#527,.F.);
#1181=EDGE_LOOP('',(#1177,#1178,#1179,#1180));
#1182=FACE_BOUND('',#1181,.T.);
#1183=ADVANCED_FACE('',(#1182),#1176,.T.);
#1184=CARTESIAN_POINT('',(-22.6996732,13.683012702,20.1));
#1185=DIRECTION('',(0.5,0.866025404,0.));
#1186=DIRECTION('',(0.,0.,-1.));
#1187=AXIS2_PLACEMENT_3D('',#1184,#1185,#1186);
#1188=PLANE('',#1187);
#1189=ORIENTED_EDGE('',*,*,#693,.T.);
#1190=CARTESIAN_POINT('',(-22.959480821,13.833012702,20.007368424));
#1191=VERTEX_POINT('',#1190);
#1192=CARTESIAN_POINT('',(-22.457387977,13.543129263,19.1));
#1193=CARTESIAN_POINT('',(-22.457387977,13.543129263,19.195576679));
#1194=CARTESIAN_POINT('',(-22.469018635,13.549844226,19.288866116));
#1195=CARTESIAN_POINT('',(-22.49201517,13.563121282,19.37992038));
#1196=CARTESIAN_POINT('',(-22.515011705,13.576398338,19.470974644));
#1197=CARTESIAN_POINT('',(-22.549311726,13.596201464,19.558146564));
#1198=CARTESIAN_POINT('',(-22.593278633,13.62158577,19.637732763));
#1199=CARTESIAN_POINT('',(-22.681212446,13.672354381,19.796905162));
#1200=CARTESIAN_POINT('',(-22.809267687,13.746287108,19.927031561));
#1201=CARTESIAN_POINT('',(-22.959480821,13.833012702,20.007368424));
#1202=B_SPLINE_CURVE_WITH_KNOTS('',3,(#1192,#1193,#1194,#1195,#1196,#1197,#1198,#1199,#1200,#1201),.UNSPECIFIED.,.F.,.F.,(4,3,3,4),(0.,0.00028266,0.00056532,0.00113064),.UNSPECIFIED.);
#1203=EDGE_CURVE('',#681,#1191,#1202,.T.);
#1204=ORIENTED_EDGE('',*,*,#1203,.T.);
#1205=CARTESIAN_POINT('',(-22.959480821,13.833012702,6.));
#1206=VERTEX_POINT('',#1205);
#1207=CARTESIAN_POINT('',(-22.959480821,13.833012702,20.007368424));
#1208=DIRECTION('',(0.,0.,-1.));
#1209=VECTOR('',#1208,14.007368424);
#1210=LINE('',#1207,#1209);
#1211=EDGE_CURVE('',#1191,#1206,#1210,.T.);
#1212=ORIENTED_EDGE('',*,*,#1211,.T.);
#1213=CARTESIAN_POINT('',(-22.959480821,13.833012702,6.));
#1214=DIRECTION('',(0.866025404,-0.5,0.));
#1215=VECTOR('',#1214,0.579766877);
#1216=LINE('',#1213,#1215);
#1217=EDGE_CURVE('',#1206,#577,#1216,.T.);
#1218=ORIENTED_EDGE('',*,*,#1217,.T.);
#1219=ORIENTED_EDGE('',*,*,#582,.T.);
#1220=EDGE_LOOP('',(#1189,#1204,#1212,#1218,#1219));
#1221=FACE_BOUND('',#1220,.T.);
#1222=ADVANCED_FACE('',(#1221),#1188,.F.);
#1223=CARTESIAN_POINT('',(-23.209480821,13.4,20.1));
#1224=DIRECTION('',(-0.866025404,0.5,0.));
#1225=DIRECTION('',(0.,0.,1.));
#1226=AXIS2_PLACEMENT_3D('',#1223,#1224,#1225);
#1227=PLANE('',#1226);
#1228=ORIENTED_EDGE('',*,*,#1211,.F.);
#1229=CARTESIAN_POINT('',(-23.459480821,12.966987298,20.007368424));
#1230=VERTEX_POINT('',#1229);
#1231=CARTESIAN_POINT('',(-22.959480821,13.833012702,20.007368424));
#1232=CARTESIAN_POINT('',(-23.126147488,13.544337567,20.004488032));
#1233=CARTESIAN_POINT('',(-23.292814155,13.255662433,20.004488032));
#1234=CARTESIAN_POINT('',(-23.459480821,12.966987298,20.007368424));
#1235=B_SPLINE_CURVE_WITH_KNOTS('',3,(#1231,#1232,#1233,#1234),.UNSPECIFIED.,.F.,.F.,(4,4),(0.,0.001),.UNSPECIFIED.);
#1236=EDGE_CURVE('',#1191,#1230,#1235,.T.);
#1237=ORIENTED_EDGE('',*,*,#1236,.T.);
#1238=CARTESIAN_POINT('',(-23.459480821,12.966987298,6.));
#1239=VERTEX_POINT('',#1238);
#1240=CARTESIAN_POINT('',(-23.459480821,12.966987298,20.007368424));
#1241=DIRECTION('',(0.,0.,-1.));
#1242=VECTOR('',#1241,14.007368424);
#1243=LINE('',#1240,#1242);
#1244=EDGE_CURVE('',#1230,#1239,#1243,.T.);
#1245=ORIENTED_EDGE('',*,*,#1244,.T.);
#1246=CARTESIAN_POINT('',(-23.459480821,12.966987298,6.));
#1247=DIRECTION('',(0.5,0.866025404,0.));
#1248=VECTOR('',#1247,1.);
#1249=LINE('',#1246,#1248);
#1250=EDGE_CURVE('',#1239,#1206,#1249,.T.);
#1251=ORIENTED_EDGE('',*,*,#1250,.T.);
#1252=EDGE_LOOP('',(#1228,#1237,#1245,#1251));
#1253=FACE_BOUND('',#1252,.T.);
#1254=ADVANCED_FACE('',(#1253),#1227,.F.);
#1255=CARTESIAN_POINT('',(-23.1996732,12.816987298,20.1));
#1256=DIRECTION('',(-0.5,-0.866025404,0.));
#1257=DIRECTION('',(0.,0.,1.));
#1258=AXIS2_PLACEMENT_3D('',#1255,#1256,#1257);
#1259=PLANE('',#1258);
#1260=ORIENTED_EDGE('',*,*,#1244,.F.);
#1261=CARTESIAN_POINT('',(-23.459480821,12.966987298,20.007368424));
#1262=CARTESIAN_POINT('',(-23.384373994,12.923624351,19.967199854));
#1263=CARTESIAN_POINT('',(-23.315949503,12.884119453,19.915811095));
#1264=CARTESIAN_POINT('',(-23.254056235,12.848385358,19.853455881));
#1265=CARTESIAN_POINT('',(-23.192162966,12.812651262,19.791100667));
#1266=CARTESIAN_POINT('',(-23.138066393,12.781418591,19.718533239));
#1267=CARTESIAN_POINT('',(-23.093994286,12.755973549,19.639026006));
#1268=CARTESIAN_POINT('',(-23.005850074,12.705083464,19.48001154));
#1269=CARTESIAN_POINT('',(-22.957387977,12.677103859,19.29115409));
#1270=CARTESIAN_POINT('',(-22.957387977,12.677103859,19.1));
#1271=B_SPLINE_CURVE_WITH_KNOTS('',3,(#1261,#1262,#1263,#1264,#1265,#1266,#1267,#1268,#1269,#1270),.UNSPECIFIED.,.F.,.F.,(4,3,3,4),(0.,0.000282661,0.000565322,0.001130643),.UNSPECIFIED.);
#1272=EDGE_CURVE('',#1230,#714,#1271,.T.);
#1273=ORIENTED_EDGE('',*,*,#1272,.T.);
#1274=ORIENTED_EDGE('',*,*,#719,.T.);
#1275=ORIENTED_EDGE('',*,*,#597,.T.);
#1276=CARTESIAN_POINT('',(-22.957387977,12.677103859,6.));
#1277=DIRECTION('',(-0.866025404,0.5,0.));
#1278=VECTOR('',#1277,0.579766877);
#1279=LINE('',#1276,#1278);
#1280=EDGE_CURVE('',#585,#1239,#1279,.T.);
#1281=ORIENTED_EDGE('',*,*,#1280,.T.);
#1282=EDGE_LOOP('',(#1260,#1273,#1274,#1275,#1281));
#1283=FACE_BOUND('',#1282,.T.);
#1284=ADVANCED_FACE('',(#1283),#1259,.F.);
#1285=CARTESIAN_POINT('',(3.031088913,-1.75,6.));
#1286=DIRECTION('',(0.,0.,1.));
#1287=DIRECTION('',(0.5,0.866025404,0.));
#1288=AXIS2_PLACEMENT_3D('',#1285,#1286,#1287);
#1289=PLANE('',#1288);
#1290=ORIENTED_EDGE('',*,*,#1217,.F.);
#1291=ORIENTED_EDGE('',*,*,#1250,.F.);
#1292=ORIENTED_EDGE('',*,*,#1280,.F.);
#1293=ORIENTED_EDGE('',*,*,#591,.F.);
#1294=EDGE_LOOP('',(#1290,#1291,#1292,#1293));
#1295=FACE_BOUND('',#1294,.T.);
#1296=ADVANCED_FACE('',(#1295),#1289,.T.);
#1297=CARTESIAN_POINT('',(22.6996732,-13.683012702,20.1));
#1298=DIRECTION('',(-0.5,-0.866025404,0.));
#1299=DIRECTION('',(0.,0.,-1.));
#1300=AXIS2_PLACEMENT_3D('',#1297,#1298,#1299);
#1301=PLANE('',#1300);
#1302=ORIENTED_EDGE('',*,*,#791,.T.);
#1303=CARTESIAN_POINT('',(22.959480821,-13.833012702,20.007368424));
#1304=VERTEX_POINT('',#1303);
#1305=CARTESIAN_POINT('',(22.457387977,-13.543129263,19.1));
#1306=CARTESIAN_POINT('',(22.457387977,-13.543129263,19.195576679));
#1307=CARTESIAN_POINT('',(22.469018635,-13.549844226,19.288866116));
#1308=CARTESIAN_POINT('',(22.49201517,-13.563121282,19.37992038));
#1309=CARTESIAN_POINT('',(22.515011705,-13.576398338,19.470974644));
#1310=CARTESIAN_POINT('',(22.549311726,-13.596201464,19.558146564));
#1311=CARTESIAN_POINT('',(22.593278633,-13.62158577,19.637732763));
#1312=CARTESIAN_POINT('',(22.681212446,-13.672354381,19.796905162));
#1313=CARTESIAN_POINT('',(22.809267687,-13.746287108,19.927031561));
#1314=CARTESIAN_POINT('',(22.959480821,-13.833012702,20.007368424));
#1315=B_SPLINE_CURVE_WITH_KNOTS('',3,(#1305,#1306,#1307,#1308,#1309,#1310,#1311,#1312,#1313,#1314),.UNSPECIFIED.,.F.,.F.,(4,3,3,4),(0.,0.00028266,0.00056532,0.00113064),.UNSPECIFIED.);
#1316=EDGE_CURVE('',#779,#1304,#1315,.T.);
#1317=ORIENTED_EDGE('',*,*,#1316,.T.);
#1318=CARTESIAN_POINT('',(22.959480821,-13.833012702,6.));
#1319=VERTEX_POINT('',#1318);
#1320=CARTESIAN_POINT('',(22.959480821,-13.833012702,20.007368424));
#1321=DIRECTION('',(0.,0.,-1.));
#1322=VECTOR('',#1321,14.007368424);
#1323=LINE('',#1320,#1322);
#1324=EDGE_CURVE('',#1304,#1319,#1323,.T.);
#1325=ORIENTED_EDGE('',*,*,#1324,.T.);
#1326=CARTESIAN_POINT('',(22.959480821,-13.833012702,6.));
#1327=DIRECTION('',(-0.866025404,0.5,0.));
#1328=VECTOR('',#1327,0.579766877);
#1329=LINE('',#1326,#1328);
#1330=EDGE_CURVE('',#1319,#481,#1329,.T.);
#1331=ORIENTED_EDGE('',*,*,#1330,.T.);
#1332=ORIENTED_EDGE('',*,*,#486,.T.);
#1333=EDGE_LOOP('',(#1302,#1317,#1325,#1331,#1332));
#1334=FACE_BOUND('',#1333,.T.);
#1335=ADVANCED_FACE('',(#1334),#1301,.F.);
#1336=CARTESIAN_POINT('',(23.209480821,-13.4,20.1));
#1337=DIRECTION('',(0.866025404,-0.5,0.));
#1338=DIRECTION('',(0.,0.,1.));
#1339=AXIS2_PLACEMENT_3D('',#1336,#1337,#1338);
#1340=PLANE('',#1339);
#1341=ORIENTED_EDGE('',*,*,#1324,.F.);
#1342=CARTESIAN_POINT('',(23.459480821,-12.966987298,20.007368424));
#1343=VERTEX_POINT('',#1342);
#1344=CARTESIAN_POINT('',(22.959480821,-13.833012702,20.007368424));
#1345=CARTESIAN_POINT('',(23.126147488,-13.544337567,20.004488032));
#1346=CARTESIAN_POINT('',(23.292814155,-13.255662433,20.004488032));
#1347=CARTESIAN_POINT('',(23.459480821,-12.966987298,20.007368424));
#1348=B_SPLINE_CURVE_WITH_KNOTS('',3,(#1344,#1345,#1346,#1347),.UNSPECIFIED.,.F.,.F.,(4,4),(0.,0.001),.UNSPECIFIED.);
#1349=EDGE_CURVE('',#1304,#1343,#1348,.T.);
#1350=ORIENTED_EDGE('',*,*,#1349,.T.);
#1351=CARTESIAN_POINT('',(23.459480821,-12.966987298,6.));
#1352=VERTEX_POINT('',#1351);
#1353=CARTESIAN_POINT('',(23.459480821,-12.966987298,20.007368424));
#1354=DIRECTION('',(0.,0.,-1.));
#1355=VECTOR('',#1354,14.007368424);
#1356=LINE('',#1353,#1355);
#1357=EDGE_CURVE('',#1343,#1352,#1356,.T.);
#1358=ORIENTED_EDGE('',*,*,#1357,.T.);
#1359=CARTESIAN_POINT('',(23.459480821,-12.966987298,6.));
#1360=DIRECTION('',(-0.5,-0.866025404,0.));
#1361=VECTOR('',#1360,1.);
#1362=LINE('',#1359,#1361);
#1363=EDGE_CURVE('',#1352,#1319,#1362,.T.);
#1364=ORIENTED_EDGE('',*,*,#1363,.T.);
#1365=EDGE_LOOP('',(#1341,#1350,#1358,#1364));
#1366=FACE_BOUND('',#1365,.T.);
#1367=ADVANCED_FACE('',(#1366),#1340,.F.);
#1368=CARTESIAN_POINT('',(23.1996732,-12.816987298,20.1));
#1369=DIRECTION('',(0.5,0.866025404,0.));
#1370=DIRECTION('',(0.,0.,1.));
#1371=AXIS2_PLACEMENT_3D('',#1368,#1369,#1370);
#1372=PLANE('',#1371);
#1373=ORIENTED_EDGE('',*,*,#1357,.F.);
#1374=CARTESIAN_POINT('',(23.459480821,-12.966987298,20.007368424));
#1375=CARTESIAN_POINT('',(23.384373994,-12.923624351,19.967199854));
#1376=CARTESIAN_POINT('',(23.315949503,-12.884119453,19.915811095));
#1377=CARTESIAN_POINT('',(23.254056235,-12.848385358,19.853455881));
#1378=CARTESIAN_POINT('',(23.192162966,-12.812651262,19.791100667));
#1379=CARTESIAN_POINT('',(23.138066393,-12.781418591,19.718533239));
#1380=CARTESIAN_POINT('',(23.093994286,-12.755973549,19.639026006));
#1381=CARTESIAN_POINT('',(23.005850074,-12.705083464,19.48001154));
#1382=CARTESIAN_POINT('',(22.957387977,-12.677103859,19.29115409));
#1383=CARTESIAN_POINT('',(22.957387977,-12.677103859,19.1));
#1384=B_SPLINE_CURVE_WITH_KNOTS('',3,(#1374,#1375,#1376,#1377,#1378,#1379,#1380,#1381,#1382,#1383),.UNSPECIFIED.,.F.,.F.,(4,3,3,4),(0.,0.000282661,0.000565322,0.001130643),.UNSPECIFIED.);
#1385=EDGE_CURVE('',#1343,#803,#1384,.T.);
#1386=ORIENTED_EDGE('',*,*,#1385,.T.);
#1387=ORIENTED_EDGE('',*,*,#808,.T.);
#1388=ORIENTED_EDGE('',*,*,#501,.T.);
#1389=CARTESIAN_POINT('',(22.957387977,-12.677103859,6.));
#1390=DIRECTION('',(0.866025404,-0.5,0.));
#1391=VECTOR('',#1390,0.579766877);
#1392=LINE('',#1389,#1391);
#1393=EDGE_CURVE('',#489,#1352,#1392,.T.);
#1394=ORIENTED_EDGE('',*,*,#1393,.T.);
#1395=EDGE_LOOP('',(#1373,#1386,#1387,#1388,#1394));
#1396=FACE_BOUND('',#1395,.T.);
#1397=ADVANCED_FACE('',(#1396),#1372,.F.);
#1398=CARTESIAN_POINT('',(-3.031088913,1.75,6.));
#1399=DIRECTION('',(0.,0.,1.));
#1400=DIRECTION('',(-0.5,-0.866025404,0.));
#1401=AXIS2_PLACEMENT_3D('',#1398,#1399,#1400);
#1402=PLANE('',#1401);
#1403=ORIENTED_EDGE('',*,*,#1330,.F.);
#1404=ORIENTED_EDGE('',*,*,#1363,.F.);
#1405=ORIENTED_EDGE('',*,*,#1393,.F.);
#1406=ORIENTED_EDGE('',*,*,#495,.F.);
#1407=EDGE_LOOP('',(#1403,#1404,#1405,#1406));
#1408=FACE_BOUND('',#1407,.T.);
#1409=ADVANCED_FACE('',(#1408),#1402,.T.);
#1410=CARTESIAN_POINT('',(-12.536606167,-23.282010495,18.1));
#1411=DIRECTION('',(0.999849166,0.017367939,0.));
#1412=DIRECTION('',(-0.017367939,0.999849166,0.));
#1413=AXIS2_PLACEMENT_3D('',#1410,#1411,#1412);
#1414=PLANE('',#1413);
#1415=ORIENTED_EDGE('',*,*,#759,.T.);
#1416=CARTESIAN_POINT('',(-12.539662109,-23.106083967,19.453146957));
#1417=VERTEX_POINT('',#1416);
#1418=CARTESIAN_POINT('',(-12.540948151,-23.032048204,19.1));
#1419=CARTESIAN_POINT('',(-12.540948151,-23.032048204,19.222129668));
#1420=CARTESIAN_POINT('',(-12.54050561,-23.057524722,19.341145576));
#1421=CARTESIAN_POINT('',(-12.539662109,-23.106083967,19.453146957));
#1422=B_SPLINE_CURVE_WITH_KNOTS('',3,(#1418,#1419,#1420,#1421),.UNSPECIFIED.,.F.,.F.,(4,4),(0.,0.000361046),.UNSPECIFIED.);
#1423=EDGE_CURVE('',#745,#1417,#1422,.T.);
#1424=ORIENTED_EDGE('',*,*,#1423,.T.);
#1425=CARTESIAN_POINT('',(-12.539662109,-23.106083967,16.603564342));
#1426=VERTEX_POINT('',#1425);
#1427=CARTESIAN_POINT('',(-12.539662109,-23.106083967,19.453146957));
#1428=DIRECTION('',(-0.,-0.,-1.));
#1429=VECTOR('',#1428,2.849582615);
#1430=LINE('',#1427,#1429);
#1431=EDGE_CURVE('',#1417,#1426,#1430,.T.);
#1432=ORIENTED_EDGE('',*,*,#1431,.T.);
#1433=CARTESIAN_POINT('',(-12.539662109,-23.106083967,16.603564342));
#1434=CARTESIAN_POINT('',(-12.540514766,-23.056997646,16.439299153));
#1435=CARTESIAN_POINT('',(-12.540948151,-23.032048204,16.271484206));
#1436=CARTESIAN_POINT('',(-12.540948151,-23.032048204,16.1));
#1437=B_SPLINE_CURVE_WITH_KNOTS('',3,(#1433,#1434,#1435,#1436),.UNSPECIFIED.,.F.,.F.,(4,4),(0.,0.000508979),.UNSPECIFIED.);
#1438=EDGE_CURVE('',#1426,#754,#1437,.T.);
#1439=ORIENTED_EDGE('',*,*,#1438,.T.);
#1440=EDGE_LOOP('',(#1415,#1424,#1432,#1439));
#1441=FACE_BOUND('',#1440,.T.);
#1442=ADVANCED_FACE('',(#1441),#1414,.T.);
#1443=CARTESIAN_POINT('',(-0.833477811,-11.243402008,18.1));
#1444=DIRECTION('',(0.,0.,1.));
#1445=DIRECTION('',(1.,0.,-0.));
#1446=AXIS2_PLACEMENT_3D('',#1443,#1444,#1445);
#1447=CYLINDRICAL_SURFACE('',#1446,16.96674908);
#1448=CARTESIAN_POINT('',(-12.210352392,-23.830589903,17.479246917));
#1449=VERTEX_POINT('',#1448);
#1450=CARTESIAN_POINT('',(-12.210352392,-23.830589903,19.6));
#1451=VERTEX_POINT('',#1450);
#1452=CARTESIAN_POINT('',(-12.210352392,-23.830589903,17.479246917));
#1453=DIRECTION('',(0.,0.,1.));
#1454=VECTOR('',#1453,2.120753083);
#1455=LINE('',#1452,#1454);
#1456=EDGE_CURVE('',#1449,#1451,#1455,.T.);
#1457=ORIENTED_EDGE('',*,*,#1456,.T.);
#1458=CARTESIAN_POINT('',(-0.563007941,-28.207995147,19.6));
#1459=VERTEX_POINT('',#1458);
#1460=CARTESIAN_POINT('',(-0.833477811,-11.243402008,19.6));
#1461=DIRECTION('',(0.,0.,1.));
#1462=DIRECTION('',(1.,0.,-0.));
#1463=AXIS2_PLACEMENT_3D('',#1460,#1461,#1462);
#1464=CIRCLE('',#1463,16.96674908);
#1465=EDGE_CURVE('',#1451,#1459,#1464,.T.);
#1466=ORIENTED_EDGE('',*,*,#1465,.T.);
#1467=CARTESIAN_POINT('',(-0.563007941,-28.207995147,18.099967585));
#1468=VERTEX_POINT('',#1467);
#1469=CARTESIAN_POINT('',(-0.563007941,-28.207995147,18.099967585));
#1470=DIRECTION('',(0.,0.,1.));
#1471=VECTOR('',#1470,1.500032415);
#1472=LINE('',#1469,#1471);
#1473=EDGE_CURVE('',#1468,#1459,#1472,.T.);
#1474=ORIENTED_EDGE('',*,*,#1473,.F.);
#1475=CARTESIAN_POINT('',(-0.922610402,-28.209916963,18.1));
#1476=VERTEX_POINT('',#1475);
#1477=CARTESIAN_POINT('',(-0.563007941,-28.207995147,18.099967585));
#1478=CARTESIAN_POINT('',(-0.682868638,-28.20990611,18.099992081));
#1479=CARTESIAN_POINT('',(-0.802736125,-28.210546715,18.1));
#1480=CARTESIAN_POINT('',(-0.922610402,-28.209916963,18.1));
#1481=B_SPLINE_CURVE_WITH_KNOTS('',3,(#1477,#1478,#1479,#1480),.UNSPECIFIED.,.F.,.F.,(4,4),(0.,0.000359608),.UNSPECIFIED.);
#1482=EDGE_CURVE('',#1468,#1476,#1481,.T.);
#1483=ORIENTED_EDGE('',*,*,#1482,.T.);
#1484=CARTESIAN_POINT('',(-3.247040592,-28.037606039,18.1));
#1485=VERTEX_POINT('',#1484);
#1486=CARTESIAN_POINT('',(-0.833477811,-11.243402008,18.1));
#1487=DIRECTION('',(0.,0.,1.));
#1488=DIRECTION('',(-0.689512547,-0.724273738,0.));
#1489=AXIS2_PLACEMENT_3D('',#1486,#1487,#1488);
#1490=CIRCLE('',#1489,16.96674908);
#1491=EDGE_CURVE('',#1485,#1476,#1490,.T.);
#1492=ORIENTED_EDGE('',*,*,#1491,.F.);
#1493=CARTESIAN_POINT('',(-3.247040592,-28.037606039,18.1));
#1494=CARTESIAN_POINT('',(-4.084557767,-27.917243069,18.1));
#1495=CARTESIAN_POINT('',(-4.905672763,-27.73564907,18.100062455));
#1496=CARTESIAN_POINT('',(-5.710681412,-27.494046899,18.094798894));
#1497=CARTESIAN_POINT('',(-6.113185737,-27.373245813,18.092167113));
#1498=CARTESIAN_POINT('',(-6.511646239,-27.237380142,18.088121946));
#1499=CARTESIAN_POINT('',(-6.905995655,-27.086226926,18.081383911));
#1500=CARTESIAN_POINT('',(-7.300345071,-26.935073709,18.074645875));
#1501=CARTESIAN_POINT('',(-7.689149159,-26.769065488,18.065218248));
#1502=CARTESIAN_POINT('',(-8.068490727,-26.590231076,18.05154483));
#1503=CARTESIAN_POINT('',(-8.827173863,-26.232562253,18.024197995));
#1504=CARTESIAN_POINT('',(-9.552950149,-25.821919329,17.981092069));
#1505=CARTESIAN_POINT('',(-10.244997331,-25.360550256,17.899280562));
#1506=CARTESIAN_POINT('',(-10.591020922,-25.12986572,17.858374809));
#1507=CARTESIAN_POINT('',(-10.928575178,-24.886460739,17.807643877));
#1508=CARTESIAN_POINT('',(-11.257199873,-24.630582171,17.740630389));
#1509=CARTESIAN_POINT('',(-11.585824568,-24.374703603,17.673616901));
#1510=CARTESIAN_POINT('',(-11.906093493,-24.105592975,17.590558666));
#1511=CARTESIAN_POINT('',(-12.210352392,-23.830589903,17.479246917));
#1512=B_SPLINE_CURVE_WITH_KNOTS('',3,(#1493,#1494,#1495,#1496,#1497,#1498,#1499,#1500,#1501,#1502,#1503,#1504,#1505,#1506,#1507,#1508,#1509,#1510,#1511),.UNSPECIFIED.,.F.,.F.,(4,3,3,3,3,3,4),(0.,0.002520374,0.003780561,0.005040748,0.007561122,0.008821308,0.010081495),.UNSPECIFIED.);
#1513=EDGE_CURVE('',#1485,#1449,#1512,.T.);
#1514=ORIENTED_EDGE('',*,*,#1513,.T.);
#1515=EDGE_LOOP('',(#1457,#1466,#1474,#1483,#1492,#1514));
#1516=FACE_BOUND('',#1515,.T.);
#1517=ADVANCED_FACE('',(#1516),#1447,.F.);
#1518=CARTESIAN_POINT('',(0.184195866,-10.911188592,18.1));
#1519=DIRECTION('',(0.,0.,1.));
#1520=DIRECTION('',(1.,0.,-0.));
#1521=AXIS2_PLACEMENT_3D('',#1518,#1519,#1520);
#1522=CYLINDRICAL_SURFACE('',#1521,17.312938241);
#1523=ORIENTED_EDGE('',*,*,#1473,.T.);
#1524=CARTESIAN_POINT('',(11.011070587,-24.421059588,19.6));
#1525=VERTEX_POINT('',#1524);
#1526=CARTESIAN_POINT('',(0.184195866,-10.911188592,19.6));
#1527=DIRECTION('',(0.,0.,1.));
#1528=DIRECTION('',(1.,0.,-0.));
#1529=AXIS2_PLACEMENT_3D('',#1526,#1527,#1528);
#1530=CIRCLE('',#1529,17.312938241);
#1531=EDGE_CURVE('',#1459,#1525,#1530,.T.);
#1532=ORIENTED_EDGE('',*,*,#1531,.T.);
#1533=CARTESIAN_POINT('',(11.011070587,-24.421059588,17.491726191));
#1534=VERTEX_POINT('',#1533);
#1535=CARTESIAN_POINT('',(11.011070587,-24.421059588,19.6));
#1536=DIRECTION('',(-0.,-0.,-1.));
#1537=VECTOR('',#1536,2.108273809);
#1538=LINE('',#1535,#1537);
#1539=EDGE_CURVE('',#1525,#1534,#1538,.T.);
#1540=ORIENTED_EDGE('',*,*,#1539,.T.);
#1541=CARTESIAN_POINT('',(0.229388432,-28.224067849,18.1));
#1542=VERTEX_POINT('',#1541);
#1543=CARTESIAN_POINT('',(11.011070587,-24.421059588,17.491726191));
#1544=CARTESIAN_POINT('',(10.638815734,-24.719386394,17.614490923));
#1545=CARTESIAN_POINT('',(10.252162852,-25.003939767,17.701259278));
#1546=CARTESIAN_POINT('',(9.852811098,-25.272794005,17.770649417));
#1547=CARTESIAN_POINT('',(9.453459343,-25.541648243,17.840039557));
#1548=CARTESIAN_POINT('',(9.041320461,-25.794914339,17.891040048));
#1549=CARTESIAN_POINT('',(8.61693849,-26.03159475,17.931153726));
#1550=CARTESIAN_POINT('',(8.192556519,-26.26827516,17.971267404));
#1551=CARTESIAN_POINT('',(7.75391587,-26.489211391,18.000350216));
#1552=CARTESIAN_POINT('',(7.309648055,-26.689837509,18.022229388));
#1553=CARTESIAN_POINT('',(6.86538024,-26.890463626,18.044108561));
#1554=CARTESIAN_POINT('',(6.415025889,-27.07128824,18.058861579));
#1555=CARTESIAN_POINT('',(5.958764332,-27.232713937,18.069492736));
#1556=CARTESIAN_POINT('',(5.046241217,-27.55556533,18.090755051));
#1557=CARTESIAN_POINT('',(4.110219075,-27.801218795,18.096060983));
#1558=CARTESIAN_POINT('',(3.150484006,-27.968121646,18.09839961));
#1559=CARTESIAN_POINT('',(2.670616471,-28.051573071,18.099568924));
#1560=CARTESIAN_POINT('',(2.18345223,-28.115266332,18.099829603));
#1561=CARTESIAN_POINT('',(1.695948015,-28.157998035,18.099936199));
#1562=CARTESIAN_POINT('',(1.208443801,-28.200729739,18.100042795));
#1563=CARTESIAN_POINT('',(0.719592889,-28.222788247,18.1));
#1564=CARTESIAN_POINT('',(0.229388432,-28.224067849,18.1));
#1565=B_SPLINE_CURVE_WITH_KNOTS('',3,(#1543,#1544,#1545,#1546,#1547,#1548,#1549,#1550,#1551,#1552,#1553,#1554,#1555,#1556,#1557,#1558,#1559,#1560,#1561,#1562,#1563,#1564),.UNSPECIFIED.,.F.,.F.,(4,3,3,3,3,3,3,4),(0.,0.001458579,0.002917157,0.004375736,0.005834314,0.008751471,0.01021005,0.011668628),.UNSPECIFIED.);
#1566=EDGE_CURVE('',#1534,#1542,#1565,.T.);
#1567=ORIENTED_EDGE('',*,*,#1566,.T.);
#1568=CARTESIAN_POINT('',(0.229388432,-28.224067849,18.1));
#1569=CARTESIAN_POINT('',(-0.034866356,-28.224757645,18.1));
#1570=CARTESIAN_POINT('',(-0.29899848,-28.219400078,18.10000251));
#1571=CARTESIAN_POINT('',(-0.563007941,-28.207995147,18.099967585));
#1572=B_SPLINE_CURVE_WITH_KNOTS('',3,(#1568,#1569,#1570,#1571),.UNSPECIFIED.,.F.,.F.,(4,4),(0.,0.000792559),.UNSPECIFIED.);
#1573=EDGE_CURVE('',#1542,#1468,#1572,.T.);
#1574=ORIENTED_EDGE('',*,*,#1573,.T.);
#1575=EDGE_LOOP('',(#1523,#1532,#1540,#1567,#1574));
#1576=FACE_BOUND('',#1575,.T.);
#1577=ADVANCED_FACE('',(#1576),#1522,.F.);
#1578=CARTESIAN_POINT('',(11.379256681,-23.873928457,18.1));
#1579=DIRECTION('',(0.999564256,-0.029517774,0.));
#1580=DIRECTION('',(0.029517774,0.999564256,0.));
#1581=AXIS2_PLACEMENT_3D('',#1578,#1579,#1580);
#1582=PLANE('',#1581);
#1583=CARTESIAN_POINT('',(11.385271627,-23.670243556,16.503081171));
#1584=VERTEX_POINT('',#1583);
#1585=CARTESIAN_POINT('',(11.385271627,-23.670243556,19.383540276));
#1586=VERTEX_POINT('',#1585);
#1587=CARTESIAN_POINT('',(11.385271627,-23.670243556,16.503081171));
#1588=DIRECTION('',(-0.,-0.,1.));
#1589=VECTOR('',#1588,2.880459104);
#1590=LINE('',#1587,#1589);
#1591=EDGE_CURVE('',#1584,#1586,#1590,.T.);
#1592=ORIENTED_EDGE('',*,*,#1591,.T.);
#1593=CARTESIAN_POINT('',(11.385271627,-23.670243556,19.383540276));
#1594=CARTESIAN_POINT('',(11.386176151,-23.63961356,19.291510584));
#1595=CARTESIAN_POINT('',(11.386636125,-23.624037393,19.197025557));
#1596=CARTESIAN_POINT('',(11.386636125,-23.624037393,19.1));
#1597=B_SPLINE_CURVE_WITH_KNOTS('',3,(#1593,#1594,#1595,#1596),.UNSPECIFIED.,.F.,.F.,(4,4),(0.,0.000287284),.UNSPECIFIED.);
#1598=EDGE_CURVE('',#1586,#771,#1597,.T.);
#1599=ORIENTED_EDGE('',*,*,#1598,.T.);
#1600=ORIENTED_EDGE('',*,*,#776,.F.);
#1601=CARTESIAN_POINT('',(11.386636125,-23.624037393,16.1));
#1602=CARTESIAN_POINT('',(11.386636125,-23.624037393,16.236127505));
#1603=CARTESIAN_POINT('',(11.386178612,-23.639530196,16.370477483));
#1604=CARTESIAN_POINT('',(11.385271627,-23.670243556,16.503081171));
#1605=B_SPLINE_CURVE_WITH_KNOTS('',3,(#1601,#1602,#1603,#1604),.UNSPECIFIED.,.F.,.F.,(4,4),(0.,0.000405723),.UNSPECIFIED.);
#1606=EDGE_CURVE('',#762,#1584,#1605,.T.);
#1607=ORIENTED_EDGE('',*,*,#1606,.T.);
#1608=EDGE_LOOP('',(#1592,#1599,#1600,#1607));
#1609=FACE_BOUND('',#1608,.T.);
#1610=ADVANCED_FACE('',(#1609),#1582,.F.);
#1611=CARTESIAN_POINT('',(0.,0.,18.1));
#1612=DIRECTION('',(0.,0.,1.));
#1613=DIRECTION('',(1.,0.,0.));
#1614=AXIS2_PLACEMENT_3D('',#1611,#1612,#1613);
#1615=PLANE('',#1614);
#1616=ORIENTED_EDGE('',*,*,#1491,.T.);
#1617=CARTESIAN_POINT('',(0.,0.,18.1));
#1618=DIRECTION('',(-0.,-0.,-1.));
#1619=DIRECTION('',(1.,0.,-0.));
#1620=AXIS2_PLACEMENT_3D('',#1617,#1618,#1619);
#1621=CIRCLE('',#1620,28.225);
#1622=EDGE_CURVE('',#1476,#1485,#1621,.T.);
#1623=ORIENTED_EDGE('',*,*,#1622,.T.);
#1624=EDGE_LOOP('',(#1616,#1623));
#1625=FACE_BOUND('',#1624,.T.);
#1626=ADVANCED_FACE('',(#1625),#1615,.T.);
#1627=CARTESIAN_POINT('',(0.,0.,16.1));
#1628=DIRECTION('',(0.,0.,1.));
#1629=DIRECTION('',(1.,0.,-0.));
#1630=AXIS2_PLACEMENT_3D('',#1627,#1628,#1629);
#1631=TOROIDAL_SURFACE('',#1630,28.225,2.);
#1632=ORIENTED_EDGE('',*,*,#1438,.F.);
#1633=CARTESIAN_POINT('',(-12.539662109,-23.106083967,16.603564342));
#1634=CARTESIAN_POINT('',(-12.539140495,-23.136112608,16.704053857));
#1635=CARTESIAN_POINT('',(-12.537267107,-23.175056128,16.80014141));
#1636=CARTESIAN_POINT('',(-12.530716484,-23.223290068,16.891436447));
#1637=CARTESIAN_POINT('',(-12.524165861,-23.271524007,16.982731483));
#1638=CARTESIAN_POINT('',(-12.512670241,-23.33021069,17.070443221));
#1639=CARTESIAN_POINT('',(-12.491443078,-23.395961997,17.148424561));
#1640=CARTESIAN_POINT('',(-12.480829497,-23.428837651,17.187415231));
#1641=CARTESIAN_POINT('',(-12.467801972,-23.463420493,17.224055504));
#1642=CARTESIAN_POINT('',(-12.451535853,-23.499521743,17.258240504));
#1643=CARTESIAN_POINT('',(-12.435269734,-23.535622993,17.292425504));
#1644=CARTESIAN_POINT('',(-12.415635709,-23.573343063,17.324152594));
#1645=CARTESIAN_POINT('',(-12.392699067,-23.610813011,17.352195796));
#1646=CARTESIAN_POINT('',(-12.346825782,-23.685752907,17.4082822));
#1647=CARTESIAN_POINT('',(-12.286008792,-23.762208197,17.451568363));
#1648=CARTESIAN_POINT('',(-12.210352392,-23.830589903,17.479246917));
#1649=B_SPLINE_CURVE_WITH_KNOTS('',3,(#1633,#1634,#1635,#1636,#1637,#1638,#1639,#1640,#1641,#1642,#1643,#1644,#1645,#1646,#1647,#1648),.UNSPECIFIED.,.F.,.F.,(4,3,3,3,3,4),(0.,0.000310186,0.000620371,0.000775464,0.000930557,0.001240743),.UNSPECIFIED.);
#1650=EDGE_CURVE('',#1426,#1449,#1649,.T.);
#1651=ORIENTED_EDGE('',*,*,#1650,.T.);
#1652=ORIENTED_EDGE('',*,*,#1513,.F.);
#1653=ORIENTED_EDGE('',*,*,#1622,.F.);
#1654=ORIENTED_EDGE('',*,*,#1482,.F.);
#1655=ORIENTED_EDGE('',*,*,#1573,.F.);
#1656=ORIENTED_EDGE('',*,*,#1566,.F.);
#1657=CARTESIAN_POINT('',(11.011070587,-24.421059588,17.491726191));
#1658=CARTESIAN_POINT('',(11.055135285,-24.385745929,17.477194235));
#1659=CARTESIAN_POINT('',(11.094346087,-24.348244817,17.458298086));
#1660=CARTESIAN_POINT('',(11.129405572,-24.309241292,17.435019332));
#1661=CARTESIAN_POINT('',(11.164465057,-24.270237767,17.411740578));
#1662=CARTESIAN_POINT('',(11.195623523,-24.229250102,17.383655619));
#1663=CARTESIAN_POINT('',(11.222052052,-24.188929736,17.351945716));
#1664=CARTESIAN_POINT('',(11.27490911,-24.108289003,17.28852591));
#1665=CARTESIAN_POINT('',(11.310205994,-24.02883491,17.209137537));
#1666=CARTESIAN_POINT('',(11.333470979,-23.959699362,17.120579576));
#1667=CARTESIAN_POINT('',(11.356735965,-23.890563814,17.032021615));
#1668=CARTESIAN_POINT('',(11.36878751,-23.830348035,16.933015996));
#1669=CARTESIAN_POINT('',(11.375700637,-23.781840396,16.828814691));
#1670=CARTESIAN_POINT('',(11.382613765,-23.733332757,16.724613386));
#1671=CARTESIAN_POINT('',(11.384500006,-23.696373057,16.615894232));
#1672=CARTESIAN_POINT('',(11.385271627,-23.670243556,16.503081171));
#1673=B_SPLINE_CURVE_WITH_KNOTS('',3,(#1657,#1658,#1659,#1660,#1661,#1662,#1663,#1664,#1665,#1666,#1667,#1668,#1669,#1670,#1671,#1672),.UNSPECIFIED.,.F.,.F.,(4,3,3,3,3,4),(0.,0.000171982,0.000343964,0.000687928,0.001031893,0.001375857),.UNSPECIFIED.);
#1674=EDGE_CURVE('',#1534,#1584,#1673,.T.);
#1675=ORIENTED_EDGE('',*,*,#1674,.T.);
#1676=ORIENTED_EDGE('',*,*,#1606,.F.);
#1677=ORIENTED_EDGE('',*,*,#768,.F.);
#1678=EDGE_LOOP('',(#1632,#1651,#1652,#1653,#1654,#1655,#1656,#1675,#1676,#1677));
#1679=FACE_BOUND('',#1678,.T.);
#1680=ADVANCED_FACE('',(#1679),#1631,.T.);
#1681=CARTESIAN_POINT('',(10.385707371,-23.640725782,18.1));
#1682=DIRECTION('',(0.,0.,1.));
#1683=DIRECTION('',(1.,0.,-0.));
#1684=AXIS2_PLACEMENT_3D('',#1681,#1682,#1683);
#1685=CYLINDRICAL_SURFACE('',#1684,1.);
#1686=CARTESIAN_POINT('',(11.376292155,-23.777626428,19.6));
#1687=VERTEX_POINT('',#1686);
#1688=CARTESIAN_POINT('',(10.385707371,-23.640725782,19.6));
#1689=DIRECTION('',(0.,0.,1.));
#1690=DIRECTION('',(1.,0.,-0.));
#1691=AXIS2_PLACEMENT_3D('',#1688,#1689,#1690);
#1692=CIRCLE('',#1691,1.);
#1693=EDGE_CURVE('',#1525,#1687,#1692,.T.);
#1694=ORIENTED_EDGE('',*,*,#1693,.T.);
#1695=CARTESIAN_POINT('',(11.376292155,-23.777626428,19.6));
#1696=CARTESIAN_POINT('',(11.382637549,-23.731712466,19.533006059));
#1697=CARTESIAN_POINT('',(11.384512383,-23.695953937,19.460788685));
#1698=CARTESIAN_POINT('',(11.385271627,-23.670243556,19.383540276));
#1699=B_SPLINE_CURVE_WITH_KNOTS('',3,(#1695,#1696,#1697,#1698),.UNSPECIFIED.,.F.,.F.,(4,4),(0.,0.000241799),.UNSPECIFIED.);
#1700=EDGE_CURVE('',#1687,#1586,#1699,.T.);
#1701=ORIENTED_EDGE('',*,*,#1700,.T.);
#1702=ORIENTED_EDGE('',*,*,#1591,.F.);
#1703=ORIENTED_EDGE('',*,*,#1674,.F.);
#1704=ORIENTED_EDGE('',*,*,#1539,.F.);
#1705=EDGE_LOOP('',(#1694,#1701,#1702,#1703,#1704));
#1706=FACE_BOUND('',#1705,.T.);
#1707=ADVANCED_FACE('',(#1706),#1685,.F.);
#1708=CARTESIAN_POINT('',(-11.539812943,-23.088716028,18.1));
#1709=DIRECTION('',(0.,0.,1.));
#1710=DIRECTION('',(1.,0.,-0.));
#1711=AXIS2_PLACEMENT_3D('',#1708,#1709,#1710);
#1712=CYLINDRICAL_SURFACE('',#1711,1.);
#1713=ORIENTED_EDGE('',*,*,#1431,.F.);
#1714=CARTESIAN_POINT('',(-12.534896658,-23.187753396,19.6));
#1715=VERTEX_POINT('',#1714);
#1716=CARTESIAN_POINT('',(-12.539662109,-23.106083967,19.453146957));
#1717=CARTESIAN_POINT('',(-12.539272967,-23.128486366,19.504817852));
#1718=CARTESIAN_POINT('',(-12.538086908,-23.155699176,19.553787672));
#1719=CARTESIAN_POINT('',(-12.534896658,-23.187753396,19.6));
#1720=B_SPLINE_CURVE_WITH_KNOTS('',3,(#1716,#1717,#1718,#1719),.UNSPECIFIED.,.F.,.F.,(4,4),(0.,0.000168102),.UNSPECIFIED.);
#1721=EDGE_CURVE('',#1417,#1715,#1720,.T.);
#1722=ORIENTED_EDGE('',*,*,#1721,.T.);
#1723=CARTESIAN_POINT('',(-11.539812943,-23.088716028,19.6));
#1724=DIRECTION('',(0.,0.,1.));
#1725=DIRECTION('',(1.,0.,-0.));
#1726=AXIS2_PLACEMENT_3D('',#1723,#1724,#1725);
#1727=CIRCLE('',#1726,1.);
#1728=EDGE_CURVE('',#1715,#1451,#1727,.T.);
#1729=ORIENTED_EDGE('',*,*,#1728,.T.);
#1730=ORIENTED_EDGE('',*,*,#1456,.F.);
#1731=ORIENTED_EDGE('',*,*,#1650,.F.);
#1732=EDGE_LOOP('',(#1713,#1722,#1729,#1730,#1731));
#1733=FACE_BOUND('',#1732,.T.);
#1734=ADVANCED_FACE('',(#1733),#1712,.F.);
#1735=CARTESIAN_POINT('',(-11.539812943,-23.088716028,20.1));
#1736=DIRECTION('',(0.,0.,1.));
#1737=DIRECTION('',(1.,0.,-0.));
#1738=AXIS2_PLACEMENT_3D('',#1735,#1736,#1737);
#1739=CONICAL_SURFACE('',#1738,1.5,45.);
#1740=ORIENTED_EDGE('',*,*,#1728,.F.);
#1741=CARTESIAN_POINT('',(-12.534896658,-23.187753396,19.6));
#1742=CARTESIAN_POINT('',(-12.574603402,-23.192530986,19.639984695));
#1743=CARTESIAN_POINT('',(-12.61335964,-23.201535089,19.679412559));
#1744=CARTESIAN_POINT('',(-12.650795275,-23.215914131,19.718240178));
#1745=CARTESIAN_POINT('',(-12.68823091,-23.230293173,19.757067796));
#1746=CARTESIAN_POINT('',(-12.724857018,-23.250373907,19.795822373));
#1747=CARTESIAN_POINT('',(-12.757955043,-23.277483806,19.832681407));
#1748=CARTESIAN_POINT('',(-12.791053069,-23.304593704,19.869540441));
#1749=CARTESIAN_POINT('',(-12.820744565,-23.339092183,19.904691042));
#1750=CARTESIAN_POINT('',(-12.843174307,-23.380427038,19.935607038));
#1751=CARTESIAN_POINT('',(-12.865604049,-23.421761894,19.966523034));
#1752=CARTESIAN_POINT('',(-12.880728589,-23.470308129,19.993338768));
#1753=CARTESIAN_POINT('',(-12.886423628,-23.522247066,20.014676465));
#1754=CARTESIAN_POINT('',(-12.892118668,-23.574186004,20.036014161));
#1755=CARTESIAN_POINT('',(-12.888439484,-23.629504454,20.052017089));
#1756=CARTESIAN_POINT('',(-12.877219509,-23.683376138,20.063651929));
#1757=CARTESIAN_POINT('',(-12.865999533,-23.737247822,20.075286769));
#1758=CARTESIAN_POINT('',(-12.847292544,-23.790608646,20.082912825));
#1759=CARTESIAN_POINT('',(-12.823508853,-23.841473611,20.08812606));
#1760=CARTESIAN_POINT('',(-12.775941472,-23.943203541,20.098552529));
#1761=CARTESIAN_POINT('',(-12.709262731,-24.034865965,20.1));
#1762=CARTESIAN_POINT('',(-12.631647376,-24.117257505,20.1));
#1763=B_SPLINE_CURVE_WITH_KNOTS('',3,(#1741,#1742,#1743,#1744,#1745,#1746,#1747,#1748,#1749,#1750,#1751,#1752,#1753,#1754,#1755,#1756,#1757,#1758,#1759,#1760,#1761,#1762),.UNSPECIFIED.,.F.,.F.,(4,3,3,3,3,3,3,4),(0.,0.000167439,0.000334878,0.000502318,0.000669757,0.000837196,0.001004635,0.001339514),.UNSPECIFIED.);
#1764=EDGE_CURVE('',#1715,#213,#1763,.T.);
#1765=ORIENTED_EDGE('',*,*,#1764,.T.);
#1766=ORIENTED_EDGE('',*,*,#219,.F.);
#1767=CARTESIAN_POINT('',(-12.210352392,-23.830589903,19.6));
#1768=DIRECTION('',(-0.474142991,-0.524584048,0.707106781));
#1769=VECTOR('',#1768,0.707106781);
#1770=LINE('',#1767,#1769);
#1771=EDGE_CURVE('',#1451,#204,#1770,.T.);
#1772=ORIENTED_EDGE('',*,*,#1771,.F.);
#1773=EDGE_LOOP('',(#1740,#1765,#1766,#1772));
#1774=FACE_BOUND('',#1773,.T.);
#1775=ADVANCED_FACE('',(#1774),#1739,.F.);
#1776=CARTESIAN_POINT('',(-0.833477811,-11.243402008,19.6));
#1777=DIRECTION('',(0.,0.,1.));
#1778=DIRECTION('',(1.,0.,-0.));
#1779=AXIS2_PLACEMENT_3D('',#1776,#1777,#1778);
#1780=CONICAL_SURFACE('',#1779,16.96674908,45.);
#1781=ORIENTED_EDGE('',*,*,#210,.F.);
#1782=CARTESIAN_POINT('',(-0.563007941,-28.207995147,19.6));
#1783=CARTESIAN_POINT('',(-0.565278036,-28.374718154,19.766665634));
#1784=CARTESIAN_POINT('',(-0.567548843,-28.54144009,19.93333233));
#1785=CARTESIAN_POINT('',(-0.569820302,-28.708161042,20.1));
#1786=B_SPLINE_CURVE_WITH_KNOTS('',3,(#1782,#1783,#1784,#1785),.UNSPECIFIED.,.F.,.F.,(4,4),(0.,0.000707257),.UNSPECIFIED.);
#1787=EDGE_CURVE('',#1459,#195,#1786,.T.);
#1788=ORIENTED_EDGE('',*,*,#1787,.F.);
#1789=ORIENTED_EDGE('',*,*,#1465,.F.);
#1790=ORIENTED_EDGE('',*,*,#1771,.T.);
#1791=EDGE_LOOP('',(#1781,#1788,#1789,#1790));
#1792=FACE_BOUND('',#1791,.T.);
#1793=ADVANCED_FACE('',(#1792),#1780,.F.);
#1794=CARTESIAN_POINT('',(0.184195866,-10.911188592,19.6));
#1795=DIRECTION('',(0.,0.,1.));
#1796=DIRECTION('',(1.,0.,-0.));
#1797=AXIS2_PLACEMENT_3D('',#1794,#1795,#1796);
#1798=CONICAL_SURFACE('',#1797,17.312938241,45.);
#1799=ORIENTED_EDGE('',*,*,#1787,.T.);
#1800=ORIENTED_EDGE('',*,*,#201,.F.);
#1801=CARTESIAN_POINT('',(11.011070587,-24.421059588,19.6));
#1802=DIRECTION('',(0.44219857,-0.551779326,0.707106781));
#1803=VECTOR('',#1802,0.707106781);
#1804=LINE('',#1801,#1803);
#1805=EDGE_CURVE('',#1525,#193,#1804,.T.);
#1806=ORIENTED_EDGE('',*,*,#1805,.F.);
#1807=ORIENTED_EDGE('',*,*,#1531,.F.);
#1808=EDGE_LOOP('',(#1799,#1800,#1806,#1807));
#1809=FACE_BOUND('',#1808,.T.);
#1810=ADVANCED_FACE('',(#1809),#1798,.F.);
#1811=CARTESIAN_POINT('',(10.385707371,-23.640725782,20.1));
#1812=DIRECTION('',(0.,0.,1.));
#1813=DIRECTION('',(1.,0.,-0.));
#1814=AXIS2_PLACEMENT_3D('',#1811,#1812,#1813);
#1815=CONICAL_SURFACE('',#1814,1.5,45.);
#1816=ORIENTED_EDGE('',*,*,#244,.F.);
#1817=CARTESIAN_POINT('',(11.445505222,-24.702247574,20.1));
#1818=CARTESIAN_POINT('',(11.524686826,-24.623194563,20.1));
#1819=CARTESIAN_POINT('',(11.593357961,-24.534587319,20.098391942));
#1820=CARTESIAN_POINT('',(11.643233266,-24.435288158,20.087514957));
#1821=CARTESIAN_POINT('',(11.668170919,-24.385638578,20.082076464));
#1822=CARTESIAN_POINT('',(11.687845241,-24.334257168,20.074337958));
#1823=CARTESIAN_POINT('',(11.700450812,-24.280743163,20.062249146));
#1824=CARTESIAN_POINT('',(11.713056383,-24.227229159,20.050160333));
#1825=CARTESIAN_POINT('',(11.717907269,-24.173813163,20.034127334));
#1826=CARTESIAN_POINT('',(11.713560906,-24.122147985,20.01243136));
#1827=CARTESIAN_POINT('',(11.709214543,-24.070482806,19.990735387));
#1828=CARTESIAN_POINT('',(11.695753593,-24.022934067,19.964214452));
#1829=CARTESIAN_POINT('',(11.674687834,-23.981197439,19.933188502));
#1830=CARTESIAN_POINT('',(11.653622075,-23.939460812,19.902162552));
#1831=CARTESIAN_POINT('',(11.625536504,-23.904616852,19.867420754));
#1832=CARTESIAN_POINT('',(11.593904598,-23.87661448,19.831009349));
#1833=CARTESIAN_POINT('',(11.530640786,-23.820609738,19.758186538));
#1834=CARTESIAN_POINT('',(11.454474931,-23.790956303,19.679271537));
#1835=CARTESIAN_POINT('',(11.376292155,-23.777626428,19.6));
#1836=B_SPLINE_CURVE_WITH_KNOTS('',3,(#1817,#1818,#1819,#1820,#1821,#1822,#1823,#1824,#1825,#1826,#1827,#1828,#1829,#1830,#1831,#1832,#1833,#1834,#1835),.UNSPECIFIED.,.F.,.F.,(4,3,3,3,3,3,4),(0.,0.00033261,0.000498915,0.00066522,0.000831524,0.000997829,0.001330439),.UNSPECIFIED.);
#1837=EDGE_CURVE('',#231,#1687,#1836,.T.);
#1838=ORIENTED_EDGE('',*,*,#1837,.T.);
#1839=ORIENTED_EDGE('',*,*,#1693,.F.);
#1840=ORIENTED_EDGE('',*,*,#1805,.T.);
#1841=EDGE_LOOP('',(#1816,#1838,#1839,#1840));
#1842=FACE_BOUND('',#1841,.T.);
#1843=ADVANCED_FACE('',(#1842),#1815,.F.);
#1844=CARTESIAN_POINT('',(0.,0.,19.1));
#1845=DIRECTION('',(0.,0.,1.));
#1846=DIRECTION('',(1.,0.,-0.));
#1847=AXIS2_PLACEMENT_3D('',#1844,#1845,#1846);
#1848=TOROIDAL_SURFACE('',#1847,27.225,1.);
#1849=CARTESIAN_POINT('',(27.225,0.,19.1));
#1850=DIRECTION('',(-0.,1.,-0.));
#1851=DIRECTION('',(1.,0.,0.));
#1852=AXIS2_PLACEMENT_3D('',#1849,#1850,#1851);
#1853=CIRCLE('',#1852,1.);
#1854=EDGE_CURVE('',#811,#222,#1853,.T.);
#1855=ORIENTED_EDGE('',*,*,#1854,.T.);
#1856=ORIENTED_EDGE('',*,*,#228,.F.);
#1857=ORIENTED_EDGE('',*,*,#1764,.F.);
#1858=ORIENTED_EDGE('',*,*,#1721,.F.);
#1859=ORIENTED_EDGE('',*,*,#1423,.F.);
#1860=ORIENTED_EDGE('',*,*,#751,.F.);
#1861=ORIENTED_EDGE('',*,*,#1046,.F.);
#1862=ORIENTED_EDGE('',*,*,#1010,.F.);
#1863=ORIENTED_EDGE('',*,*,#977,.F.);
#1864=CARTESIAN_POINT('',(0.,0.,19.1));
#1865=DIRECTION('',(0.,0.,1.));
#1866=DIRECTION('',(1.,0.,-0.));
#1867=AXIS2_PLACEMENT_3D('',#1864,#1865,#1866);
#1868=CIRCLE('',#1867,26.225);
#1869=EDGE_CURVE('',#705,#957,#1868,.T.);
#1870=ORIENTED_EDGE('',*,*,#1869,.F.);
#1871=ORIENTED_EDGE('',*,*,#726,.F.);
#1872=ORIENTED_EDGE('',*,*,#1272,.F.);
#1873=ORIENTED_EDGE('',*,*,#1236,.F.);
#1874=ORIENTED_EDGE('',*,*,#1203,.F.);
#1875=ORIENTED_EDGE('',*,*,#687,.F.);
#1876=ORIENTED_EDGE('',*,*,#926,.F.);
#1877=ORIENTED_EDGE('',*,*,#890,.F.);
#1878=ORIENTED_EDGE('',*,*,#857,.F.);
#1879=ORIENTED_EDGE('',*,*,#655,.F.);
#1880=ORIENTED_EDGE('',*,*,#1159,.F.);
#1881=ORIENTED_EDGE('',*,*,#1123,.F.);
#1882=ORIENTED_EDGE('',*,*,#1090,.F.);
#1883=ORIENTED_EDGE('',*,*,#826,.F.);
#1884=EDGE_LOOP('',(#1855,#1856,#1857,#1858,#1859,#1860,#1861,#1862,#1863,#1870,#1871,#1872,#1873,#1874,#1875,#1876,#1877,#1878,#1879,#1880,#1881,#1882,#1883));
#1885=FACE_BOUND('',#1884,.T.);
#1886=ADVANCED_FACE('',(#1885),#1848,.T.);
#1887=CARTESIAN_POINT('',(-12.,15.,-4.));
#1888=DIRECTION('',(1.,0.,0.));
#1889=DIRECTION('',(-0.,1.,0.));
#1890=AXIS2_PLACEMENT_3D('',#1887,#1888,#1889);
#1891=PLANE('',#1890);
#1892=ORIENTED_EDGE('',*,*,#448,.T.);
#1893=CARTESIAN_POINT('',(-12.,21.,5.));
#1894=VERTEX_POINT('',#1893);
#1895=CARTESIAN_POINT('',(-12.,22.,5.));
#1896=DIRECTION('',(-1.,-0.,-0.));
#1897=DIRECTION('',(-0.,1.,0.));
#1898=AXIS2_PLACEMENT_3D('',#1895,#1896,#1897);
#1899=CIRCLE('',#1898,1.);
#1900=EDGE_CURVE('',#443,#1894,#1899,.T.);
#1901=ORIENTED_EDGE('',*,*,#1900,.T.);
#1902=CARTESIAN_POINT('',(-12.,21.,6.));
#1903=VERTEX_POINT('',#1902);
#1904=CARTESIAN_POINT('',(-12.,21.,5.));
#1905=DIRECTION('',(0.,0.,1.));
#1906=VECTOR('',#1905,1.);
#1907=LINE('',#1904,#1906);
#1908=EDGE_CURVE('',#1894,#1903,#1907,.T.);
#1909=ORIENTED_EDGE('',*,*,#1908,.T.);
#1910=CARTESIAN_POINT('',(-12.,22.,6.));
#1911=DIRECTION('',(-1.,-0.,-0.));
#1912=DIRECTION('',(-0.,1.,0.));
#1913=AXIS2_PLACEMENT_3D('',#1910,#1911,#1912);
#1914=CIRCLE('',#1913,1.);
#1915=EDGE_CURVE('',#1903,#367,#1914,.T.);
#1916=ORIENTED_EDGE('',*,*,#1915,.T.);
#1917=ORIENTED_EDGE('',*,*,#396,.F.);
#1918=CARTESIAN_POINT('',(-12.,9.,7.));
#1919=DIRECTION('',(0.,-0.707106781,-0.707106781));
#1920=VECTOR('',#1919,4.242640687);
#1921=LINE('',#1918,#1920);
#1922=EDGE_CURVE('',#385,#441,#1921,.T.);
#1923=ORIENTED_EDGE('',*,*,#1922,.T.);
#1924=EDGE_LOOP('',(#1892,#1901,#1909,#1916,#1917,#1923));
#1925=FACE_BOUND('',#1924,.T.);
#1926=ADVANCED_FACE('',(#1925),#1891,.T.);
#1927=CARTESIAN_POINT('',(12.,15.,-4.));
#1928=DIRECTION('',(-1.,0.,0.));
#1929=DIRECTION('',(0.,0.,1.));
#1930=AXIS2_PLACEMENT_3D('',#1927,#1928,#1929);
#1931=PLANE('',#1930);
#1932=ORIENTED_EDGE('',*,*,#464,.T.);
#1933=CARTESIAN_POINT('',(12.,6.,4.));
#1934=DIRECTION('',(0.,0.707106781,0.707106781));
#1935=VECTOR('',#1934,4.242640687);
#1936=LINE('',#1933,#1935);
#1937=EDGE_CURVE('',#451,#377,#1936,.T.);
#1938=ORIENTED_EDGE('',*,*,#1937,.T.);
#1939=ORIENTED_EDGE('',*,*,#382,.F.);
#1940=CARTESIAN_POINT('',(12.,21.,6.));
#1941=VERTEX_POINT('',#1940);
#1942=CARTESIAN_POINT('',(12.,22.,6.));
#1943=DIRECTION('',(1.,-0.,-0.));
#1944=DIRECTION('',(0.,0.,1.));
#1945=AXIS2_PLACEMENT_3D('',#1942,#1943,#1944);
#1946=CIRCLE('',#1945,1.);
#1947=EDGE_CURVE('',#369,#1941,#1946,.T.);
#1948=ORIENTED_EDGE('',*,*,#1947,.T.);
#1949=CARTESIAN_POINT('',(12.,21.,5.));
#1950=VERTEX_POINT('',#1949);
#1951=CARTESIAN_POINT('',(12.,21.,5.));
#1952=DIRECTION('',(0.,0.,1.));
#1953=VECTOR('',#1952,1.);
#1954=LINE('',#1951,#1953);
#1955=EDGE_CURVE('',#1950,#1941,#1954,.T.);
#1956=ORIENTED_EDGE('',*,*,#1955,.F.);
#1957=CARTESIAN_POINT('',(12.,22.,5.));
#1958=DIRECTION('',(1.,-0.,-0.));
#1959=DIRECTION('',(0.,0.,1.));
#1960=AXIS2_PLACEMENT_3D('',#1957,#1958,#1959);
#1961=CIRCLE('',#1960,1.);
#1962=EDGE_CURVE('',#1950,#459,#1961,.T.);
#1963=ORIENTED_EDGE('',*,*,#1962,.T.);
#1964=EDGE_LOOP('',(#1932,#1938,#1939,#1948,#1956,#1963));
#1965=FACE_BOUND('',#1964,.T.);
#1966=ADVANCED_FACE('',(#1965),#1931,.T.);
#1967=CARTESIAN_POINT('',(0.,21.,-4.));
#1968=DIRECTION('',(0.,-1.,0.));
#1969=DIRECTION('',(1.,0.,0.));
#1970=AXIS2_PLACEMENT_3D('',#1967,#1968,#1969);
#1971=PLANE('',#1970);
#1972=ORIENTED_EDGE('',*,*,#1955,.T.);
#1973=CARTESIAN_POINT('',(12.,21.,6.));
#1974=DIRECTION('',(-1.,-0.,-0.));
#1975=VECTOR('',#1974,24.);
#1976=LINE('',#1973,#1975);
#1977=EDGE_CURVE('',#1941,#1903,#1976,.T.);
#1978=ORIENTED_EDGE('',*,*,#1977,.T.);
#1979=ORIENTED_EDGE('',*,*,#1908,.F.);
#1980=CARTESIAN_POINT('',(-12.,21.,5.));
#1981=DIRECTION('',(1.,0.,0.));
#1982=VECTOR('',#1981,24.);
#1983=LINE('',#1980,#1982);
#1984=EDGE_CURVE('',#1894,#1950,#1983,.T.);
#1985=ORIENTED_EDGE('',*,*,#1984,.T.);
#1986=EDGE_LOOP('',(#1972,#1978,#1979,#1985));
#1987=FACE_BOUND('',#1986,.T.);
#1988=ADVANCED_FACE('',(#1987),#1971,.T.);
#1989=CARTESIAN_POINT('',(-0.,22.,5.));
#1990=DIRECTION('',(-1.,-0.,0.));
#1991=DIRECTION('',(0.,-1.,0.));
#1992=AXIS2_PLACEMENT_3D('',#1989,#1990,#1991);
#1993=CYLINDRICAL_SURFACE('',#1992,1.);
#1994=ORIENTED_EDGE('',*,*,#1900,.F.);
#1995=ORIENTED_EDGE('',*,*,#470,.F.);
#1996=ORIENTED_EDGE('',*,*,#1962,.F.);
#1997=ORIENTED_EDGE('',*,*,#1984,.F.);
#1998=EDGE_LOOP('',(#1994,#1995,#1996,#1997));
#1999=FACE_BOUND('',#1998,.T.);
#2000=ADVANCED_FACE('',(#1999),#1993,.T.);
#2001=CARTESIAN_POINT('',(-0.,22.,6.));
#2002=DIRECTION('',(1.,0.,0.));
#2003=DIRECTION('',(-0.,1.,0.));
#2004=AXIS2_PLACEMENT_3D('',#2001,#2002,#2003);
#2005=CYLINDRICAL_SURFACE('',#2004,1.);
#2006=ORIENTED_EDGE('',*,*,#1915,.F.);
#2007=ORIENTED_EDGE('',*,*,#1977,.F.);
#2008=ORIENTED_EDGE('',*,*,#1947,.F.);
#2009=ORIENTED_EDGE('',*,*,#374,.F.);
#2010=EDGE_LOOP('',(#2006,#2007,#2008,#2009));
#2011=FACE_BOUND('',#2010,.T.);
#2012=ADVANCED_FACE('',(#2011),#2005,.T.);
#2013=CARTESIAN_POINT('',(0.,9.,7.));
#2014=DIRECTION('',(-0.,0.707106781,-0.707106781));
#2015=DIRECTION('',(1.,0.,0.));
#2016=AXIS2_PLACEMENT_3D('',#2013,#2014,#2015);
#2017=PLANE('',#2016);
#2018=ORIENTED_EDGE('',*,*,#1937,.F.);
#2019=ORIENTED_EDGE('',*,*,#456,.F.);
#2020=ORIENTED_EDGE('',*,*,#1922,.F.);
#2021=ORIENTED_EDGE('',*,*,#390,.F.);
#2022=EDGE_LOOP('',(#2018,#2019,#2020,#2021));
#2023=FACE_BOUND('',#2022,.T.);
#2024=ADVANCED_FACE('',(#2023),#2017,.T.);
#2025=CARTESIAN_POINT('',(0.,0.,11.6));
#2026=DIRECTION('',(0.,0.,1.));
#2027=DIRECTION('',(1.,0.,-0.));
#2028=AXIS2_PLACEMENT_3D('',#2025,#2026,#2027);
#2029=CYLINDRICAL_SURFACE('',#2028,30.);
#2030=CARTESIAN_POINT('',(30.,0.,19.5));
#2031=VERTEX_POINT('',#2030);
#2032=CARTESIAN_POINT('',(30.,0.,13.2));
#2033=VERTEX_POINT('',#2032);
#2034=CARTESIAN_POINT('',(30.,0.,19.5));
#2035=DIRECTION('',(-0.,-0.,-1.));
#2036=VECTOR('',#2035,6.3);
#2037=LINE('',#2034,#2036);
#2038=EDGE_CURVE('',#2031,#2033,#2037,.T.);
#2039=ORIENTED_EDGE('',*,*,#2038,.T.);
#2040=CARTESIAN_POINT('',(0.,0.,13.2));
#2041=DIRECTION('',(0.,0.,1.));
#2042=DIRECTION('',(1.,0.,-0.));
#2043=AXIS2_PLACEMENT_3D('',#2040,#2041,#2042);
#2044=CIRCLE('',#2043,30.);
#2045=EDGE_CURVE('',#2033,#2033,#2044,.T.);
#2046=ORIENTED_EDGE('',*,*,#2045,.T.);
#2047=ORIENTED_EDGE('',*,*,#2038,.F.);
#2048=CARTESIAN_POINT('',(0.,0.,19.5));
#2049=DIRECTION('',(-0.,-0.,-1.));
#2050=DIRECTION('',(1.,0.,-0.));
#2051=AXIS2_PLACEMENT_3D('',#2048,#2049,#2050);
#2052=CIRCLE('',#2051,30.);
#2053=EDGE_CURVE('',#2031,#2031,#2052,.T.);
#2054=ORIENTED_EDGE('',*,*,#2053,.T.);
#2055=EDGE_LOOP('',(#2039,#2046,#2047,#2054));
#2056=FACE_BOUND('',#2055,.T.);
#2057=ADVANCED_FACE('',(#2056),#2029,.T.);
#2058=CARTESIAN_POINT('',(0.,0.,11.6));
#2059=DIRECTION('',(0.,0.,1.));
#2060=DIRECTION('',(1.,0.,0.));
#2061=AXIS2_PLACEMENT_3D('',#2058,#2059,#2060);
#2062=PLANE('',#2061);
#2063=CARTESIAN_POINT('',(31.6,0.,11.6));
#2064=VERTEX_POINT('',#2063);
#2065=CARTESIAN_POINT('',(0.,0.,11.6));
#2066=DIRECTION('',(-0.,-0.,-1.));
#2067=DIRECTION('',(1.,0.,-0.));
#2068=AXIS2_PLACEMENT_3D('',#2065,#2066,#2067);
#2069=CIRCLE('',#2068,31.6);
#2070=EDGE_CURVE('',#2064,#2064,#2069,.T.);
#2071=ORIENTED_EDGE('',*,*,#2070,.T.);
#2072=EDGE_LOOP('',(#2071));
#2073=FACE_BOUND('',#2072,.T.);
#2074=ORIENTED_EDGE('',*,*,#56,.F.);
#2075=CARTESIAN_POINT('',(33.4,57.9,11.6));
#2076=DIRECTION('',(0.,0.,1.));
#2077=DIRECTION('',(1.,0.,-0.));
#2078=AXIS2_PLACEMENT_3D('',#2075,#2076,#2077);
#2079=CIRCLE('',#2078,1.6);
#2080=EDGE_CURVE('',#43,#75,#2079,.T.);
#2081=ORIENTED_EDGE('',*,*,#2080,.T.);
#2082=ORIENTED_EDGE('',*,*,#80,.F.);
#2083=CARTESIAN_POINT('',(-33.4,57.9,11.6));
#2084=DIRECTION('',(0.,0.,1.));
#2085=DIRECTION('',(1.,0.,-0.));
#2086=AXIS2_PLACEMENT_3D('',#2083,#2084,#2085);
#2087=CIRCLE('',#2086,1.6);
#2088=EDGE_CURVE('',#73,#115,#2087,.T.);
#2089=ORIENTED_EDGE('',*,*,#2088,.T.);
#2090=ORIENTED_EDGE('',*,*,#120,.F.);
#2091=CARTESIAN_POINT('',(-33.4,-57.9,11.6));
#2092=DIRECTION('',(0.,0.,1.));
#2093=DIRECTION('',(1.,0.,-0.));
#2094=AXIS2_PLACEMENT_3D('',#2091,#2092,#2093);
#2095=CIRCLE('',#2094,1.6);
#2096=EDGE_CURVE('',#113,#155,#2095,.T.);
#2097=ORIENTED_EDGE('',*,*,#2096,.T.);
#2098=ORIENTED_EDGE('',*,*,#160,.F.);
#2099=CARTESIAN_POINT('',(33.4,-57.9,11.6));
#2100=DIRECTION('',(0.,0.,1.));
#2101=DIRECTION('',(1.,0.,-0.));
#2102=AXIS2_PLACEMENT_3D('',#2099,#2100,#2101);
#2103=CIRCLE('',#2102,1.6);
#2104=EDGE_CURVE('',#153,#51,#2103,.T.);
#2105=ORIENTED_EDGE('',*,*,#2104,.T.);
#2106=EDGE_LOOP('',(#2074,#2081,#2082,#2089,#2090,#2097,#2098,#2105));
#2107=FACE_BOUND('',#2106,.T.);
#2108=ADVANCED_FACE('',(#2073,#2107),#2062,.T.);
#2109=CARTESIAN_POINT('',(33.4,-57.9,14.1));
#2110=DIRECTION('',(0.,0.,-1.));
#2111=DIRECTION('',(-1.,0.,0.));
#2112=AXIS2_PLACEMENT_3D('',#2109,#2110,#2111);
#2113=CYLINDRICAL_SURFACE('',#2112,1.6);
#2114=ORIENTED_EDGE('',*,*,#2104,.F.);
#2115=ORIENTED_EDGE('',*,*,#182,.F.);
#2116=ORIENTED_EDGE('',*,*,#420,.F.);
#2117=ORIENTED_EDGE('',*,*,#62,.F.);
#2118=EDGE_LOOP('',(#2114,#2115,#2116,#2117));
#2119=FACE_BOUND('',#2118,.T.);
#2120=ADVANCED_FACE('',(#2119),#2113,.T.);
#2121=CARTESIAN_POINT('',(-33.4,-57.9,14.1));
#2122=DIRECTION('',(0.,0.,-1.));
#2123=DIRECTION('',(-1.,0.,0.));
#2124=AXIS2_PLACEMENT_3D('',#2121,#2122,#2123);
#2125=CYLINDRICAL_SURFACE('',#2124,1.6);
#2126=ORIENTED_EDGE('',*,*,#2096,.F.);
#2127=ORIENTED_EDGE('',*,*,#142,.F.);
#2128=ORIENTED_EDGE('',*,*,#428,.F.);
#2129=ORIENTED_EDGE('',*,*,#168,.F.);
#2130=EDGE_LOOP('',(#2126,#2127,#2128,#2129));
#2131=FACE_BOUND('',#2130,.T.);
#2132=ADVANCED_FACE('',(#2131),#2125,.T.);
#2133=CARTESIAN_POINT('',(-33.4,57.9,14.1));
#2134=DIRECTION('',(0.,0.,-1.));
#2135=DIRECTION('',(-1.,0.,0.));
#2136=AXIS2_PLACEMENT_3D('',#2133,#2134,#2135);
#2137=CYLINDRICAL_SURFACE('',#2136,1.6);
#2138=ORIENTED_EDGE('',*,*,#2088,.F.);
#2139=ORIENTED_EDGE('',*,*,#102,.F.);
#2140=ORIENTED_EDGE('',*,*,#436,.F.);
#2141=ORIENTED_EDGE('',*,*,#128,.F.);
#2142=EDGE_LOOP('',(#2138,#2139,#2140,#2141));
#2143=FACE_BOUND('',#2142,.T.);
#2144=ADVANCED_FACE('',(#2143),#2137,.T.);
#2145=CARTESIAN_POINT('',(33.4,57.9,14.1));
#2146=DIRECTION('',(0.,0.,-1.));
#2147=DIRECTION('',(-1.,0.,0.));
#2148=AXIS2_PLACEMENT_3D('',#2145,#2146,#2147);
#2149=CYLINDRICAL_SURFACE('',#2148,1.6);
#2150=ORIENTED_EDGE('',*,*,#2080,.F.);
#2151=ORIENTED_EDGE('',*,*,#48,.F.);
#2152=ORIENTED_EDGE('',*,*,#412,.F.);
#2153=ORIENTED_EDGE('',*,*,#88,.F.);
#2154=EDGE_LOOP('',(#2150,#2151,#2152,#2153));
#2155=FACE_BOUND('',#2154,.T.);
#2156=ADVANCED_FACE('',(#2155),#2149,.T.);
#2157=CARTESIAN_POINT('',(0.,0.,13.2));
#2158=DIRECTION('',(0.,0.,1.));
#2159=DIRECTION('',(1.,0.,-0.));
#2160=AXIS2_PLACEMENT_3D('',#2157,#2158,#2159);
#2161=TOROIDAL_SURFACE('',#2160,31.6,1.6);
#2162=CARTESIAN_POINT('',(31.6,0.,13.2));
#2163=DIRECTION('',(-0.,1.,-0.));
#2164=DIRECTION('',(1.,0.,0.));
#2165=AXIS2_PLACEMENT_3D('',#2162,#2163,#2164);
#2166=CIRCLE('',#2165,1.6);
#2167=EDGE_CURVE('',#2064,#2033,#2166,.T.);
#2168=ORIENTED_EDGE('',*,*,#2167,.F.);
#2169=ORIENTED_EDGE('',*,*,#2070,.F.);
#2170=ORIENTED_EDGE('',*,*,#2167,.T.);
#2171=ORIENTED_EDGE('',*,*,#2045,.F.);
#2172=EDGE_LOOP('',(#2168,#2169,#2170,#2171));
#2173=FACE_BOUND('',#2172,.T.);
#2174=ADVANCED_FACE('',(#2173),#2161,.F.);
#2175=CARTESIAN_POINT('',(0.,0.,19.5));
#2176=DIRECTION('',(0.,0.,1.));
#2177=DIRECTION('',(1.,0.,-0.));
#2178=AXIS2_PLACEMENT_3D('',#2175,#2176,#2177);
#2179=TOROIDAL_SURFACE('',#2178,29.4,0.6);
#2180=CARTESIAN_POINT('',(29.4,0.,19.5));
#2181=DIRECTION('',(-0.,1.,-0.));
#2182=DIRECTION('',(1.,0.,0.));
#2183=AXIS2_PLACEMENT_3D('',#2180,#2181,#2182);
#2184=CIRCLE('',#2183,0.6);
#2185=EDGE_CURVE('',#249,#2031,#2184,.T.);
#2186=ORIENTED_EDGE('',*,*,#2185,.T.);
#2187=ORIENTED_EDGE('',*,*,#2053,.F.);
#2188=ORIENTED_EDGE('',*,*,#2185,.F.);
#2189=ORIENTED_EDGE('',*,*,#255,.F.);
#2190=EDGE_LOOP('',(#2186,#2187,#2188,#2189));
#2191=FACE_BOUND('',#2190,.T.);
#2192=ADVANCED_FACE('',(#2191),#2179,.T.);
#2193=CARTESIAN_POINT('',(0.,0.,14.1));
#2194=DIRECTION('',(0.,0.,-1.));
#2195=DIRECTION('',(-1.,0.,0.));
#2196=AXIS2_PLACEMENT_3D('',#2193,#2194,#2195);
#2197=CYLINDRICAL_SURFACE('',#2196,26.225);
#2198=ORIENTED_EDGE('',*,*,#710,.T.);
#2199=ORIENTED_EDGE('',*,*,#1869,.T.);
#2200=ORIENTED_EDGE('',*,*,#962,.F.);
#2201=ORIENTED_EDGE('',*,*,#328,.F.);
#2202=EDGE_LOOP('',(#2198,#2199,#2200,#2201));
#2203=FACE_BOUND('',#2202,.T.);
#2204=ADVANCED_FACE('',(#2203),#2197,.F.);
#2205=CARTESIAN_POINT('',(0.,0.,19.1));
#2206=DIRECTION('',(0.,0.,1.));
#2207=DIRECTION('',(1.,0.,-0.));
#2208=AXIS2_PLACEMENT_3D('',#2205,#2206,#2207);
#2209=TOROIDAL_SURFACE('',#2208,27.225,1.);
#2210=ORIENTED_EDGE('',*,*,#1854,.F.);
#2211=ORIENTED_EDGE('',*,*,#817,.F.);
#2212=ORIENTED_EDGE('',*,*,#1385,.F.);
#2213=ORIENTED_EDGE('',*,*,#1349,.F.);
#2214=ORIENTED_EDGE('',*,*,#1316,.F.);
#2215=ORIENTED_EDGE('',*,*,#785,.F.);
#2216=ORIENTED_EDGE('',*,*,#1598,.F.);
#2217=ORIENTED_EDGE('',*,*,#1700,.F.);
#2218=ORIENTED_EDGE('',*,*,#1837,.F.);
#2219=ORIENTED_EDGE('',*,*,#237,.F.);
#2220=EDGE_LOOP('',(#2210,#2211,#2212,#2213,#2214,#2215,#2216,#2217,#2218,#2219));
#2221=FACE_BOUND('',#2220,.T.);
#2222=ADVANCED_FACE('',(#2221),#2209,.T.);
#2223=CLOSED_SHELL('',(#66,#106,#146,#186,#259,#400,#474,#506,#538,#570,#602,#634,#666,#698,#730,#796,#837,#876,#908,#938,#950,#996,#1028,#1058,#1070,#1109,
#1141,#1171,#1183,#1222,#1254,#1284,#1296,#1335,#1367,#1397,#1409,#1442,#1517,#1577,#1610,#1626,#1680,#1707,#1734,#1775,#1793,#1810,#1843,#1886,#1926,
#1966,#1988,#2000,#2012,#2024,#2057,#2108,#2120,#2132,#2144,#2156,#2174,#2192,#2204,#2222));
#2224=MANIFOLD_SOLID_BREP('Body 02',#2223);
#2225=COLOUR_RGB('',0.627451003,0.627451003,0.643137276);
#2226=FILL_AREA_STYLE_COLOUR('',#2225);
#2227=FILL_AREA_STYLE('',(#2226));
#2228=SURFACE_STYLE_FILL_AREA(#2227);
#2229=SURFACE_SIDE_STYLE('',(#2228));
#2230=SURFACE_STYLE_USAGE(.BOTH.,#2229);
#2231=PRESENTATION_STYLE_ASSIGNMENT((#2230));
#26=STYLED_ITEM('',(#2231),#2224);
#16=SHAPE_REPRESENTATION('root',(#15),#10);
#17=ADVANCED_BREP_SHAPE_REPRESENTATION('root',(#2224),#10);
#2239=SHAPE_REPRESENTATION_RELATIONSHIP('','',#16,#17);
#2240=CARTESIAN_POINT('',(0.,0.,0.));
#2241=DIRECTION('',(0.,0.,1.));
#2242=DIRECTION('',(1.,0.,0.));
#2243=AXIS2_PLACEMENT_3D('',#2240,#2241,#2242);
#2245=MAPPED_ITEM('',#2244,#2243);
#2244=REPRESENTATION_MAP(#2243,#16);
#2246=APPLICATION_CONTEXT('Managed model based 3d engineering');
#2247=APPLICATION_PROTOCOL_DEFINITION('international standard','ap242_managed_model_based_3d_engineering',2014,#2246);
#2248=PRODUCT_CONTEXT('',#2246,'mechanical');
#2249=PRODUCT_DEFINITION_CONTEXT('part definition',#2246,'design');
#24=PRODUCT('root','root','',(#2248));
#2250=PRODUCT_RELATED_PRODUCT_CATEGORY('part','',(#24));
#2251=PRODUCT_DEFINITION_FORMATION_WITH_SPECIFIED_SOURCE('','',#24,.NOT_KNOWN.);
#25=PRODUCT_DEFINITION('design','',#2251,#2249);
#23=PRODUCT_DEFINITION_SHAPE('','',#25);
#2252=SHAPE_DEFINITION_REPRESENTATION(#23,#16);
#11=DRAUGHTING_MODEL('',(#2245),#10);
#2253=DESCRIPTIVE_REPRESENTATION_ITEM('KEY','/Users/tdbell11/Library/Containers/com.shapr3d.shapr/Data/tmp/5764CBD2-A46D-490F-A01C-5C8BCD2B082E.tmp');
#2254=PROPERTY_DEFINITION('KEY','',#25);
#2255=REPRESENTATION('',(#2253),#10);
#2256=PROPERTY_DEFINITION_REPRESENTATION(#2254,#2255);
#2257=GENERAL_PROPERTY('','KEY','');
#2258=GENERAL_PROPERTY_ASSOCIATION('','',#2257,#2254);
#1=MECHANICAL_DESIGN_GEOMETRIC_PRESENTATION_REPRESENTATION('',(#26),#10);
ENDSEC;
END-ISO-10303-21;
