ISO-10303-21;
HEADER;

/* File generated by Shapr3D Version 26.151.0.11589 */

FILE_DESCRIPTION(('HOOPS Exchange Step'),'2;1');

FILE_NAME('/Users/tdbell11/Library/Containers/com.shapr3d.shapr/Data/tmp/export/temp_export',
'2026-08-30T09:47:40-07:00',
('tysonbell'),
('Shapr3D Limited'),
'HOOPS Exchange 2026.3',
'Shapr3D',
'Authorized');

FILE_SCHEMA( ('AP242_MANAGED_MODEL_BASED_3D_ENGINEERING_MIM_LF {1 0 10303 442 1 1 4}') );

ENDSEC;

DATA;
#3=(NAMED_UNIT(*)PLANE_ANGLE_UNIT()SI_UNIT($,.RADIAN.));
#4=PLANE_ANGLE_MEASURE_WITH_UNIT(PLANE_ANGLE_MEASURE(0.0174532925),#3);
#5=(CONVERSION_BASED_UNIT('DEGREE',#4)NAMED_UNIT(#6)PLANE_ANGLE_UNIT());
#6=DIMENSIONAL_EXPONENTS(0.,0.,0.,0.,0.,0.,0.);
#7=(NAMED_UNIT(*)SI_UNIT($,.STERADIAN.)SOLID_ANGLE_UNIT());
#8=(LENGTH_UNIT()NAMED_UNIT(*)SI_UNIT(.MILLI.,.METRE.));
#9=UNCERTAINTY_MEASURE_WITH_UNIT(LENGTH_MEASURE(1.000000E-03),#8,'DISTANCE_ACCURACY_VALUE','Maximum Tolerance applied to model');
#10=(GEOMETRIC_REPRESENTATION_CONTEXT(3)GLOBAL_UNCERTAINTY_ASSIGNED_CONTEXT((#9))GLOBAL_UNIT_ASSIGNED_CONTEXT((#8,#5,#7))REPRESENTATION_CONTEXT('','root'));
#12=CARTESIAN_POINT('',(0.,0.,0.));
#13=DIRECTION('',(0.,0.,1.));
#14=DIRECTION('',(1.,0.,0.));
#15=AXIS2_PLACEMENT_3D('TS3D_PRODUCT_CSYS',#12,#13,#14);
#26=(NAMED_UNIT(*)PLANE_ANGLE_UNIT()SI_UNIT($,.RADIAN.));
#27=PLANE_ANGLE_MEASURE_WITH_UNIT(PLANE_ANGLE_MEASURE(0.0174532925),#26);
#28=(CONVERSION_BASED_UNIT('DEGREE',#27)NAMED_UNIT(#29)PLANE_ANGLE_UNIT());
#29=DIMENSIONAL_EXPONENTS(0.,0.,0.,0.,0.,0.,0.);
#30=(NAMED_UNIT(*)SI_UNIT($,.STERADIAN.)SOLID_ANGLE_UNIT());
#31=(LENGTH_UNIT()NAMED_UNIT(*)SI_UNIT(.MILLI.,.METRE.));
#32=UNCERTAINTY_MEASURE_WITH_UNIT(LENGTH_MEASURE(1.000000E-05),#31,'DISTANCE_ACCURACY_VALUE','Maximum Tolerance applied to model');
#33=(GEOMETRIC_REPRESENTATION_CONTEXT(3)GLOBAL_UNCERTAINTY_ASSIGNED_CONTEXT((#32))GLOBAL_UNIT_ASSIGNED_CONTEXT((#31,#28,#30))REPRESENTATION_CONTEXT('','Glasses and 3 lenses v5.step'));
#45=CARTESIAN_POINT('',(0.,0.,0.));
#46=DIRECTION('',(0.,0.,1.));
#47=DIRECTION('',(1.,0.,-0.));
#48=AXIS2_PLACEMENT_3D('',#45,#46,#47);
#49=ITEM_DEFINED_TRANSFORMATION('','',#48,#15);
#50=(REPRESENTATION_RELATIONSHIP('','',#35,#16)REPRESENTATION_RELATIONSHIP_WITH_TRANSFORMATION(#49)SHAPE_REPRESENTATION_RELATIONSHIP());
#51=NEXT_ASSEMBLY_USAGE_OCCURRENCE('Glasses and 3 lenses v5.step_1','Glasses and 3 lenses v5.step','Glasses and 3 lenses v5.step',#25,#44,$);
#52=PRODUCT_DEFINITION_SHAPE('','',#51);
#53=CONTEXT_DEPENDENT_SHAPE_REPRESENTATION(#50,#52);
#55=CARTESIAN_POINT('',(30.993601437,24.961136679,0.));
#56=DIRECTION('',(0.,0.,1.));
#57=DIRECTION('',(1.,0.,0.));
#58=AXIS2_PLACEMENT_3D('',#55,#56,#57);
#59=PLANE('',#58);
#60=CARTESIAN_POINT('',(64.000001431,0.,0.));
#61=VERTEX_POINT('',#60);
#62=CARTESIAN_POINT('',(64.000001431,52.,0.));
#63=VERTEX_POINT('',#62);
#64=CARTESIAN_POINT('',(64.000001431,0.,0.));
#65=DIRECTION('',(0.,1.,0.));
#66=VECTOR('',#65,52.);
#67=LINE('',#64,#66);
#68=EDGE_CURVE('',#61,#63,#67,.T.);
#69=ORIENTED_EDGE('',*,*,#68,.F.);
#70=CARTESIAN_POINT('',(35.993601437,0.,0.));
#71=VERTEX_POINT('',#70);
#72=CARTESIAN_POINT('',(35.993601437,0.,0.));
#73=DIRECTION('',(1.,0.,-0.));
#74=VECTOR('',#73,28.006399994);
#75=LINE('',#72,#74);
#76=EDGE_CURVE('',#71,#61,#75,.T.);
#77=ORIENTED_EDGE('',*,*,#76,.F.);
#78=CARTESIAN_POINT('',(35.993601437,-0.077726641,0.));
#79=VERTEX_POINT('',#78);
#80=CARTESIAN_POINT('',(35.993601437,-0.,0.));
#81=DIRECTION('',(-0.,-1.,-0.));
#82=VECTOR('',#81,0.077726641);
#83=LINE('',#80,#82);
#84=EDGE_CURVE('',#71,#79,#83,.T.);
#85=ORIENTED_EDGE('',*,*,#84,.T.);
#86=CARTESIAN_POINT('',(25.993601437,-0.077726641,0.));
#87=VERTEX_POINT('',#86);
#88=CARTESIAN_POINT('',(35.993601437,-0.077726641,0.));
#89=DIRECTION('',(-1.,-0.,0.));
#90=VECTOR('',#89,10.);
#91=LINE('',#88,#90);
#92=EDGE_CURVE('',#79,#87,#91,.T.);
#93=ORIENTED_EDGE('',*,*,#92,.T.);
#94=CARTESIAN_POINT('',(25.993601437,0.,0.));
#95=VERTEX_POINT('',#94);
#96=CARTESIAN_POINT('',(25.993601437,-0.077726641,0.));
#97=DIRECTION('',(0.,1.,0.));
#98=VECTOR('',#97,0.077726641);
#99=LINE('',#96,#98);
#100=EDGE_CURVE('',#87,#95,#99,.T.);
#101=ORIENTED_EDGE('',*,*,#100,.T.);
#102=CARTESIAN_POINT('',(5.993601437,0.,0.));
#103=VERTEX_POINT('',#102);
#104=CARTESIAN_POINT('',(5.993601437,0.,0.));
#105=DIRECTION('',(1.,0.,-0.));
#106=VECTOR('',#105,20.);
#107=LINE('',#104,#106);
#108=EDGE_CURVE('',#103,#95,#107,.T.);
#109=ORIENTED_EDGE('',*,*,#108,.F.);
#110=CARTESIAN_POINT('',(5.993601437,-0.077726641,0.));
#111=VERTEX_POINT('',#110);
#112=CARTESIAN_POINT('',(5.993601437,-0.,0.));
#113=DIRECTION('',(-0.,-1.,-0.));
#114=VECTOR('',#113,0.077726641);
#115=LINE('',#112,#114);
#116=EDGE_CURVE('',#103,#111,#115,.T.);
#117=ORIENTED_EDGE('',*,*,#116,.T.);
#118=CARTESIAN_POINT('',(-4.006398563,-0.077726641,0.));
#119=VERTEX_POINT('',#118);
#120=CARTESIAN_POINT('',(5.993601437,-0.077726641,0.));
#121=DIRECTION('',(-1.,-0.,0.));
#122=VECTOR('',#121,10.);
#123=LINE('',#120,#122);
#124=EDGE_CURVE('',#111,#119,#123,.T.);
#125=ORIENTED_EDGE('',*,*,#124,.T.);
#126=CARTESIAN_POINT('',(-4.006398563,0.314826998,0.));
#127=VERTEX_POINT('',#126);
#128=CARTESIAN_POINT('',(-4.006398563,-0.077726641,0.));
#129=DIRECTION('',(0.,1.,0.));
#130=VECTOR('',#129,0.39255364);
#131=LINE('',#128,#130);
#132=EDGE_CURVE('',#119,#127,#131,.T.);
#133=ORIENTED_EDGE('',*,*,#132,.T.);
#134=CARTESIAN_POINT('',(0.027444254,52.,0.));
#135=VERTEX_POINT('',#134);
#136=CARTESIAN_POINT('',(0.027444254,26.,0.));
#137=DIRECTION('',(0.,0.,1.));
#138=DIRECTION('',(1.,0.,-0.));
#139=AXIS2_PLACEMENT_3D('',#136,#137,#138);
#140=CIRCLE('',#139,26.);
#141=EDGE_CURVE('',#135,#127,#140,.T.);
#142=ORIENTED_EDGE('',*,*,#141,.F.);
#143=CARTESIAN_POINT('',(64.000001431,52.,0.));
#144=DIRECTION('',(-1.,0.,0.));
#145=VECTOR('',#144,63.972557177);
#146=LINE('',#143,#145);
#147=EDGE_CURVE('',#63,#135,#146,.T.);
#148=ORIENTED_EDGE('',*,*,#147,.F.);
#149=EDGE_LOOP('',(#69,#77,#85,#93,#101,#109,#117,#125,#133,#142,#148));
#150=FACE_BOUND('',#149,.T.);
#151=ADVANCED_FACE('',(#150),#59,.F.);
#152=CARTESIAN_POINT('',(96.027444254,52.,2.));
#153=DIRECTION('',(0.,1.,0.));
#154=DIRECTION('',(-1.,0.,0.));
#155=AXIS2_PLACEMENT_3D('',#152,#153,#154);
#156=PLANE('',#155);
#157=CARTESIAN_POINT('',(64.000001431,52.,87.));
#158=VERTEX_POINT('',#157);
#159=CARTESIAN_POINT('',(0.027444254,52.,87.));
#160=VERTEX_POINT('',#159);
#161=CARTESIAN_POINT('',(64.000001431,52.,87.));
#162=DIRECTION('',(-1.,0.,0.));
#163=VECTOR('',#162,63.972557177);
#164=LINE('',#161,#163);
#165=EDGE_CURVE('',#158,#160,#164,.T.);
#166=ORIENTED_EDGE('',*,*,#165,.F.);
#167=CARTESIAN_POINT('',(64.000001431,52.,87.));
#168=DIRECTION('',(0.,0.,-1.));
#169=VECTOR('',#168,87.);
#170=LINE('',#167,#169);
#171=EDGE_CURVE('',#158,#63,#170,.T.);
#172=ORIENTED_EDGE('',*,*,#171,.T.);
#173=ORIENTED_EDGE('',*,*,#147,.T.);
#174=CARTESIAN_POINT('',(0.027444254,52.,0.));
#175=DIRECTION('',(0.,0.,1.));
#176=VECTOR('',#175,87.);
#177=LINE('',#174,#176);
#178=EDGE_CURVE('',#135,#160,#177,.T.);
#179=ORIENTED_EDGE('',*,*,#178,.T.);
#180=EDGE_LOOP('',(#166,#172,#173,#179));
#181=FACE_BOUND('',#180,.T.);
#182=ADVANCED_FACE('',(#181),#156,.T.);
#183=CARTESIAN_POINT('',(0.027444254,50.,2.));
#184=DIRECTION('',(0.000000008,-1.,0.));
#185=DIRECTION('',(1.,0.000000008,0.));
#186=AXIS2_PLACEMENT_3D('',#183,#184,#185);
#187=PLANE('',#186);
#188=CARTESIAN_POINT('',(32.,50.000000124,87.));
#189=VERTEX_POINT('',#188);
#190=CARTESIAN_POINT('',(32.,50.000000248,2.));
#191=VERTEX_POINT('',#190);
#192=CARTESIAN_POINT('',(32.,50.000000248,87.));
#193=DIRECTION('',(-0.,-0.,-1.));
#194=VECTOR('',#193,85.);
#195=LINE('',#192,#194);
#196=EDGE_CURVE('',#189,#191,#195,.T.);
#197=ORIENTED_EDGE('',*,*,#196,.T.);
#198=CARTESIAN_POINT('',(62.000000954,50.000000745,2.));
#199=VERTEX_POINT('',#198);
#200=CARTESIAN_POINT('',(32.,50.000000248,2.));
#201=DIRECTION('',(1.,0.000000008,0.));
#202=VECTOR('',#201,30.000000954);
#203=LINE('',#200,#202);
#204=EDGE_CURVE('',#191,#199,#203,.T.);
#205=ORIENTED_EDGE('',*,*,#204,.T.);
#206=CARTESIAN_POINT('',(62.000000954,50.00000024,87.));
#207=VERTEX_POINT('',#206);
#208=CARTESIAN_POINT('',(62.000000954,50.000000481,2.));
#209=DIRECTION('',(0.,0.,1.));
#210=VECTOR('',#209,85.);
#211=LINE('',#208,#210);
#212=EDGE_CURVE('',#199,#207,#211,.T.);
#213=ORIENTED_EDGE('',*,*,#212,.T.);
#214=CARTESIAN_POINT('',(32.,50.,87.));
#215=DIRECTION('',(1.,-0.,-0.));
#216=VECTOR('',#215,30.000000954);
#217=LINE('',#214,#216);
#218=EDGE_CURVE('',#189,#207,#217,.T.);
#219=ORIENTED_EDGE('',*,*,#218,.F.);
#220=EDGE_LOOP('',(#197,#205,#213,#219));
#221=FACE_BOUND('',#220,.T.);
#222=ADVANCED_FACE('',(#221),#187,.T.);
#223=CARTESIAN_POINT('',(35.993601437,-0.077726641,0.));
#224=DIRECTION('',(1.,0.,0.));
#225=DIRECTION('',(0.,1.,0.));
#226=AXIS2_PLACEMENT_3D('',#223,#224,#225);
#227=PLANE('',#226);
#228=CARTESIAN_POINT('',(35.993601437,0.,2.));
#229=VERTEX_POINT('',#228);
#230=CARTESIAN_POINT('',(35.993601437,0.,2.));
#231=DIRECTION('',(0.,0.,-1.));
#232=VECTOR('',#231,2.);
#233=LINE('',#230,#232);
#234=EDGE_CURVE('',#229,#71,#233,.T.);
#235=ORIENTED_EDGE('',*,*,#234,.F.);
#236=CARTESIAN_POINT('',(35.993601437,1.922273359,2.));
#237=VERTEX_POINT('',#236);
#238=CARTESIAN_POINT('',(35.993601437,1.922273359,2.));
#239=DIRECTION('',(0.,-1.,0.));
#240=VECTOR('',#239,1.922273359);
#241=LINE('',#238,#240);
#242=EDGE_CURVE('',#237,#229,#241,.T.);
#243=ORIENTED_EDGE('',*,*,#242,.F.);
#244=CARTESIAN_POINT('',(35.993601437,1.922273359,87.));
#245=VERTEX_POINT('',#244);
#246=CARTESIAN_POINT('',(35.993601437,1.922273359,2.));
#247=DIRECTION('',(0.,0.,1.));
#248=VECTOR('',#247,85.);
#249=LINE('',#246,#248);
#250=EDGE_CURVE('',#237,#245,#249,.T.);
#251=ORIENTED_EDGE('',*,*,#250,.T.);
#252=CARTESIAN_POINT('',(35.993601437,-0.077726641,87.));
#253=VERTEX_POINT('',#252);
#254=CARTESIAN_POINT('',(35.993601437,-0.077726641,87.));
#255=DIRECTION('',(-0.,1.,-0.));
#256=VECTOR('',#255,2.);
#257=LINE('',#254,#256);
#258=EDGE_CURVE('',#253,#245,#257,.T.);
#259=ORIENTED_EDGE('',*,*,#258,.F.);
#260=CARTESIAN_POINT('',(35.993601437,-0.077726641,0.));
#261=DIRECTION('',(0.,0.,1.));
#262=VECTOR('',#261,87.);
#263=LINE('',#260,#262);
#264=EDGE_CURVE('',#79,#253,#263,.T.);
#265=ORIENTED_EDGE('',*,*,#264,.F.);
#266=ORIENTED_EDGE('',*,*,#84,.F.);
#267=EDGE_LOOP('',(#235,#243,#251,#259,#265,#266));
#268=FACE_BOUND('',#267,.T.);
#269=ADVANCED_FACE('',(#268),#227,.T.);
#270=CARTESIAN_POINT('',(25.993601437,-0.077726641,0.));
#271=DIRECTION('',(0.,-1.,0.));
#272=DIRECTION('',(1.,0.,0.));
#273=AXIS2_PLACEMENT_3D('',#270,#271,#272);
#274=PLANE('',#273);
#275=ORIENTED_EDGE('',*,*,#92,.F.);
#276=ORIENTED_EDGE('',*,*,#264,.T.);
#277=CARTESIAN_POINT('',(25.993601437,-0.077726641,87.));
#278=VERTEX_POINT('',#277);
#279=CARTESIAN_POINT('',(25.993601437,-0.077726641,87.));
#280=DIRECTION('',(1.,-0.,-0.));
#281=VECTOR('',#280,10.);
#282=LINE('',#279,#281);
#283=EDGE_CURVE('',#278,#253,#282,.T.);
#284=ORIENTED_EDGE('',*,*,#283,.F.);
#285=CARTESIAN_POINT('',(25.993601437,-0.077726641,0.));
#286=DIRECTION('',(0.,0.,1.));
#287=VECTOR('',#286,87.);
#288=LINE('',#285,#287);
#289=EDGE_CURVE('',#87,#278,#288,.T.);
#290=ORIENTED_EDGE('',*,*,#289,.F.);
#291=EDGE_LOOP('',(#275,#276,#284,#290));
#292=FACE_BOUND('',#291,.T.);
#293=ADVANCED_FACE('',(#292),#274,.T.);
#294=CARTESIAN_POINT('',(25.993601437,1.922273359,0.));
#295=DIRECTION('',(-1.,0.,0.));
#296=DIRECTION('',(0.,-1.,0.));
#297=AXIS2_PLACEMENT_3D('',#294,#295,#296);
#298=PLANE('',#297);
#299=CARTESIAN_POINT('',(25.993601437,0.,2.));
#300=VERTEX_POINT('',#299);
#301=CARTESIAN_POINT('',(25.993601437,0.,0.));
#302=DIRECTION('',(0.,0.,1.));
#303=VECTOR('',#302,2.);
#304=LINE('',#301,#303);
#305=EDGE_CURVE('',#95,#300,#304,.T.);
#306=ORIENTED_EDGE('',*,*,#305,.F.);
#307=ORIENTED_EDGE('',*,*,#100,.F.);
#308=ORIENTED_EDGE('',*,*,#289,.T.);
#309=CARTESIAN_POINT('',(25.993601437,1.922273359,87.));
#310=VERTEX_POINT('',#309);
#311=CARTESIAN_POINT('',(25.993601437,1.922273359,87.));
#312=DIRECTION('',(0.,-1.,0.));
#313=VECTOR('',#312,2.);
#314=LINE('',#311,#313);
#315=EDGE_CURVE('',#310,#278,#314,.T.);
#316=ORIENTED_EDGE('',*,*,#315,.F.);
#317=CARTESIAN_POINT('',(25.993601437,1.922273359,2.));
#318=VERTEX_POINT('',#317);
#319=CARTESIAN_POINT('',(25.993601437,1.922273359,2.));
#320=DIRECTION('',(0.,0.,1.));
#321=VECTOR('',#320,85.);
#322=LINE('',#319,#321);
#323=EDGE_CURVE('',#318,#310,#322,.T.);
#324=ORIENTED_EDGE('',*,*,#323,.F.);
#325=CARTESIAN_POINT('',(25.993601437,0.,2.));
#326=DIRECTION('',(0.,1.,0.));
#327=VECTOR('',#326,1.922273359);
#328=LINE('',#325,#327);
#329=EDGE_CURVE('',#300,#318,#328,.T.);
#330=ORIENTED_EDGE('',*,*,#329,.F.);
#331=EDGE_LOOP('',(#306,#307,#308,#316,#324,#330));
#332=FACE_BOUND('',#331,.T.);
#333=ADVANCED_FACE('',(#332),#298,.T.);
#334=CARTESIAN_POINT('',(30.,1.922273359,0.));
#335=DIRECTION('',(0.,1.,0.));
#336=DIRECTION('',(-1.,0.,0.));
#337=AXIS2_PLACEMENT_3D('',#334,#335,#336);
#338=PLANE('',#337);
#339=CARTESIAN_POINT('',(30.,1.922273359,2.));
#340=VERTEX_POINT('',#339);
#341=CARTESIAN_POINT('',(25.993601437,1.922273359,2.));
#342=DIRECTION('',(1.,0.,-0.));
#343=VECTOR('',#342,4.006398563);
#344=LINE('',#341,#343);
#345=EDGE_CURVE('',#318,#340,#344,.T.);
#346=ORIENTED_EDGE('',*,*,#345,.F.);
#347=ORIENTED_EDGE('',*,*,#323,.T.);
#348=CARTESIAN_POINT('',(30.,1.922273359,87.));
#349=VERTEX_POINT('',#348);
#350=CARTESIAN_POINT('',(30.,1.922273359,87.));
#351=DIRECTION('',(-1.,0.,0.));
#352=VECTOR('',#351,4.006398563);
#353=LINE('',#350,#352);
#354=EDGE_CURVE('',#349,#310,#353,.T.);
#355=ORIENTED_EDGE('',*,*,#354,.F.);
#356=CARTESIAN_POINT('',(30.,1.922273359,2.));
#357=DIRECTION('',(0.,0.,1.));
#358=VECTOR('',#357,85.);
#359=LINE('',#356,#358);
#360=EDGE_CURVE('',#340,#349,#359,.T.);
#361=ORIENTED_EDGE('',*,*,#360,.F.);
#362=EDGE_LOOP('',(#346,#347,#355,#361));
#363=FACE_BOUND('',#362,.T.);
#364=ADVANCED_FACE('',(#363),#338,.T.);
#365=CARTESIAN_POINT('',(30.,50.,0.));
#366=DIRECTION('',(-1.,0.,0.));
#367=DIRECTION('',(0.,-1.,0.));
#368=AXIS2_PLACEMENT_3D('',#365,#366,#367);
#369=PLANE('',#368);
#370=CARTESIAN_POINT('',(30.,50.000000116,2.));
#371=VERTEX_POINT('',#370);
#372=CARTESIAN_POINT('',(30.,1.922273359,2.));
#373=DIRECTION('',(0.,1.,0.));
#374=VECTOR('',#373,48.077726758);
#375=LINE('',#372,#374);
#376=EDGE_CURVE('',#340,#371,#375,.T.);
#377=ORIENTED_EDGE('',*,*,#376,.F.);
#378=ORIENTED_EDGE('',*,*,#360,.T.);
#379=CARTESIAN_POINT('',(30.,50.000000116,87.));
#380=VERTEX_POINT('',#379);
#381=CARTESIAN_POINT('',(30.,50.000000116,87.));
#382=DIRECTION('',(0.,-1.,0.));
#383=VECTOR('',#382,48.077726758);
#384=LINE('',#381,#383);
#385=EDGE_CURVE('',#380,#349,#384,.T.);
#386=ORIENTED_EDGE('',*,*,#385,.F.);
#387=CARTESIAN_POINT('',(30.,50.000000233,2.));
#388=DIRECTION('',(0.,0.,1.));
#389=VECTOR('',#388,85.);
#390=LINE('',#387,#389);
#391=EDGE_CURVE('',#371,#380,#390,.T.);
#392=ORIENTED_EDGE('',*,*,#391,.F.);
#393=EDGE_LOOP('',(#377,#378,#386,#392));
#394=FACE_BOUND('',#393,.T.);
#395=ADVANCED_FACE('',(#394),#369,.T.);
#396=CARTESIAN_POINT('',(32.,1.922273359,0.));
#397=DIRECTION('',(1.,0.,0.));
#398=DIRECTION('',(0.,1.,0.));
#399=AXIS2_PLACEMENT_3D('',#396,#397,#398);
#400=PLANE('',#399);
#401=CARTESIAN_POINT('',(32.,1.922273359,2.));
#402=VERTEX_POINT('',#401);
#403=CARTESIAN_POINT('',(32.,50.000000248,2.));
#404=DIRECTION('',(0.,-1.,0.));
#405=VECTOR('',#404,48.077726889);
#406=LINE('',#403,#405);
#407=EDGE_CURVE('',#191,#402,#406,.T.);
#408=ORIENTED_EDGE('',*,*,#407,.F.);
#409=ORIENTED_EDGE('',*,*,#196,.F.);
#410=CARTESIAN_POINT('',(32.,1.922273359,87.));
#411=VERTEX_POINT('',#410);
#412=CARTESIAN_POINT('',(32.,1.922273359,87.));
#413=DIRECTION('',(-0.,1.,-0.));
#414=VECTOR('',#413,48.077726765);
#415=LINE('',#412,#414);
#416=EDGE_CURVE('',#411,#189,#415,.T.);
#417=ORIENTED_EDGE('',*,*,#416,.F.);
#418=CARTESIAN_POINT('',(32.,1.922273359,2.));
#419=DIRECTION('',(0.,0.,1.));
#420=VECTOR('',#419,85.);
#421=LINE('',#418,#420);
#422=EDGE_CURVE('',#402,#411,#421,.T.);
#423=ORIENTED_EDGE('',*,*,#422,.F.);
#424=EDGE_LOOP('',(#408,#409,#417,#423));
#425=FACE_BOUND('',#424,.T.);
#426=ADVANCED_FACE('',(#425),#400,.T.);
#427=CARTESIAN_POINT('',(35.993601437,1.922273359,0.));
#428=DIRECTION('',(0.,1.,0.));
#429=DIRECTION('',(-1.,0.,0.));
#430=AXIS2_PLACEMENT_3D('',#427,#428,#429);
#431=PLANE('',#430);
#432=CARTESIAN_POINT('',(32.,1.922273359,2.));
#433=DIRECTION('',(1.,0.,-0.));
#434=VECTOR('',#433,3.993601437);
#435=LINE('',#432,#434);
#436=EDGE_CURVE('',#402,#237,#435,.T.);
#437=ORIENTED_EDGE('',*,*,#436,.F.);
#438=ORIENTED_EDGE('',*,*,#422,.T.);
#439=CARTESIAN_POINT('',(35.993601437,1.922273359,87.));
#440=DIRECTION('',(-1.,0.,0.));
#441=VECTOR('',#440,3.993601437);
#442=LINE('',#439,#441);
#443=EDGE_CURVE('',#245,#411,#442,.T.);
#444=ORIENTED_EDGE('',*,*,#443,.F.);
#445=ORIENTED_EDGE('',*,*,#250,.F.);
#446=EDGE_LOOP('',(#437,#438,#444,#445));
#447=FACE_BOUND('',#446,.T.);
#448=ADVANCED_FACE('',(#447),#431,.T.);
#449=CARTESIAN_POINT('',(35.027444254,26.,87.));
#450=DIRECTION('',(0.,0.,1.));
#451=DIRECTION('',(-1.,0.,0.));
#452=AXIS2_PLACEMENT_3D('',#449,#450,#451);
#453=PLANE('',#452);
#454=CARTESIAN_POINT('',(64.000001431,0.,87.));
#455=VERTEX_POINT('',#454);
#456=CARTESIAN_POINT('',(64.000000954,0.,87.));
#457=DIRECTION('',(-0.,1.,-0.));
#458=VECTOR('',#457,52.);
#459=LINE('',#456,#458);
#460=EDGE_CURVE('',#455,#158,#459,.T.);
#461=ORIENTED_EDGE('',*,*,#460,.T.);
#462=ORIENTED_EDGE('',*,*,#165,.T.);
#463=CARTESIAN_POINT('',(-4.006398563,0.314826998,87.));
#464=VERTEX_POINT('',#463);
#465=CARTESIAN_POINT('',(0.027444254,26.,87.));
#466=DIRECTION('',(0.,0.,1.));
#467=DIRECTION('',(1.,0.,-0.));
#468=AXIS2_PLACEMENT_3D('',#465,#466,#467);
#469=CIRCLE('',#468,26.);
#470=EDGE_CURVE('',#160,#464,#469,.T.);
#471=ORIENTED_EDGE('',*,*,#470,.T.);
#472=CARTESIAN_POINT('',(-4.006398563,-0.077726641,87.));
#473=VERTEX_POINT('',#472);
#474=CARTESIAN_POINT('',(-4.006398563,0.314826998,87.));
#475=DIRECTION('',(0.,-1.,0.));
#476=VECTOR('',#475,0.39255364);
#477=LINE('',#474,#476);
#478=EDGE_CURVE('',#464,#473,#477,.T.);
#479=ORIENTED_EDGE('',*,*,#478,.T.);
#480=CARTESIAN_POINT('',(5.993601437,-0.077726641,87.));
#481=VERTEX_POINT('',#480);
#482=CARTESIAN_POINT('',(-4.006398563,-0.077726641,87.));
#483=DIRECTION('',(1.,-0.,-0.));
#484=VECTOR('',#483,10.);
#485=LINE('',#482,#484);
#486=EDGE_CURVE('',#473,#481,#485,.T.);
#487=ORIENTED_EDGE('',*,*,#486,.T.);
#488=CARTESIAN_POINT('',(5.993601437,1.922273359,87.));
#489=VERTEX_POINT('',#488);
#490=CARTESIAN_POINT('',(5.993601437,-0.077726641,87.));
#491=DIRECTION('',(-0.,1.,-0.));
#492=VECTOR('',#491,2.);
#493=LINE('',#490,#492);
#494=EDGE_CURVE('',#481,#489,#493,.T.);
#495=ORIENTED_EDGE('',*,*,#494,.T.);
#496=CARTESIAN_POINT('',(2.,1.922273359,87.));
#497=VERTEX_POINT('',#496);
#498=CARTESIAN_POINT('',(5.993601437,1.922273359,87.));
#499=DIRECTION('',(-1.,0.,0.));
#500=VECTOR('',#499,3.993601437);
#501=LINE('',#498,#500);
#502=EDGE_CURVE('',#489,#497,#501,.T.);
#503=ORIENTED_EDGE('',*,*,#502,.T.);
#504=CARTESIAN_POINT('',(2.,50.000000008,87.));
#505=VERTEX_POINT('',#504);
#506=CARTESIAN_POINT('',(2.,1.922273359,87.));
#507=DIRECTION('',(-0.,1.,-0.));
#508=VECTOR('',#507,48.077726649);
#509=LINE('',#506,#508);
#510=EDGE_CURVE('',#497,#505,#509,.T.);
#511=ORIENTED_EDGE('',*,*,#510,.T.);
#512=CARTESIAN_POINT('',(2.,50.,87.));
#513=DIRECTION('',(1.,-0.,-0.));
#514=VECTOR('',#513,28.);
#515=LINE('',#512,#514);
#516=EDGE_CURVE('',#505,#380,#515,.T.);
#517=ORIENTED_EDGE('',*,*,#516,.T.);
#518=ORIENTED_EDGE('',*,*,#385,.T.);
#519=ORIENTED_EDGE('',*,*,#354,.T.);
#520=ORIENTED_EDGE('',*,*,#315,.T.);
#521=ORIENTED_EDGE('',*,*,#283,.T.);
#522=ORIENTED_EDGE('',*,*,#258,.T.);
#523=ORIENTED_EDGE('',*,*,#443,.T.);
#524=ORIENTED_EDGE('',*,*,#416,.T.);
#525=ORIENTED_EDGE('',*,*,#218,.T.);
#526=CARTESIAN_POINT('',(62.000000954,2.,87.));
#527=VERTEX_POINT('',#526);
#528=CARTESIAN_POINT('',(62.000000954,50.00000024,87.));
#529=DIRECTION('',(0.,-1.,0.));
#530=VECTOR('',#529,48.00000024);
#531=LINE('',#528,#530);
#532=EDGE_CURVE('',#207,#527,#531,.T.);
#533=ORIENTED_EDGE('',*,*,#532,.T.);
#534=CARTESIAN_POINT('',(56.000001431,2.,87.));
#535=VERTEX_POINT('',#534);
#536=CARTESIAN_POINT('',(62.000000954,2.,87.));
#537=DIRECTION('',(-1.,0.,0.));
#538=VECTOR('',#537,5.999999523);
#539=LINE('',#536,#538);
#540=EDGE_CURVE('',#527,#535,#539,.T.);
#541=ORIENTED_EDGE('',*,*,#540,.T.);
#542=CARTESIAN_POINT('',(56.000001431,0.,87.));
#543=VERTEX_POINT('',#542);
#544=CARTESIAN_POINT('',(56.000001431,2.,87.));
#545=DIRECTION('',(0.,-1.,0.));
#546=VECTOR('',#545,2.);
#547=LINE('',#544,#546);
#548=EDGE_CURVE('',#535,#543,#547,.T.);
#549=ORIENTED_EDGE('',*,*,#548,.T.);
#550=CARTESIAN_POINT('',(56.000001431,0.,87.));
#551=DIRECTION('',(1.,-0.,-0.));
#552=VECTOR('',#551,8.);
#553=LINE('',#550,#552);
#554=EDGE_CURVE('',#543,#455,#553,.T.);
#555=ORIENTED_EDGE('',*,*,#554,.T.);
#556=EDGE_LOOP('',(#461,#462,#471,#479,#487,#495,#503,#511,#517,#518,#519,#520,#521,#522,#523,#524,#525,#533,#541,#549,#555));
#557=FACE_BOUND('',#556,.T.);
#558=CARTESIAN_POINT('',(0.000000004,49.999984309,87.));
#559=VERTEX_POINT('',#558);
#560=CARTESIAN_POINT('',(0.000000004,2.000015691,87.));
#561=VERTEX_POINT('',#560);
#562=CARTESIAN_POINT('',(0.000000009,49.999984309,87.));
#563=DIRECTION('',(0.,-1.,0.));
#564=VECTOR('',#563,47.999968617);
#565=LINE('',#562,#564);
#566=EDGE_CURVE('',#559,#561,#565,.T.);
#567=ORIENTED_EDGE('',*,*,#566,.T.);
#568=CARTESIAN_POINT('',(0.027444254,26.,87.));
#569=DIRECTION('',(-0.,-0.,-1.));
#570=DIRECTION('',(1.,0.,-0.));
#571=AXIS2_PLACEMENT_3D('',#568,#569,#570);
#572=CIRCLE('',#571,24.);
#573=EDGE_CURVE('',#561,#559,#572,.T.);
#574=ORIENTED_EDGE('',*,*,#573,.T.);
#575=EDGE_LOOP('',(#567,#574));
#576=FACE_BOUND('',#575,.T.);
#577=ADVANCED_FACE('',(#557,#576),#453,.T.);
#578=CARTESIAN_POINT('',(0.027444254,50.,2.));
#579=DIRECTION('',(0.000000008,-1.,0.));
#580=DIRECTION('',(1.,0.000000008,0.));
#581=AXIS2_PLACEMENT_3D('',#578,#579,#580);
#582=PLANE('',#581);
#583=ORIENTED_EDGE('',*,*,#391,.T.);
#584=ORIENTED_EDGE('',*,*,#516,.F.);
#585=CARTESIAN_POINT('',(2.,50.000000015,2.));
#586=VERTEX_POINT('',#585);
#587=CARTESIAN_POINT('',(2.,50.000000015,87.));
#588=DIRECTION('',(-0.,-0.,-1.));
#589=VECTOR('',#588,85.);
#590=LINE('',#587,#589);
#591=EDGE_CURVE('',#505,#586,#590,.T.);
#592=ORIENTED_EDGE('',*,*,#591,.T.);
#593=CARTESIAN_POINT('',(2.,50.000000015,2.));
#594=DIRECTION('',(1.,0.000000008,0.));
#595=VECTOR('',#594,28.);
#596=LINE('',#593,#595);
#597=EDGE_CURVE('',#586,#371,#596,.T.);
#598=ORIENTED_EDGE('',*,*,#597,.T.);
#599=EDGE_LOOP('',(#583,#584,#592,#598));
#600=FACE_BOUND('',#599,.T.);
#601=ADVANCED_FACE('',(#600),#582,.T.);
#602=CARTESIAN_POINT('',(-4.006398563,1.922273359,0.));
#603=DIRECTION('',(-1.,0.,0.));
#604=DIRECTION('',(0.,-1.,0.));
#605=AXIS2_PLACEMENT_3D('',#602,#603,#604);
#606=PLANE('',#605);
#607=CARTESIAN_POINT('',(-4.006398563,0.314826998,0.));
#608=DIRECTION('',(0.,0.,1.));
#609=VECTOR('',#608,87.);
#610=LINE('',#607,#609);
#611=EDGE_CURVE('',#127,#464,#610,.T.);
#612=ORIENTED_EDGE('',*,*,#611,.F.);
#613=ORIENTED_EDGE('',*,*,#132,.F.);
#614=CARTESIAN_POINT('',(-4.006398563,-0.077726641,0.));
#615=DIRECTION('',(0.,0.,1.));
#616=VECTOR('',#615,87.);
#617=LINE('',#614,#616);
#618=EDGE_CURVE('',#119,#473,#617,.T.);
#619=ORIENTED_EDGE('',*,*,#618,.T.);
#620=ORIENTED_EDGE('',*,*,#478,.F.);
#621=EDGE_LOOP('',(#612,#613,#619,#620));
#622=FACE_BOUND('',#621,.T.);
#623=ADVANCED_FACE('',(#622),#606,.T.);
#624=CARTESIAN_POINT('',(0.,50.,0.));
#625=DIRECTION('',(-1.,0.,0.));
#626=DIRECTION('',(0.,-1.,0.));
#627=AXIS2_PLACEMENT_3D('',#624,#625,#626);
#628=PLANE('',#627);
#629=CARTESIAN_POINT('',(0.000000002,2.000015691,2.));
#630=VERTEX_POINT('',#629);
#631=CARTESIAN_POINT('',(0.,49.999992154,2.));
#632=VERTEX_POINT('',#631);
#633=CARTESIAN_POINT('',(0.,2.000015691,2.));
#634=DIRECTION('',(0.,1.,0.));
#635=VECTOR('',#634,47.999968617);
#636=LINE('',#633,#635);
#637=EDGE_CURVE('',#630,#632,#636,.T.);
#638=ORIENTED_EDGE('',*,*,#637,.F.);
#639=CARTESIAN_POINT('',(-0.,2.000015691,87.));
#640=DIRECTION('',(-0.,-0.,-1.));
#641=VECTOR('',#640,85.);
#642=LINE('',#639,#641);
#643=EDGE_CURVE('',#561,#630,#642,.T.);
#644=ORIENTED_EDGE('',*,*,#643,.F.);
#645=ORIENTED_EDGE('',*,*,#566,.F.);
#646=CARTESIAN_POINT('',(0.,49.999984309,2.));
#647=DIRECTION('',(0.,0.,1.));
#648=VECTOR('',#647,85.);
#649=LINE('',#646,#648);
#650=EDGE_CURVE('',#632,#559,#649,.T.);
#651=ORIENTED_EDGE('',*,*,#650,.F.);
#652=EDGE_LOOP('',(#638,#644,#645,#651));
#653=FACE_BOUND('',#652,.T.);
#654=ADVANCED_FACE('',(#653),#628,.T.);
#655=CARTESIAN_POINT('',(2.,1.922273359,0.));
#656=DIRECTION('',(1.,0.,0.));
#657=DIRECTION('',(0.,1.,0.));
#658=AXIS2_PLACEMENT_3D('',#655,#656,#657);
#659=PLANE('',#658);
#660=CARTESIAN_POINT('',(2.,1.922273359,2.));
#661=VERTEX_POINT('',#660);
#662=CARTESIAN_POINT('',(2.,50.000000015,2.));
#663=DIRECTION('',(0.,-1.,0.));
#664=VECTOR('',#663,48.077726657);
#665=LINE('',#662,#664);
#666=EDGE_CURVE('',#586,#661,#665,.T.);
#667=ORIENTED_EDGE('',*,*,#666,.F.);
#668=ORIENTED_EDGE('',*,*,#591,.F.);
#669=ORIENTED_EDGE('',*,*,#510,.F.);
#670=CARTESIAN_POINT('',(2.,1.922273359,2.));
#671=DIRECTION('',(0.,0.,1.));
#672=VECTOR('',#671,85.);
#673=LINE('',#670,#672);
#674=EDGE_CURVE('',#661,#497,#673,.T.);
#675=ORIENTED_EDGE('',*,*,#674,.F.);
#676=EDGE_LOOP('',(#667,#668,#669,#675));
#677=FACE_BOUND('',#676,.T.);
#678=ADVANCED_FACE('',(#677),#659,.T.);
#679=CARTESIAN_POINT('',(5.993601437,1.922273359,0.));
#680=DIRECTION('',(0.,1.,0.));
#681=DIRECTION('',(-1.,0.,0.));
#682=AXIS2_PLACEMENT_3D('',#679,#680,#681);
#683=PLANE('',#682);
#684=CARTESIAN_POINT('',(5.993601437,1.922273359,2.));
#685=VERTEX_POINT('',#684);
#686=CARTESIAN_POINT('',(2.,1.922273359,2.));
#687=DIRECTION('',(1.,0.,-0.));
#688=VECTOR('',#687,3.993601437);
#689=LINE('',#686,#688);
#690=EDGE_CURVE('',#661,#685,#689,.T.);
#691=ORIENTED_EDGE('',*,*,#690,.F.);
#692=ORIENTED_EDGE('',*,*,#674,.T.);
#693=ORIENTED_EDGE('',*,*,#502,.F.);
#694=CARTESIAN_POINT('',(5.993601437,1.922273359,2.));
#695=DIRECTION('',(0.,0.,1.));
#696=VECTOR('',#695,85.);
#697=LINE('',#694,#696);
#698=EDGE_CURVE('',#685,#489,#697,.T.);
#699=ORIENTED_EDGE('',*,*,#698,.F.);
#700=EDGE_LOOP('',(#691,#692,#693,#699));
#701=FACE_BOUND('',#700,.T.);
#702=ADVANCED_FACE('',(#701),#683,.T.);
#703=CARTESIAN_POINT('',(5.993601437,-0.077726641,0.));
#704=DIRECTION('',(1.,0.,0.));
#705=DIRECTION('',(0.,1.,0.));
#706=AXIS2_PLACEMENT_3D('',#703,#704,#705);
#707=PLANE('',#706);
#708=CARTESIAN_POINT('',(5.993601437,0.,2.));
#709=VERTEX_POINT('',#708);
#710=CARTESIAN_POINT('',(5.993601437,0.,2.));
#711=DIRECTION('',(0.,0.,-1.));
#712=VECTOR('',#711,2.);
#713=LINE('',#710,#712);
#714=EDGE_CURVE('',#709,#103,#713,.T.);
#715=ORIENTED_EDGE('',*,*,#714,.F.);
#716=CARTESIAN_POINT('',(5.993601437,1.922273359,2.));
#717=DIRECTION('',(0.,-1.,0.));
#718=VECTOR('',#717,1.922273359);
#719=LINE('',#716,#718);
#720=EDGE_CURVE('',#685,#709,#719,.T.);
#721=ORIENTED_EDGE('',*,*,#720,.F.);
#722=ORIENTED_EDGE('',*,*,#698,.T.);
#723=ORIENTED_EDGE('',*,*,#494,.F.);
#724=CARTESIAN_POINT('',(5.993601437,-0.077726641,0.));
#725=DIRECTION('',(0.,0.,1.));
#726=VECTOR('',#725,87.);
#727=LINE('',#724,#726);
#728=EDGE_CURVE('',#111,#481,#727,.T.);
#729=ORIENTED_EDGE('',*,*,#728,.F.);
#730=ORIENTED_EDGE('',*,*,#116,.F.);
#731=EDGE_LOOP('',(#715,#721,#722,#723,#729,#730));
#732=FACE_BOUND('',#731,.T.);
#733=ADVANCED_FACE('',(#732),#707,.T.);
#734=CARTESIAN_POINT('',(-4.006398563,-0.077726641,0.));
#735=DIRECTION('',(0.,-1.,0.));
#736=DIRECTION('',(1.,0.,0.));
#737=AXIS2_PLACEMENT_3D('',#734,#735,#736);
#738=PLANE('',#737);
#739=ORIENTED_EDGE('',*,*,#124,.F.);
#740=ORIENTED_EDGE('',*,*,#728,.T.);
#741=ORIENTED_EDGE('',*,*,#486,.F.);
#742=ORIENTED_EDGE('',*,*,#618,.F.);
#743=EDGE_LOOP('',(#739,#740,#741,#742));
#744=FACE_BOUND('',#743,.T.);
#745=ADVANCED_FACE('',(#744),#738,.T.);
#746=CARTESIAN_POINT('',(0.027444254,26.,2.));
#747=DIRECTION('',(0.,0.,1.));
#748=DIRECTION('',(-0.,1.,0.));
#749=AXIS2_PLACEMENT_3D('',#746,#747,#748);
#750=CYLINDRICAL_SURFACE('',#749,24.);
#751=ORIENTED_EDGE('',*,*,#650,.T.);
#752=ORIENTED_EDGE('',*,*,#573,.F.);
#753=ORIENTED_EDGE('',*,*,#643,.T.);
#754=CARTESIAN_POINT('',(0.027444254,26.,2.));
#755=DIRECTION('',(0.,0.,1.));
#756=DIRECTION('',(1.,0.,-0.));
#757=AXIS2_PLACEMENT_3D('',#754,#755,#756);
#758=CIRCLE('',#757,24.);
#759=EDGE_CURVE('',#632,#630,#758,.T.);
#760=ORIENTED_EDGE('',*,*,#759,.F.);
#761=EDGE_LOOP('',(#751,#752,#753,#760));
#762=FACE_BOUND('',#761,.T.);
#763=ADVANCED_FACE('',(#762),#750,.F.);
#764=CARTESIAN_POINT('',(91.000001431,0.,0.));
#765=DIRECTION('',(0.,-1.,0.));
#766=DIRECTION('',(1.,0.,0.));
#767=AXIS2_PLACEMENT_3D('',#764,#765,#766);
#768=PLANE('',#767);
#769=CARTESIAN_POINT('',(64.000001431,0.,87.));
#770=DIRECTION('',(0.,0.,-1.));
#771=VECTOR('',#770,87.);
#772=LINE('',#769,#771);
#773=EDGE_CURVE('',#455,#61,#772,.T.);
#774=ORIENTED_EDGE('',*,*,#773,.F.);
#775=ORIENTED_EDGE('',*,*,#554,.F.);
#776=CARTESIAN_POINT('',(56.000001431,0.,2.));
#777=VERTEX_POINT('',#776);
#778=CARTESIAN_POINT('',(56.000001431,0.,2.));
#779=DIRECTION('',(0.,0.,1.));
#780=VECTOR('',#779,85.);
#781=LINE('',#778,#780);
#782=EDGE_CURVE('',#777,#543,#781,.T.);
#783=ORIENTED_EDGE('',*,*,#782,.F.);
#784=CARTESIAN_POINT('',(35.993601437,0.,2.));
#785=DIRECTION('',(1.,0.,-0.));
#786=VECTOR('',#785,20.006399994);
#787=LINE('',#784,#786);
#788=EDGE_CURVE('',#229,#777,#787,.T.);
#789=ORIENTED_EDGE('',*,*,#788,.F.);
#790=ORIENTED_EDGE('',*,*,#234,.T.);
#791=ORIENTED_EDGE('',*,*,#76,.T.);
#792=EDGE_LOOP('',(#774,#775,#783,#789,#790,#791));
#793=FACE_BOUND('',#792,.T.);
#794=ADVANCED_FACE('',(#793),#768,.T.);
#795=CARTESIAN_POINT('',(64.000000954,2.,0.));
#796=DIRECTION('',(1.,0.,0.));
#797=DIRECTION('',(0.,1.,0.));
#798=AXIS2_PLACEMENT_3D('',#795,#796,#797);
#799=PLANE('',#798);
#800=ORIENTED_EDGE('',*,*,#171,.F.);
#801=ORIENTED_EDGE('',*,*,#460,.F.);
#802=ORIENTED_EDGE('',*,*,#773,.T.);
#803=ORIENTED_EDGE('',*,*,#68,.T.);
#804=EDGE_LOOP('',(#800,#801,#802,#803));
#805=FACE_BOUND('',#804,.T.);
#806=ADVANCED_FACE('',(#805),#799,.T.);
#807=CARTESIAN_POINT('',(56.000001431,2.,0.));
#808=DIRECTION('',(-1.,0.,0.));
#809=DIRECTION('',(0.,-1.,0.));
#810=AXIS2_PLACEMENT_3D('',#807,#808,#809);
#811=PLANE('',#810);
#812=CARTESIAN_POINT('',(56.000001431,2.,2.));
#813=VERTEX_POINT('',#812);
#814=CARTESIAN_POINT('',(56.000001431,0.,2.));
#815=DIRECTION('',(0.,1.,0.));
#816=VECTOR('',#815,2.);
#817=LINE('',#814,#816);
#818=EDGE_CURVE('',#777,#813,#817,.T.);
#819=ORIENTED_EDGE('',*,*,#818,.F.);
#820=ORIENTED_EDGE('',*,*,#782,.T.);
#821=ORIENTED_EDGE('',*,*,#548,.F.);
#822=CARTESIAN_POINT('',(56.000001431,2.,2.));
#823=DIRECTION('',(0.,0.,1.));
#824=VECTOR('',#823,85.);
#825=LINE('',#822,#824);
#826=EDGE_CURVE('',#813,#535,#825,.T.);
#827=ORIENTED_EDGE('',*,*,#826,.F.);
#828=EDGE_LOOP('',(#819,#820,#821,#827));
#829=FACE_BOUND('',#828,.T.);
#830=ADVANCED_FACE('',(#829),#811,.T.);
#831=CARTESIAN_POINT('',(62.000000954,2.,0.));
#832=DIRECTION('',(0.,1.,0.));
#833=DIRECTION('',(-1.,0.,0.));
#834=AXIS2_PLACEMENT_3D('',#831,#832,#833);
#835=PLANE('',#834);
#836=CARTESIAN_POINT('',(62.000000954,2.,2.));
#837=VERTEX_POINT('',#836);
#838=CARTESIAN_POINT('',(56.000001431,2.,2.));
#839=DIRECTION('',(1.,0.,-0.));
#840=VECTOR('',#839,5.999999523);
#841=LINE('',#838,#840);
#842=EDGE_CURVE('',#813,#837,#841,.T.);
#843=ORIENTED_EDGE('',*,*,#842,.F.);
#844=ORIENTED_EDGE('',*,*,#826,.T.);
#845=ORIENTED_EDGE('',*,*,#540,.F.);
#846=CARTESIAN_POINT('',(62.000000954,2.,2.));
#847=DIRECTION('',(0.,0.,1.));
#848=VECTOR('',#847,85.);
#849=LINE('',#846,#848);
#850=EDGE_CURVE('',#837,#527,#849,.T.);
#851=ORIENTED_EDGE('',*,*,#850,.F.);
#852=EDGE_LOOP('',(#843,#844,#845,#851));
#853=FACE_BOUND('',#852,.T.);
#854=ADVANCED_FACE('',(#853),#835,.T.);
#855=CARTESIAN_POINT('',(62.000000954,50.000000745,0.));
#856=DIRECTION('',(-1.,0.,0.));
#857=DIRECTION('',(0.,-1.,0.));
#858=AXIS2_PLACEMENT_3D('',#855,#856,#857);
#859=PLANE('',#858);
#860=CARTESIAN_POINT('',(62.000000954,2.,2.));
#861=DIRECTION('',(0.,1.,0.));
#862=VECTOR('',#861,48.000000745);
#863=LINE('',#860,#862);
#864=EDGE_CURVE('',#837,#199,#863,.T.);
#865=ORIENTED_EDGE('',*,*,#864,.F.);
#866=ORIENTED_EDGE('',*,*,#850,.T.);
#867=ORIENTED_EDGE('',*,*,#532,.F.);
#868=ORIENTED_EDGE('',*,*,#212,.F.);
#869=EDGE_LOOP('',(#865,#866,#867,#868));
#870=FACE_BOUND('',#869,.T.);
#871=ADVANCED_FACE('',(#870),#859,.T.);
#872=CARTESIAN_POINT('',(0.027444254,26.,2.));
#873=DIRECTION('',(0.,0.,1.));
#874=DIRECTION('',(-0.,1.,0.));
#875=AXIS2_PLACEMENT_3D('',#872,#873,#874);
#876=CYLINDRICAL_SURFACE('',#875,26.);
#877=ORIENTED_EDGE('',*,*,#611,.T.);
#878=ORIENTED_EDGE('',*,*,#470,.F.);
#879=ORIENTED_EDGE('',*,*,#178,.F.);
#880=ORIENTED_EDGE('',*,*,#141,.T.);
#881=EDGE_LOOP('',(#877,#878,#879,#880));
#882=FACE_BOUND('',#881,.T.);
#883=ADVANCED_FACE('',(#882),#876,.T.);
#884=CARTESIAN_POINT('',(35.027444254,26.,2.));
#885=DIRECTION('',(0.,0.,1.));
#886=DIRECTION('',(1.,0.,0.));
#887=AXIS2_PLACEMENT_3D('',#884,#885,#886);
#888=PLANE('',#887);
#889=ORIENTED_EDGE('',*,*,#436,.T.);
#890=ORIENTED_EDGE('',*,*,#242,.T.);
#891=ORIENTED_EDGE('',*,*,#788,.T.);
#892=ORIENTED_EDGE('',*,*,#818,.T.);
#893=ORIENTED_EDGE('',*,*,#842,.T.);
#894=ORIENTED_EDGE('',*,*,#864,.T.);
#895=ORIENTED_EDGE('',*,*,#204,.F.);
#896=ORIENTED_EDGE('',*,*,#407,.T.);
#897=EDGE_LOOP('',(#889,#890,#891,#892,#893,#894,#895,#896));
#898=FACE_BOUND('',#897,.T.);
#899=ADVANCED_FACE('',(#898),#888,.T.);
#900=CARTESIAN_POINT('',(35.027444254,26.,2.));
#901=DIRECTION('',(0.,0.,1.));
#902=DIRECTION('',(1.,0.,0.));
#903=AXIS2_PLACEMENT_3D('',#900,#901,#902);
#904=PLANE('',#903);
#905=CARTESIAN_POINT('',(5.993601437,0.,2.));
#906=DIRECTION('',(1.,0.,-0.));
#907=VECTOR('',#906,20.);
#908=LINE('',#905,#907);
#909=EDGE_CURVE('',#709,#300,#908,.T.);
#910=ORIENTED_EDGE('',*,*,#909,.T.);
#911=ORIENTED_EDGE('',*,*,#329,.T.);
#912=ORIENTED_EDGE('',*,*,#345,.T.);
#913=ORIENTED_EDGE('',*,*,#376,.T.);
#914=ORIENTED_EDGE('',*,*,#597,.F.);
#915=ORIENTED_EDGE('',*,*,#666,.T.);
#916=ORIENTED_EDGE('',*,*,#690,.T.);
#917=ORIENTED_EDGE('',*,*,#720,.T.);
#918=EDGE_LOOP('',(#910,#911,#912,#913,#914,#915,#916,#917));
#919=FACE_BOUND('',#918,.T.);
#920=ADVANCED_FACE('',(#919),#904,.T.);
#921=CARTESIAN_POINT('',(0.027444254,0.,0.));
#922=DIRECTION('',(0.,-1.,0.));
#923=DIRECTION('',(1.,0.,0.));
#924=AXIS2_PLACEMENT_3D('',#921,#922,#923);
#925=PLANE('',#924);
#926=ORIENTED_EDGE('',*,*,#108,.T.);
#927=ORIENTED_EDGE('',*,*,#305,.T.);
#928=ORIENTED_EDGE('',*,*,#909,.F.);
#929=ORIENTED_EDGE('',*,*,#714,.T.);
#930=EDGE_LOOP('',(#926,#927,#928,#929));
#931=FACE_BOUND('',#930,.T.);
#932=ADVANCED_FACE('',(#931),#925,.T.);
#933=CARTESIAN_POINT('',(35.027444254,26.,2.));
#934=DIRECTION('',(0.,0.,1.));
#935=DIRECTION('',(1.,0.,0.));
#936=AXIS2_PLACEMENT_3D('',#933,#934,#935);
#937=PLANE('',#936);
#938=ORIENTED_EDGE('',*,*,#759,.T.);
#939=ORIENTED_EDGE('',*,*,#637,.T.);
#940=EDGE_LOOP('',(#938,#939));
#941=FACE_BOUND('',#940,.T.);
#942=ADVANCED_FACE('',(#941),#937,.T.);
#943=CLOSED_SHELL('',(#151,#182,#222,#269,#293,#333,#364,#395,#426,#448,#577,#601,#623,#654,#678,#702,#733,#745,#763,#794,#806,#830,#854,#871,#883,#899,
#920,#932,#942));
#944=MANIFOLD_SOLID_BREP('Body3',#943);
#945=COLOUR_RGB('',0.627451003,0.627451003,0.627451003);
#946=FILL_AREA_STYLE_COLOUR('',#945);
#947=FILL_AREA_STYLE('',(#946));
#948=SURFACE_STYLE_FILL_AREA(#947);
#949=SURFACE_SIDE_STYLE('',(#948));
#950=SURFACE_STYLE_USAGE(.BOTH.,#949);
#951=PRESENTATION_STYLE_ASSIGNMENT((#950));
#54=STYLED_ITEM('',(#951),#944);
#35=SHAPE_REPRESENTATION('Glasses and 3 lenses v5.step',(#15),#33);
#36=ADVANCED_BREP_SHAPE_REPRESENTATION('Glasses and 3 lenses v5.step',(#944),#33);
#959=SHAPE_REPRESENTATION_RELATIONSHIP('','',#35,#36);
#960=CARTESIAN_POINT('',(0.,0.,0.));
#961=DIRECTION('',(0.,0.,1.));
#962=DIRECTION('',(1.,0.,0.));
#963=AXIS2_PLACEMENT_3D('',#960,#961,#962);
#965=MAPPED_ITEM('',#964,#963);
#964=REPRESENTATION_MAP(#963,#35);
#966=APPLICATION_CONTEXT('Managed model based 3d engineering');
#967=APPLICATION_PROTOCOL_DEFINITION('international standard','ap242_managed_model_based_3d_engineering',2014,#966);
#968=PRODUCT_CONTEXT('',#966,'mechanical');
#969=PRODUCT_DEFINITION_CONTEXT('part definition',#966,'design');
#43=PRODUCT('Glasses and 3 lenses v5.step','Glasses and 3 lenses v5.step','',(#968));
#970=PRODUCT_RELATED_PRODUCT_CATEGORY('part','',(#43));
#971=PRODUCT_DEFINITION_FORMATION_WITH_SPECIFIED_SOURCE('','',#43,.NOT_KNOWN.);
#44=PRODUCT_DEFINITION('design','',#971,#969);
#42=PRODUCT_DEFINITION_SHAPE('','',#44);
#972=SHAPE_DEFINITION_REPRESENTATION(#42,#35);
#34=DRAUGHTING_MODEL('',(#965),#33);
#16=SHAPE_REPRESENTATION('root',(#15,#48),#10);
#973=CARTESIAN_POINT('',(0.,0.,0.));
#974=DIRECTION('',(0.,0.,1.));
#975=DIRECTION('',(1.,0.,0.));
#976=AXIS2_PLACEMENT_3D('',#973,#974,#975);
#978=MAPPED_ITEM('',#977,#976);
#977=REPRESENTATION_MAP(#976,#16);
#24=PRODUCT('root','root','',(#968));
#979=PRODUCT_RELATED_PRODUCT_CATEGORY('part','',(#24));
#980=PRODUCT_DEFINITION_FORMATION_WITH_SPECIFIED_SOURCE('','',#24,.NOT_KNOWN.);
#25=PRODUCT_DEFINITION('design','',#980,#969);
#23=PRODUCT_DEFINITION_SHAPE('','',#25);
#981=SHAPE_DEFINITION_REPRESENTATION(#23,#16);
#11=DRAUGHTING_MODEL('',(#978),#10);
#982=DESCRIPTIVE_REPRESENTATION_ITEM('KEY','/Users/tdbell11/Library/Containers/com.shapr3d.shapr/Data/tmp/BE4A9626-980D-49CA-8DEE-9AE13876F74B.tmp');
#983=PROPERTY_DEFINITION('KEY','',#25);
#984=REPRESENTATION('',(#982),#10);
#985=PROPERTY_DEFINITION_REPRESENTATION(#983,#984);
#986=GENERAL_PROPERTY('','KEY','');
#987=GENERAL_PROPERTY_ASSOCIATION('','',#986,#983);
#1=MECHANICAL_DESIGN_GEOMETRIC_PRESENTATION_REPRESENTATION('',(#54),#10);
ENDSEC;
END-ISO-10303-21;
