ISO-10303-21;
HEADER;

/* File generated by Shapr3D Version 26.150.0.11562 */

FILE_DESCRIPTION(('HOOPS Exchange Step'),'2;1');

FILE_NAME('/Users/tdbell11/Library/Containers/com.shapr3d.shapr/Data/tmp/export/temp_export',
'2026-08-29T15:55:15-07:00',
('tysonbell'),
('Shapr3D Limited'),
'HOOPS Exchange 2026.3',
'Shapr3D',
'Authorized');

FILE_SCHEMA( ('AP242_MANAGED_MODEL_BASED_3D_ENGINEERING_MIM_LF {1 0 10303 442 1 1 4}') );

ENDSEC;

DATA;
#3=(NAMED_UNIT(*)PLANE_ANGLE_UNIT()SI_UNIT($,.RADIAN.));
#4=PLANE_ANGLE_MEASURE_WITH_UNIT(PLANE_ANGLE_MEASURE(0.0174532925),#3);
#5=(CONVERSION_BASED_UNIT('DEGREE',#4)NAMED_UNIT(#6)PLANE_ANGLE_UNIT());
#6=DIMENSIONAL_EXPONENTS(0.,0.,0.,0.,0.,0.,0.);
#7=(NAMED_UNIT(*)SI_UNIT($,.STERADIAN.)SOLID_ANGLE_UNIT());
#8=(LENGTH_UNIT()NAMED_UNIT(*)SI_UNIT(.MILLI.,.METRE.));
#9=UNCERTAINTY_MEASURE_WITH_UNIT(LENGTH_MEASURE(1.000000E-03),#8,'DISTANCE_ACCURACY_VALUE','Maximum Tolerance applied to model');
#10=(GEOMETRIC_REPRESENTATION_CONTEXT(3)GLOBAL_UNCERTAINTY_ASSIGNED_CONTEXT((#9))GLOBAL_UNIT_ASSIGNED_CONTEXT((#8,#5,#7))REPRESENTATION_CONTEXT('','root'));
#12=CARTESIAN_POINT('',(0.,0.,0.));
#13=DIRECTION('',(0.,0.,1.));
#14=DIRECTION('',(1.,0.,0.));
#15=AXIS2_PLACEMENT_3D('TS3D_PRODUCT_CSYS',#12,#13,#14);
#26=(NAMED_UNIT(*)PLANE_ANGLE_UNIT()SI_UNIT($,.RADIAN.));
#27=PLANE_ANGLE_MEASURE_WITH_UNIT(PLANE_ANGLE_MEASURE(0.0174532925),#26);
#28=(CONVERSION_BASED_UNIT('DEGREE',#27)NAMED_UNIT(#29)PLANE_ANGLE_UNIT());
#29=DIMENSIONAL_EXPONENTS(0.,0.,0.,0.,0.,0.,0.);
#30=(NAMED_UNIT(*)SI_UNIT($,.STERADIAN.)SOLID_ANGLE_UNIT());
#31=(LENGTH_UNIT()NAMED_UNIT(*)SI_UNIT(.MILLI.,.METRE.));
#32=UNCERTAINTY_MEASURE_WITH_UNIT(LENGTH_MEASURE(1.000000E-05),#31,'DISTANCE_ACCURACY_VALUE','Maximum Tolerance applied to model');
#33=(GEOMETRIC_REPRESENTATION_CONTEXT(3)GLOBAL_UNCERTAINTY_ASSIGNED_CONTEXT((#32))GLOBAL_UNIT_ASSIGNED_CONTEXT((#31,#28,#30))REPRESENTATION_CONTEXT('','Glasses and 3 lenses v5.step'));
#45=CARTESIAN_POINT('',(0.,0.,0.));
#46=DIRECTION('',(0.,0.,1.));
#47=DIRECTION('',(1.,0.,-0.));
#48=AXIS2_PLACEMENT_3D('',#45,#46,#47);
#49=ITEM_DEFINED_TRANSFORMATION('','',#48,#15);
#50=(REPRESENTATION_RELATIONSHIP('','',#35,#16)REPRESENTATION_RELATIONSHIP_WITH_TRANSFORMATION(#49)SHAPE_REPRESENTATION_RELATIONSHIP());
#51=NEXT_ASSEMBLY_USAGE_OCCURRENCE('Glasses and 3 lenses v5.step_1','Glasses and 3 lenses v5.step','Glasses and 3 lenses v5.step',#25,#44,$);
#52=PRODUCT_DEFINITION_SHAPE('','',#51);
#53=CONTEXT_DEPENDENT_SHAPE_REPRESENTATION(#50,#52);
#55=CARTESIAN_POINT('',(0.027444254,0.,0.));
#56=DIRECTION('',(0.,-1.,0.));
#57=DIRECTION('',(1.,0.,0.));
#58=AXIS2_PLACEMENT_3D('',#55,#56,#57);
#59=PLANE('',#58);
#60=CARTESIAN_POINT('',(0.027444254,0.,0.));
#61=VERTEX_POINT('',#60);
#62=CARTESIAN_POINT('',(96.027444254,0.,0.));
#63=VERTEX_POINT('',#62);
#64=CARTESIAN_POINT('',(0.027444254,0.,0.));
#65=DIRECTION('',(1.,0.,-0.));
#66=VECTOR('',#65,96.);
#67=LINE('',#64,#66);
#68=EDGE_CURVE('',#61,#63,#67,.T.);
#69=ORIENTED_EDGE('',*,*,#68,.T.);
#70=CARTESIAN_POINT('',(96.027444254,0.,2.));
#71=VERTEX_POINT('',#70);
#72=CARTESIAN_POINT('',(96.027444254,0.,0.));
#73=DIRECTION('',(0.,0.,1.));
#74=VECTOR('',#73,2.);
#75=LINE('',#72,#74);
#76=EDGE_CURVE('',#63,#71,#75,.T.);
#77=ORIENTED_EDGE('',*,*,#76,.T.);
#78=CARTESIAN_POINT('',(0.027444254,0.,2.));
#79=VERTEX_POINT('',#78);
#80=CARTESIAN_POINT('',(0.027444254,0.,2.));
#81=DIRECTION('',(1.,0.,-0.));
#82=VECTOR('',#81,96.);
#83=LINE('',#80,#82);
#84=EDGE_CURVE('',#79,#71,#83,.T.);
#85=ORIENTED_EDGE('',*,*,#84,.F.);
#86=CARTESIAN_POINT('',(0.027444254,0.,0.));
#87=DIRECTION('',(0.,0.,1.));
#88=VECTOR('',#87,2.);
#89=LINE('',#86,#88);
#90=EDGE_CURVE('',#61,#79,#89,.T.);
#91=ORIENTED_EDGE('',*,*,#90,.F.);
#92=EDGE_LOOP('',(#69,#77,#85,#91));
#93=FACE_BOUND('',#92,.T.);
#94=ADVANCED_FACE('',(#93),#59,.T.);
#95=CARTESIAN_POINT('',(0.027444254,26.,0.));
#96=DIRECTION('',(0.,-0.,1.));
#97=DIRECTION('',(0.,1.,0.));
#98=AXIS2_PLACEMENT_3D('',#95,#96,#97);
#99=CYLINDRICAL_SURFACE('',#98,26.);
#100=CARTESIAN_POINT('',(0.027444254,52.,0.));
#101=VERTEX_POINT('',#100);
#102=CARTESIAN_POINT('',(0.027444254,26.,0.));
#103=DIRECTION('',(0.,0.,1.));
#104=DIRECTION('',(1.,0.,-0.));
#105=AXIS2_PLACEMENT_3D('',#102,#103,#104);
#106=CIRCLE('',#105,26.);
#107=EDGE_CURVE('',#101,#61,#106,.T.);
#108=ORIENTED_EDGE('',*,*,#107,.T.);
#109=ORIENTED_EDGE('',*,*,#90,.T.);
#110=CARTESIAN_POINT('',(0.027444254,52.,2.));
#111=VERTEX_POINT('',#110);
#112=CARTESIAN_POINT('',(0.027444254,26.,2.));
#113=DIRECTION('',(0.,0.,1.));
#114=DIRECTION('',(1.,0.,-0.));
#115=AXIS2_PLACEMENT_3D('',#112,#113,#114);
#116=CIRCLE('',#115,26.);
#117=EDGE_CURVE('',#111,#79,#116,.T.);
#118=ORIENTED_EDGE('',*,*,#117,.F.);
#119=CARTESIAN_POINT('',(0.027444254,52.,0.));
#120=DIRECTION('',(0.,0.,1.));
#121=VECTOR('',#120,2.);
#122=LINE('',#119,#121);
#123=EDGE_CURVE('',#101,#111,#122,.T.);
#124=ORIENTED_EDGE('',*,*,#123,.F.);
#125=EDGE_LOOP('',(#108,#109,#118,#124));
#126=FACE_BOUND('',#125,.T.);
#127=ADVANCED_FACE('',(#126),#99,.T.);
#128=CARTESIAN_POINT('',(96.027444254,52.,0.));
#129=DIRECTION('',(0.,1.,0.));
#130=DIRECTION('',(-1.,0.,0.));
#131=AXIS2_PLACEMENT_3D('',#128,#129,#130);
#132=PLANE('',#131);
#133=CARTESIAN_POINT('',(96.027444254,52.,0.));
#134=VERTEX_POINT('',#133);
#135=CARTESIAN_POINT('',(96.027444254,52.,0.));
#136=DIRECTION('',(-1.,0.,0.));
#137=VECTOR('',#136,96.);
#138=LINE('',#135,#137);
#139=EDGE_CURVE('',#134,#101,#138,.T.);
#140=ORIENTED_EDGE('',*,*,#139,.T.);
#141=ORIENTED_EDGE('',*,*,#123,.T.);
#142=CARTESIAN_POINT('',(96.027444254,52.,2.));
#143=VERTEX_POINT('',#142);
#144=CARTESIAN_POINT('',(96.027444254,52.,2.));
#145=DIRECTION('',(-1.,-0.,0.));
#146=VECTOR('',#145,96.);
#147=LINE('',#144,#146);
#148=EDGE_CURVE('',#143,#111,#147,.T.);
#149=ORIENTED_EDGE('',*,*,#148,.F.);
#150=CARTESIAN_POINT('',(96.027444254,52.,0.));
#151=DIRECTION('',(0.,0.,1.));
#152=VECTOR('',#151,2.);
#153=LINE('',#150,#152);
#154=EDGE_CURVE('',#134,#143,#153,.T.);
#155=ORIENTED_EDGE('',*,*,#154,.F.);
#156=EDGE_LOOP('',(#140,#141,#149,#155));
#157=FACE_BOUND('',#156,.T.);
#158=ADVANCED_FACE('',(#157),#132,.T.);
#159=CARTESIAN_POINT('',(96.027444254,0.,0.));
#160=DIRECTION('',(1.,0.,0.));
#161=DIRECTION('',(0.,1.,0.));
#162=AXIS2_PLACEMENT_3D('',#159,#160,#161);
#163=PLANE('',#162);
#164=CARTESIAN_POINT('',(96.027444254,0.,0.));
#165=DIRECTION('',(0.,1.,0.));
#166=VECTOR('',#165,52.);
#167=LINE('',#164,#166);
#168=EDGE_CURVE('',#63,#134,#167,.T.);
#169=ORIENTED_EDGE('',*,*,#168,.T.);
#170=ORIENTED_EDGE('',*,*,#154,.T.);
#171=CARTESIAN_POINT('',(96.027444254,0.,2.));
#172=DIRECTION('',(0.,1.,0.));
#173=VECTOR('',#172,52.);
#174=LINE('',#171,#173);
#175=EDGE_CURVE('',#71,#143,#174,.T.);
#176=ORIENTED_EDGE('',*,*,#175,.F.);
#177=ORIENTED_EDGE('',*,*,#76,.F.);
#178=EDGE_LOOP('',(#169,#170,#176,#177));
#179=FACE_BOUND('',#178,.T.);
#180=ADVANCED_FACE('',(#179),#163,.T.);
#181=CARTESIAN_POINT('',(35.027444254,26.,2.));
#182=DIRECTION('',(0.,0.,1.));
#183=DIRECTION('',(1.,0.,0.));
#184=AXIS2_PLACEMENT_3D('',#181,#182,#183);
#185=PLANE('',#184);
#186=ORIENTED_EDGE('',*,*,#175,.T.);
#187=ORIENTED_EDGE('',*,*,#148,.T.);
#188=ORIENTED_EDGE('',*,*,#117,.T.);
#189=ORIENTED_EDGE('',*,*,#84,.T.);
#190=EDGE_LOOP('',(#186,#187,#188,#189));
#191=FACE_BOUND('',#190,.T.);
#192=ADVANCED_FACE('',(#191),#185,.T.);
#193=CARTESIAN_POINT('',(35.027444254,26.,0.));
#194=DIRECTION('',(0.,0.,1.));
#195=DIRECTION('',(1.,0.,0.));
#196=AXIS2_PLACEMENT_3D('',#193,#194,#195);
#197=PLANE('',#196);
#198=ORIENTED_EDGE('',*,*,#168,.F.);
#199=ORIENTED_EDGE('',*,*,#68,.F.);
#200=ORIENTED_EDGE('',*,*,#107,.F.);
#201=ORIENTED_EDGE('',*,*,#139,.F.);
#202=EDGE_LOOP('',(#198,#199,#200,#201));
#203=FACE_BOUND('',#202,.T.);
#204=ADVANCED_FACE('',(#203),#197,.F.);
#205=CLOSED_SHELL('',(#94,#127,#158,#180,#192,#204));
#206=MANIFOLD_SOLID_BREP('Body2',#205);
#207=COLOUR_RGB('',0.627451003,0.627451003,0.627451003);
#208=FILL_AREA_STYLE_COLOUR('',#207);
#209=FILL_AREA_STYLE('',(#208));
#210=SURFACE_STYLE_FILL_AREA(#209);
#211=SURFACE_SIDE_STYLE('',(#210));
#212=SURFACE_STYLE_USAGE(.BOTH.,#211);
#213=PRESENTATION_STYLE_ASSIGNMENT((#212));
#54=STYLED_ITEM('',(#213),#206);
#215=CARTESIAN_POINT('',(0.027444254,50.,2.));
#216=DIRECTION('',(0.000000008,-1.,0.));
#217=DIRECTION('',(1.,0.000000008,0.));
#218=AXIS2_PLACEMENT_3D('',#215,#216,#217);
#219=PLANE('',#218);
#220=CARTESIAN_POINT('',(32.,50.000000124,87.));
#221=VERTEX_POINT('',#220);
#222=CARTESIAN_POINT('',(32.,50.000000124,2.));
#223=VERTEX_POINT('',#222);
#224=CARTESIAN_POINT('',(32.,50.000000248,87.));
#225=DIRECTION('',(-0.,-0.,-1.));
#226=VECTOR('',#225,85.);
#227=LINE('',#224,#226);
#228=EDGE_CURVE('',#221,#223,#227,.T.);
#229=ORIENTED_EDGE('',*,*,#228,.T.);
#230=CARTESIAN_POINT('',(62.000000954,50.000000613,2.));
#231=VERTEX_POINT('',#230);
#232=CARTESIAN_POINT('',(32.,50.000000248,2.));
#233=DIRECTION('',(1.,0.000000008,0.));
#234=VECTOR('',#233,30.000000954);
#235=LINE('',#232,#234);
#236=EDGE_CURVE('',#223,#231,#235,.T.);
#237=ORIENTED_EDGE('',*,*,#236,.T.);
#238=CARTESIAN_POINT('',(62.000000954,50.00000024,87.));
#239=VERTEX_POINT('',#238);
#240=CARTESIAN_POINT('',(62.000000954,50.000000481,2.));
#241=DIRECTION('',(0.,0.,1.));
#242=VECTOR('',#241,85.);
#243=LINE('',#240,#242);
#244=EDGE_CURVE('',#231,#239,#243,.T.);
#245=ORIENTED_EDGE('',*,*,#244,.T.);
#246=CARTESIAN_POINT('',(32.,50.,87.));
#247=DIRECTION('',(1.,-0.,-0.));
#248=VECTOR('',#247,30.000000954);
#249=LINE('',#246,#248);
#250=EDGE_CURVE('',#221,#239,#249,.T.);
#251=ORIENTED_EDGE('',*,*,#250,.F.);
#252=EDGE_LOOP('',(#229,#237,#245,#251));
#253=FACE_BOUND('',#252,.T.);
#254=ADVANCED_FACE('',(#253),#219,.T.);
#255=CARTESIAN_POINT('',(35.993601437,-0.077726641,0.));
#256=DIRECTION('',(1.,0.,0.));
#257=DIRECTION('',(0.,1.,0.));
#258=AXIS2_PLACEMENT_3D('',#255,#256,#257);
#259=PLANE('',#258);
#260=CARTESIAN_POINT('',(35.993601437,1.922273359,0.));
#261=VERTEX_POINT('',#260);
#262=CARTESIAN_POINT('',(35.993601437,-0.077726641,0.));
#263=VERTEX_POINT('',#262);
#264=CARTESIAN_POINT('',(35.993601437,1.922273359,0.));
#265=DIRECTION('',(-0.,-1.,-0.));
#266=VECTOR('',#265,2.);
#267=LINE('',#264,#266);
#268=EDGE_CURVE('',#261,#263,#267,.T.);
#269=ORIENTED_EDGE('',*,*,#268,.F.);
#270=CARTESIAN_POINT('',(35.993601437,1.922273359,87.));
#271=VERTEX_POINT('',#270);
#272=CARTESIAN_POINT('',(35.993601437,1.922273359,0.));
#273=DIRECTION('',(0.,0.,1.));
#274=VECTOR('',#273,87.);
#275=LINE('',#272,#274);
#276=EDGE_CURVE('',#261,#271,#275,.T.);
#277=ORIENTED_EDGE('',*,*,#276,.T.);
#278=CARTESIAN_POINT('',(35.993601437,-0.077726641,87.));
#279=VERTEX_POINT('',#278);
#280=CARTESIAN_POINT('',(35.993601437,-0.077726641,87.));
#281=DIRECTION('',(-0.,1.,-0.));
#282=VECTOR('',#281,2.);
#283=LINE('',#280,#282);
#284=EDGE_CURVE('',#279,#271,#283,.T.);
#285=ORIENTED_EDGE('',*,*,#284,.F.);
#286=CARTESIAN_POINT('',(35.993601437,-0.077726641,0.));
#287=DIRECTION('',(0.,0.,1.));
#288=VECTOR('',#287,87.);
#289=LINE('',#286,#288);
#290=EDGE_CURVE('',#263,#279,#289,.T.);
#291=ORIENTED_EDGE('',*,*,#290,.F.);
#292=EDGE_LOOP('',(#269,#277,#285,#291));
#293=FACE_BOUND('',#292,.T.);
#294=ADVANCED_FACE('',(#293),#259,.T.);
#295=CARTESIAN_POINT('',(25.993601437,-0.077726641,0.));
#296=DIRECTION('',(0.,-1.,0.));
#297=DIRECTION('',(1.,0.,0.));
#298=AXIS2_PLACEMENT_3D('',#295,#296,#297);
#299=PLANE('',#298);
#300=CARTESIAN_POINT('',(25.993601437,-0.077726641,0.));
#301=VERTEX_POINT('',#300);
#302=CARTESIAN_POINT('',(35.993601437,-0.077726641,0.));
#303=DIRECTION('',(-1.,-0.,0.));
#304=VECTOR('',#303,10.);
#305=LINE('',#302,#304);
#306=EDGE_CURVE('',#263,#301,#305,.T.);
#307=ORIENTED_EDGE('',*,*,#306,.F.);
#308=ORIENTED_EDGE('',*,*,#290,.T.);
#309=CARTESIAN_POINT('',(25.993601437,-0.077726641,87.));
#310=VERTEX_POINT('',#309);
#311=CARTESIAN_POINT('',(25.993601437,-0.077726641,87.));
#312=DIRECTION('',(1.,-0.,-0.));
#313=VECTOR('',#312,10.);
#314=LINE('',#311,#313);
#315=EDGE_CURVE('',#310,#279,#314,.T.);
#316=ORIENTED_EDGE('',*,*,#315,.F.);
#317=CARTESIAN_POINT('',(25.993601437,-0.077726641,0.));
#318=DIRECTION('',(0.,0.,1.));
#319=VECTOR('',#318,87.);
#320=LINE('',#317,#319);
#321=EDGE_CURVE('',#301,#310,#320,.T.);
#322=ORIENTED_EDGE('',*,*,#321,.F.);
#323=EDGE_LOOP('',(#307,#308,#316,#322));
#324=FACE_BOUND('',#323,.T.);
#325=ADVANCED_FACE('',(#324),#299,.T.);
#326=CARTESIAN_POINT('',(25.993601437,1.922273359,0.));
#327=DIRECTION('',(-1.,0.,0.));
#328=DIRECTION('',(0.,-1.,0.));
#329=AXIS2_PLACEMENT_3D('',#326,#327,#328);
#330=PLANE('',#329);
#331=CARTESIAN_POINT('',(25.993601437,1.922273359,0.));
#332=VERTEX_POINT('',#331);
#333=CARTESIAN_POINT('',(25.993601437,-0.077726641,0.));
#334=DIRECTION('',(0.,1.,0.));
#335=VECTOR('',#334,2.);
#336=LINE('',#333,#335);
#337=EDGE_CURVE('',#301,#332,#336,.T.);
#338=ORIENTED_EDGE('',*,*,#337,.F.);
#339=ORIENTED_EDGE('',*,*,#321,.T.);
#340=CARTESIAN_POINT('',(25.993601437,1.922273359,87.));
#341=VERTEX_POINT('',#340);
#342=CARTESIAN_POINT('',(25.993601437,1.922273359,87.));
#343=DIRECTION('',(0.,-1.,0.));
#344=VECTOR('',#343,2.);
#345=LINE('',#342,#344);
#346=EDGE_CURVE('',#341,#310,#345,.T.);
#347=ORIENTED_EDGE('',*,*,#346,.F.);
#348=CARTESIAN_POINT('',(25.993601437,1.922273359,0.));
#349=DIRECTION('',(0.,0.,1.));
#350=VECTOR('',#349,87.);
#351=LINE('',#348,#350);
#352=EDGE_CURVE('',#332,#341,#351,.T.);
#353=ORIENTED_EDGE('',*,*,#352,.F.);
#354=EDGE_LOOP('',(#338,#339,#347,#353));
#355=FACE_BOUND('',#354,.T.);
#356=ADVANCED_FACE('',(#355),#330,.T.);
#357=CARTESIAN_POINT('',(30.,1.922273359,0.));
#358=DIRECTION('',(0.,1.,0.));
#359=DIRECTION('',(-1.,0.,0.));
#360=AXIS2_PLACEMENT_3D('',#357,#358,#359);
#361=PLANE('',#360);
#362=CARTESIAN_POINT('',(30.,1.922273359,0.));
#363=VERTEX_POINT('',#362);
#364=CARTESIAN_POINT('',(25.993601437,1.922273359,0.));
#365=DIRECTION('',(1.,0.,-0.));
#366=VECTOR('',#365,4.006398563);
#367=LINE('',#364,#366);
#368=EDGE_CURVE('',#332,#363,#367,.T.);
#369=ORIENTED_EDGE('',*,*,#368,.F.);
#370=ORIENTED_EDGE('',*,*,#352,.T.);
#371=CARTESIAN_POINT('',(30.,1.922273359,87.));
#372=VERTEX_POINT('',#371);
#373=CARTESIAN_POINT('',(30.,1.922273359,87.));
#374=DIRECTION('',(-1.,0.,0.));
#375=VECTOR('',#374,4.006398563);
#376=LINE('',#373,#375);
#377=EDGE_CURVE('',#372,#341,#376,.T.);
#378=ORIENTED_EDGE('',*,*,#377,.F.);
#379=CARTESIAN_POINT('',(30.,1.922273359,0.));
#380=DIRECTION('',(0.,0.,1.));
#381=VECTOR('',#380,87.);
#382=LINE('',#379,#381);
#383=EDGE_CURVE('',#363,#372,#382,.T.);
#384=ORIENTED_EDGE('',*,*,#383,.F.);
#385=EDGE_LOOP('',(#369,#370,#378,#384));
#386=FACE_BOUND('',#385,.T.);
#387=ADVANCED_FACE('',(#386),#361,.T.);
#388=CARTESIAN_POINT('',(30.,50.,0.));
#389=DIRECTION('',(-1.,0.,0.));
#390=DIRECTION('',(0.,-1.,0.));
#391=AXIS2_PLACEMENT_3D('',#388,#389,#390);
#392=PLANE('',#391);
#393=CARTESIAN_POINT('',(30.,50.,0.));
#394=VERTEX_POINT('',#393);
#395=CARTESIAN_POINT('',(30.,1.922273359,0.));
#396=DIRECTION('',(0.,1.,0.));
#397=VECTOR('',#396,48.077726641);
#398=LINE('',#395,#397);
#399=EDGE_CURVE('',#363,#394,#398,.T.);
#400=ORIENTED_EDGE('',*,*,#399,.F.);
#401=ORIENTED_EDGE('',*,*,#383,.T.);
#402=CARTESIAN_POINT('',(30.,50.000000116,87.));
#403=VERTEX_POINT('',#402);
#404=CARTESIAN_POINT('',(30.,50.000000116,87.));
#405=DIRECTION('',(0.,-1.,0.));
#406=VECTOR('',#405,48.077726758);
#407=LINE('',#404,#406);
#408=EDGE_CURVE('',#403,#372,#407,.T.);
#409=ORIENTED_EDGE('',*,*,#408,.F.);
#410=CARTESIAN_POINT('',(30.,50.000000116,2.));
#411=VERTEX_POINT('',#410);
#412=CARTESIAN_POINT('',(30.,50.000000233,2.));
#413=DIRECTION('',(0.,0.,1.));
#414=VECTOR('',#413,85.);
#415=LINE('',#412,#414);
#416=EDGE_CURVE('',#411,#403,#415,.T.);
#417=ORIENTED_EDGE('',*,*,#416,.F.);
#418=CARTESIAN_POINT('',(30.,50.,0.));
#419=DIRECTION('',(0.,0.,1.));
#420=VECTOR('',#419,2.);
#421=LINE('',#418,#420);
#422=EDGE_CURVE('',#394,#411,#421,.T.);
#423=ORIENTED_EDGE('',*,*,#422,.F.);
#424=EDGE_LOOP('',(#400,#401,#409,#417,#423));
#425=FACE_BOUND('',#424,.T.);
#426=ADVANCED_FACE('',(#425),#392,.T.);
#427=CARTESIAN_POINT('',(32.,50.,0.));
#428=DIRECTION('',(0.,1.,0.));
#429=DIRECTION('',(-1.,0.,0.));
#430=AXIS2_PLACEMENT_3D('',#427,#428,#429);
#431=PLANE('',#430);
#432=CARTESIAN_POINT('',(30.,50.,2.));
#433=DIRECTION('',(1.,-0.,-0.));
#434=VECTOR('',#433,2.);
#435=LINE('',#432,#434);
#436=EDGE_CURVE('',#411,#223,#435,.T.);
#437=ORIENTED_EDGE('',*,*,#436,.T.);
#438=CARTESIAN_POINT('',(32.,50.,0.));
#439=VERTEX_POINT('',#438);
#440=CARTESIAN_POINT('',(32.,50.,0.));
#441=DIRECTION('',(0.,0.,1.));
#442=VECTOR('',#441,2.);
#443=LINE('',#440,#442);
#444=EDGE_CURVE('',#439,#223,#443,.T.);
#445=ORIENTED_EDGE('',*,*,#444,.F.);
#446=CARTESIAN_POINT('',(30.,50.,0.));
#447=DIRECTION('',(1.,0.,-0.));
#448=VECTOR('',#447,2.);
#449=LINE('',#446,#448);
#450=EDGE_CURVE('',#394,#439,#449,.T.);
#451=ORIENTED_EDGE('',*,*,#450,.F.);
#452=ORIENTED_EDGE('',*,*,#422,.T.);
#453=EDGE_LOOP('',(#437,#445,#451,#452));
#454=FACE_BOUND('',#453,.T.);
#455=ADVANCED_FACE('',(#454),#431,.T.);
#456=CARTESIAN_POINT('',(32.,1.922273359,0.));
#457=DIRECTION('',(1.,0.,0.));
#458=DIRECTION('',(0.,1.,0.));
#459=AXIS2_PLACEMENT_3D('',#456,#457,#458);
#460=PLANE('',#459);
#461=CARTESIAN_POINT('',(32.,1.922273359,0.));
#462=VERTEX_POINT('',#461);
#463=CARTESIAN_POINT('',(32.,50.,0.));
#464=DIRECTION('',(-0.,-1.,-0.));
#465=VECTOR('',#464,48.077726641);
#466=LINE('',#463,#465);
#467=EDGE_CURVE('',#439,#462,#466,.T.);
#468=ORIENTED_EDGE('',*,*,#467,.F.);
#469=ORIENTED_EDGE('',*,*,#444,.T.);
#470=ORIENTED_EDGE('',*,*,#228,.F.);
#471=CARTESIAN_POINT('',(32.,1.922273359,87.));
#472=VERTEX_POINT('',#471);
#473=CARTESIAN_POINT('',(32.,1.922273359,87.));
#474=DIRECTION('',(-0.,1.,-0.));
#475=VECTOR('',#474,48.077726765);
#476=LINE('',#473,#475);
#477=EDGE_CURVE('',#472,#221,#476,.T.);
#478=ORIENTED_EDGE('',*,*,#477,.F.);
#479=CARTESIAN_POINT('',(32.,1.922273359,0.));
#480=DIRECTION('',(0.,0.,1.));
#481=VECTOR('',#480,87.);
#482=LINE('',#479,#481);
#483=EDGE_CURVE('',#462,#472,#482,.T.);
#484=ORIENTED_EDGE('',*,*,#483,.F.);
#485=EDGE_LOOP('',(#468,#469,#470,#478,#484));
#486=FACE_BOUND('',#485,.T.);
#487=ADVANCED_FACE('',(#486),#460,.T.);
#488=CARTESIAN_POINT('',(35.993601437,1.922273359,0.));
#489=DIRECTION('',(0.,1.,0.));
#490=DIRECTION('',(-1.,0.,0.));
#491=AXIS2_PLACEMENT_3D('',#488,#489,#490);
#492=PLANE('',#491);
#493=CARTESIAN_POINT('',(32.,1.922273359,0.));
#494=DIRECTION('',(1.,0.,-0.));
#495=VECTOR('',#494,3.993601437);
#496=LINE('',#493,#495);
#497=EDGE_CURVE('',#462,#261,#496,.T.);
#498=ORIENTED_EDGE('',*,*,#497,.F.);
#499=ORIENTED_EDGE('',*,*,#483,.T.);
#500=CARTESIAN_POINT('',(35.993601437,1.922273359,87.));
#501=DIRECTION('',(-1.,0.,0.));
#502=VECTOR('',#501,3.993601437);
#503=LINE('',#500,#502);
#504=EDGE_CURVE('',#271,#472,#503,.T.);
#505=ORIENTED_EDGE('',*,*,#504,.F.);
#506=ORIENTED_EDGE('',*,*,#276,.F.);
#507=EDGE_LOOP('',(#498,#499,#505,#506));
#508=FACE_BOUND('',#507,.T.);
#509=ADVANCED_FACE('',(#508),#492,.T.);
#510=CARTESIAN_POINT('',(30.993601437,24.961136679,0.));
#511=DIRECTION('',(0.,0.,1.));
#512=DIRECTION('',(1.,0.,0.));
#513=AXIS2_PLACEMENT_3D('',#510,#511,#512);
#514=PLANE('',#513);
#515=ORIENTED_EDGE('',*,*,#497,.T.);
#516=ORIENTED_EDGE('',*,*,#268,.T.);
#517=ORIENTED_EDGE('',*,*,#306,.T.);
#518=ORIENTED_EDGE('',*,*,#337,.T.);
#519=ORIENTED_EDGE('',*,*,#368,.T.);
#520=ORIENTED_EDGE('',*,*,#399,.T.);
#521=ORIENTED_EDGE('',*,*,#450,.T.);
#522=ORIENTED_EDGE('',*,*,#467,.T.);
#523=EDGE_LOOP('',(#515,#516,#517,#518,#519,#520,#521,#522));
#524=FACE_BOUND('',#523,.T.);
#525=ADVANCED_FACE('',(#524),#514,.F.);
#526=CARTESIAN_POINT('',(35.027444254,26.,87.));
#527=DIRECTION('',(0.,0.,1.));
#528=DIRECTION('',(-1.,0.,0.));
#529=AXIS2_PLACEMENT_3D('',#526,#527,#528);
#530=PLANE('',#529);
#531=CARTESIAN_POINT('',(2.,50.000000008,87.));
#532=VERTEX_POINT('',#531);
#533=CARTESIAN_POINT('',(2.,50.,87.));
#534=DIRECTION('',(1.,-0.,-0.));
#535=VECTOR('',#534,28.);
#536=LINE('',#533,#535);
#537=EDGE_CURVE('',#532,#403,#536,.T.);
#538=ORIENTED_EDGE('',*,*,#537,.T.);
#539=ORIENTED_EDGE('',*,*,#408,.T.);
#540=ORIENTED_EDGE('',*,*,#377,.T.);
#541=ORIENTED_EDGE('',*,*,#346,.T.);
#542=ORIENTED_EDGE('',*,*,#315,.T.);
#543=ORIENTED_EDGE('',*,*,#284,.T.);
#544=ORIENTED_EDGE('',*,*,#504,.T.);
#545=ORIENTED_EDGE('',*,*,#477,.T.);
#546=ORIENTED_EDGE('',*,*,#250,.T.);
#547=CARTESIAN_POINT('',(62.000000954,2.,87.));
#548=VERTEX_POINT('',#547);
#549=CARTESIAN_POINT('',(62.000000954,50.00000024,87.));
#550=DIRECTION('',(0.,-1.,0.));
#551=VECTOR('',#550,48.00000024);
#552=LINE('',#549,#551);
#553=EDGE_CURVE('',#239,#548,#552,.T.);
#554=ORIENTED_EDGE('',*,*,#553,.T.);
#555=CARTESIAN_POINT('',(56.000001431,2.,87.));
#556=VERTEX_POINT('',#555);
#557=CARTESIAN_POINT('',(62.000000954,2.,87.));
#558=DIRECTION('',(-1.,0.,0.));
#559=VECTOR('',#558,5.999999523);
#560=LINE('',#557,#559);
#561=EDGE_CURVE('',#548,#556,#560,.T.);
#562=ORIENTED_EDGE('',*,*,#561,.T.);
#563=CARTESIAN_POINT('',(56.000001431,0.,87.));
#564=VERTEX_POINT('',#563);
#565=CARTESIAN_POINT('',(56.000001431,2.,87.));
#566=DIRECTION('',(0.,-1.,0.));
#567=VECTOR('',#566,2.);
#568=LINE('',#565,#567);
#569=EDGE_CURVE('',#556,#564,#568,.T.);
#570=ORIENTED_EDGE('',*,*,#569,.T.);
#571=CARTESIAN_POINT('',(69.000001431,-0.,87.));
#572=VERTEX_POINT('',#571);
#573=CARTESIAN_POINT('',(56.000001431,0.,87.));
#574=DIRECTION('',(1.,-0.,-0.));
#575=VECTOR('',#574,13.);
#576=LINE('',#573,#575);
#577=EDGE_CURVE('',#564,#572,#576,.T.);
#578=ORIENTED_EDGE('',*,*,#577,.T.);
#579=CARTESIAN_POINT('',(69.000001431,2.,87.));
#580=VERTEX_POINT('',#579);
#581=CARTESIAN_POINT('',(69.000001431,0.,87.));
#582=DIRECTION('',(-0.,1.,-0.));
#583=VECTOR('',#582,2.);
#584=LINE('',#581,#583);
#585=EDGE_CURVE('',#572,#580,#584,.T.);
#586=ORIENTED_EDGE('',*,*,#585,.T.);
#587=CARTESIAN_POINT('',(64.000000954,2.,87.));
#588=VERTEX_POINT('',#587);
#589=CARTESIAN_POINT('',(69.000001431,2.,87.));
#590=DIRECTION('',(-1.,0.,0.));
#591=VECTOR('',#590,5.000000477);
#592=LINE('',#589,#591);
#593=EDGE_CURVE('',#580,#588,#592,.T.);
#594=ORIENTED_EDGE('',*,*,#593,.T.);
#595=CARTESIAN_POINT('',(64.000000954,50.000000621,87.));
#596=VERTEX_POINT('',#595);
#597=CARTESIAN_POINT('',(64.000000954,2.,87.));
#598=DIRECTION('',(-0.,1.,-0.));
#599=VECTOR('',#598,48.000000621);
#600=LINE('',#597,#599);
#601=EDGE_CURVE('',#588,#596,#600,.T.);
#602=ORIENTED_EDGE('',*,*,#601,.T.);
#603=CARTESIAN_POINT('',(94.000001431,50.000000737,87.));
#604=VERTEX_POINT('',#603);
#605=CARTESIAN_POINT('',(64.000000954,50.000000745,87.));
#606=DIRECTION('',(1.,-0.,-0.));
#607=VECTOR('',#606,30.000000477);
#608=LINE('',#605,#607);
#609=EDGE_CURVE('',#596,#604,#608,.T.);
#610=ORIENTED_EDGE('',*,*,#609,.T.);
#611=CARTESIAN_POINT('',(94.000001431,2.00000003,87.));
#612=VERTEX_POINT('',#611);
#613=CARTESIAN_POINT('',(94.000001431,50.000000737,87.));
#614=DIRECTION('',(0.,-1.,0.));
#615=VECTOR('',#614,48.000000707);
#616=LINE('',#613,#615);
#617=EDGE_CURVE('',#604,#612,#616,.T.);
#618=ORIENTED_EDGE('',*,*,#617,.T.);
#619=CARTESIAN_POINT('',(91.000001431,2.00000003,87.));
#620=VERTEX_POINT('',#619);
#621=CARTESIAN_POINT('',(94.000001431,2.00000003,87.));
#622=DIRECTION('',(-1.,0.,0.));
#623=VECTOR('',#622,3.);
#624=LINE('',#621,#623);
#625=EDGE_CURVE('',#612,#620,#624,.T.);
#626=ORIENTED_EDGE('',*,*,#625,.T.);
#627=CARTESIAN_POINT('',(91.000001431,0.,87.));
#628=VERTEX_POINT('',#627);
#629=CARTESIAN_POINT('',(91.000001431,2.00000003,87.));
#630=DIRECTION('',(0.,-1.,0.));
#631=VECTOR('',#630,2.00000003);
#632=LINE('',#629,#631);
#633=EDGE_CURVE('',#620,#628,#632,.T.);
#634=ORIENTED_EDGE('',*,*,#633,.T.);
#635=CARTESIAN_POINT('',(96.000001431,0.,87.));
#636=VERTEX_POINT('',#635);
#637=CARTESIAN_POINT('',(91.000001431,0.,87.));
#638=DIRECTION('',(1.,-0.,-0.));
#639=VECTOR('',#638,5.);
#640=LINE('',#637,#639);
#641=EDGE_CURVE('',#628,#636,#640,.T.);
#642=ORIENTED_EDGE('',*,*,#641,.T.);
#643=CARTESIAN_POINT('',(96.000001431,50.000000745,87.));
#644=VERTEX_POINT('',#643);
#645=CARTESIAN_POINT('',(96.000001431,0.,87.));
#646=DIRECTION('',(-0.,1.,-0.));
#647=VECTOR('',#646,50.000000745);
#648=LINE('',#645,#647);
#649=EDGE_CURVE('',#636,#644,#648,.T.);
#650=ORIENTED_EDGE('',*,*,#649,.T.);
#651=CARTESIAN_POINT('',(96.027444254,50.000000745,87.));
#652=VERTEX_POINT('',#651);
#653=CARTESIAN_POINT('',(96.000001431,50.000000745,87.));
#654=DIRECTION('',(1.,-0.,-0.));
#655=VECTOR('',#654,0.027442823);
#656=LINE('',#653,#655);
#657=EDGE_CURVE('',#644,#652,#656,.T.);
#658=ORIENTED_EDGE('',*,*,#657,.T.);
#659=CARTESIAN_POINT('',(96.027444254,52.,87.));
#660=VERTEX_POINT('',#659);
#661=CARTESIAN_POINT('',(96.027444254,50.000000745,87.));
#662=DIRECTION('',(-0.,1.,-0.));
#663=VECTOR('',#662,1.999999255);
#664=LINE('',#661,#663);
#665=EDGE_CURVE('',#652,#660,#664,.T.);
#666=ORIENTED_EDGE('',*,*,#665,.T.);
#667=CARTESIAN_POINT('',(0.027444254,52.,87.));
#668=VERTEX_POINT('',#667);
#669=CARTESIAN_POINT('',(96.027444254,52.,87.));
#670=DIRECTION('',(-1.,0.,0.));
#671=VECTOR('',#670,96.);
#672=LINE('',#669,#671);
#673=EDGE_CURVE('',#660,#668,#672,.T.);
#674=ORIENTED_EDGE('',*,*,#673,.T.);
#675=CARTESIAN_POINT('',(-4.006398563,0.314826998,87.));
#676=VERTEX_POINT('',#675);
#677=CARTESIAN_POINT('',(0.027444254,26.,87.));
#678=DIRECTION('',(0.,0.,1.));
#679=DIRECTION('',(1.,0.,-0.));
#680=AXIS2_PLACEMENT_3D('',#677,#678,#679);
#681=CIRCLE('',#680,26.);
#682=EDGE_CURVE('',#668,#676,#681,.T.);
#683=ORIENTED_EDGE('',*,*,#682,.T.);
#684=CARTESIAN_POINT('',(-4.006398563,-0.077726641,87.));
#685=VERTEX_POINT('',#684);
#686=CARTESIAN_POINT('',(-4.006398563,0.314826998,87.));
#687=DIRECTION('',(0.,-1.,0.));
#688=VECTOR('',#687,0.39255364);
#689=LINE('',#686,#688);
#690=EDGE_CURVE('',#676,#685,#689,.T.);
#691=ORIENTED_EDGE('',*,*,#690,.T.);
#692=CARTESIAN_POINT('',(5.993601437,-0.077726641,87.));
#693=VERTEX_POINT('',#692);
#694=CARTESIAN_POINT('',(-4.006398563,-0.077726641,87.));
#695=DIRECTION('',(1.,-0.,-0.));
#696=VECTOR('',#695,10.);
#697=LINE('',#694,#696);
#698=EDGE_CURVE('',#685,#693,#697,.T.);
#699=ORIENTED_EDGE('',*,*,#698,.T.);
#700=CARTESIAN_POINT('',(5.993601437,1.922273359,87.));
#701=VERTEX_POINT('',#700);
#702=CARTESIAN_POINT('',(5.993601437,-0.077726641,87.));
#703=DIRECTION('',(-0.,1.,-0.));
#704=VECTOR('',#703,2.);
#705=LINE('',#702,#704);
#706=EDGE_CURVE('',#693,#701,#705,.T.);
#707=ORIENTED_EDGE('',*,*,#706,.T.);
#708=CARTESIAN_POINT('',(2.,1.922273359,87.));
#709=VERTEX_POINT('',#708);
#710=CARTESIAN_POINT('',(5.993601437,1.922273359,87.));
#711=DIRECTION('',(-1.,0.,0.));
#712=VECTOR('',#711,3.993601437);
#713=LINE('',#710,#712);
#714=EDGE_CURVE('',#701,#709,#713,.T.);
#715=ORIENTED_EDGE('',*,*,#714,.T.);
#716=CARTESIAN_POINT('',(2.,1.922273359,87.));
#717=DIRECTION('',(-0.,1.,-0.));
#718=VECTOR('',#717,48.077726649);
#719=LINE('',#716,#718);
#720=EDGE_CURVE('',#709,#532,#719,.T.);
#721=ORIENTED_EDGE('',*,*,#720,.T.);
#722=EDGE_LOOP('',(#538,#539,#540,#541,#542,#543,#544,#545,#546,#554,#562,#570,#578,#586,#594,#602,#610,#618,#626,#634,#642,#650,#658,#666,#674,#683,
#691,#699,#707,#715,#721));
#723=FACE_BOUND('',#722,.T.);
#724=CARTESIAN_POINT('',(0.000000004,49.999984309,87.));
#725=VERTEX_POINT('',#724);
#726=CARTESIAN_POINT('',(0.000000004,2.000015691,87.));
#727=VERTEX_POINT('',#726);
#728=CARTESIAN_POINT('',(0.000000009,49.999984309,87.));
#729=DIRECTION('',(0.,-1.,0.));
#730=VECTOR('',#729,47.999968617);
#731=LINE('',#728,#730);
#732=EDGE_CURVE('',#725,#727,#731,.T.);
#733=ORIENTED_EDGE('',*,*,#732,.T.);
#734=CARTESIAN_POINT('',(0.027444254,26.,87.));
#735=DIRECTION('',(-0.,-0.,-1.));
#736=DIRECTION('',(1.,0.,-0.));
#737=AXIS2_PLACEMENT_3D('',#734,#735,#736);
#738=CIRCLE('',#737,24.);
#739=EDGE_CURVE('',#727,#725,#738,.T.);
#740=ORIENTED_EDGE('',*,*,#739,.T.);
#741=EDGE_LOOP('',(#733,#740));
#742=FACE_BOUND('',#741,.T.);
#743=ADVANCED_FACE('',(#723,#742),#530,.T.);
#744=CARTESIAN_POINT('',(0.027444254,50.,2.));
#745=DIRECTION('',(0.000000008,-1.,0.));
#746=DIRECTION('',(1.,0.000000008,0.));
#747=AXIS2_PLACEMENT_3D('',#744,#745,#746);
#748=PLANE('',#747);
#749=ORIENTED_EDGE('',*,*,#416,.T.);
#750=ORIENTED_EDGE('',*,*,#537,.F.);
#751=CARTESIAN_POINT('',(2.,50.000000008,2.));
#752=VERTEX_POINT('',#751);
#753=CARTESIAN_POINT('',(2.,50.000000015,87.));
#754=DIRECTION('',(-0.,-0.,-1.));
#755=VECTOR('',#754,85.);
#756=LINE('',#753,#755);
#757=EDGE_CURVE('',#532,#752,#756,.T.);
#758=ORIENTED_EDGE('',*,*,#757,.T.);
#759=CARTESIAN_POINT('',(2.,50.000000015,2.));
#760=DIRECTION('',(1.,0.000000008,0.));
#761=VECTOR('',#760,28.);
#762=LINE('',#759,#761);
#763=EDGE_CURVE('',#752,#411,#762,.T.);
#764=ORIENTED_EDGE('',*,*,#763,.T.);
#765=EDGE_LOOP('',(#749,#750,#758,#764));
#766=FACE_BOUND('',#765,.T.);
#767=ADVANCED_FACE('',(#766),#748,.T.);
#768=CARTESIAN_POINT('',(-4.006398563,1.922273359,0.));
#769=DIRECTION('',(-1.,0.,0.));
#770=DIRECTION('',(0.,-1.,0.));
#771=AXIS2_PLACEMENT_3D('',#768,#769,#770);
#772=PLANE('',#771);
#773=CARTESIAN_POINT('',(-4.006398563,0.314826998,2.));
#774=VERTEX_POINT('',#773);
#775=CARTESIAN_POINT('',(-4.006398563,0.314826998,2.));
#776=DIRECTION('',(0.,0.,1.));
#777=VECTOR('',#776,85.);
#778=LINE('',#775,#777);
#779=EDGE_CURVE('',#774,#676,#778,.T.);
#780=ORIENTED_EDGE('',*,*,#779,.F.);
#781=CARTESIAN_POINT('',(-4.006398563,1.922273359,2.));
#782=VERTEX_POINT('',#781);
#783=CARTESIAN_POINT('',(-4.006398563,1.922273359,2.));
#784=DIRECTION('',(0.,-1.,0.));
#785=VECTOR('',#784,1.60744636);
#786=LINE('',#783,#785);
#787=EDGE_CURVE('',#782,#774,#786,.T.);
#788=ORIENTED_EDGE('',*,*,#787,.F.);
#789=CARTESIAN_POINT('',(-4.006398563,1.922273359,0.));
#790=VERTEX_POINT('',#789);
#791=CARTESIAN_POINT('',(-4.006398563,1.922273359,0.));
#792=DIRECTION('',(0.,0.,1.));
#793=VECTOR('',#792,2.);
#794=LINE('',#791,#793);
#795=EDGE_CURVE('',#790,#782,#794,.T.);
#796=ORIENTED_EDGE('',*,*,#795,.F.);
#797=CARTESIAN_POINT('',(-4.006398563,-0.077726641,0.));
#798=VERTEX_POINT('',#797);
#799=CARTESIAN_POINT('',(-4.006398563,-0.077726641,0.));
#800=DIRECTION('',(0.,1.,0.));
#801=VECTOR('',#800,2.);
#802=LINE('',#799,#801);
#803=EDGE_CURVE('',#798,#790,#802,.T.);
#804=ORIENTED_EDGE('',*,*,#803,.F.);
#805=CARTESIAN_POINT('',(-4.006398563,-0.077726641,0.));
#806=DIRECTION('',(0.,0.,1.));
#807=VECTOR('',#806,87.);
#808=LINE('',#805,#807);
#809=EDGE_CURVE('',#798,#685,#808,.T.);
#810=ORIENTED_EDGE('',*,*,#809,.T.);
#811=ORIENTED_EDGE('',*,*,#690,.F.);
#812=EDGE_LOOP('',(#780,#788,#796,#804,#810,#811));
#813=FACE_BOUND('',#812,.T.);
#814=ADVANCED_FACE('',(#813),#772,.T.);
#815=CARTESIAN_POINT('',(2.,50.,0.));
#816=DIRECTION('',(0.,1.,0.));
#817=DIRECTION('',(-1.,0.,0.));
#818=AXIS2_PLACEMENT_3D('',#815,#816,#817);
#819=PLANE('',#818);
#820=CARTESIAN_POINT('',(0.,49.999992154,2.));
#821=VERTEX_POINT('',#820);
#822=CARTESIAN_POINT('',(2.,50.,2.));
#823=DIRECTION('',(-1.,0.,0.));
#824=VECTOR('',#823,2.);
#825=LINE('',#822,#824);
#826=EDGE_CURVE('',#752,#821,#825,.T.);
#827=ORIENTED_EDGE('',*,*,#826,.F.);
#828=CARTESIAN_POINT('',(2.,50.,0.));
#829=VERTEX_POINT('',#828);
#830=CARTESIAN_POINT('',(2.,50.,0.));
#831=DIRECTION('',(0.,0.,1.));
#832=VECTOR('',#831,2.);
#833=LINE('',#830,#832);
#834=EDGE_CURVE('',#829,#752,#833,.T.);
#835=ORIENTED_EDGE('',*,*,#834,.F.);
#836=CARTESIAN_POINT('',(0.,50.,0.));
#837=VERTEX_POINT('',#836);
#838=CARTESIAN_POINT('',(0.,50.,0.));
#839=DIRECTION('',(1.,0.,-0.));
#840=VECTOR('',#839,2.);
#841=LINE('',#838,#840);
#842=EDGE_CURVE('',#837,#829,#841,.T.);
#843=ORIENTED_EDGE('',*,*,#842,.F.);
#844=CARTESIAN_POINT('',(0.,50.,0.));
#845=DIRECTION('',(0.,0.,1.));
#846=VECTOR('',#845,2.);
#847=LINE('',#844,#846);
#848=EDGE_CURVE('',#837,#821,#847,.T.);
#849=ORIENTED_EDGE('',*,*,#848,.T.);
#850=EDGE_LOOP('',(#827,#835,#843,#849));
#851=FACE_BOUND('',#850,.T.);
#852=ADVANCED_FACE('',(#851),#819,.T.);
#853=CARTESIAN_POINT('',(0.,1.922273359,0.));
#854=DIRECTION('',(0.,1.,0.));
#855=DIRECTION('',(-1.,0.,0.));
#856=AXIS2_PLACEMENT_3D('',#853,#854,#855);
#857=PLANE('',#856);
#858=CARTESIAN_POINT('',(0.,1.922273359,2.));
#859=VERTEX_POINT('',#858);
#860=CARTESIAN_POINT('',(0.,1.922273359,2.));
#861=DIRECTION('',(-1.,0.,0.));
#862=VECTOR('',#861,4.006398563);
#863=LINE('',#860,#862);
#864=EDGE_CURVE('',#859,#782,#863,.T.);
#865=ORIENTED_EDGE('',*,*,#864,.F.);
#866=CARTESIAN_POINT('',(0.,1.922273359,0.));
#867=VERTEX_POINT('',#866);
#868=CARTESIAN_POINT('',(0.,1.922273359,0.));
#869=DIRECTION('',(0.,0.,1.));
#870=VECTOR('',#869,2.);
#871=LINE('',#868,#870);
#872=EDGE_CURVE('',#867,#859,#871,.T.);
#873=ORIENTED_EDGE('',*,*,#872,.F.);
#874=CARTESIAN_POINT('',(-4.006398563,1.922273359,0.));
#875=DIRECTION('',(1.,0.,-0.));
#876=VECTOR('',#875,4.006398563);
#877=LINE('',#874,#876);
#878=EDGE_CURVE('',#790,#867,#877,.T.);
#879=ORIENTED_EDGE('',*,*,#878,.F.);
#880=ORIENTED_EDGE('',*,*,#795,.T.);
#881=EDGE_LOOP('',(#865,#873,#879,#880));
#882=FACE_BOUND('',#881,.T.);
#883=ADVANCED_FACE('',(#882),#857,.T.);
#884=CARTESIAN_POINT('',(0.,50.,0.));
#885=DIRECTION('',(-1.,0.,0.));
#886=DIRECTION('',(0.,-1.,0.));
#887=AXIS2_PLACEMENT_3D('',#884,#885,#886);
#888=PLANE('',#887);
#889=CARTESIAN_POINT('',(-0.,2.000015691,2.));
#890=VERTEX_POINT('',#889);
#891=CARTESIAN_POINT('',(-0.,2.000015691,87.));
#892=DIRECTION('',(-0.,-0.,-1.));
#893=VECTOR('',#892,85.);
#894=LINE('',#891,#893);
#895=EDGE_CURVE('',#727,#890,#894,.T.);
#896=ORIENTED_EDGE('',*,*,#895,.F.);
#897=ORIENTED_EDGE('',*,*,#732,.F.);
#898=CARTESIAN_POINT('',(0.,49.999984309,2.));
#899=DIRECTION('',(0.,0.,1.));
#900=VECTOR('',#899,85.);
#901=LINE('',#898,#900);
#902=EDGE_CURVE('',#821,#725,#901,.T.);
#903=ORIENTED_EDGE('',*,*,#902,.F.);
#904=ORIENTED_EDGE('',*,*,#848,.F.);
#905=CARTESIAN_POINT('',(0.,1.922273359,0.));
#906=DIRECTION('',(0.,1.,0.));
#907=VECTOR('',#906,48.077726641);
#908=LINE('',#905,#907);
#909=EDGE_CURVE('',#867,#837,#908,.T.);
#910=ORIENTED_EDGE('',*,*,#909,.F.);
#911=ORIENTED_EDGE('',*,*,#872,.T.);
#912=CARTESIAN_POINT('',(0.,2.000015691,2.));
#913=DIRECTION('',(0.,-1.,0.));
#914=VECTOR('',#913,0.077742333);
#915=LINE('',#912,#914);
#916=EDGE_CURVE('',#890,#859,#915,.T.);
#917=ORIENTED_EDGE('',*,*,#916,.F.);
#918=EDGE_LOOP('',(#896,#897,#903,#904,#910,#911,#917));
#919=FACE_BOUND('',#918,.T.);
#920=ADVANCED_FACE('',(#919),#888,.T.);
#921=CARTESIAN_POINT('',(2.,1.922273359,0.));
#922=DIRECTION('',(1.,0.,0.));
#923=DIRECTION('',(0.,1.,0.));
#924=AXIS2_PLACEMENT_3D('',#921,#922,#923);
#925=PLANE('',#924);
#926=CARTESIAN_POINT('',(2.,1.922273359,0.));
#927=VERTEX_POINT('',#926);
#928=CARTESIAN_POINT('',(2.,50.,0.));
#929=DIRECTION('',(-0.,-1.,-0.));
#930=VECTOR('',#929,48.077726641);
#931=LINE('',#928,#930);
#932=EDGE_CURVE('',#829,#927,#931,.T.);
#933=ORIENTED_EDGE('',*,*,#932,.F.);
#934=ORIENTED_EDGE('',*,*,#834,.T.);
#935=ORIENTED_EDGE('',*,*,#757,.F.);
#936=ORIENTED_EDGE('',*,*,#720,.F.);
#937=CARTESIAN_POINT('',(2.,1.922273359,0.));
#938=DIRECTION('',(0.,0.,1.));
#939=VECTOR('',#938,87.);
#940=LINE('',#937,#939);
#941=EDGE_CURVE('',#927,#709,#940,.T.);
#942=ORIENTED_EDGE('',*,*,#941,.F.);
#943=EDGE_LOOP('',(#933,#934,#935,#936,#942));
#944=FACE_BOUND('',#943,.T.);
#945=ADVANCED_FACE('',(#944),#925,.T.);
#946=CARTESIAN_POINT('',(5.993601437,1.922273359,0.));
#947=DIRECTION('',(0.,1.,0.));
#948=DIRECTION('',(-1.,0.,0.));
#949=AXIS2_PLACEMENT_3D('',#946,#947,#948);
#950=PLANE('',#949);
#951=CARTESIAN_POINT('',(5.993601437,1.922273359,0.));
#952=VERTEX_POINT('',#951);
#953=CARTESIAN_POINT('',(2.,1.922273359,0.));
#954=DIRECTION('',(1.,0.,-0.));
#955=VECTOR('',#954,3.993601437);
#956=LINE('',#953,#955);
#957=EDGE_CURVE('',#927,#952,#956,.T.);
#958=ORIENTED_EDGE('',*,*,#957,.F.);
#959=ORIENTED_EDGE('',*,*,#941,.T.);
#960=ORIENTED_EDGE('',*,*,#714,.F.);
#961=CARTESIAN_POINT('',(5.993601437,1.922273359,0.));
#962=DIRECTION('',(0.,0.,1.));
#963=VECTOR('',#962,87.);
#964=LINE('',#961,#963);
#965=EDGE_CURVE('',#952,#701,#964,.T.);
#966=ORIENTED_EDGE('',*,*,#965,.F.);
#967=EDGE_LOOP('',(#958,#959,#960,#966));
#968=FACE_BOUND('',#967,.T.);
#969=ADVANCED_FACE('',(#968),#950,.T.);
#970=CARTESIAN_POINT('',(5.993601437,-0.077726641,0.));
#971=DIRECTION('',(1.,0.,0.));
#972=DIRECTION('',(0.,1.,0.));
#973=AXIS2_PLACEMENT_3D('',#970,#971,#972);
#974=PLANE('',#973);
#975=CARTESIAN_POINT('',(5.993601437,-0.077726641,0.));
#976=VERTEX_POINT('',#975);
#977=CARTESIAN_POINT('',(5.993601437,1.922273359,0.));
#978=DIRECTION('',(-0.,-1.,-0.));
#979=VECTOR('',#978,2.);
#980=LINE('',#977,#979);
#981=EDGE_CURVE('',#952,#976,#980,.T.);
#982=ORIENTED_EDGE('',*,*,#981,.F.);
#983=ORIENTED_EDGE('',*,*,#965,.T.);
#984=ORIENTED_EDGE('',*,*,#706,.F.);
#985=CARTESIAN_POINT('',(5.993601437,-0.077726641,0.));
#986=DIRECTION('',(0.,0.,1.));
#987=VECTOR('',#986,87.);
#988=LINE('',#985,#987);
#989=EDGE_CURVE('',#976,#693,#988,.T.);
#990=ORIENTED_EDGE('',*,*,#989,.F.);
#991=EDGE_LOOP('',(#982,#983,#984,#990));
#992=FACE_BOUND('',#991,.T.);
#993=ADVANCED_FACE('',(#992),#974,.T.);
#994=CARTESIAN_POINT('',(-4.006398563,-0.077726641,0.));
#995=DIRECTION('',(0.,-1.,0.));
#996=DIRECTION('',(1.,0.,0.));
#997=AXIS2_PLACEMENT_3D('',#994,#995,#996);
#998=PLANE('',#997);
#999=CARTESIAN_POINT('',(5.993601437,-0.077726641,0.));
#1000=DIRECTION('',(-1.,-0.,0.));
#1001=VECTOR('',#1000,10.);
#1002=LINE('',#999,#1001);
#1003=EDGE_CURVE('',#976,#798,#1002,.T.);
#1004=ORIENTED_EDGE('',*,*,#1003,.F.);
#1005=ORIENTED_EDGE('',*,*,#989,.T.);
#1006=ORIENTED_EDGE('',*,*,#698,.F.);
#1007=ORIENTED_EDGE('',*,*,#809,.F.);
#1008=EDGE_LOOP('',(#1004,#1005,#1006,#1007));
#1009=FACE_BOUND('',#1008,.T.);
#1010=ADVANCED_FACE('',(#1009),#998,.T.);
#1011=CARTESIAN_POINT('',(0.993601437,24.961136679,0.));
#1012=DIRECTION('',(0.,0.,1.));
#1013=DIRECTION('',(1.,0.,0.));
#1014=AXIS2_PLACEMENT_3D('',#1011,#1012,#1013);
#1015=PLANE('',#1014);
#1016=ORIENTED_EDGE('',*,*,#1003,.T.);
#1017=ORIENTED_EDGE('',*,*,#803,.T.);
#1018=ORIENTED_EDGE('',*,*,#878,.T.);
#1019=ORIENTED_EDGE('',*,*,#909,.T.);
#1020=ORIENTED_EDGE('',*,*,#842,.T.);
#1021=ORIENTED_EDGE('',*,*,#932,.T.);
#1022=ORIENTED_EDGE('',*,*,#957,.T.);
#1023=ORIENTED_EDGE('',*,*,#981,.T.);
#1024=EDGE_LOOP('',(#1016,#1017,#1018,#1019,#1020,#1021,#1022,#1023));
#1025=FACE_BOUND('',#1024,.T.);
#1026=ADVANCED_FACE('',(#1025),#1015,.F.);
#1027=CARTESIAN_POINT('',(0.027444254,26.,2.));
#1028=DIRECTION('',(0.,0.,1.));
#1029=DIRECTION('',(-0.,1.,0.));
#1030=AXIS2_PLACEMENT_3D('',#1027,#1028,#1029);
#1031=CYLINDRICAL_SURFACE('',#1030,24.);
#1032=ORIENTED_EDGE('',*,*,#902,.T.);
#1033=ORIENTED_EDGE('',*,*,#739,.F.);
#1034=ORIENTED_EDGE('',*,*,#895,.T.);
#1035=CARTESIAN_POINT('',(0.027444254,26.,2.));
#1036=DIRECTION('',(0.,0.,1.));
#1037=DIRECTION('',(1.,0.,-0.));
#1038=AXIS2_PLACEMENT_3D('',#1035,#1036,#1037);
#1039=CIRCLE('',#1038,24.);
#1040=EDGE_CURVE('',#821,#890,#1039,.T.);
#1041=ORIENTED_EDGE('',*,*,#1040,.F.);
#1042=EDGE_LOOP('',(#1032,#1033,#1034,#1041));
#1043=FACE_BOUND('',#1042,.T.);
#1044=ADVANCED_FACE('',(#1043),#1031,.F.);
#1045=CARTESIAN_POINT('',(35.027444254,26.,2.));
#1046=DIRECTION('',(0.,0.,1.));
#1047=DIRECTION('',(-1.,0.,0.));
#1048=AXIS2_PLACEMENT_3D('',#1045,#1046,#1047);
#1049=PLANE('',#1048);
#1050=ORIENTED_EDGE('',*,*,#916,.T.);
#1051=ORIENTED_EDGE('',*,*,#864,.T.);
#1052=ORIENTED_EDGE('',*,*,#787,.T.);
#1053=CARTESIAN_POINT('',(0.027444254,52.,2.));
#1054=VERTEX_POINT('',#1053);
#1055=CARTESIAN_POINT('',(0.027444254,26.,2.));
#1056=DIRECTION('',(0.,0.,1.));
#1057=DIRECTION('',(1.,0.,-0.));
#1058=AXIS2_PLACEMENT_3D('',#1055,#1056,#1057);
#1059=CIRCLE('',#1058,26.);
#1060=EDGE_CURVE('',#1054,#774,#1059,.T.);
#1061=ORIENTED_EDGE('',*,*,#1060,.F.);
#1062=CARTESIAN_POINT('',(94.000001431,52.,2.));
#1063=VERTEX_POINT('',#1062);
#1064=CARTESIAN_POINT('',(94.000001431,52.,2.));
#1065=DIRECTION('',(-1.,0.,0.));
#1066=VECTOR('',#1065,93.972557177);
#1067=LINE('',#1064,#1066);
#1068=EDGE_CURVE('',#1063,#1054,#1067,.T.);
#1069=ORIENTED_EDGE('',*,*,#1068,.F.);
#1070=CARTESIAN_POINT('',(94.000001431,50.000000729,2.));
#1071=VERTEX_POINT('',#1070);
#1072=CARTESIAN_POINT('',(94.000001431,52.,2.));
#1073=DIRECTION('',(0.,-1.,0.));
#1074=VECTOR('',#1073,1.999999271);
#1075=LINE('',#1072,#1074);
#1076=EDGE_CURVE('',#1063,#1071,#1075,.T.);
#1077=ORIENTED_EDGE('',*,*,#1076,.T.);
#1078=CARTESIAN_POINT('',(64.000000954,50.000000621,2.));
#1079=VERTEX_POINT('',#1078);
#1080=CARTESIAN_POINT('',(64.000000954,50.000000496,2.));
#1081=DIRECTION('',(1.,0.000000008,0.));
#1082=VECTOR('',#1081,30.000000477);
#1083=LINE('',#1080,#1082);
#1084=EDGE_CURVE('',#1079,#1071,#1083,.T.);
#1085=ORIENTED_EDGE('',*,*,#1084,.F.);
#1086=CARTESIAN_POINT('',(62.000000954,50.000000745,2.));
#1087=DIRECTION('',(1.,-0.,-0.));
#1088=VECTOR('',#1087,2.);
#1089=LINE('',#1086,#1088);
#1090=EDGE_CURVE('',#231,#1079,#1089,.T.);
#1091=ORIENTED_EDGE('',*,*,#1090,.F.);
#1092=ORIENTED_EDGE('',*,*,#236,.F.);
#1093=ORIENTED_EDGE('',*,*,#436,.F.);
#1094=ORIENTED_EDGE('',*,*,#763,.F.);
#1095=ORIENTED_EDGE('',*,*,#826,.T.);
#1096=ORIENTED_EDGE('',*,*,#1040,.T.);
#1097=EDGE_LOOP('',(#1050,#1051,#1052,#1061,#1069,#1077,#1085,#1091,#1092,#1093,#1094,#1095,#1096));
#1098=FACE_BOUND('',#1097,.T.);
#1099=ADVANCED_FACE('',(#1098),#1049,.F.);
#1100=CARTESIAN_POINT('',(96.027444254,52.,2.));
#1101=DIRECTION('',(0.,1.,0.));
#1102=DIRECTION('',(-1.,0.,0.));
#1103=AXIS2_PLACEMENT_3D('',#1100,#1101,#1102);
#1104=PLANE('',#1103);
#1105=ORIENTED_EDGE('',*,*,#673,.F.);
#1106=CARTESIAN_POINT('',(96.027444254,52.,2.));
#1107=VERTEX_POINT('',#1106);
#1108=CARTESIAN_POINT('',(96.027444254,52.,2.));
#1109=DIRECTION('',(0.,0.,1.));
#1110=VECTOR('',#1109,85.);
#1111=LINE('',#1108,#1110);
#1112=EDGE_CURVE('',#1107,#660,#1111,.T.);
#1113=ORIENTED_EDGE('',*,*,#1112,.F.);
#1114=CARTESIAN_POINT('',(96.000001431,52.000000387,2.));
#1115=VERTEX_POINT('',#1114);
#1116=CARTESIAN_POINT('',(96.027444254,52.,2.));
#1117=DIRECTION('',(-1.,0.,0.));
#1118=VECTOR('',#1117,0.027442823);
#1119=LINE('',#1116,#1118);
#1120=EDGE_CURVE('',#1107,#1115,#1119,.T.);
#1121=ORIENTED_EDGE('',*,*,#1120,.T.);
#1122=CARTESIAN_POINT('',(96.000001431,52.000000387,0.));
#1123=VERTEX_POINT('',#1122);
#1124=CARTESIAN_POINT('',(96.000001431,52.000000775,0.));
#1125=DIRECTION('',(0.,0.,1.));
#1126=VECTOR('',#1125,2.);
#1127=LINE('',#1124,#1126);
#1128=EDGE_CURVE('',#1123,#1115,#1127,.T.);
#1129=ORIENTED_EDGE('',*,*,#1128,.F.);
#1130=CARTESIAN_POINT('',(94.000001431,52.,0.));
#1131=VERTEX_POINT('',#1130);
#1132=CARTESIAN_POINT('',(96.000001431,52.,0.));
#1133=DIRECTION('',(-1.,0.,0.));
#1134=VECTOR('',#1133,2.);
#1135=LINE('',#1132,#1134);
#1136=EDGE_CURVE('',#1123,#1131,#1135,.T.);
#1137=ORIENTED_EDGE('',*,*,#1136,.T.);
#1138=CARTESIAN_POINT('',(94.000001431,52.,0.));
#1139=DIRECTION('',(0.,0.,1.));
#1140=VECTOR('',#1139,2.);
#1141=LINE('',#1138,#1140);
#1142=EDGE_CURVE('',#1131,#1063,#1141,.T.);
#1143=ORIENTED_EDGE('',*,*,#1142,.T.);
#1144=ORIENTED_EDGE('',*,*,#1068,.T.);
#1145=CARTESIAN_POINT('',(0.027444254,52.,2.));
#1146=DIRECTION('',(0.,0.,1.));
#1147=VECTOR('',#1146,85.);
#1148=LINE('',#1145,#1147);
#1149=EDGE_CURVE('',#1054,#668,#1148,.T.);
#1150=ORIENTED_EDGE('',*,*,#1149,.T.);
#1151=EDGE_LOOP('',(#1105,#1113,#1121,#1129,#1137,#1143,#1144,#1150));
#1152=FACE_BOUND('',#1151,.T.);
#1153=ADVANCED_FACE('',(#1152),#1104,.T.);
#1154=CARTESIAN_POINT('',(0.027444254,50.,2.));
#1155=DIRECTION('',(0.000000008,-1.,0.));
#1156=DIRECTION('',(1.,0.000000008,0.));
#1157=AXIS2_PLACEMENT_3D('',#1154,#1155,#1156);
#1158=PLANE('',#1157);
#1159=CARTESIAN_POINT('',(96.000001431,50.000000745,2.));
#1160=VERTEX_POINT('',#1159);
#1161=CARTESIAN_POINT('',(96.000001431,50.000000745,87.));
#1162=DIRECTION('',(-0.,-0.,-1.));
#1163=VECTOR('',#1162,85.);
#1164=LINE('',#1161,#1163);
#1165=EDGE_CURVE('',#644,#1160,#1164,.T.);
#1166=ORIENTED_EDGE('',*,*,#1165,.T.);
#1167=CARTESIAN_POINT('',(96.027444254,50.000000745,2.));
#1168=VERTEX_POINT('',#1167);
#1169=CARTESIAN_POINT('',(96.000001431,50.000000745,2.));
#1170=DIRECTION('',(1.,0.000000008,0.));
#1171=VECTOR('',#1170,0.027442823);
#1172=LINE('',#1169,#1171);
#1173=EDGE_CURVE('',#1160,#1168,#1172,.T.);
#1174=ORIENTED_EDGE('',*,*,#1173,.T.);
#1175=CARTESIAN_POINT('',(96.027444254,50.000000745,2.));
#1176=DIRECTION('',(0.,0.,1.));
#1177=VECTOR('',#1176,85.);
#1178=LINE('',#1175,#1177);
#1179=EDGE_CURVE('',#1168,#652,#1178,.T.);
#1180=ORIENTED_EDGE('',*,*,#1179,.T.);
#1181=ORIENTED_EDGE('',*,*,#657,.F.);
#1182=EDGE_LOOP('',(#1166,#1174,#1180,#1181));
#1183=FACE_BOUND('',#1182,.T.);
#1184=ADVANCED_FACE('',(#1183),#1158,.T.);
#1185=CARTESIAN_POINT('',(96.000001431,0.,0.));
#1186=DIRECTION('',(1.,0.,0.));
#1187=DIRECTION('',(0.,1.,0.));
#1188=AXIS2_PLACEMENT_3D('',#1185,#1186,#1187);
#1189=PLANE('',#1188);
#1190=CARTESIAN_POINT('',(96.000001431,50.000000745,2.));
#1191=DIRECTION('',(-0.,1.,-0.));
#1192=VECTOR('',#1191,1.999999643);
#1193=LINE('',#1190,#1192);
#1194=EDGE_CURVE('',#1160,#1115,#1193,.T.);
#1195=ORIENTED_EDGE('',*,*,#1194,.F.);
#1196=ORIENTED_EDGE('',*,*,#1165,.F.);
#1197=ORIENTED_EDGE('',*,*,#649,.F.);
#1198=CARTESIAN_POINT('',(96.000001431,0.,0.));
#1199=VERTEX_POINT('',#1198);
#1200=CARTESIAN_POINT('',(96.000001431,0.,0.));
#1201=DIRECTION('',(0.,0.,1.));
#1202=VECTOR('',#1201,87.);
#1203=LINE('',#1200,#1202);
#1204=EDGE_CURVE('',#1199,#636,#1203,.T.);
#1205=ORIENTED_EDGE('',*,*,#1204,.F.);
#1206=CARTESIAN_POINT('',(96.000001431,0.,0.));
#1207=DIRECTION('',(0.,1.,0.));
#1208=VECTOR('',#1207,52.000000387);
#1209=LINE('',#1206,#1208);
#1210=EDGE_CURVE('',#1199,#1123,#1209,.T.);
#1211=ORIENTED_EDGE('',*,*,#1210,.T.);
#1212=ORIENTED_EDGE('',*,*,#1128,.T.);
#1213=EDGE_LOOP('',(#1195,#1196,#1197,#1205,#1211,#1212));
#1214=FACE_BOUND('',#1213,.T.);
#1215=ADVANCED_FACE('',(#1214),#1189,.T.);
#1216=CARTESIAN_POINT('',(91.000001431,2.00000003,0.));
#1217=DIRECTION('',(-1.,0.,0.));
#1218=DIRECTION('',(0.,-1.,0.));
#1219=AXIS2_PLACEMENT_3D('',#1216,#1217,#1218);
#1220=PLANE('',#1219);
#1221=CARTESIAN_POINT('',(91.000001431,0.,0.));
#1222=VERTEX_POINT('',#1221);
#1223=CARTESIAN_POINT('',(91.000001431,2.00000003,0.));
#1224=VERTEX_POINT('',#1223);
#1225=CARTESIAN_POINT('',(91.000001431,0.,0.));
#1226=DIRECTION('',(0.,1.,0.));
#1227=VECTOR('',#1226,2.00000003);
#1228=LINE('',#1225,#1227);
#1229=EDGE_CURVE('',#1222,#1224,#1228,.T.);
#1230=ORIENTED_EDGE('',*,*,#1229,.F.);
#1231=CARTESIAN_POINT('',(91.000001431,0.,0.));
#1232=DIRECTION('',(0.,0.,1.));
#1233=VECTOR('',#1232,87.);
#1234=LINE('',#1231,#1233);
#1235=EDGE_CURVE('',#1222,#628,#1234,.T.);
#1236=ORIENTED_EDGE('',*,*,#1235,.T.);
#1237=ORIENTED_EDGE('',*,*,#633,.F.);
#1238=CARTESIAN_POINT('',(91.000001431,2.00000003,0.));
#1239=DIRECTION('',(0.,0.,1.));
#1240=VECTOR('',#1239,87.);
#1241=LINE('',#1238,#1240);
#1242=EDGE_CURVE('',#1224,#620,#1241,.T.);
#1243=ORIENTED_EDGE('',*,*,#1242,.F.);
#1244=EDGE_LOOP('',(#1230,#1236,#1237,#1243));
#1245=FACE_BOUND('',#1244,.T.);
#1246=ADVANCED_FACE('',(#1245),#1220,.T.);
#1247=CARTESIAN_POINT('',(94.000001431,2.00000003,0.));
#1248=DIRECTION('',(0.,1.,0.));
#1249=DIRECTION('',(-1.,0.,0.));
#1250=AXIS2_PLACEMENT_3D('',#1247,#1248,#1249);
#1251=PLANE('',#1250);
#1252=CARTESIAN_POINT('',(94.000001431,2.00000003,0.));
#1253=VERTEX_POINT('',#1252);
#1254=CARTESIAN_POINT('',(91.000001431,2.00000003,0.));
#1255=DIRECTION('',(1.,0.,-0.));
#1256=VECTOR('',#1255,3.);
#1257=LINE('',#1254,#1256);
#1258=EDGE_CURVE('',#1224,#1253,#1257,.T.);
#1259=ORIENTED_EDGE('',*,*,#1258,.F.);
#1260=ORIENTED_EDGE('',*,*,#1242,.T.);
#1261=ORIENTED_EDGE('',*,*,#625,.F.);
#1262=CARTESIAN_POINT('',(94.000001431,2.00000003,0.));
#1263=DIRECTION('',(0.,0.,1.));
#1264=VECTOR('',#1263,87.);
#1265=LINE('',#1262,#1264);
#1266=EDGE_CURVE('',#1253,#612,#1265,.T.);
#1267=ORIENTED_EDGE('',*,*,#1266,.F.);
#1268=EDGE_LOOP('',(#1259,#1260,#1261,#1267));
#1269=FACE_BOUND('',#1268,.T.);
#1270=ADVANCED_FACE('',(#1269),#1251,.T.);
#1271=CARTESIAN_POINT('',(94.000001431,52.000000775,0.));
#1272=DIRECTION('',(-1.,0.,0.));
#1273=DIRECTION('',(0.,-1.,0.));
#1274=AXIS2_PLACEMENT_3D('',#1271,#1272,#1273);
#1275=PLANE('',#1274);
#1276=ORIENTED_EDGE('',*,*,#1076,.F.);
#1277=ORIENTED_EDGE('',*,*,#1142,.F.);
#1278=CARTESIAN_POINT('',(94.000001431,52.,0.));
#1279=DIRECTION('',(0.,-1.,0.));
#1280=VECTOR('',#1279,49.99999997);
#1281=LINE('',#1278,#1280);
#1282=EDGE_CURVE('',#1131,#1253,#1281,.T.);
#1283=ORIENTED_EDGE('',*,*,#1282,.T.);
#1284=ORIENTED_EDGE('',*,*,#1266,.T.);
#1285=ORIENTED_EDGE('',*,*,#617,.F.);
#1286=CARTESIAN_POINT('',(94.000001431,50.000000729,2.));
#1287=DIRECTION('',(0.,0.,1.));
#1288=VECTOR('',#1287,85.);
#1289=LINE('',#1286,#1288);
#1290=EDGE_CURVE('',#1071,#604,#1289,.T.);
#1291=ORIENTED_EDGE('',*,*,#1290,.F.);
#1292=EDGE_LOOP('',(#1276,#1277,#1283,#1284,#1285,#1291));
#1293=FACE_BOUND('',#1292,.T.);
#1294=ADVANCED_FACE('',(#1293),#1275,.T.);
#1295=CARTESIAN_POINT('',(91.000001431,0.,0.));
#1296=DIRECTION('',(0.,-1.,0.));
#1297=DIRECTION('',(1.,0.,0.));
#1298=AXIS2_PLACEMENT_3D('',#1295,#1296,#1297);
#1299=PLANE('',#1298);
#1300=CARTESIAN_POINT('',(91.000001431,0.,0.));
#1301=DIRECTION('',(1.,0.,-0.));
#1302=VECTOR('',#1301,5.);
#1303=LINE('',#1300,#1302);
#1304=EDGE_CURVE('',#1222,#1199,#1303,.T.);
#1305=ORIENTED_EDGE('',*,*,#1304,.T.);
#1306=ORIENTED_EDGE('',*,*,#1204,.T.);
#1307=ORIENTED_EDGE('',*,*,#641,.F.);
#1308=ORIENTED_EDGE('',*,*,#1235,.F.);
#1309=EDGE_LOOP('',(#1305,#1306,#1307,#1308));
#1310=FACE_BOUND('',#1309,.T.);
#1311=ADVANCED_FACE('',(#1310),#1299,.T.);
#1312=CARTESIAN_POINT('',(93.500001431,26.000000387,0.));
#1313=DIRECTION('',(0.,0.,1.));
#1314=DIRECTION('',(1.,0.,0.));
#1315=AXIS2_PLACEMENT_3D('',#1312,#1313,#1314);
#1316=PLANE('',#1315);
#1317=ORIENTED_EDGE('',*,*,#1304,.F.);
#1318=ORIENTED_EDGE('',*,*,#1229,.T.);
#1319=ORIENTED_EDGE('',*,*,#1258,.T.);
#1320=ORIENTED_EDGE('',*,*,#1282,.F.);
#1321=ORIENTED_EDGE('',*,*,#1136,.F.);
#1322=ORIENTED_EDGE('',*,*,#1210,.F.);
#1323=EDGE_LOOP('',(#1317,#1318,#1319,#1320,#1321,#1322));
#1324=FACE_BOUND('',#1323,.T.);
#1325=ADVANCED_FACE('',(#1324),#1316,.F.);
#1326=CARTESIAN_POINT('',(0.027444254,50.,2.));
#1327=DIRECTION('',(0.000000008,-1.,0.));
#1328=DIRECTION('',(1.,0.000000008,0.));
#1329=AXIS2_PLACEMENT_3D('',#1326,#1327,#1328);
#1330=PLANE('',#1329);
#1331=ORIENTED_EDGE('',*,*,#1290,.T.);
#1332=ORIENTED_EDGE('',*,*,#609,.F.);
#1333=CARTESIAN_POINT('',(64.000000954,50.000000496,87.));
#1334=DIRECTION('',(-0.,-0.,-1.));
#1335=VECTOR('',#1334,85.);
#1336=LINE('',#1333,#1335);
#1337=EDGE_CURVE('',#596,#1079,#1336,.T.);
#1338=ORIENTED_EDGE('',*,*,#1337,.T.);
#1339=ORIENTED_EDGE('',*,*,#1084,.T.);
#1340=EDGE_LOOP('',(#1331,#1332,#1338,#1339));
#1341=FACE_BOUND('',#1340,.T.);
#1342=ADVANCED_FACE('',(#1341),#1330,.T.);
#1343=CARTESIAN_POINT('',(35.027444254,26.,2.));
#1344=DIRECTION('',(0.,0.,1.));
#1345=DIRECTION('',(-1.,0.,0.));
#1346=AXIS2_PLACEMENT_3D('',#1343,#1344,#1345);
#1347=PLANE('',#1346);
#1348=ORIENTED_EDGE('',*,*,#1194,.T.);
#1349=ORIENTED_EDGE('',*,*,#1120,.F.);
#1350=CARTESIAN_POINT('',(96.027444254,52.,2.));
#1351=DIRECTION('',(0.,-1.,0.));
#1352=VECTOR('',#1351,1.999999255);
#1353=LINE('',#1350,#1352);
#1354=EDGE_CURVE('',#1107,#1168,#1353,.T.);
#1355=ORIENTED_EDGE('',*,*,#1354,.T.);
#1356=ORIENTED_EDGE('',*,*,#1173,.F.);
#1357=EDGE_LOOP('',(#1348,#1349,#1355,#1356));
#1358=FACE_BOUND('',#1357,.T.);
#1359=ADVANCED_FACE('',(#1358),#1347,.F.);
#1360=CARTESIAN_POINT('',(64.000000954,2.,0.));
#1361=DIRECTION('',(1.,0.,0.));
#1362=DIRECTION('',(0.,1.,0.));
#1363=AXIS2_PLACEMENT_3D('',#1360,#1361,#1362);
#1364=PLANE('',#1363);
#1365=CARTESIAN_POINT('',(64.000000954,50.000000745,0.));
#1366=VERTEX_POINT('',#1365);
#1367=CARTESIAN_POINT('',(64.000000954,2.,0.));
#1368=VERTEX_POINT('',#1367);
#1369=CARTESIAN_POINT('',(64.000000954,50.000000745,0.));
#1370=DIRECTION('',(-0.,-1.,-0.));
#1371=VECTOR('',#1370,48.000000745);
#1372=LINE('',#1369,#1371);
#1373=EDGE_CURVE('',#1366,#1368,#1372,.T.);
#1374=ORIENTED_EDGE('',*,*,#1373,.F.);
#1375=CARTESIAN_POINT('',(64.000000954,50.000000745,0.));
#1376=DIRECTION('',(0.,0.,1.));
#1377=VECTOR('',#1376,2.);
#1378=LINE('',#1375,#1377);
#1379=EDGE_CURVE('',#1366,#1079,#1378,.T.);
#1380=ORIENTED_EDGE('',*,*,#1379,.T.);
#1381=ORIENTED_EDGE('',*,*,#1337,.F.);
#1382=ORIENTED_EDGE('',*,*,#601,.F.);
#1383=CARTESIAN_POINT('',(64.000000954,2.,0.));
#1384=DIRECTION('',(0.,0.,1.));
#1385=VECTOR('',#1384,87.);
#1386=LINE('',#1383,#1385);
#1387=EDGE_CURVE('',#1368,#588,#1386,.T.);
#1388=ORIENTED_EDGE('',*,*,#1387,.F.);
#1389=EDGE_LOOP('',(#1374,#1380,#1381,#1382,#1388));
#1390=FACE_BOUND('',#1389,.T.);
#1391=ADVANCED_FACE('',(#1390),#1364,.T.);
#1392=CARTESIAN_POINT('',(69.000001431,2.,0.));
#1393=DIRECTION('',(0.,1.,0.));
#1394=DIRECTION('',(-1.,0.,0.));
#1395=AXIS2_PLACEMENT_3D('',#1392,#1393,#1394);
#1396=PLANE('',#1395);
#1397=CARTESIAN_POINT('',(69.000001431,2.,0.));
#1398=VERTEX_POINT('',#1397);
#1399=CARTESIAN_POINT('',(64.000000954,2.,0.));
#1400=DIRECTION('',(1.,0.,-0.));
#1401=VECTOR('',#1400,5.000000477);
#1402=LINE('',#1399,#1401);
#1403=EDGE_CURVE('',#1368,#1398,#1402,.T.);
#1404=ORIENTED_EDGE('',*,*,#1403,.F.);
#1405=ORIENTED_EDGE('',*,*,#1387,.T.);
#1406=ORIENTED_EDGE('',*,*,#593,.F.);
#1407=CARTESIAN_POINT('',(69.000001431,2.,0.));
#1408=DIRECTION('',(0.,0.,1.));
#1409=VECTOR('',#1408,87.);
#1410=LINE('',#1407,#1409);
#1411=EDGE_CURVE('',#1398,#580,#1410,.T.);
#1412=ORIENTED_EDGE('',*,*,#1411,.F.);
#1413=EDGE_LOOP('',(#1404,#1405,#1406,#1412));
#1414=FACE_BOUND('',#1413,.T.);
#1415=ADVANCED_FACE('',(#1414),#1396,.T.);
#1416=CARTESIAN_POINT('',(69.000001431,0.,0.));
#1417=DIRECTION('',(1.,0.,0.));
#1418=DIRECTION('',(0.,1.,0.));
#1419=AXIS2_PLACEMENT_3D('',#1416,#1417,#1418);
#1420=PLANE('',#1419);
#1421=CARTESIAN_POINT('',(69.000001431,-0.,0.));
#1422=VERTEX_POINT('',#1421);
#1423=CARTESIAN_POINT('',(69.000001431,2.,0.));
#1424=DIRECTION('',(-0.,-1.,-0.));
#1425=VECTOR('',#1424,2.);
#1426=LINE('',#1423,#1425);
#1427=EDGE_CURVE('',#1398,#1422,#1426,.T.);
#1428=ORIENTED_EDGE('',*,*,#1427,.F.);
#1429=ORIENTED_EDGE('',*,*,#1411,.T.);
#1430=ORIENTED_EDGE('',*,*,#585,.F.);
#1431=CARTESIAN_POINT('',(69.000001431,-0.,0.));
#1432=DIRECTION('',(0.,0.,1.));
#1433=VECTOR('',#1432,87.);
#1434=LINE('',#1431,#1433);
#1435=EDGE_CURVE('',#1422,#572,#1434,.T.);
#1436=ORIENTED_EDGE('',*,*,#1435,.F.);
#1437=EDGE_LOOP('',(#1428,#1429,#1430,#1436));
#1438=FACE_BOUND('',#1437,.T.);
#1439=ADVANCED_FACE('',(#1438),#1420,.T.);
#1440=CARTESIAN_POINT('',(56.000001431,0.,0.));
#1441=DIRECTION('',(-0.,-1.,0.));
#1442=DIRECTION('',(1.,-0.,0.));
#1443=AXIS2_PLACEMENT_3D('',#1440,#1441,#1442);
#1444=PLANE('',#1443);
#1445=CARTESIAN_POINT('',(56.000001431,0.,0.));
#1446=VERTEX_POINT('',#1445);
#1447=CARTESIAN_POINT('',(69.000001431,0.,0.));
#1448=DIRECTION('',(-1.,-0.,0.));
#1449=VECTOR('',#1448,13.);
#1450=LINE('',#1447,#1449);
#1451=EDGE_CURVE('',#1422,#1446,#1450,.T.);
#1452=ORIENTED_EDGE('',*,*,#1451,.F.);
#1453=ORIENTED_EDGE('',*,*,#1435,.T.);
#1454=ORIENTED_EDGE('',*,*,#577,.F.);
#1455=CARTESIAN_POINT('',(56.000001431,0.,0.));
#1456=DIRECTION('',(0.,0.,1.));
#1457=VECTOR('',#1456,87.);
#1458=LINE('',#1455,#1457);
#1459=EDGE_CURVE('',#1446,#564,#1458,.T.);
#1460=ORIENTED_EDGE('',*,*,#1459,.F.);
#1461=EDGE_LOOP('',(#1452,#1453,#1454,#1460));
#1462=FACE_BOUND('',#1461,.T.);
#1463=ADVANCED_FACE('',(#1462),#1444,.T.);
#1464=CARTESIAN_POINT('',(56.000001431,2.,0.));
#1465=DIRECTION('',(-1.,0.,0.));
#1466=DIRECTION('',(0.,-1.,0.));
#1467=AXIS2_PLACEMENT_3D('',#1464,#1465,#1466);
#1468=PLANE('',#1467);
#1469=CARTESIAN_POINT('',(56.000001431,2.,0.));
#1470=VERTEX_POINT('',#1469);
#1471=CARTESIAN_POINT('',(56.000001431,0.,0.));
#1472=DIRECTION('',(0.,1.,0.));
#1473=VECTOR('',#1472,2.);
#1474=LINE('',#1471,#1473);
#1475=EDGE_CURVE('',#1446,#1470,#1474,.T.);
#1476=ORIENTED_EDGE('',*,*,#1475,.F.);
#1477=ORIENTED_EDGE('',*,*,#1459,.T.);
#1478=ORIENTED_EDGE('',*,*,#569,.F.);
#1479=CARTESIAN_POINT('',(56.000001431,2.,0.));
#1480=DIRECTION('',(0.,0.,1.));
#1481=VECTOR('',#1480,87.);
#1482=LINE('',#1479,#1481);
#1483=EDGE_CURVE('',#1470,#556,#1482,.T.);
#1484=ORIENTED_EDGE('',*,*,#1483,.F.);
#1485=EDGE_LOOP('',(#1476,#1477,#1478,#1484));
#1486=FACE_BOUND('',#1485,.T.);
#1487=ADVANCED_FACE('',(#1486),#1468,.T.);
#1488=CARTESIAN_POINT('',(62.000000954,2.,0.));
#1489=DIRECTION('',(0.,1.,0.));
#1490=DIRECTION('',(-1.,0.,0.));
#1491=AXIS2_PLACEMENT_3D('',#1488,#1489,#1490);
#1492=PLANE('',#1491);
#1493=CARTESIAN_POINT('',(62.000000954,2.,0.));
#1494=VERTEX_POINT('',#1493);
#1495=CARTESIAN_POINT('',(56.000001431,2.,0.));
#1496=DIRECTION('',(1.,0.,-0.));
#1497=VECTOR('',#1496,5.999999523);
#1498=LINE('',#1495,#1497);
#1499=EDGE_CURVE('',#1470,#1494,#1498,.T.);
#1500=ORIENTED_EDGE('',*,*,#1499,.F.);
#1501=ORIENTED_EDGE('',*,*,#1483,.T.);
#1502=ORIENTED_EDGE('',*,*,#561,.F.);
#1503=CARTESIAN_POINT('',(62.000000954,2.,0.));
#1504=DIRECTION('',(0.,0.,1.));
#1505=VECTOR('',#1504,87.);
#1506=LINE('',#1503,#1505);
#1507=EDGE_CURVE('',#1494,#548,#1506,.T.);
#1508=ORIENTED_EDGE('',*,*,#1507,.F.);
#1509=EDGE_LOOP('',(#1500,#1501,#1502,#1508));
#1510=FACE_BOUND('',#1509,.T.);
#1511=ADVANCED_FACE('',(#1510),#1492,.T.);
#1512=CARTESIAN_POINT('',(62.000000954,50.000000745,0.));
#1513=DIRECTION('',(-1.,0.,0.));
#1514=DIRECTION('',(0.,-1.,0.));
#1515=AXIS2_PLACEMENT_3D('',#1512,#1513,#1514);
#1516=PLANE('',#1515);
#1517=CARTESIAN_POINT('',(62.000000954,50.000000745,0.));
#1518=VERTEX_POINT('',#1517);
#1519=CARTESIAN_POINT('',(62.000000954,2.,0.));
#1520=DIRECTION('',(0.,1.,0.));
#1521=VECTOR('',#1520,48.000000745);
#1522=LINE('',#1519,#1521);
#1523=EDGE_CURVE('',#1494,#1518,#1522,.T.);
#1524=ORIENTED_EDGE('',*,*,#1523,.F.);
#1525=ORIENTED_EDGE('',*,*,#1507,.T.);
#1526=ORIENTED_EDGE('',*,*,#553,.F.);
#1527=ORIENTED_EDGE('',*,*,#244,.F.);
#1528=CARTESIAN_POINT('',(62.000000954,50.000000745,0.));
#1529=DIRECTION('',(0.,0.,1.));
#1530=VECTOR('',#1529,2.);
#1531=LINE('',#1528,#1530);
#1532=EDGE_CURVE('',#1518,#231,#1531,.T.);
#1533=ORIENTED_EDGE('',*,*,#1532,.F.);
#1534=EDGE_LOOP('',(#1524,#1525,#1526,#1527,#1533));
#1535=FACE_BOUND('',#1534,.T.);
#1536=ADVANCED_FACE('',(#1535),#1516,.T.);
#1537=CARTESIAN_POINT('',(64.000000954,50.000000745,0.));
#1538=DIRECTION('',(0.,1.,0.));
#1539=DIRECTION('',(-1.,0.,0.));
#1540=AXIS2_PLACEMENT_3D('',#1537,#1538,#1539);
#1541=PLANE('',#1540);
#1542=ORIENTED_EDGE('',*,*,#1090,.T.);
#1543=ORIENTED_EDGE('',*,*,#1379,.F.);
#1544=CARTESIAN_POINT('',(62.000000954,50.000000745,0.));
#1545=DIRECTION('',(1.,0.,-0.));
#1546=VECTOR('',#1545,2.);
#1547=LINE('',#1544,#1546);
#1548=EDGE_CURVE('',#1518,#1366,#1547,.T.);
#1549=ORIENTED_EDGE('',*,*,#1548,.F.);
#1550=ORIENTED_EDGE('',*,*,#1532,.T.);
#1551=EDGE_LOOP('',(#1542,#1543,#1549,#1550));
#1552=FACE_BOUND('',#1551,.T.);
#1553=ADVANCED_FACE('',(#1552),#1541,.T.);
#1554=CARTESIAN_POINT('',(62.500001431,25.000000373,0.));
#1555=DIRECTION('',(0.,0.,1.));
#1556=DIRECTION('',(1.,0.,0.));
#1557=AXIS2_PLACEMENT_3D('',#1554,#1555,#1556);
#1558=PLANE('',#1557);
#1559=ORIENTED_EDGE('',*,*,#1548,.T.);
#1560=ORIENTED_EDGE('',*,*,#1373,.T.);
#1561=ORIENTED_EDGE('',*,*,#1403,.T.);
#1562=ORIENTED_EDGE('',*,*,#1427,.T.);
#1563=ORIENTED_EDGE('',*,*,#1451,.T.);
#1564=ORIENTED_EDGE('',*,*,#1475,.T.);
#1565=ORIENTED_EDGE('',*,*,#1499,.T.);
#1566=ORIENTED_EDGE('',*,*,#1523,.T.);
#1567=EDGE_LOOP('',(#1559,#1560,#1561,#1562,#1563,#1564,#1565,#1566));
#1568=FACE_BOUND('',#1567,.T.);
#1569=ADVANCED_FACE('',(#1568),#1558,.F.);
#1570=CARTESIAN_POINT('',(96.027444254,50.000000745,2.));
#1571=DIRECTION('',(1.,0.,0.));
#1572=DIRECTION('',(0.,1.,0.));
#1573=AXIS2_PLACEMENT_3D('',#1570,#1571,#1572);
#1574=PLANE('',#1573);
#1575=ORIENTED_EDGE('',*,*,#1354,.F.);
#1576=ORIENTED_EDGE('',*,*,#1112,.T.);
#1577=ORIENTED_EDGE('',*,*,#665,.F.);
#1578=ORIENTED_EDGE('',*,*,#1179,.F.);
#1579=EDGE_LOOP('',(#1575,#1576,#1577,#1578));
#1580=FACE_BOUND('',#1579,.T.);
#1581=ADVANCED_FACE('',(#1580),#1574,.T.);
#1582=CARTESIAN_POINT('',(0.027444254,26.,2.));
#1583=DIRECTION('',(0.,0.,1.));
#1584=DIRECTION('',(-0.,1.,0.));
#1585=AXIS2_PLACEMENT_3D('',#1582,#1583,#1584);
#1586=CYLINDRICAL_SURFACE('',#1585,26.);
#1587=ORIENTED_EDGE('',*,*,#779,.T.);
#1588=ORIENTED_EDGE('',*,*,#682,.F.);
#1589=ORIENTED_EDGE('',*,*,#1149,.F.);
#1590=ORIENTED_EDGE('',*,*,#1060,.T.);
#1591=EDGE_LOOP('',(#1587,#1588,#1589,#1590));
#1592=FACE_BOUND('',#1591,.T.);
#1593=ADVANCED_FACE('',(#1592),#1586,.T.);
#1594=CLOSED_SHELL('',(#254,#294,#325,#356,#387,#426,#455,#487,#509,#525,#743,#767,#814,#852,#883,#920,#945,#969,#993,#1010,#1026,#1044,#1099,#1153,#1184,#1215,
#1246,#1270,#1294,#1311,#1325,#1342,#1359,#1391,#1415,#1439,#1463,#1487,#1511,#1536,#1553,#1569,#1581,#1593));
#1595=MANIFOLD_SOLID_BREP('Body3',#1594);
#214=STYLED_ITEM('',(#213),#1595);
#35=SHAPE_REPRESENTATION('Glasses and 3 lenses v5.step',(#15),#33);
#36=ADVANCED_BREP_SHAPE_REPRESENTATION('Glasses and 3 lenses v5.step',(#206,#1595),#33);
#1603=SHAPE_REPRESENTATION_RELATIONSHIP('','',#35,#36);
#1604=CARTESIAN_POINT('',(0.,0.,0.));
#1605=DIRECTION('',(0.,0.,1.));
#1606=DIRECTION('',(1.,0.,0.));
#1607=AXIS2_PLACEMENT_3D('',#1604,#1605,#1606);
#1609=MAPPED_ITEM('',#1608,#1607);
#1608=REPRESENTATION_MAP(#1607,#35);
#1610=APPLICATION_CONTEXT('Managed model based 3d engineering');
#1611=APPLICATION_PROTOCOL_DEFINITION('international standard','ap242_managed_model_based_3d_engineering',2014,#1610);
#1612=PRODUCT_CONTEXT('',#1610,'mechanical');
#1613=PRODUCT_DEFINITION_CONTEXT('part definition',#1610,'design');
#43=PRODUCT('Glasses and 3 lenses v5.step','Glasses and 3 lenses v5.step','',(#1612));
#1614=PRODUCT_RELATED_PRODUCT_CATEGORY('part','',(#43));
#1615=PRODUCT_DEFINITION_FORMATION_WITH_SPECIFIED_SOURCE('','',#43,.NOT_KNOWN.);
#44=PRODUCT_DEFINITION('design','',#1615,#1613);
#42=PRODUCT_DEFINITION_SHAPE('','',#44);
#1616=SHAPE_DEFINITION_REPRESENTATION(#42,#35);
#34=DRAUGHTING_MODEL('',(#1609),#33);
#16=SHAPE_REPRESENTATION('root',(#15,#48),#10);
#1617=CARTESIAN_POINT('',(0.,0.,0.));
#1618=DIRECTION('',(0.,0.,1.));
#1619=DIRECTION('',(1.,0.,0.));
#1620=AXIS2_PLACEMENT_3D('',#1617,#1618,#1619);
#1622=MAPPED_ITEM('',#1621,#1620);
#1621=REPRESENTATION_MAP(#1620,#16);
#24=PRODUCT('root','root','',(#1612));
#1623=PRODUCT_RELATED_PRODUCT_CATEGORY('part','',(#24));
#1624=PRODUCT_DEFINITION_FORMATION_WITH_SPECIFIED_SOURCE('','',#24,.NOT_KNOWN.);
#25=PRODUCT_DEFINITION('design','',#1624,#1613);
#23=PRODUCT_DEFINITION_SHAPE('','',#25);
#1625=SHAPE_DEFINITION_REPRESENTATION(#23,#16);
#11=DRAUGHTING_MODEL('',(#1622),#10);
#1626=DESCRIPTIVE_REPRESENTATION_ITEM('KEY','/Users/tdbell11/Library/Containers/com.shapr3d.shapr/Data/tmp/3CA5840B-7874-4923-8BA0-4EC530D3DCBA.tmp');
#1627=PROPERTY_DEFINITION('KEY','',#25);
#1628=REPRESENTATION('',(#1626),#10);
#1629=PROPERTY_DEFINITION_REPRESENTATION(#1627,#1628);
#1630=GENERAL_PROPERTY('','KEY','');
#1631=GENERAL_PROPERTY_ASSOCIATION('','',#1630,#1627);
#1=MECHANICAL_DESIGN_GEOMETRIC_PRESENTATION_REPRESENTATION('',(#54,#214),#10);
ENDSEC;
END-ISO-10303-21;
